<svg xmlns="http://www.w3.org/2000/svg" width="500" height="500" viewBox="0 0 500 500">
<g>
<path d="M 283.50 487.48 C273.76,488.97 242.52,490.21 234.50,489.42 C199.55,486.01 173.34,478.83 145.50,465.04 C73.41,429.34 25.59,363.84 13.34,284.00 C10.87,267.89 10.85,231.96 13.31,216.00 C16.95,192.34 24.47,167.37 33.81,147.97 C69.03,74.76 135.33,25.64 215.50,13.37 C232.04,10.84 268.48,10.81 285.50,13.32 C371.97,26.06 444.40,84.85 474.82,167.00 C504.03,245.90 489.74,333.88 436.95,400.00 C429.08,409.86 408.63,430.17 398.50,438.19 C365.51,464.31 326.92,480.84 283.50,487.48 ZM 224.00 225.10 C234.21,227.37 253.02,227.11 262.50,224.57 C276.09,220.94 287.95,213.01 289.60,206.48 C291.37,199.39 286.45,191.75 277.09,187.07 C274.01,185.53 264.75,182.14 256.51,179.53 C239.10,174.02 233.27,171.30 229.63,166.97 C220.86,156.55 229.22,146.49 250.70,141.63 C258.50,139.86 273.00,139.42 273.00,140.94 C273.00,141.46 267.94,143.47 261.75,145.41 C250.79,148.84 246.00,151.16 246.00,153.03 C246.00,155.23 252.08,157.43 270.74,162.01 C299.57,169.08 307.77,172.56 317.17,181.72 C320.11,184.58 322.41,186.06 323.36,185.69 C326.04,184.66 327.25,177.88 327.74,161.25 C328.46,136.35 327.23,131.73 315.65,115.50 C303.44,98.39 289.10,85.33 274.01,77.58 C263.43,72.15 256.66,70.61 245.87,71.18 C234.94,71.75 229.33,74.70 213.43,88.26 C183.29,113.95 174.41,126.81 171.46,149.00 C169.39,164.57 179.87,199.70 189.29,208.78 C196.69,215.91 209.32,221.85 224.00,225.10 ZM 89.90 375.30 C91.33,375.52 100.84,375.77 111.03,375.85 L 129.55 376.00 L 136.53 370.45 C143.06,365.25 145.91,363.38 147.14,360.75 C148.30,358.25 148.00,355.08 148.00,347.76 C147.99,340.47 147.70,328.08 147.34,320.24 L 146.69 305.97 L 138.09 300.46 L 129.50 294.95 L 116.50 295.50 C109.35,295.81 99.27,296.31 94.10,296.63 L 84.70 297.21 L 85.36 317.85 C85.73,329.21 86.32,346.69 86.67,356.70 L 87.30 374.90 ZM 296.37 375.23 C296.99,375.64 306.50,375.96 317.50,375.95 L 337.50 375.94 L 346.50 368.69 L 355.50 361.45 L 355.83 352.97 C356.01,348.31 355.85,335.88 355.47,325.33 L 354.79 306.17 L 346.14 300.54 L 337.50 294.91 L 324.50 295.48 C317.35,295.79 307.34,296.30 302.25,296.61 L 293.00 297.19 L 292.99 303.34 C292.97,323.75 295.36,374.58 296.37,375.23 ZM 211.57 379.11 C212.03,379.86 223.09,379.42 229.90,378.37 L 233.30 377.85 L 232.67 366.68 C232.32,360.53 231.73,351.72 231.36,347.09 C230.87,341.03 230.99,338.88 231.79,339.37 C232.40,339.75 237.27,347.05 242.61,355.60 C247.95,364.15 253.75,372.23 255.50,373.57 C258.47,375.83 259.52,376.00 270.68,376.00 L 282.68 376.00 L 283.34 351.84 C283.70,338.55 284.00,320.77 284.00,312.34 L 284.00 297.00 L 279.75 297.11 C277.41,297.17 272.58,297.73 269.00,298.36 L 262.50 299.50 L 261.85 319.32 C261.49,330.22 260.98,339.35 260.72,339.62 C260.45,339.88 258.77,337.72 256.98,334.80 C255.19,331.89 249.43,322.83 244.18,314.68 L 234.64 299.85 L 226.07 300.46 C221.36,300.79 215.56,301.31 213.20,301.60 L 208.90 302.14 L 209.47 333.82 C210.04,364.96 210.62,377.58 211.57,379.11 ZM 157.80 379.66 C158.89,380.75 160.47,381.02 163.41,380.60 C167.31,380.05 181.07,378.70 196.76,377.34 C200.75,376.99 204.67,376.21 205.46,375.60 C206.28,374.97 207.03,372.35 207.20,369.50 L 207.50 364.50 L 194.50 363.75 C187.35,363.33 180.98,362.80 180.34,362.56 C179.12,362.11 175.54,351.13 176.35,350.32 C176.60,350.06 179.33,349.51 182.41,349.09 C185.48,348.68 188.29,348.04 188.64,347.69 C189.64,346.69 190.32,337.41 189.60,334.55 C189.01,332.18 188.55,332.00 183.10,332.00 C176.25,332.00 174.97,330.95 174.27,324.70 L 173.78 320.39 L 189.55 319.25 C200.18,318.48 205.57,317.69 206.10,316.83 C207.05,315.30 206.68,303.90 205.62,302.20 C205.08,301.32 198.06,301.00 178.94,301.00 L 153.00 301.00 L 153.02 309.25 C153.05,316.79 153.78,332.86 155.60,365.82 C156.09,374.80 156.69,378.55 157.80,379.66 ZM 364.20 379.38 C365.08,381.01 366.00,381.18 371.35,380.64 C374.73,380.31 384.02,379.57 392.00,379.00 C399.98,378.43 408.41,377.72 410.75,377.42 C414.92,376.89 415.00,376.81 415.00,373.00 C415.00,364.65 414.52,364.31 401.82,363.54 C395.59,363.17 389.67,362.62 388.66,362.33 C386.66,361.76 383.57,355.50 384.53,353.96 C384.85,353.43 387.08,353.00 389.48,353.00 C396.79,353.00 397.00,352.75 397.00,344.00 C397.00,335.16 396.85,335.00 388.95,335.00 C383.49,335.00 381.62,333.12 382.19,328.20 L 382.50 325.50 L 397.87 324.33 C406.32,323.69 413.68,322.72 414.22,322.18 C414.85,321.55 414.90,318.53 414.36,313.84 L 413.50 306.50 L 388.92 306.23 C365.39,305.98 364.26,306.05 362.52,307.98 C360.78,309.90 360.76,311.52 361.95,343.74 C362.64,362.31 363.65,378.34 364.20,379.38 ZM 160.98 291.19 C163.04,292.85 164.32,293.08 168.48,292.54 C171.24,292.17 173.88,291.50 174.34,291.05 C174.80,290.59 175.03,287.24 174.84,283.61 C174.65,279.97 174.83,277.00 175.24,277.00 C175.64,277.00 177.31,279.64 178.94,282.87 C183.34,291.60 185.68,291.70 187.94,283.25 C188.57,280.91 189.25,279.00 189.47,279.00 C189.68,279.00 190.37,281.47 191.00,284.48 C192.06,289.59 192.38,290.03 195.82,291.06 C198.47,291.85 200.29,291.85 202.34,291.07 C204.93,290.08 205.12,289.66 204.58,286.24 C204.25,284.18 203.30,275.98 202.45,268.00 C201.61,260.02 200.68,252.71 200.39,251.75 C199.97,250.35 198.72,250.00 194.09,250.00 C187.75,250.00 186.34,250.95 184.03,256.77 C183.32,258.57 182.34,260.29 181.85,260.59 C181.36,260.90 179.85,258.64 178.49,255.57 L 176.03 250.00 L 157.88 250.00 L 158.19 269.59 C158.50,289.07 158.51,289.19 160.98,291.19 ZM 223.25 286.85 C224.56,288.16 231.71,287.54 233.38,285.97 C233.86,285.52 234.06,281.06 233.82,276.07 C233.58,271.08 233.64,267.01 233.94,267.02 C234.25,267.04 236.46,270.19 238.86,274.03 C244.84,283.60 247.88,286.00 254.04,286.00 C257.85,286.00 259.16,285.57 259.96,284.07 C260.57,282.93 261.00,274.30 261.00,263.07 L 261.00 244.00 L 256.75 244.02 C249.94,244.04 249.56,244.63 249.00,256.12 L 248.50 266.32 L 242.50 256.52 C239.20,251.12 235.79,246.26 234.92,245.72 C233.99,245.13 231.01,245.02 227.67,245.44 L 222.00 246.14 L 222.00 265.87 C222.00,280.29 222.34,285.94 223.25,286.85 ZM 350.76 282.75 C351.78,283.54 355.73,284.00 361.47,284.00 C371.04,284.00 372.44,283.51 378.25,278.16 C380.98,275.64 381.00,275.54 381.00,262.45 C381.00,250.86 380.76,248.97 379.03,246.77 C375.85,242.72 372.44,241.91 359.96,242.22 L 348.50 242.50 L 348.82 262.00 C349.09,278.57 349.38,281.69 350.76,282.75 ZM 308.26 283.97 C309.49,284.47 313.73,284.90 317.68,284.94 C331.76,285.06 333.30,282.88 332.83,263.43 C332.41,246.34 332.27,246.16 318.58,244.71 C302.98,243.05 302.00,244.18 302.00,263.82 C302.01,274.74 302.29,276.96 304.01,279.78 C305.11,281.59 307.02,283.48 308.26,283.97 ZM 390.22 283.44 C391.78,284.53 394.80,285.00 400.27,285.00 C408.43,285.00 413.23,283.45 414.38,280.46 C414.72,279.56 415.00,272.40 415.00,264.53 C415.00,254.27 415.01,249.73 412.75,247.47 C410.93,245.66 407.65,245.31 401.73,244.67 C386.06,242.97 385.00,244.17 385.00,263.61 C385.00,276.95 385.91,280.43 390.22,283.44 ZM 89.00 282.69 C90.93,283.35 97.81,283.91 104.30,283.94 C115.58,284.00 116.20,283.89 118.59,281.50 C120.81,279.28 121.06,278.29 120.80,272.75 C120.53,267.05 120.29,266.47 118.15,266.17 C114.00,265.58 111.26,266.90 109.14,270.49 C107.71,272.91 106.34,274.00 104.73,274.00 C100.82,274.00 100.00,272.17 100.00,263.42 C100.00,252.94 101.11,251.68 107.59,254.83 C113.50,257.70 116.55,257.61 118.59,254.50 C120.85,251.05 119.78,245.40 116.72,244.67 C115.50,244.38 109.52,243.84 103.43,243.46 C91.15,242.69 86.55,243.92 85.48,248.27 C85.18,249.50 85.06,257.48 85.21,266.00 L 85.50 281.50 ZM 145.08 287.07 C145.86,287.57 147.10,287.76 147.83,287.49 C148.56,287.22 149.94,287.00 150.89,287.00 C151.84,287.00 153.42,286.41 154.40,285.70 C156.09,284.46 156.02,283.66 153.04,269.45 C151.31,261.23 149.64,253.15 149.32,251.50 C148.47,247.02 146.47,246.00 138.53,246.00 C126.02,246.00 123.78,249.35 123.19,269.00 C122.82,281.54 122.93,282.63 124.80,284.32 C126.12,285.51 127.97,286.03 130.15,285.82 C132.90,285.56 133.86,284.79 135.57,281.50 C137.12,278.50 138.24,277.50 140.07,277.50 C142.18,277.50 142.58,278.07 143.08,281.83 C143.40,284.22 144.30,286.58 145.08,287.07 ZM 268.41 286.03 C274.65,288.55 278.10,286.25 278.48,279.28 C278.82,273.27 279.44,272.00 282.08,272.00 C284.20,272.00 286.00,275.46 286.00,279.53 C286.00,282.42 288.61,284.00 293.36,284.00 C297.76,284.00 300.27,281.64 299.61,278.13 C299.34,276.68 298.84,269.42 298.50,262.00 C297.95,249.94 297.81,246.43 296.15,245.42 C295.45,244.98 294.46,245.00 293.06,245.00 C288.18,245.00 287.23,246.25 286.93,253.00 C286.62,259.88 285.58,262.00 282.52,262.00 C279.54,262.00 278.93,261.03 277.54,254.06 L 276.43 248.50 L 272.14 248.19 C269.78,248.02 267.21,248.41 266.43,249.06 C264.82,250.39 264.57,258.92 265.66,275.34 C266.24,284.07 266.55,285.28 268.41,286.03 ZM 356.19 298.52 L 358.39 301.31 L 382.41 300.65 C399.60,300.18 406.76,299.64 407.59,298.75 C408.23,298.06 409.00,295.81 409.31,293.75 L 409.87 290.00 L 383.52 290.00 C369.02,290.00 356.45,290.27 355.58,290.61 C353.33,291.47 353.63,295.25 356.19,298.52 ZM 122.61 334.86 L 122.19 352.50 L 118.85 352.71 C115.06,352.94 111.00,351.29 111.00,349.51 C111.00,348.85 110.11,340.31 109.03,330.52 C107.95,320.72 107.30,312.33 107.59,311.86 C107.88,311.39 110.16,311.00 112.66,311.00 C116.45,311.00 117.68,311.51 120.11,314.11 L 123.02 317.23 ZM 329.77 334.42 L 329.50 352.50 L 325.41 352.80 C322.93,352.98 320.92,352.59 320.30,351.80 C319.74,351.08 318.75,344.20 318.10,336.50 C317.45,328.80 316.66,319.91 316.33,316.75 L 315.74 311.00 L 320.42 311.00 C324.20,311.00 325.57,311.51 327.57,313.67 C330.04,316.33 330.04,316.40 329.77,334.42 ZM 208.44 285.71 C208.72,286.42 210.26,287.00 211.89,287.00 C217.99,287.00 218.01,286.95 217.91,273.14 C217.86,266.19 217.53,258.25 217.16,255.50 L 216.50 250.50 L 208.50 250.50 L 208.22 267.46 C208.07,276.79 208.17,285.01 208.44,285.71 ZM 262.67 422.33 C264.33,423.99 266.00,422.82 266.00,420.00 C266.00,418.35 266.42,417.00 266.92,417.00 C267.43,417.00 269.20,418.35 270.85,420.00 C274.20,423.36 275.78,423.75 276.66,421.44 C277.03,420.48 276.43,419.29 275.11,418.37 L 272.96 416.86 L 274.98 414.30 C279.43,408.64 276.07,404.00 267.50,404.00 L 262.00 404.00 L 262.00 412.83 C262.00,417.69 262.30,421.97 262.67,422.33 ZM 134.69 422.35 C135.98,423.65 137.50,422.35 137.82,419.67 C138.16,416.74 139.72,416.12 140.65,418.54 C140.98,419.38 142.60,420.77 144.25,421.63 C146.75,422.92 147.41,422.96 148.13,421.84 C148.72,420.93 148.18,419.84 146.46,418.44 L 143.93 416.37 L 145.97 414.53 C148.43,412.30 148.60,408.32 146.35,405.83 C145.13,404.49 143.25,404.00 139.35,404.00 L 134.00 404.00 L 134.00 412.83 C134.00,417.69 134.31,421.98 134.69,422.35 ZM 309.67 422.33 C310.03,422.70 310.93,423.00 311.67,423.00 C312.60,423.00 313.00,421.50 313.00,418.00 C313.00,415.25 313.34,413.01 313.75,413.02 C314.16,413.03 315.98,415.31 317.80,418.08 C319.98,421.42 321.67,423.02 322.80,422.80 C324.23,422.53 324.55,421.00 324.79,413.24 C325.06,404.52 324.96,404.00 323.04,404.00 C321.29,404.00 321.00,404.64 321.00,408.50 C321.00,410.98 320.57,413.00 320.05,413.00 C319.52,413.00 317.70,410.98 316.00,408.50 C314.12,405.76 312.14,404.00 310.95,404.00 C309.16,404.00 309.00,404.74 309.00,412.83 C309.00,417.69 309.30,421.97 309.67,422.33 ZM 284.05 421.25 C283.98,423.60 286.16,423.47 288.27,421.00 C290.58,418.30 295.58,418.34 297.03,421.06 C298.11,423.08 301.71,423.44 301.29,421.49 C301.17,420.94 299.67,416.76 297.94,412.19 C295.04,404.50 294.61,403.91 292.22,404.19 C290.00,404.46 289.25,405.55 286.87,412.00 C285.35,416.12 284.08,420.29 284.05,421.25 ZM 214.62 422.19 C215.56,423.71 217.86,423.00 218.50,421.00 C218.98,419.48 220.01,419.00 222.83,419.00 C225.44,419.00 226.89,419.59 227.77,421.00 C228.97,422.92 231.99,423.81 232.01,422.25 C232.01,421.84 230.56,417.56 228.79,412.75 C225.88,404.87 225.30,404.00 222.99,404.00 C220.68,404.00 220.12,404.85 217.27,412.69 C215.54,417.47 214.34,421.74 214.62,422.19 ZM 242.36 421.83 C249.36,425.22 254.00,420.60 254.00,410.28 C254.00,404.28 253.89,404.00 251.54,404.00 C249.19,404.00 249.08,404.30 248.79,411.24 C248.56,416.98 248.16,418.54 246.87,418.79 C243.74,419.39 242.00,416.21 242.00,409.93 C242.00,404.67 241.78,404.00 240.00,404.00 C238.22,404.00 238.00,404.67 238.00,409.95 C238.00,416.78 239.31,420.35 242.36,421.83 ZM 156.71 422.38 C157.10,422.77 159.91,422.96 162.95,422.79 C167.20,422.57 168.55,422.11 168.80,420.81 C169.06,419.47 168.23,419.06 164.81,418.81 C159.48,418.43 158.67,415.68 163.75,415.19 C166.19,414.95 167.00,414.39 167.00,412.94 C167.00,411.39 166.30,411.00 163.50,411.00 C161.06,411.00 160.00,410.55 160.00,409.50 C160.00,408.42 161.11,408.00 164.00,408.00 C167.33,408.00 168.00,407.67 168.00,406.00 C168.00,404.22 167.33,404.00 162.00,404.00 L 156.00 404.00 L 156.00 412.83 C156.00,417.69 156.32,421.99 156.71,422.38 ZM 354.71 422.38 C355.10,422.77 357.91,422.96 360.95,422.79 C365.20,422.57 366.55,422.11 366.80,420.81 C367.06,419.47 366.23,419.06 362.82,418.81 C359.67,418.58 358.43,418.03 358.19,416.75 C357.91,415.31 358.59,415.00 362.00,415.00 C365.41,415.00 366.09,414.69 365.82,413.25 C365.58,412.03 364.36,411.41 361.74,411.19 C356.38,410.75 356.61,408.00 362.00,408.00 C365.33,408.00 366.00,407.67 366.00,406.00 C366.00,404.22 365.33,404.00 360.00,404.00 L 354.00 404.00 L 354.00 412.83 C354.00,417.69 354.32,421.99 354.71,422.38 ZM 179.01 421.71 C182.31,423.38 184.10,423.32 186.78,421.44 C188.18,420.46 189.00,418.85 189.00,417.07 C189.00,413.91 187.86,412.71 183.56,411.32 C181.95,410.80 180.43,409.78 180.18,409.05 C179.84,408.02 180.76,407.89 184.37,408.43 C189.36,409.18 189.93,408.68 187.35,405.83 C185.15,403.41 179.80,403.45 177.57,405.92 C174.17,409.68 176.64,413.41 184.50,416.37 C185.10,416.60 185.00,417.28 184.23,418.10 C183.20,419.18 182.56,419.21 180.99,418.22 C179.91,417.55 178.31,417.00 177.44,417.00 C175.04,417.00 176.12,420.25 179.01,421.71 ZM 367.79 262.75 C367.56,269.79 367.19,271.54 365.91,271.78 C363.26,272.29 361.81,269.38 360.93,261.76 C359.57,250.05 359.58,250.00 362.96,250.00 C367.18,250.00 368.13,252.51 367.79,262.75 ZM 337.64 420.80 C338.02,422.21 338.88,422.98 339.88,422.79 C341.16,422.54 341.56,420.97 341.79,415.24 C342.05,408.82 342.31,408.00 344.04,408.00 C345.33,408.00 346.00,407.32 346.00,406.00 C346.00,404.21 345.33,404.00 339.50,404.00 C333.67,404.00 333.00,404.21 333.00,406.00 C333.00,407.33 333.67,408.00 335.00,408.00 C336.74,408.00 337.00,408.67 337.01,413.25 C337.02,416.14 337.30,419.53 337.64,420.80 ZM 402.63 268.30 C401.35,272.70 398.49,274.44 397.36,271.50 C396.50,269.25 397.67,257.49 399.00,255.01 C399.65,253.79 401.09,253.00 402.65,253.00 C405.20,253.00 405.22,253.07 404.54,258.55 C404.16,261.60 403.30,265.99 402.63,268.30 ZM 318.75 271.75 C317.59,273.21 315.36,273.39 314.56,272.10 C313.51,270.39 315.28,255.86 316.73,254.42 C318.95,252.19 322.00,252.63 322.00,255.17 C322.00,259.10 319.77,270.48 318.75,271.75 ZM 201.69 422.35 C203.48,424.15 204.53,421.72 204.79,415.17 C205.08,408.30 205.19,408.00 207.54,408.00 C209.33,408.00 210.00,407.46 210.00,406.00 C210.00,404.19 209.33,404.00 203.00,404.00 C196.67,404.00 196.00,404.19 196.00,406.00 C196.00,407.47 196.67,408.00 198.50,408.00 C200.92,408.00 201.00,408.21 201.00,414.83 C201.00,418.59 201.31,421.98 201.69,422.35 ZM 142.00 263.86 C142.00,269.53 140.12,271.12 137.03,268.03 C135.45,266.45 135.27,265.53 136.04,262.87 C137.20,258.83 138.42,257.56 140.43,258.34 C141.56,258.77 142.00,260.31 142.00,263.86 ZM 271.82 410.25 C271.63,411.62 270.70,412.61 269.46,412.79 C267.00,413.14 266.00,412.29 266.00,409.83 C266.00,408.45 266.76,408.00 269.07,408.00 C271.68,408.00 272.09,408.34 271.82,410.25 ZM 142.90 412.09 C140.06,413.88 138.00,412.93 138.00,409.83 C138.00,408.54 138.74,408.00 140.53,408.00 C143.41,408.00 145.00,410.75 142.90,412.09 ZM 224.63 413.75 C225.07,415.38 224.80,416.00 223.68,416.00 C221.60,416.00 220.98,414.81 221.66,412.17 C222.19,410.15 223.98,409.07 224.01,410.75 C224.02,411.16 224.30,412.51 224.63,413.75 ZM 293.98 414.25 C293.99,415.21 293.40,416.00 292.67,416.00 C290.48,416.00 290.07,414.94 291.24,412.37 C292.42,409.78 293.95,410.82 293.98,414.25 Z" fill="rgba(27,7,7,1)"/>
<path d="M 224.00 225.10 C209.32,221.85 196.69,215.91 189.29,208.78 C179.87,199.70 169.39,164.57 171.46,149.00 C174.41,126.81 183.29,113.95 213.43,88.26 C229.33,74.70 234.94,71.75 245.87,71.18 C256.66,70.61 263.43,72.15 274.01,77.58 C289.10,85.33 303.44,98.39 315.65,115.50 C327.23,131.73 328.46,136.35 327.74,161.25 C327.25,177.88 326.04,184.66 323.36,185.69 C322.41,186.06 320.11,184.58 317.17,181.72 C309.23,173.99 302.15,170.30 282.78,165.09 C289.11,166.77 294.30,168.26 296.15,168.96 C299.09,170.08 301.59,171.00 301.71,171.00 C301.82,171.00 303.06,169.05 304.45,166.67 C317.52,144.38 310.59,116.26 288.23,100.83 C278.76,94.29 265.29,92.24 253.94,95.61 C232.48,101.98 202.54,125.37 194.58,141.98 C192.09,147.18 191.00,150.82 191.01,153.97 C191.06,173.18 208.85,198.23 227.33,205.14 C231.50,206.70 234.23,206.98 241.50,206.60 C251.94,206.05 260.23,203.59 271.00,197.84 C279.34,193.38 282.22,191.17 281.41,189.85 C281.31,189.69 281.15,189.51 280.93,189.32 C287.76,193.99 291.11,200.44 289.60,206.48 C287.95,213.01 276.09,220.94 262.50,224.57 C253.02,227.11 234.21,227.37 224.00,225.10 ZM 273.42 185.48 C274.99,186.11 276.26,186.66 277.09,187.07 C277.25,187.15 277.41,187.23 277.57,187.31 C276.41,186.75 275.02,186.14 273.42,185.48 ZM 271.20 162.12 C271.05,162.08 270.89,162.05 270.74,162.01 C255.21,158.20 248.40,156.03 246.55,154.15 C248.40,156.03 255.23,158.20 270.82,162.03 C270.95,162.06 271.07,162.09 271.20,162.12 Z" fill="rgba(147,54,40,1)"/>
<path d="M 227.33 205.14 C208.85,198.23 191.06,173.18 191.01,153.97 C191.00,150.82 192.09,147.18 194.58,141.98 C202.54,125.37 232.48,101.98 253.94,95.61 C265.29,92.24 278.76,94.29 288.23,100.83 C310.59,116.26 317.52,144.38 304.45,166.67 C303.06,169.05 301.82,171.00 301.71,171.00 C301.59,171.00 299.09,170.08 296.15,168.96 C293.44,167.94 283.59,165.22 273.48,162.69 L 287.45 166.05 L 289.23 163.78 C290.20,162.52 292.24,159.02 293.75,156.00 C297.40,148.69 297.54,137.96 294.08,130.78 C288.10,118.36 275.31,110.00 262.30,110.00 C244.28,110.00 221.23,125.26 212.91,142.70 C208.75,151.41 208.32,160.95 211.77,168.04 C216.12,177.00 225.09,184.01 235.50,186.59 C242.34,188.29 246.74,188.26 254.38,186.49 C262.63,184.58 264.16,183.98 263.77,182.81 C263.60,182.29 258.29,180.17 251.98,178.10 C238.16,173.57 233.16,171.10 229.73,167.09 C233.38,171.35 239.25,174.07 256.51,179.53 C270.87,184.07 280.24,187.95 281.41,189.85 C282.22,191.17 279.34,193.38 271.00,197.84 C260.23,203.59 251.94,206.05 241.50,206.60 C234.23,206.98 231.50,206.70 227.33,205.14 ZM 262.67 422.33 C262.30,421.97 262.00,417.69 262.00,412.83 L 262.00 404.00 L 267.50 404.00 C276.07,404.00 279.43,408.64 274.98,414.30 L 272.96 416.86 L 275.11 418.37 C276.43,419.29 277.03,420.48 276.66,421.44 C275.78,423.75 274.20,423.36 270.85,420.00 C269.20,418.35 267.43,417.00 266.92,417.00 C266.42,417.00 266.00,418.35 266.00,420.00 C266.00,422.82 264.33,423.99 262.67,422.33 ZM 134.69 422.35 C134.31,421.98 134.00,417.69 134.00,412.83 L 134.00 404.00 L 139.35 404.00 C143.25,404.00 145.13,404.49 146.35,405.83 C148.60,408.32 148.43,412.30 145.97,414.53 L 143.93 416.37 L 146.46 418.44 C148.18,419.84 148.72,420.93 148.13,421.84 C147.41,422.96 146.75,422.92 144.25,421.63 C142.60,420.77 140.98,419.38 140.65,418.54 C139.72,416.12 138.16,416.74 137.82,419.67 C137.50,422.35 135.98,423.65 134.69,422.35 ZM 309.67 422.33 C309.30,421.97 309.00,417.69 309.00,412.83 C309.00,404.74 309.16,404.00 310.95,404.00 C312.14,404.00 314.12,405.76 316.00,408.50 C317.70,410.98 319.52,413.00 320.05,413.00 C320.57,413.00 321.00,410.98 321.00,408.50 C321.00,404.64 321.29,404.00 323.04,404.00 C324.96,404.00 325.06,404.52 324.79,413.24 C324.55,421.00 324.23,422.53 322.80,422.80 C321.67,423.02 319.98,421.42 317.80,418.08 C315.98,415.31 314.16,413.03 313.75,413.02 C313.34,413.01 313.00,415.25 313.00,418.00 C313.00,421.50 312.60,423.00 311.67,423.00 C310.93,423.00 310.03,422.70 309.67,422.33 ZM 284.05 421.25 C284.08,420.29 285.35,416.12 286.87,412.00 C289.25,405.55 290.00,404.46 292.22,404.19 C294.61,403.91 295.04,404.50 297.94,412.19 C299.67,416.76 301.17,420.94 301.29,421.49 C301.71,423.44 298.11,423.08 297.03,421.06 C295.58,418.34 290.58,418.30 288.27,421.00 C286.16,423.47 283.98,423.60 284.05,421.25 ZM 214.62 422.19 C214.34,421.74 215.54,417.47 217.27,412.69 C220.12,404.85 220.68,404.00 222.99,404.00 C225.30,404.00 225.88,404.87 228.79,412.75 C230.56,417.56 232.01,421.84 232.01,422.25 C231.99,423.81 228.97,422.92 227.77,421.00 C226.89,419.59 225.44,419.00 222.83,419.00 C220.01,419.00 218.98,419.48 218.50,421.00 C217.86,423.00 215.56,423.71 214.62,422.19 ZM 242.36 421.83 C239.31,420.35 238.00,416.78 238.00,409.95 C238.00,404.67 238.22,404.00 240.00,404.00 C241.78,404.00 242.00,404.67 242.00,409.93 C242.00,416.21 243.74,419.39 246.87,418.79 C248.16,418.54 248.56,416.98 248.79,411.24 C249.08,404.30 249.19,404.00 251.54,404.00 C253.89,404.00 254.00,404.28 254.00,410.28 C254.00,420.60 249.36,425.22 242.36,421.83 ZM 156.71 422.38 C156.32,421.99 156.00,417.69 156.00,412.83 L 156.00 404.00 L 162.00 404.00 C167.33,404.00 168.00,404.22 168.00,406.00 C168.00,407.67 167.33,408.00 164.00,408.00 C161.11,408.00 160.00,408.42 160.00,409.50 C160.00,410.55 161.06,411.00 163.50,411.00 C166.30,411.00 167.00,411.39 167.00,412.94 C167.00,414.39 166.19,414.95 163.75,415.19 C158.67,415.68 159.48,418.43 164.81,418.81 C168.23,419.06 169.06,419.47 168.80,420.81 C168.55,422.11 167.20,422.57 162.95,422.79 C159.91,422.96 157.10,422.77 156.71,422.38 ZM 354.71 422.38 C354.32,421.99 354.00,417.69 354.00,412.83 L 354.00 404.00 L 360.00 404.00 C365.33,404.00 366.00,404.22 366.00,406.00 C366.00,407.67 365.33,408.00 362.00,408.00 C356.61,408.00 356.38,410.75 361.74,411.19 C364.36,411.41 365.58,412.03 365.82,413.25 C366.09,414.69 365.41,415.00 362.00,415.00 C358.59,415.00 357.91,415.31 358.19,416.75 C358.43,418.03 359.67,418.58 362.82,418.81 C366.23,419.06 367.06,419.47 366.80,420.81 C366.55,422.11 365.20,422.57 360.95,422.79 C357.91,422.96 355.10,422.77 354.71,422.38 ZM 179.01 421.71 C176.12,420.25 175.04,417.00 177.44,417.00 C178.31,417.00 179.91,417.55 180.99,418.22 C182.56,419.21 183.20,419.18 184.23,418.10 C185.00,417.28 185.10,416.60 184.50,416.37 C176.64,413.41 174.17,409.68 177.57,405.92 C179.80,403.45 185.15,403.41 187.35,405.83 C189.93,408.68 189.36,409.18 184.37,408.43 C180.76,407.89 179.84,408.02 180.18,409.05 C180.43,409.78 181.95,410.80 183.56,411.32 C187.86,412.71 189.00,413.91 189.00,417.07 C189.00,418.85 188.18,420.46 186.78,421.44 C184.10,423.32 182.31,423.38 179.01,421.71 ZM 337.64 420.80 C337.30,419.53 337.02,416.14 337.01,413.25 C337.00,408.67 336.74,408.00 335.00,408.00 C333.67,408.00 333.00,407.33 333.00,406.00 C333.00,404.21 333.67,404.00 339.50,404.00 C345.33,404.00 346.00,404.21 346.00,406.00 C346.00,407.32 345.33,408.00 344.04,408.00 C342.31,408.00 342.05,408.82 341.79,415.24 C341.56,420.97 341.16,422.54 339.88,422.79 C338.88,422.98 338.02,422.21 337.64,420.80 ZM 201.69 422.35 C201.31,421.98 201.00,418.59 201.00,414.83 C201.00,408.21 200.92,408.00 198.50,408.00 C196.67,408.00 196.00,407.47 196.00,406.00 C196.00,404.19 196.67,404.00 203.00,404.00 C209.33,404.00 210.00,404.19 210.00,406.00 C210.00,407.46 209.33,408.00 207.54,408.00 C205.19,408.00 205.08,408.30 204.79,415.17 C204.53,421.72 203.48,424.15 201.69,422.35 ZM 271.82 410.25 C272.09,408.34 271.68,408.00 269.07,408.00 C266.76,408.00 266.00,408.45 266.00,409.83 C266.00,412.29 267.00,413.14 269.46,412.79 C270.70,412.61 271.63,411.62 271.82,410.25 ZM 142.90 412.09 C145.00,410.75 143.41,408.00 140.53,408.00 C138.74,408.00 138.00,408.54 138.00,409.83 C138.00,412.93 140.06,413.88 142.90,412.09 ZM 224.63 413.75 C224.30,412.51 224.02,411.16 224.01,410.75 C223.98,409.07 222.19,410.15 221.66,412.17 C220.98,414.81 221.60,416.00 223.68,416.00 C224.80,416.00 225.07,415.38 224.63,413.75 ZM 293.98 414.25 C293.95,410.82 292.42,409.78 291.24,412.37 C290.07,414.94 290.48,416.00 292.67,416.00 C293.40,416.00 293.99,415.21 293.98,414.25 ZM 246.82 154.40 C246.26,153.93 246.00,153.48 246.00,153.03 C246.00,151.57 248.92,149.84 255.41,147.52 C248.14,150.16 245.37,152.18 246.46,153.94 C246.56,154.10 246.68,154.25 246.82,154.40 Z" fill="rgba(218,170,60,1)"/>
<path d="M 226.50 499.01 C177.04,493.72 131.93,475.32 93.00,444.57 C82.84,436.55 61.94,415.41 53.88,405.00 C25.85,368.84 8.92,329.24 2.37,284.50 C0.20,269.69 -0.13,232.94 1.78,219.50 C10.02,161.53 33.18,114.03 72.50,74.43 C87.58,59.25 94.77,53.32 112.45,41.51 C137.10,25.05 169.71,11.23 197.15,5.62 C217.60,1.43 227.33,0.52 251.00,0.57 C271.71,0.62 276.34,0.94 290.00,3.28 C341.28,12.05 386.33,34.62 423.50,70.15 C459.07,104.16 485.40,152.06 494.87,200.00 C498.61,218.94 499.46,228.20 499.46,250.00 C499.46,261.85 498.89,275.54 498.20,280.50 C491.41,329.00 474.18,369.50 444.17,407.48 C436.89,416.69 416.47,437.07 407.00,444.56 C372.63,471.77 333.23,489.37 290.50,496.61 C273.90,499.42 241.67,500.63 226.50,499.01 ZM 283.50 487.48 C326.92,480.84 365.51,464.31 398.50,438.19 C408.63,430.17 429.08,409.86 436.95,400.00 C489.74,333.88 504.03,245.90 474.82,167.00 C444.40,84.85 371.97,26.06 285.50,13.32 C268.48,10.81 232.04,10.84 215.50,13.37 C135.33,25.64 69.03,74.76 33.81,147.97 C24.47,167.37 16.95,192.34 13.31,216.00 C10.85,231.96 10.87,267.89 13.34,284.00 C25.59,363.84 73.41,429.34 145.50,465.04 C173.34,478.83 199.55,486.01 234.50,489.42 C242.52,490.21 273.76,488.97 283.50,487.48 ZM 157.80 379.66 C156.69,378.55 156.09,374.80 155.60,365.82 C153.78,332.86 153.05,316.79 153.02,309.25 L 153.00 301.00 L 178.94 301.00 C198.06,301.00 205.08,301.32 205.62,302.20 C206.68,303.90 207.05,315.30 206.10,316.83 C205.57,317.69 200.18,318.48 189.55,319.25 L 173.78 320.39 L 174.27 324.70 C174.97,330.95 176.25,332.00 183.10,332.00 C188.55,332.00 189.01,332.18 189.60,334.55 C190.32,337.41 189.64,346.69 188.64,347.69 C188.29,348.04 185.48,348.68 182.41,349.09 C179.33,349.51 176.60,350.06 176.35,350.32 C175.54,351.13 179.12,362.11 180.34,362.56 C180.98,362.80 187.35,363.33 194.50,363.75 L 207.50 364.50 L 207.20 369.50 C207.03,372.35 206.28,374.97 205.46,375.60 C204.67,376.21 200.75,376.99 196.76,377.34 C181.07,378.70 167.31,380.05 163.41,380.60 C160.47,381.02 158.89,380.75 157.80,379.66 ZM 364.20 379.38 C363.65,378.34 362.64,362.31 361.95,343.74 C360.76,311.52 360.78,309.90 362.52,307.98 C364.26,306.05 365.39,305.98 388.92,306.23 L 413.50 306.50 L 414.36 313.84 C414.90,318.53 414.85,321.55 414.22,322.18 C413.68,322.72 406.32,323.69 397.87,324.33 L 382.50 325.50 L 382.19 328.20 C381.62,333.12 383.49,335.00 388.95,335.00 C396.85,335.00 397.00,335.16 397.00,344.00 C397.00,352.75 396.79,353.00 389.48,353.00 C387.08,353.00 384.85,353.43 384.53,353.96 C383.57,355.50 386.66,361.76 388.66,362.33 C389.67,362.62 395.59,363.17 401.82,363.54 C414.52,364.31 415.00,364.65 415.00,373.00 C415.00,376.81 414.92,376.89 410.75,377.42 C408.41,377.72 399.98,378.43 392.00,379.00 C384.02,379.57 374.73,380.31 371.35,380.64 C366.00,381.18 365.08,381.01 364.20,379.38 ZM 211.57 379.11 C210.62,377.58 210.04,364.96 209.47,333.82 L 208.90 302.14 L 213.20 301.60 C215.56,301.31 221.36,300.79 226.07,300.46 L 234.64 299.85 L 244.18 314.68 C249.43,322.83 255.19,331.89 256.98,334.80 C258.77,337.72 260.45,339.88 260.72,339.62 C260.98,339.35 261.49,330.22 261.85,319.32 L 262.50 299.50 L 269.00 298.36 C272.58,297.73 277.41,297.17 279.75,297.11 L 284.00 297.00 L 284.00 312.34 C284.00,320.77 283.70,338.55 283.34,351.84 L 282.68 376.00 L 270.68 376.00 C259.52,376.00 258.47,375.83 255.50,373.57 C253.75,372.23 247.95,364.15 242.61,355.60 C237.27,347.05 232.40,339.75 231.79,339.37 C230.99,338.88 230.87,341.03 231.36,347.09 C231.73,351.72 232.32,360.53 232.67,366.68 L 233.30 377.85 L 229.90 378.37 C223.09,379.42 212.03,379.86 211.57,379.11 ZM 89.90 375.30 L 87.30 374.90 L 86.67 356.70 C86.32,346.69 85.73,329.21 85.36,317.85 L 84.70 297.21 L 94.10 296.63 C99.27,296.31 109.35,295.81 116.50,295.50 L 129.50 294.95 L 138.09 300.46 L 146.69 305.97 L 147.34 320.24 C147.70,328.08 147.99,340.47 148.00,347.76 C148.00,362.81 149.26,360.33 136.53,370.45 L 129.55 376.00 L 111.03 375.85 C100.84,375.77 91.33,375.52 89.90,375.30 ZM 122.61 334.86 L 123.02 317.23 L 120.11 314.11 C117.68,311.51 116.45,311.00 112.66,311.00 C110.16,311.00 107.88,311.39 107.59,311.86 C107.30,312.33 107.95,320.72 109.03,330.52 C110.11,340.31 111.00,348.85 111.00,349.51 C111.00,351.29 115.06,352.94 118.85,352.71 L 122.19 352.50 L 122.61 334.86 ZM 296.37 375.23 C295.36,374.58 292.97,323.75 292.99,303.34 L 293.00 297.19 L 302.25 296.61 C307.34,296.30 317.35,295.79 324.50,295.48 L 337.50 294.91 L 346.14 300.54 L 354.79 306.17 L 355.47 325.33 C355.85,335.88 356.01,348.31 355.83,352.97 L 355.50 361.45 L 346.50 368.69 L 337.50 375.94 L 317.50 375.95 C306.50,375.96 296.99,375.64 296.37,375.23 ZM 329.77 334.42 C330.04,316.40 330.04,316.33 327.57,313.67 C325.57,311.51 324.20,311.00 320.42,311.00 L 315.74 311.00 L 316.33 316.75 C316.66,319.91 317.45,328.80 318.10,336.50 C318.75,344.20 319.74,351.08 320.30,351.80 C320.92,352.59 322.93,352.98 325.41,352.80 L 329.50 352.50 L 329.77 334.42 ZM 356.19 298.52 C353.63,295.25 353.33,291.47 355.58,290.61 C356.45,290.27 369.02,290.00 383.52,290.00 L 409.87 290.00 L 409.31 293.75 C409.00,295.81 408.23,298.06 407.59,298.75 C406.76,299.64 399.60,300.18 382.41,300.65 L 358.39 301.31 L 356.19 298.52 ZM 160.98 291.19 C158.51,289.19 158.50,289.07 158.19,269.59 L 157.88 250.00 L 166.95 250.00 L 176.03 250.00 L 178.49 255.57 C179.85,258.64 181.36,260.90 181.85,260.59 C182.34,260.29 183.32,258.57 184.03,256.77 C186.34,250.95 187.75,250.00 194.09,250.00 C198.72,250.00 199.97,250.35 200.39,251.75 C200.68,252.71 201.61,260.02 202.45,268.00 C203.30,275.98 204.25,284.18 204.58,286.24 C205.12,289.66 204.93,290.08 202.34,291.07 C200.29,291.85 198.47,291.85 195.82,291.06 C192.38,290.03 192.06,289.59 191.00,284.48 C190.37,281.47 189.68,279.00 189.47,279.00 C189.25,279.00 188.57,280.91 187.94,283.25 C185.68,291.70 183.34,291.60 178.94,282.87 C177.31,279.64 175.64,277.00 175.24,277.00 C174.83,277.00 174.65,279.97 174.84,283.61 C175.03,287.24 174.80,290.59 174.34,291.05 C173.88,291.50 171.24,292.17 168.48,292.54 C164.32,293.08 163.04,292.85 160.98,291.19 ZM 145.08 287.07 C144.30,286.58 143.40,284.22 143.08,281.83 C142.58,278.07 142.18,277.50 140.07,277.50 C138.24,277.50 137.12,278.50 135.57,281.50 C133.86,284.79 132.90,285.56 130.15,285.82 C127.97,286.03 126.12,285.51 124.80,284.32 C122.93,282.63 122.82,281.54 123.19,269.00 C123.78,249.35 126.02,246.00 138.53,246.00 C146.47,246.00 148.47,247.02 149.32,251.50 C149.64,253.15 151.31,261.23 153.04,269.45 C156.02,283.66 156.09,284.46 154.40,285.70 C153.42,286.41 151.84,287.00 150.89,287.00 C149.94,287.00 148.56,287.22 147.83,287.49 C147.10,287.76 145.86,287.57 145.08,287.07 ZM 142.00 263.86 C142.00,260.31 141.56,258.77 140.43,258.34 C138.42,257.56 137.20,258.83 136.04,262.87 C135.27,265.53 135.45,266.45 137.03,268.03 C140.12,271.12 142.00,269.53 142.00,263.86 ZM 223.25 286.85 C222.34,285.94 222.00,280.29 222.00,265.87 L 222.00 246.14 L 227.67 245.44 C231.01,245.02 233.99,245.13 234.92,245.72 C235.79,246.26 239.20,251.12 242.50,256.52 L 248.50 266.32 L 249.00 256.12 C249.56,244.63 249.94,244.04 256.75,244.02 L 261.00 244.00 L 261.00 263.07 C261.00,274.30 260.57,282.93 259.96,284.07 C259.16,285.57 257.85,286.00 254.04,286.00 C247.88,286.00 244.84,283.60 238.86,274.03 C236.46,270.19 234.25,267.04 233.94,267.02 C233.64,267.01 233.58,271.08 233.82,276.07 C234.06,281.06 233.86,285.52 233.38,285.97 C231.71,287.54 224.56,288.16 223.25,286.85 ZM 208.44 285.71 C208.17,285.01 208.07,276.79 208.22,267.46 L 208.50 250.50 L 212.50 250.50 L 216.50 250.50 L 217.16 255.50 C217.53,258.25 217.86,266.19 217.91,273.14 C218.01,286.95 217.99,287.00 211.89,287.00 C210.26,287.00 208.72,286.42 208.44,285.71 ZM 268.41 286.03 C266.55,285.28 266.24,284.07 265.66,275.34 C264.57,258.92 264.82,250.39 266.43,249.06 C267.21,248.41 269.78,248.02 272.14,248.19 L 276.43 248.50 L 277.54 254.06 C278.93,261.03 279.54,262.00 282.52,262.00 C285.58,262.00 286.62,259.88 286.93,253.00 C287.23,246.25 288.18,245.00 293.06,245.00 C297.77,245.00 297.71,244.80 298.50,262.00 C298.84,269.42 299.34,276.68 299.61,278.13 C300.27,281.64 297.76,284.00 293.36,284.00 C288.61,284.00 286.00,282.42 286.00,279.53 C286.00,275.46 284.20,272.00 282.08,272.00 C279.44,272.00 278.82,273.27 278.48,279.28 C278.10,286.25 274.65,288.55 268.41,286.03 ZM 308.26 283.97 C307.02,283.48 305.11,281.59 304.01,279.78 C302.29,276.96 302.01,274.74 302.00,263.82 C302.00,244.18 302.98,243.05 318.58,244.71 C332.27,246.16 332.41,246.34 332.83,263.43 C333.30,282.88 331.76,285.06 317.68,284.94 C313.73,284.90 309.49,284.47 308.26,283.97 ZM 318.75 271.75 C319.77,270.48 322.00,259.10 322.00,255.17 C322.00,252.63 318.95,252.19 316.73,254.42 C315.28,255.86 313.51,270.39 314.56,272.10 C315.36,273.39 317.59,273.21 318.75,271.75 ZM 390.22 283.44 C385.91,280.43 385.00,276.95 385.00,263.61 C385.00,244.17 386.06,242.97 401.73,244.67 C415.04,246.12 415.00,246.05 415.00,264.53 C415.00,272.40 414.72,279.56 414.38,280.46 C413.23,283.45 408.43,285.00 400.27,285.00 C394.80,285.00 391.78,284.53 390.22,283.44 ZM 402.63 268.30 C403.30,265.99 404.16,261.60 404.54,258.55 C405.22,253.07 405.20,253.00 402.65,253.00 C401.09,253.00 399.65,253.79 399.00,255.01 C397.67,257.49 396.50,269.25 397.36,271.50 C398.49,274.44 401.35,272.70 402.63,268.30 ZM 89.00 282.69 L 85.50 281.50 L 85.21 266.00 C85.06,257.48 85.18,249.50 85.48,248.27 C86.55,243.92 91.15,242.69 103.43,243.46 C109.52,243.84 115.50,244.38 116.72,244.67 C119.78,245.40 120.85,251.05 118.59,254.50 C116.55,257.61 113.50,257.70 107.59,254.83 C101.11,251.68 100.00,252.94 100.00,263.42 C100.00,272.17 100.82,274.00 104.73,274.00 C106.34,274.00 107.71,272.91 109.14,270.49 C111.26,266.90 114.00,265.58 118.15,266.17 C120.29,266.47 120.53,267.05 120.80,272.75 C121.06,278.29 120.81,279.28 118.59,281.50 C116.20,283.89 115.58,284.00 104.30,283.94 C97.81,283.91 90.93,283.35 89.00,282.69 ZM 350.76 282.75 C349.38,281.69 349.09,278.57 348.82,262.00 L 348.50 242.50 L 359.96 242.22 C372.44,241.91 375.85,242.72 379.03,246.77 C380.76,248.97 381.00,250.86 381.00,262.45 C381.00,275.54 380.98,275.64 378.25,278.16 C372.44,283.51 371.04,284.00 361.47,284.00 C355.73,284.00 351.78,283.54 350.76,282.75 ZM 367.79 262.75 C368.13,252.51 367.18,250.00 362.96,250.00 C359.58,250.00 359.57,250.05 360.93,261.76 C361.81,269.38 363.26,272.29 365.91,271.78 C367.19,271.54 367.56,269.79 367.79,262.75 ZM 235.50 186.59 C225.09,184.01 216.12,177.00 211.77,168.04 C208.32,160.95 208.75,151.41 212.91,142.70 C221.23,125.26 244.28,110.00 262.30,110.00 C275.31,110.00 288.10,118.36 294.08,130.78 C297.54,137.96 297.40,148.69 293.75,156.00 C292.24,159.02 290.20,162.52 289.23,163.78 L 287.45 166.05 L 270.64 162.00 C252.92,157.74 247.74,156.01 246.46,153.94 C245.11,151.75 249.73,149.15 261.61,145.44 C267.88,143.49 273.00,141.46 273.00,140.94 C273.00,139.42 258.50,139.86 250.70,141.63 C229.23,146.49 220.86,156.55 229.63,166.97 C233.06,171.05 238.03,173.52 251.98,178.10 C258.29,180.17 263.60,182.29 263.77,182.81 C264.16,183.98 262.63,184.58 254.38,186.49 C246.74,188.26 242.34,188.29 235.50,186.59 Z" fill="rgba(253,247,241,1)"/>
</g>
</svg>