<?xml version="1.0" encoding="UTF-8"?>
<svg id="Camada_1" data-name="Camada 1" xmlns="http://www.w3.org/2000/svg" viewBox="0 0 2000 2000">
  <defs>
    <style>
      .cls-1 {
        fill: #a62317;
      }

      .cls-2 {
        fill: #1d0809;
      }

      .cls-3 {
        fill: #edae1a;
      }
    </style>
  </defs>
  <g>
    <path class="cls-3" d="M1314.44,858.26c-.5,21.09-2,42.16-4.56,63.11-1.21,10.55-2.6,21.07-4.27,31.56-.66,4.12,2.48,8.06,6.54,8.61,4.1.59,7.98-2.4,8.62-6.54,1.26-7.89,2.36-15.79,3.34-23.72,1.53-12.41,2.9-24.85,3.89-37.32.9-11.88,1.32-23.8,1.74-35.7-.11-10-15.19-9.96-15.3,0Z"/>
    <path class="cls-3" d="M1210.01,815.56c-6.75,1.76-14.92,38.92-19.17,47.85-6.82,19.56-14.31,38.84-21.8,58.15-1.51,3.89.15,8.37,4.07,10.03,3.73,1.58,8.52-.18,10.03-4.07,3.16-8.15,6.38-16.27,9.49-24.43,9.85-25.03,17.77-50.75,26.7-76.11,4.25-6-2.09-14.48-9.31-11.42Z"/>
    <path class="cls-3" d="M1109.92,762.26c-6.56,1.73-9.81,8.88-14.7,13.13-8.05,8.6-16.23,17.1-24.75,25.24-8.84,8.45-17.79,16.79-26.69,25.19-3.04,2.86-2.88,7.93,0,10.81,9.03,7.51,16.33-6.82,22.97-11.48,8.86-8.33,17.74-16.63,26.25-25.32,7.68-7.78,15.07-15.84,22.49-23.86,6.3-4.36,2.03-14.94-5.58-13.71Z"/>
    <path class="cls-3" d="M1053.72,698.3c2.61-1.23,4.46-3.9,4.46-6.93-.22-8.2-9.95-9.71-14.9-4.32-15.67,13.29-33.21,24.06-49.85,36.05-9.79,6.98-19.41,14.19-29.24,21.11-5.4,3.77-2.83,12.99,3.63,13.63,7.18.31,20.78-13.45,27.93-17.56,15.05-11.13,30.84-21.25,45.92-32.33,4.15-3.05,7.98-6.5,12.06-9.65Z"/>
    <path class="cls-3" d="M1009.21,591.27c-11.83,1.59-23.1,7.06-34.54,10.53-22.39,7.87-44.31,17.02-66.34,25.8-3.88,1.53-5.67,6.26-4.07,10.03,2.29,5.49,8.6,5.35,13.06,2.87,11.02-4.37,21.97-8.93,33.02-13.25,19.54-7.65,39.29-14.84,59.39-20.91,7.75-1.42,8.32-13.85-.5-15.07ZM1007.67,606.46c.28.02.55.02.81,0-.27.01-.54.02-.81,0ZM1008.74,606.46s.09,0,.14-.01c-.05,0-.09,0-.14.01Z"/>
    <path class="cls-3" d="M971.31,498.43c2.06-.1,3.93-.76,5.41-2.24,4.8-4.43,1.18-13.38-5.41-13.06-6.28.32-12.56.72-18.85,1.1-11.61.71-23.21,1.48-34.82,2.11-9.03.47-18.07.98-27.11,1.33-5.65-.29-13.33.54-13.36,7.84,1.14,12.17,16.7,6.26,24.82,6.94,11.87-.59,23.73-1.2,35.58-1.96,11.24-.72,22.49-1.49,33.74-2.06Z"/>
    <path class="cls-3" d="M888.33,351.31c7.48,2.96,15.62,4.37,23.27,7.08,23.27,6.97,46.79,13.14,70.41,18.82,9.68,2.62,13.64-12.12,4.07-14.75-19.52-4.74-38.98-9.76-58.29-15.29-11.57-3.16-22.93-7.14-34.56-10.04-8.05-1.41-11.96,10.25-4.9,14.18Z"/>
    <path class="cls-3" d="M945.91,205.65c6.8,5.28,13.8,10.32,20.46,15.79,19.53,15.26,37.19,32.66,55.38,49.43,7.22,6.96,17.81-3.76,10.82-10.82-21.86-20.48-43.61-41.16-67.61-59.17-5.16-2.87-9.36-9.53-15.69-9.08-4.85.63-8.02,6.05-6.01,10.56.53,1.27,1.47,2.55,2.65,3.29Z"/>
    <path class="cls-3" d="M1095.13,201.42c5.26,8.58,18.17.86,13.21-7.73-15.16-24.54-32.42-47.65-48.45-71.62-7.43-10.15-20.31-.53-11.31,11.87,16.7,21.32,31.76,44.57,46.55,67.47Z"/>
    <path class="cls-3" d="M1170.59,138.37c2.92,5.83,5.22,21.55,10.61,25.41,5.55,3.55,13.32-2.33,11.24-8.64-3.28-9.9-6.66-19.77-10.16-29.59-6.05-17.06-12.68-33.93-17.93-51.26.16-6.16-7.62-9.89-12.38-6.02-8.08,5.33,4.16,26.54,5.9,34.77,4.16,11.81,8.61,23.51,12.72,35.33Z"/>
    <path class="cls-3" d="M1275.59,133.26c1.49,9.92,16.39,7.79,15.16-2.08-3.02-25.73-8.56-51.1-11.32-76.84-.18-.34.05-3.18.15-4.03.15-7.65-10.61-10.45-14.3-3.81-2.43,4.69-.78,10.36-.49,15.38,3.2,23.85,7.87,47.48,10.8,71.38Z"/>
    <path class="cls-3" d="M1398.24,130.58c.82-21.07,2.06-42.13,3.23-63.19.51-6.85,1.06-13.7,2.18-20.46.23-8.24-11.9-10.56-14.81-2.89-1.21,3.61-1.13,7.54-1.67,11.29-2.16,25.02-3.06,50.17-4.23,75.26.11,10.01,15.19,9.95,15.3,0Z"/>
    <path class="cls-3" d="M1465.16,161.27c7.76,2.1,10.12-6.5,11.47-12.34,3.34-11.39,6.9-22.7,10.4-34.04,3.58-11.33,6.67-22.8,10.38-34.08,2.54-4.79,4.25-11.95-2.19-14.49-10.32-3.54-12.21,10.01-14.65,16.96-3.49,11.54-6.89,23.1-10.48,34.61-3.53,11.3-6.9,22.64-10.27,33.98-1.19,4,1.39,8.32,5.34,9.41Z"/>
    <path class="cls-3" d="M1304.21,644.71c2.94,2.41,6.73,1.39,10.17,1.23,10.04-.77,22.08-.62,32.51-.47,8.32.07,16.66.43,24.98-.03,11.21-.02,21.46-3.52,21.08-16.49,2.95-34.5,5.9-69.01,10.13-103.37,4.02-33.57,10.92-67.21,25.65-97.86,28-59.41,107.62-67.64,165.78-61.7,4.9.15,10.55,2.6,14.94-.46,5.41-3.75,2.95-13.14-3.62-13.69-12.78-1.44-25.64-2.73-38.51-2.74-47.04-.62-99.81,9.19-133.75,44.2-48.86,56.66-47.99,163.89-55.98,236.17-23.11,2.36-46.5-1-69.66,1.62-6.54.55-8.94,9.8-3.7,13.6Z"/>
    <path class="cls-3" d="M1627.2,514.49c-7.33-5-14.46-10.53-22.2-14.92,2.21-3.62,3.81-7.35,3.17-10.52-.99-3.99-5.44-6.54-9.38-5.4-1.82.49-3.72,1.76-4.59,3.48-1.71,3.39-3.71,6.67-5.83,9.83-10.27,15.61-25.96,26.74-43.64,32.47-36.97,14-71.18-4.77-94.11-33.97-2.26-6.63-10.26-8.51-14.41-2.4-3.53,6.17,2.65,12.24,6.32,16.77.24.27.49.54.73.81-5.07,7.04-10.23,14.01-15.47,20.93-4.1,6.29-15.25,15.43-5.74,21.99,3.52,2.18,8.35.85,10.46-2.65,6.21-8.81,13.01-17.2,19.27-25.98.75-1.12,1.57-2.18,2.39-3.24,5.48,4.98,11.35,9.49,17.59,13.39-2.62,4.64-4.1,11.27-6.27,14.95-2.57,5.91-5.27,11.76-7.81,17.68-1.64,3.83.22,8.41,4.05,10.04,3.77,1.62,8.39-.18,10.03-4.05,2.4-5.62,4.97-11.16,7.41-16.77,2.18-4.84,4.09-9.79,6.17-14.67,5.18,2.26,10.55,4.09,16.14,5.4,1.3.28,2.61.51,3.92.72-.13,3.13-.07,6.3-.46,9.34-.65,10.43-1.73,21.35-2.81,31.86-.38,4.15,2.34,8.01,6.59,8.57,4,.53,8.2-2.44,8.58-6.59.62-6.82,1.41-13.62,1.96-20.45.56-7.16,1.01-14.33,1.45-21.5,0-.07,0-.15.01-.23,5.63-.14,11.29-.8,16.88-1.96,4.13,13.37,10.04,26.12,15.02,39.18,1.51,3.9,6.23,5.72,9.99,4.15,3.91-1.62,5.67-6.11,4.15-9.99-4.67-12.55-10.69-24.7-14.36-37.59,5.92-2.19,11.66-4.91,17.09-8.11,1.49,1.4,2.84,2.92,4.23,4.41,7.45,8.51,15.45,16.48,23.29,24.63,7.17,7.03,17.74-3.36,10.92-10.72-8.26-8.45-16.49-16.91-24.34-25.75-.46-.46-.91-.95-1.37-1.44,5.16-4.22,9.84-8.91,13.9-14.02,7.71,4.16,14.05,9.18,21.62,14.35,8.09,5.96,17.23-5.71,9.45-12.04ZM1581.86,528.91c-.02-.71-.16-1.41-.38-2.1.01,0,.02-.02.03-.03.21.69.34,1.4.34,2.12Z"/>
    <path class="cls-3" d="M1598.59,627.59c-.23-.2-.47-.39-.72-.58-3.36-2.5-7.24-4.41-11.08-6.03-5.15-2.17-10.51-3.83-15.95-5.09-10.72-2.48-21.73-3.67-32.73-3.72-11.96-.06-24.14,1.06-35.67,4.33-6,1.71-11.97,3.88-17.25,7.27-6.74,4.32-12.61,10.85-12.4,19.35.21,8.52,6.46,15.24,13.29,19.55,5.38,3.4,11.34,5.94,17.42,7.8,11.4,3.48,23.34,5.31,35.23,5.73,2.02.07,4.05.11,6.07.11.95,0,1.89,0,2.84-.03.02,0,.03,0,.05,0,.29.01.58,0,.87-.02,2.75-.06,5.51-.18,8.25-.4,11.45-.93,23.1-2.98,33.65-7.68,5.08-2.27,9.99-5.25,13.71-9.45,3.95-4.46,6.22-10.62,4.86-16.57-1.41-6.21-5.5-10.9-10.43-14.56ZM1594.09,646c-.02.12-.04.25-.06.37-.04.13-.08.26-.12.38-.08.18-.17.37-.26.55-.17.27-.34.53-.52.79-.27.33-.55.65-.83.96-.52.5-1.06.98-1.62,1.43-.85.63-1.73,1.22-2.64,1.78-1.5.85-3.04,1.61-4.61,2.31-2.38.98-4.81,1.81-7.28,2.54-3.83,1.05-7.72,1.86-11.64,2.49-5.25.76-10.53,1.2-15.84,1.37-.31,0-.61,0-.91.03-.15,0-.3,0-.46,0-6.06.09-12.11-.22-18.14-.86-5.2-.62-10.35-1.51-15.46-2.71-3.7-.95-7.34-2.07-10.91-3.42-2.29-.94-4.51-1.98-6.68-3.15-1.2-.72-2.36-1.47-3.5-2.27-.69-.55-1.36-1.12-2.01-1.71-.45-.47-.88-.94-1.3-1.44-.21-.3-.42-.6-.62-.9-.14-.27-.28-.54-.41-.81-.04-.11-.08-.22-.11-.33-.03-.14-.06-.29-.09-.43,0-.08-.01-.16-.02-.25,0-.13.02-.27.02-.4,0-.05.02-.11.03-.16.04-.13.08-.26.12-.4.08-.17.15-.34.23-.51.2-.32.4-.63.62-.94.25-.29.5-.58.75-.87.53-.5,1.07-.98,1.62-1.45.97-.71,1.97-1.37,3-2,1.39-.75,2.79-1.44,4.23-2.09,2.3-.93,4.62-1.75,7-2.47,4-1.11,8.05-1.96,12.15-2.61,5.33-.75,10.66-1.18,16.03-1.35,6.33-.09,12.64.17,18.93.81,5.46.65,10.85,1.58,16.2,2.86,3.57.94,7.09,2.03,10.54,3.35,2.2.91,4.35,1.9,6.43,3.03.23.13.45.26.68.4,1.01.61,2,1.26,2.96,1.96.7.55,1.37,1.12,2.02,1.73.44.46.87.93,1.27,1.42.21.3.42.61.62.92.11.2.21.4.31.61.06.16.12.31.17.47.03.12.05.24.08.36.01.13.02.26.03.39,0,.07,0,.14-.01.21Z"/>
    <path class="cls-3" d="M1442.99,702.18c-7.49,1.93-15.04,3.52-22.63,4.82-2.34-3.68-5.61-6.68-9.24-9.16-4.91-3.35-10.38-5.81-15.96-7.8-6.22-2.23-12.61-3.89-19.09-5.19-12.13-2.43-24.52-3.65-36.89-3.86-12.14-.21-24.37.41-36.37,2.3-11.59,1.84-23.41,4.54-33.92,9.95-3.81,1.96-7.63,4.39-10.73,7.47-7.91-2.39-15.72-5.08-23.31-8.4-9.03-2.33-13.18,10.06-5.63,14.08,7.28,3.2,14.73,5.93,22.3,8.3-.01.4-.02.79,0,1.19.12,3.02,1.04,5.95,2.54,8.57,2.9,5.1,7.71,8.9,12.7,11.82,5.24,3.07,10.92,5.32,16.69,7.19,10.75,3.48,22.04,5.5,33.27,6.64,7.79.79,15.62,1.21,23.45,1.21,2.91,0,5.82-.06,8.73-.18,15.74-.65,31.62-2.68,46.61-7.72,2.45-.84,4.88-1.74,7.25-2.81,5.03-2.28,10.01-5.06,13.97-8.98,2.48-2.46,4.46-5.31,5.67-8.58.1-.25.2-.51.28-.77.01-.04.02-.09.04-.14,8.13-1.37,16.23-3.06,24.25-5.17,9.68-2.82,5.72-17.13-3.98-14.78ZM1298.09,699.66c7.51-1.47,15.09-2.41,22.72-2.96,9.18-.57,18.38-.58,27.56-.04,8.41.57,16.76,1.6,25.03,3.22,5.35,1.13,10.63,2.5,15.81,4.25,2.91,1.05,5.75,2.22,8.54,3.57,1.18.62,2.32,1.28,3.45,1.97-28.01,3.08-56.42,2.78-84.53,1.44-12.9-1.11-25.79-2.73-38.47-5.33,2-.89,4.02-1.71,6.09-2.44,4.52-1.51,9.14-2.69,13.81-3.67ZM1398.33,725.79c-2.53,1.21-5.14,2.25-7.79,3.17-4.51,1.5-9.12,2.68-13.76,3.64-7.26,1.43-14.6,2.35-21.97,2.89-9.28.61-18.58.63-27.87.1-8.47-.56-16.91-1.58-25.25-3.22-5.26-1.1-10.47-2.44-15.56-4.14-3.07-1.09-6.08-2.31-9.02-3.74-1.66-.87-3.27-1.8-4.82-2.83-.87-.62-1.7-1.27-2.51-1.96-.05-.05-.09-.1-.14-.14,20.93,4.8,42.52,7.02,63.91,7.62,21.98.4,44.04.16,65.89-1.98-.36.19-.73.4-1.1.58Z"/>
    <path class="cls-3" d="M1229.86,706.73c.15.05.3.1.45.15-.39-.14-.74-.32-1.08-.5-.09-.04-.19-.08-.28-.12.31.15.61.31.91.46Z"/>
    <path class="cls-3" d="M1673.47,465.46c-2.35-26.91-8.06-53.61-17.04-79.08-8.94-25.36-20.8-49.76-35.72-72.16-14.95-22.43-32.4-43.2-52.38-61.33-19.82-17.98-41.69-33.73-65.31-46.37-23.65-12.65-48.75-22.59-74.79-29.14-26.33-6.62-53.29-9.93-80.44-10.03-13.15-.05-26.4.75-39.45,2.4-13.4,1.7-26.73,4.06-39.83,7.39-26.63,6.75-52.46,16.66-76.59,29.82-23.42,12.77-45.32,28.3-64.97,46.36-20.37,18.72-38.31,39.94-53.38,63.14-14.96,23.05-27.03,48.04-35.7,74.12-8.56,25.74-14.1,52.57-15.98,79.65l-.1,1.43c-.04.31-.06.62-.07.95-.01.25-.03.5-.05.75-.02.26-.04.52-.05.77-1.58,27.28.03,54.66,5.2,81.51,5.03,26.13,13.1,51.87,24.44,75.97,5.65,12,11.83,23.77,18.88,35.01,7.36,11.73,15.37,22.97,24.05,33.76,16.62,20.64,36.01,39.01,57.1,55.02,21.05,15.97,44.32,29.39,68.68,39.65,12.55,5.29,25.39,9.82,38.47,13.59,12.9,3.71,26.08,6.51,39.34,8.6,16.44,2.6,33.12,3.88,49.79,3.88,9.93,0,19.86-.45,29.73-1.36,6.61-.61,13.18-1.42,19.74-2.39,3.25-.48,6.48-1.06,9.71-1.64,1.29-.23,2.57-.48,3.85-.73.01,0,.02,0,.03,0,.32-.04.64-.11.95-.19.14-.03.28-.06.41-.09.62-.12,1.27-.23,1.9-.36,1.32-.18,2.66-.56,3.9-.84,6.47-1.44,12.91-3.02,19.29-4.84,25.46-7.25,50.16-17.52,73.1-30.74,23.18-13.36,44.79-29.39,64.08-47.96,19.41-18.69,36.36-39.68,50.74-62.46,7.1-11.25,13.49-23.03,19.07-35.11,5.62-12.16,10.6-24.62,14.72-37.38,4.34-13.45,7.83-27.17,10.42-41.06.04-.18.08-.36.11-.55.61-3.3,1.17-6.6,1.67-9.92.1-.61.18-1.21.27-1.82.75-5.09,1.38-10.2,1.88-15.33.02-.24.04-.48.05-.72,1.91-19.99,2-40.14.25-60.17ZM1658.7,516.16c-.62,8.23-1.53,16.42-2.74,24.57-.85,5.63-1.85,11.23-2.98,16.8-2.87,13.58-6.6,26.94-11.15,40.05-4.63,12.96-10.03,25.58-16.21,37.88-6.12,11.89-12.93,23.36-20.4,34.44-7.31,10.59-15.19,20.73-23.66,30.43-8.75,9.81-18.04,19.06-27.85,27.81-10.13,8.8-20.71,16.98-31.8,24.53-11.31,7.52-23.01,14.32-35.12,20.45-12.25,6.01-24.8,11.27-37.69,15.78-12.47,4.19-25.11,7.66-37.98,10.41-1.09.2-2.21.37-3.27.67-.51.08-1.03.18-1.56.28-2.55.49-5.11.96-7.68,1.36-10.14,1.61-20.32,2.78-30.57,3.52-13.97.81-27.9.78-41.85-.11-13.93-1.06-27.73-2.94-41.42-5.7-13.86-2.95-27.48-6.76-40.87-11.41-12.46-4.49-24.6-9.69-36.46-15.59-5.86-3-11.63-6.17-17.29-9.5,3.36-3.06,6.25-7.1,7.94-10.11,11.18-21.32,2.44-45.67,3.54-68.41,1.74-37.47,64.22-36.55,88.78-56.7,10.67-6.82,19.4-16.6,25.11-27.9,34.23-68.46-52.36-103-21.18-147.04,14.45-21.14,40.78-27.91,61.8-40.46,22.59-12.38,41.54-31.99,49.6-56.8,9.09-25.66,1.05-52.68-1.35-78.75-4.18-37.66,23.65-58.41,54.05-73.49.12-.03.24-.07.36-.11,9.9,3.81,19.6,8.06,29.12,12.78,12.12,6.2,23.82,13.08,35.13,20.66,10.96,7.55,21.45,15.69,31.46,24.47,9.81,8.78,19.06,18.1,27.79,27.95,8.74,10.09,16.86,20.65,24.35,31.7,7.53,11.35,14.34,23.11,20.45,35.27,5.73,11.73,10.75,23.73,15.11,36.03,4.51,13.21,8.18,26.64,11.03,40.31,2.69,13.65,4.53,27.4,5.54,41.28.87,14.21.85,28.42-.09,42.63Z"/>
  </g>
  <g>
    <path class="cls-1" d="M1243.68,1459.19c-62.97.77-125.84-4.18-188.83-3.84-64.13-.51-128.22-3.55-192.32-5.72-63.59-1.47-127.19-2.77-190.76-4.97-12.66-2.05-38.95,4.4-44.52-9.25-6.3-17.67,22.25-53.06,34.48-65.41,31.13-31.42,76.61-44.36,112.13-11.94,6.71-28.41,24.2-53.24,45.87-72.37,45.11-42.53,118.96-42.95,164.95-1.56,22.03,19.35,35.63,45.98,44.92,73.39,17.51-23.31,49.7-33.63,77.65-25.78,26,6.37,44.34,28.72,54.97,52.21,35.84-23.94,72.13-9.69,90.73,27.28,5.3,10.18,18.4,42.01-.18,44.48-2.17,2.58-5.69,4.04-9.09,3.48ZM652.26,1424.17c131.14,3.18,262.25,7.94,393.38,11.06,65.41-.34,130.7,4.79,196.1,3.81-4.05-21.67-20.5-46.6-44.59-47.25-13.49.35-23.36,11.37-36.18,13.52-20.53,2.37-17.38-38.57-53.47-52.54-19.9-7.74-44.22-2.72-58.78,13.08-7.08,6.33-9.59,18.1-19.13,21.23-5.54,1.18-10.51-1.67-13.04-6.58-8.86-25.14-16.99-50.47-34.76-70.87-29.27-34.82-81.83-46.84-122.81-26.47-24.3,11.91-44.17,32.5-56.95,56.22-3.93,7.77-7.12,15.91-9.01,24.42-1.66,7.32-2.03,17.13-10.07,20.44-7.43,3.04-13.67-2.86-18.45-7.85-6.59-5.87-13.73-11.37-22.04-14.54-41.11-13.62-78.71,28.54-94.41,62.29,1.41.01,2.81,0,4.21.03Z"/>
    <path class="cls-1" d="M778.8,1659.5c-34.94-21.65,7.82-78.34,21.6-103.15,14.31-21.76,28.13-44.49,44.67-64.45,8.07-5.18,18.53,4.54,14.01,13.03,1.32,2.26,1.78,5.03,1.08,7.73-7.07,27.38-14.75,54.65-23.69,81.49-9.03,24.51-22.93,75.2-57.68,65.36ZM787.14,1641.12c21.49-7.51,35.3-72.27,42.92-93.95-10.43,17.62-52.77,76.07-42.92,93.95Z"/>
    <path class="cls-1" d="M969.29,1757.99c-32.81-11.43-16.14-51.96-5.43-74.35,10.64-22.33,22.13-44.25,32.68-66.64,6.15-12.94,13.76-25.76,19.42-38.82,3.66-10.05,17.94-7,21.91,1.19,2.64,9.87-.69,20.64-.87,30.76-3.69,31.5-22.63,159.2-67.7,147.86ZM974.74,1738.66c22.14-10.27,36.24-90.15,40.4-114.26-5.51,16.49-61.69,108.16-40.4,114.26Z"/>
    <path class="cls-1" d="M810.55,1848.68c-21.58-9.53-16.25-36.09-8.1-53.2,12.02-29.29,29.72-55.73,44.92-83.39,7.96-12.89,14.22-26.88,22.02-39.75,5.91-6.1,17.09-1.74,17.01,6.82,6.2,6.83.06,21.19-.52,29.7-2.47,13.73-5.07,27.42-7.98,41.06-6.93,32.72-19.87,111.19-67.35,98.76ZM820.25,1830.54c29.06-8.92,35.25-77.9,42.2-104.53-5.9,13.49-64.14,99.63-42.2,104.53Z"/>
    <path class="cls-1" d="M840.46,1526.2c-8.13-6.28-.97-15,1.67-22.13,2.54-10.79,17.08-13.03,20.63-1.74,1.7,5.49-1.97,9.8-4.17,14.28-2.63,7.8-9.8,15.71-18.12,9.59Z"/>
  </g>
  <path class="cls-1" d="M196.9,950.86c-23.91-.33-47.82-.98-71.72-1.86-7.32-.24-14.7-.67-22.03-.47-5.01,1.34-10.66-2.07-11.93-7.12-11.28-5.97-2.53-18.73,2.58-26.05,29.37-42.51,86.63-50.46,133.98-40.01,14.44-25.07,31.39-50.72,57.14-65.3,35.57-20.19,80.9-12.33,112.29,12.21,24.23-57.44,70.1-115.94,137.55-117.71,41.74-1.03,88,15.55,112.28,50.9,12.35,19.85,17.28,43.26,20.55,66.14,39.98-12.19,79.42-12.19,116.32,9.32,22.56,13.22,41.14,32.88,54.36,55.35,6.46,10.62,11.79,21.85,16.35,33.39,8.48,16.71-3.82,21.69-18.82,20.67-75.31-.24-150.48,4-225.72,6.45-137.73.83-275.44,4.69-413.18,4.08ZM117.7,928.78c128.78,5.55,257.62-.43,386.43-.93,109.83,1.52,219.41-7.75,329.21-7.38-21.46-54.54-74.99-98.03-135.86-85.26-12.27,1.61-24.04,7.06-36.34,7.59-15.01-2.59-12.87-21.38-15.59-32.78-1.63-8.15-3.72-16.19-6.25-24.11-14.79-50.72-85.59-71.96-132.06-56.18-47.01,15.32-74.12,60.82-93.11,103.64-18.21,36.93-41.34-31.96-108.21-10.96-19.72,6.79-34.36,22.76-46.12,39.38-8.7,9.73-14.31,31.55-27.44,33.47-9.85.83-19.44-3.2-29.31-3.43-34.79-3.51-73.97,5.96-94.09,36.75,2.92.04,5.83.13,8.75.21Z"/>
  <path class="cls-1" d="M257.72,1148.62c-10.37-11.67-3.53-28.4,1.51-40.98,12.39-30.9,29.89-59.3,46.94-87.76,5.78-9.97,11.63-19.91,17.47-29.84,3.77-7.91,11.09-16.74,19.85-8.98,16.86,2.71,5.58,24.79,3.75,35.33-6.87,22.73-15.3,42.35-22.63,64.04-8.55,23.28-33.01,95.3-66.89,68.2ZM272.4,1134.59c22.99-16.52,35.01-70.14,46.38-96.7-8.59,14.48-17.52,28.78-25.31,43.72-7.71,16.92-19.15,34.31-21.07,52.99Z"/>
  <path class="cls-1" d="M341.4,1246.59c-13.63-3.73-17.74-20.32-15.06-32.73,7.7-30.44,28.23-55.46,42.95-82.7,12.44-21.83,23.84-44.27,35.37-66,2.88-6.12,5.74-11.86,13.27-10.57,5.99-3.47,13.88.75,14.69,7.54.82,10.17-2.99,20.14-5.23,29.93-3.96,15.15-8.48,30.15-13,45.15-9.68,30.24-31.67,115.99-73,109.4ZM346.88,1227.27c27.8-13.68,42.96-80.48,52.41-109.23-10.4,19.78-21.99,38.87-33.52,58-6.73,13.06-24.34,36.64-18.92,51.23.01,0,.02,0,.03,0Z"/>
  <path class="cls-1" d="M492.17,1151.82c-21.87-5.86-20.17-33.83-12.06-50.29,9.82-22.99,22.93-44.41,35.55-65.93,14.02-22.48,24.69-47.29,40.56-68.5,5.9-4.59,15.17-7.96,19.8.21,6.55,17.5-6.88,50.24-11.97,68.27-7.76,23.46-16.21,46.73-26.14,69.37-9.08,18.95-19.77,50.26-45.74,46.88ZM496.55,1132.36c18.46-7.4,44.85-93.23,52.38-114.85-8.69,19.22-65.72,101.11-52.43,114.82.08,0,.16-.01.24-.02-.07.01-.14.03-.21.04,0,0,0,0,.01,0Z"/>
  <path class="cls-1" d="M334.45,1006.56c-9.78-3.37-7.68-12.77-3.41-19.52-1.74-12.59,17.02-19.07,21.07-5.6,1.5,6.7-2.59,13.06-5.41,18.86-1.47,4.97-7.41,7.65-12.25,6.26Z"/>
  <path class="cls-1" d="M419.58,1081.54c-5.27-.78-9.37-5.99-8.42-11.34.16-.87.38-1.74.65-2.59-4.82-11.47,14.38-23.93,21.4-11.68,3.32,5.85-.39,11.93-2.29,17.54-1.23,5.14-6.02,8.93-11.34,8.07Z"/>
  <g>
    <path class="cls-2" d="M1636.53,1405.64c-5.5-.56-8.15-6.27-11.65-9.85-3.51-4.12-7.05-8.23-10.53-12.37-7.51-8.96-14.64-18.22-21.9-27.38-2.82-3.57-2.57-8.76.99-11.77,3.39-2.87,8.94-2.58,11.77.99,10.46,13.39,21.04,26.69,32.21,39.51,2.05,2.4,4.04,4.86,6.19,7.17,4.92,5.28,0,14.59-7.08,13.71Z"/>
    <path class="cls-2" d="M1571.95,1322.66c-7.06-2.37-9.41-11.05-13.61-16.58-10.56-17.1-20.32-34.67-29.94-52.3-1.91-4.16-5.83-8.05-4.83-12.94,1.21-7.03,11.66-9.05,15.21-2.72,13.54,24.22,26.42,48.89,41.98,71.89,4.18,5.83-1.97,14.42-8.81,12.64Z"/>
    <path class="cls-2" d="M1506.27,1202.69c-5.13-11.35-9.28-23.14-13.43-34.89-4.58-13.38-8.43-26.98-12.16-40.61-2.94-10.54,12.49-15.38,15.95-4.97,2.71,10,5.46,20.02,8.61,29.89,4.83,14.72,9.88,29.42,16.19,43.58,4.35,9.99-10.26,16.88-15.17,7Z"/>
    <path class="cls-2" d="M1581.32,1221.45c-3.91-8.47-7.79-16.96-11.7-25.43-4-8.66-8.02-17.37-10.81-26.52-1.32-4.35,1.13-9.1,5.5-10.46,9.1-2.37,10.8,6.6,13.08,13.1,2.81,7.16,6.12,14.1,9.34,21.08,3.26,7.07,6.5,14.15,9.76,21.22,4.35,10.02-10.28,16.87-15.17,7Z"/>
    <path class="cls-2" d="M1660.75,1360.24c-2.25-.48-3.98-1.84-5.29-3.69-7.61-10.7-15.27-21.4-22.27-32.5-5.75-9.73-27.74-43.13-25.23-52.72,2.14-6.86,12.72-7.46,15.46-.72,3.03,7.43,6.45,14.72,10.28,21.77,8,14.32,16.78,28.21,26.28,41.59,3.18,4.55,6.37,9.11,9.59,13.63,4.14,5.85-1.94,14.42-8.81,12.64Z"/>
    <path class="cls-2" d="M1478.09,1278.96c-5.17-8.77-10.29-17.58-15.35-26.42-3.63-7.56-15.98-24.1-13.68-31.81,2.14-6.85,12.73-7.46,15.46-.71,7.71,17.43,18.25,33.47,27.68,50,5.59,9.41-8.05,18.1-14.1,8.95Z"/>
    <path class="cls-2" d="M1541.01,1363.38c-11.38-13.64-23.25-26.95-33.76-41.28-5.75-9.27,8.04-18.13,14.1-8.95,10.15,13.66,21.52,26.39,32.41,39.45,6.93,8.38-5.6,19.04-12.76,10.78Z"/>
    <path class="cls-2" d="M1587.16,1404.89c-5.1-6.13-18.41-13.06-11.11-22.12,2.92-3.24,8.59-3.86,11.8-.62,4.2,5.3,12.22,9.09,13.24,16.16.6,7.07-8.85,11.65-13.93,6.58Z"/>
    <path class="cls-2" d="M1949.15,1615.41c9.53,6.69,9.37,20.92-3.94,22.06-10.74-.13-21.99-2.55-32.23-3.79-28.67-3.52-57.07-8.87-85.27-15.1-25.51-5.27-51.21-13.28-77.42-12.94-11.55,42.76-25.6,84.84-45.07,124.7-3.99,8.91-11.9,25.8-22.89,14.01-2.67-4.23-2.13-9.55-2.6-14.34-.7-13.52-1.06-27.05-1.74-40.57-1.33-31.63-4.55-63.18-9.44-94.44-37.85,9.62-76.09,17.37-114.37,25.01-11.65,1.7-38.37,10.65-47.73,4.46-7.25-4.86-4.2-14.54,2.48-18.32,20.43-13.88,41.1-27.47,60.95-42.18,19.46-14.29,38.46-29.52,60.05-40.53-28.3-23.34-57.17-46.08-83.45-71.73-6.29-6.61-14.2-12.24-18.28-20.58-1.57-3.75-.76-8.06,2.33-10.78,4.03-3.54,9.75-2.15,14.5-1.27,27.42,4.87,54.23,12.47,81.03,19.93,16.4,4.37,32.35,10.88,49.19,13.34,10.74-31.6,18.25-64.27,31.55-94.98,4.33-9.6,7.38-20.26,14.14-28.48,9.08-8.08,16.75.09,17.03,10.24,5.81,42.34,12.69,83.69,14.53,126.29,52.45-16.72,105.12-38.13,157.99-52.94,6.03-1.46,14.27-1.3,16.53,5.73,1.97,5.53-2.36,9.92-5.79,13.6-6.77,7.34-13.79,14.43-20.97,21.37-30.95,30.33-64.42,57.82-97.48,85.76,34.78,16.71,69.76,32.94,103.53,51.67,14.3,8.17,29.68,14.78,42.8,24.83Z"/>
  </g>
</svg>