<?xml version="1.0" encoding="UTF-8"?>
<svg id="Camada_1" data-name="Camada 1" xmlns="http://www.w3.org/2000/svg" viewBox="0 0 2000 2000">
  <defs>
    <style>
      .cls-1 {
        fill: #a62317;
      }

      .cls-2 {
        fill: #1d0809;
      }

      .cls-3 {
        fill: #edae1a;
      }

      .cls-4 {
        fill: #100;
      }
    </style>
  </defs>
  <g>
    <g>
      <path class="cls-1" d="M1147.66,1525.54c-5.94-5.18-17.84,1.44-24.79,2.79-20.57,5.92-39.07,17.2-59.38,23.71,3.39-24.39,9.17-52.92,1.88-76.85-3.3-9.1-13.21-9.4-18.25-1.59-12.04,14.9-22.56,30.94-33.93,46.34-4.09-16.91-8.12-33.83-12.58-50.64-2.69-7.81-4.54-23.32-13.92-25.38-3.79-.51-7.12,2.18-8.57,5.51-10.62,23.03-18.2,47.39-29.07,70.3-13.39-16.21-27.63-41.94-46.05-51.8-5.58-2.39-11.28,2.6-10.36,8.41,2.39,22.67,6.81,45.14,8.01,67.93-5.96-2.92-11.91-5.86-17.86-8.81-17.52-38.51-43.56-73.89-80.38-95.68-24.51-14.74-50.74-25.89-77.68-35.3.71-10.46,1.43-21.14,2.12-31.87,4.12.1,8.24.45,12.37.62,5.21.28,8.08-6.83,4.28-10.33-3.48-2.78-10.54-2.11-15.9-2.27.48-7.82.93-15.63,1.35-23.36.11-1.81.25-3.62.37-5.43,3.1.54,5.97,1.03,7.8,1.77,7.62,1.99,10.84-9.52,3.22-11.67-3.35-.87-6.74-1.57-10.13-2.3.98-12.47,2.15-24.92,3.47-37.36,6.63.71,13.23,1.72,19.76,3.06,7.67,2.03,10.82-9.56,3.22-11.67-7.15-1.52-14.38-2.64-21.65-3.42,1.14-10.01,2.37-20.02,3.67-30.02.43-4.33.86-8.67,1.29-13,7.07.66,14.41.12,21.4.81,7.89-.04,7.9-11.97,0-12.11-6.73-.26-13.47-.49-20.2-.89.69-7.08,1.37-14.16,2.05-21.24,5.07-1.33,10.11-2.87,15.25-3.86,4.05-.24,8.33-2.64,7.67-7.28-2.27-9.57-13.95-3.03-20.31-2.11-.47.12-.93.25-1.4.37.97-10.37,1.92-20.75,2.84-31.12,10.44.54,20.81-.31,30.91-2.4,1.05,1.43,2.07,2.88,3.07,4.36,2.99,4.26,10.28,2.25,10.79-2.88.06-1.38-.48-3-1.37-4.72,10.05-3.16,19.72-7.54,28.77-12.96,3.01,3.53,5.96,7.15,9.6,10.02,5.64,5.57,14.13-3,8.56-8.56-3-2.37-5.52-5.25-8-8.16,9.42-6.83,17.99-14.84,25.39-23.8,4.29,1.34,8.45,3.1,12.68,4.63,7.33,3.04,11.97-8.1,4.71-11.16-2.16-.57-5.76-2.14-9.75-3.68,6.61-9.77,11.91-20.42,15.58-31.72,6.45-1.15,12.94-2.06,19.36-3.36,7.85-1.11,6.15-13.11-1.64-12-4.78.97-9.59,1.73-14.4,2.53,1.88-10.36,1.99-21.72.16-32.73,6.02-4.16,12.03-8.34,17.92-12.67,6.22-4.88-1.08-14.31-7.4-9.58-4.46,3.28-8.99,6.47-13.53,9.63-3.6-11.37-9.5-21.73-17.87-29.39,1.94-3.89,3.76-7.83,5.2-11.95,3.04-7.32-8.1-11.97-11.15-4.71-1.16,3.26-2.54,6.41-4.03,9.52-3.9-2.11-8.17-3.75-12.83-4.8-6.83-1.15-12.98-.82-18.56.67-.98-4.13-2.99-7.6-8.04-6.5-5.48,1.5-4.48,7.28-3.42,11.54-4.69,2.94-8.91,6.76-12.76,11.15-1.79-2.33-4.1-3.54-7.24-2.32-2.96,1.25-4.6,4.94-3.22,7.93.88,1.71,1.58,3.49,2.24,5.3-8.95,13.57-15.83,29.55-22.56,42.16-2.71,5.36-5.47,10.69-8.46,15.89,1.52-16.39,3.05-32.8,3.31-49.21.04,0,.08-.02.13-.03,5.13-1.07,13.92-.5,13.13-8.06-1.26-6.61-7.89-5.36-13.32-4.2-.11-3.98-.31-7.95-.62-11.93-.37-4.43-.85-8.85-1.44-13.24.5-.28.99-.56,1.49-.84,3.34-1.87,6.71-3.68,10.12-5.4,4.62-2.37,3.54-9.9-1.45-11.06-3.51-.53-8.03,1.97-12.24,4.53-2.27-11.84-5.49-23.27-9.88-33.86,3.8-2.13,7.47-6.91,10.87-8.71,3.02-1.33,6.01-3.57,5.43-7.34-2.27-9.23-11.61-4.01-16.15.33-1.48,1.36-3.6,2.81-5.47,4.41-5.05-9.49-11.25-18.07-18.78-25.36.94-1.38,1.88-2.77,2.83-4.15,2.54-4.84,10.36-10.19,5.16-15.79-6.94-6.09-12.73,4.97-17.21,12.17-11.91-8.67-26.52-14.59-44.37-16.73.07-3.08.17-6.17.3-9.25,1.74-6.76-7.66-10.69-11.17-4.57-1.27,4.09-1.29,8.48-1.24,12.87-18.2-.14-36.05,6.52-50.15,17.99-.69-1.19-1.39-2.38-2.08-3.57-3.22-5.81-14.2-1.39-10.27,6.38,1.09,1.93,2.2,3.86,3.32,5.78-.58.64-1.14,1.29-1.7,1.95-18.27,22.94-25.38,51.89-30.8,80.19-2.31-1.36-4.66-2.66-7.04-3.89-4.46-3.26-11.42-.63-10.59,5.38.4,2.65,2.37,4.48,4.85,5.27,3.65,1.86,7.21,3.9,10.65,6.13-2.11,14.36-3.69,28.74-4.86,43.15-3.18-1.19-6.43-2.51-9.58-4.06-3.86-2.44-8.99-4.81-12.02.14-3.3,5.9,3.45,9.47,8.01,11.36,4.11,1.94,8.37,3.54,12.66,5.06-1.35,20.69-1.91,41.43-1.97,62.2-5.69-.22-11.38-.2-16.95.29-5.58,2.22-4.39,10.88,1.56,11.58,5.12.28,10.27.22,15.42.29.09,14.75.39,29.52.8,44.28-6.27.88-12.53,1.84-18.57,3.49-4.26,2.33-3.8,9.03.69,10.81,1.31.57,2.72.58,4.06.22,4.72-.82,9.46-1.57,14.2-2.31.38,11.83.81,23.66,1.24,35.49-.63-.03-1.3.05-2.02.24-6.4,1.94-21.49,5.57-14.5,14.74,2.21,2.17,6.02,2.43,8.28.32,2.79-1.32,5.73-2.26,8.67-3.16.42,11.88.83,23.75,1.15,35.61-3.2.9-6.5,2.35-9.05,2.84-4.2,1.6-10.62,2.32-11.45,7.68-.47,3.27,1.93,6.38,5.18,6.82,1.37.19,2.8-.13,3.94-.84,3.8-1.53,7.74-2.72,11.69-3.82.12,5.3.22,10.61.29,15.9.25,6.72.5,13.44.72,20.16-3.86-.73-7.72-2.5-11.63-1.96-2.79.8-4.93,3.7-4.39,6.66.52,3.91,4.21,5.29,7.66,5.74,2.9.7,5.81,1.32,8.73,1.91.23,8.56.38,17.13.41,25.69-8.89-1.85-18.03-2.42-17.85,6,.42,4.1,4.77,5.89,8.37,5,3.19.3,6.31.84,9.42,1.45-.06,4.67-.15,9.34-.31,14.02-.08,4.78-.16,9.58-.45,14.35-.12.46-.19.91-.23,1.36-14.67,3.11-28.83,8.69-42.71,14.23-8.69,3.27-17.14,7.03-25.46,11.07-.42-10.01-.83-20.02-1.3-30.03-.05-.82-.11-1.65-.16-2.47,2.87-.4,5.86-1.17,8.2-1.14,5.45-.85,15.2.28,14.47-7.84-1.62-8.26-11.54-4.14-17.29-4.02-1.76.28-3.98.39-6.17.67-.43-6.09-.91-12.17-1.41-18.25.94-.25,1.88-.47,2.82-.57,3.84-1.2,8.82-.53,11.64-3.81,3.33-3.98-.45-10.66-5.61-9.7-2.25.69-6.08,1.16-9.92,1.86-.8-8.75-1.69-17.49-2.62-26.23,4.34-.83,8.7-1.58,13.06-2.3,7.82-1.2,6.18-13.01-1.65-12-4.24.72-8.51,1.4-12.74,2.22-.93-8.3-1.9-16.59-2.92-24.87,3.44-1.73,6.89-3.45,10.4-5.08,7.23-3.2,2.57-14.18-4.71-11.16-2.45,1.13-4.86,2.33-7.27,3.54-.07-.52-.13-1.04-.19-1.55-2.53-17.83-4.91-36.14-11.84-52.85.31-.55.63-1.11.94-1.66,2.93-5.08,5.69-10.27,8.78-15.25,2.41-2.06,2.8-5.88.86-8.38-8.03-7.72-13.14,5.05-17.13,12.49-4.61-7.37-10.51-14.23-17.33-19.83.13-.46.26-.91.4-1.37,1.38-4.73,2.71-9.48,4.16-14.19,2.58-4.1-1.28-9.91-6.08-9.06-6.08.71-7.04,11.39-8.9,17.53-8.12-4.47-17.1-7.09-26.5-6.9-1.4-6.08-3.3-13.07-10.57-9.68-4.09,2.61-3.07,7.03-1.68,11.34-7.32,1.75-13.88,4.71-19.71,8.61-1.73-2.16-3.46-4.32-5.18-6.48-5.96-5.8-14.26,3.52-8.28,9.04,1.34,1.73,2.7,3.43,4.07,5.13-6.2,6.14-11.22,13.52-15.05,21.63-2.17-1.37-4.3-2.81-6.31-4.41-4.96-8.56-16.37.66-9.51,7.64,3.36,3.27,7.3,5.83,11.34,8.25-2.57,8.15-4.09,16.72-4.52,25.31-.14,8.05.21,16.07.89,24.08-2.37-.91-4.73-1.85-7.04-2.89-5.61-3.06-15.17-7.86-16.5,2.09,0,3.12,2.47,5.76,5.53,6.03,6.29,3.27,12.89,5.79,19.48,8.37,1.58,12.28,3.78,24.5,6.12,36.66-2.38-.04-4.77-.09-7.15-.23-4.64-1.04-10.65-.31-10.78,5.63.17,8.44,13.27,6.35,20.28,6.64.24,1.21.48,2.42.71,3.63,2.53,10.89,4.94,21.81,7.29,32.75-.41-.15-.86-.27-1.35-.34-4.08.34-8.24-2.83-11.92-.03-2.39,1.84-3.07,5.29-1.55,7.9,2.46,4.01,7.72,3.66,11.83,4.13,2.23.24,3.95-.51,5.11-1.74,1.84,8.68,3.66,17.37,5.47,26.06-2.3.38-4.51.76-6.29.7-4.61.42-11.45.45-11.49,6.68.48,8.46,9.92,5.5,15.49,5.05,1.38-.26,3.06-.34,4.79-.44,1.76,8.4,3.55,16.8,5.38,25.19-3.21,1.22-6.54,3.53-9.16,4.64-4.78,2.89-14.56,5.63-10.74,12.98,5.32,7.71,14.25-2.29,20.35-4.31.7-.32,1.47-.67,2.25-1.04.53,2.38,1.05,4.76,1.59,7.13.61,3.14,1.27,6.28,1.9,9.42-2.78,1.54-5.84,3.19-6.35,6.6-.54,3.27,1.82,5.9,4.62,6.64-9.76,8.75-19.42,20.16-30.39,36.73-10.05,15.12-18.06,31.49-26.57,47.51-7.43,15.15-14.97,30.38-19.24,46.78-14.09,35.03,15.53,36.26,41.37,39.27,24.39,2.47,48.73,5.49,73.2,7.17,16.9,1.07,33.89,1.65,50.8.47,17.56.3,22.55-13.69,21.17-27.8,33.07,2.29,66.19,5.54,99.39,5.57,70.5,2.15,140.33-2.52,210.88-3.78,28.14-1.68,56.59-.74,84.52-4.82,1.14-.14,2.17-.37,3.12-.66,1.33.34,2.71.52,4.12.51,30.44,2.69,61.04.9,91.55,1.44,20.1.29,40.2.05,60.3.09,8.39-.58,27.64,1.24,40.56-1.81,4.56.23,8.89-.47,12.25-4,11.97-12.26,22.5-25.88,34.33-38.3,5.64-7.21,26.68-27.46,18.12-36.27ZM541.56,1159.87c-.23.08-.46.16-.68.24l-.12.02c.33-.09.65-.21.95-.36-.06.04-.12.07-.18.11.01,0,.02,0,.03-.01ZM543.94,1197.97c-.22,0-.44,0-.67.03.82-.08,1.69-.07,2.47.2-.58-.15-1.18-.22-1.8-.22ZM546.8,1257.34c.75-.52,1.39-1.21,1.85-2.02-.41.79-1.08,1.51-1.85,2.02ZM756.91,1065.85c7.81-10.4,13.75-21.97,19.57-33.58,3.5,5.74,12.38,6.73,13.22-1.47,0-2.21-1.24-4.18-3.05-5.24-1.34-2.05-2.41-4.26-3.52-6.44.22-.42.44-.84.66-1.26,2.82-5.72,6.11-12.32,9.95-18.74,3.9,1.37,8.93-1.72,8.17-6.48-.46-.96-.9-2.24-1.37-3.69,2.99-3.94,6.24-7.55,9.78-10.5.96,1.74,2.53,2.96,5.2,3.14,6.06-.41,6.2-4.96,5.65-9.5,6.58-2.31,13.95-2.19,22.23,1.64.7.34,1.36.72,2.03,1.09-.5.98-.99,1.96-1.48,2.95-1.75,2.55-1.94,6.12.39,8.41,5.01,4.09,8.52.72,10.8-3.56,6.39,7.04,10.5,16.2,12.96,25.5-2.94,2.91-4.09,6.64.49,10.04.59.34,1.16.57,1.72.7,1.38,9.94.65,19.88-1.66,29.5-2.58.69-4.52,3.07-4.52,5.84,0,1.7.61,3.04,1.56,4.03-3.68,10.25-9.07,19.98-15.53,28.78-4.51-.41-7.95.87-8.35,5.81-.02,1.35.36,2.44.99,3.32-.07.07-.13.15-.19.22-6.36,7.14-13.49,13.64-21.26,19.25-1.45-1.26-3-2.41-4.71-3.38-6.3-2.97-11.57,6.46-6.05,10.34-8.69,4.99-17.99,8.89-27.73,11.39-1.5-1.58-2.91-2.95-3.97-3.92-4.68-5.98-13.39.54-10.16,6.54-6.75.83-13.56,1.15-20.36,1.11,1.89-21.62,3.66-43.24,5.29-64.88.08-1.25.18-2.5.27-3.75,1.2-.77,2.25-1.85,2.98-3.21ZM571.56,1361.59c.14-6.27.26-12.54.38-18.81,6.87.79,9.42-9.89,2.17-11.86-.57-.05-1.25-.16-1.98-.29.01-.93.03-1.85.04-2.78-.09-7.79-.22-15.59-.38-23.38,1.16.22,2.31.43,3.47.65,5.13,1,8.96-5.73,5.61-9.7-1.92-1.95-5.52-2.87-9.37-3.5-1.15-45.32-3.3-90.64-4.49-135.96,1.26-.2,2.52-.39,3.78-.59,7.82-1.18,6.18-13-1.64-12-.81.15-1.62.28-2.43.42-.31-13.92-.51-27.84-.54-41.76.13.02.26.02.39.04,7.82.98,9.46-10.85,1.64-12-.67-.06-1.35-.11-2.02-.16.09-20.11.54-40.21,1.55-60.32,4.67-1.58,5.18-8.26.68-11.04,1.23-11.78,2.46-25.24,4.28-39.22,6.07,3.49,12.53-5.38,6.61-10.1-1.51-1.26-3.05-2.47-4.63-3.64,4.59-28.75,12.38-58.05,28.25-78.11,1.31,2.16,2.62,4.32,3.95,6.47,4.14,6.78,14.38.71,10.46-6.11-1.97-3.16-3.89-6.34-5.8-9.54,11.4-10.2,26.09-16.37,45.19-16.28,2.15,2.37,6.17,2.55,8.61.53,16.06,1.78,29.12,7.05,39.7,14.86-1.59,3.04-1.98,6.16,1.84,8.69,2.46,1.51,5.2.84,7.17-.88,16.58,16.83,25.5,41.05,29.92,66.87-4.64,2.93-9.11,7.12-4.62,12.15,1.78,1.81,4.33,2.14,6.52,1.3.43,3.8.78,7.62,1.05,11.43.17,3.61.24,7.22.27,10.82-2.18,1.82-3.26,4.33-1.51,7.61.45.75.93,1.33,1.46,1.76-.63,31.12-5.31,62.35-6.83,93.65-2.9,31-5.36,62.06-8.18,93.07-2.85.64-5.18,2.86-5.17,6.01,0,2.61,1.73,4.87,4.08,5.71-.67,7.05-1.36,14.1-2.08,21.14-1.15,1.78-1.55,4.02-.63,5.99-1.21,11.46-2.51,22.9-3.95,34.33-.52,4.04-1,8.08-1.47,12.12-3.16.25-5.81,1.71-6,5.89.02,3.39,2.1,4.98,4.72,5.78-1.25,12.08-2.3,24.15-3.22,36.22-1.42.27-2.74.99-3.65,2.2-2.54,4.83-.75,7.64,2.79,9.44-1.68,23.83-3.01,47.7-4.63,71.76-26.58-8.77-53.7-16.13-80.42-23.83-19.14-4.48-38.64-8.8-58.38-8.87-.92.07-1.84.16-2.76.26.07-2.17,0-4.44.21-6.45ZM477.99,1379.76c.01.3.03.61.04.91-.02-.3-.04-.6-.05-.89,0,0,0-.01,0-.02ZM371.42,1170.95c4.93,6.2,14.34-1.11,9.58-7.4-.19-.23-.37-.47-.56-.7,6.65-4.23,14.44-6.96,23.38-7.67,8.67-.39,16.73,2.28,23.87,6.72-.5,1.74-1.01,3.48-1.51,5.22-.91,3.17,1.08,6.58,4.23,7.44,3.13.89,6.54-1.04,7.44-4.23.03-.11.06-.22.09-.32,3.56,3.46,6.74,7.31,9.48,11.27,1.67,2.59,3.15,5.25,4.5,7.96-1.48,2.62-2.97,5.24-4.44,7.87-1.62,2.87-.71,6.59,2.17,8.28,2.65,1.56,6.28.79,8.02-1.76,4.67,14.79,6.46,30.63,8.38,46.21-3.65,2.32-4.1,8.15.02,10.5.45.28.93.48,1.42.61.14.98.28,1.96.42,2.93.77,7.02,1.55,14.03,2.32,21.05-2.79,2.3-3.21,7.28.05,9.59.35.26.7.46,1.06.63,1.07,9.95,2.09,19.9,3.01,29.87-.08.15-.16.31-.22.48-.83,1.98-.48,4.43.82,6.14,1.29,14.74,2.32,29.5,2.89,44.29-1.6-3.9-7.45-5.69-10.49-1.61-3.49,5.97-.1,13.9.25,20.4.95,6.2,8.51,6.45,11.15,2.43.06,1.37.12,2.74.17,4.11-8.16,4.24-16.23,8.67-24.29,13.09-.46.24-.91.47-1.36.7-.98-4.55-2.45-9.43-2.51-12.69-.1-7.9-12.02-7.87-12.11.01.27,5.46,1.89,10.8,2.83,16.18.17.7.29,1.45.43,2.21-4.38,2.15-8.52,4.14-12.47,6.02-.94-4.52-1.85-9.06-2.41-13.64-.79-7.22-12.09-6.79-12.05.78.23,3.83,1.11,7.62,1.85,11.37.68,2.14.93,4.56,1.27,6.93-9.37,4.56-17.65,8.86-25.47,14.03-.59-2.75-1.22-5.33-1.44-7.19-2.84-14.79-6.58-29.39-9.69-44.13-.68-3.79-1.4-7.56-2.13-11.33,0-.28,0-.56-.02-.86-.11-.51-.25-.97-.42-1.39-7.72-39.03-18.09-77.48-23.83-116.91-2.51-18.82-5.75-38.09-2.08-56.97.49-2.6,1.11-5.17,1.82-7.69,5.08.06,8.45-7.05,3.9-10.75,3.12-6.96,7.21-13.28,12.31-18.53.12.15.24.29.35.44ZM451.17,1624.37c-26.55.16-53.01-2.45-79.38-5.32-11.9-1.31-23.81-2.46-35.7-3.84-8.21-1.21-17.14-1.67-24.27-6.33,9.85-43.08,70.5-70.86,111.44-59.69,25.7,5.63,45.34,27.6,52.3,52.43,5.94,25.28-4.33,22.13-24.38,22.74ZM767.29,1598.68c-90.23,2.43-181.55,6.81-271.72-2.32-3.12.12-6.46-.61-9.68-.72-24.32-75.48-116.14-76.13-165.6-24.68,18.3-39.08,37.41-80.05,70.18-109.19.13-.1.26-.19.39-.28.54-.25.99-.58,1.37-.98,10.09-7.29,21.06-13.06,32.26-18.46,2.21.18,4.47-.93,5.74-2.74,11.07-5.22,22.25-10.29,32.89-16.3,33.36-18.44,68.38-35.95,106.27-43.1,13.93-1.67,27.97,1.47,41.64,3.91,23.76,4.44,46.72,12.15,69.88,18.91,58.72,18.47,122.96,37.83,162.21,88.63,8.49,11.15,16.08,23.15,22.65,35.71-2.46-1.21-4.93-2.42-7.39-3.62-9.01-3.62-38.15-22.18-40.67-4.43,1.21,8.52,9.07,14.44,13.49,21.48,10.81,13.99,20.85,28.7,32.62,41.9,2.72,4.04,5.66,8.26,8.9,11.92-14.49,1.67-29.22,1.32-43.76,2.28-20.62.63-40.99,1.87-61.65,2.1Z"/>
      <path class="cls-1" d="M485.41,1440.61c7.04-2.94,2.74-13.54-4.28-10.8-8.86,3.9-17.71,7.84-26.47,11.98-15.87,7.69-32.44,15.42-46.22,26.73-7.84,6-14.61,13.22-21.45,20.3-3.96,4.4-13.78,11.33-6.24,16.95,3.44,2.18,7.04-.1,9.03-3.12,3.57-3.83,7.3-7.53,10.94-11.3,12.07-12.9,26.59-23.24,42.47-30.93,13.84-7.2,27.82-13.46,42.21-19.8Z"/>
      <path class="cls-1" d="M492.02,1445.99c-20.14,7.45-40.01,15.53-59.03,25.55-3.57,2.09-8.23,3.22-10.83,6.57-1.59,2.74-.82,6.31,1.92,7.99,4.64,3.03,12.29-4.2,17.31-5.76,11.18-5.59,22.41-11.13,34.09-15.59,6.95-2.64,13.93-5.19,20.83-7.96,7.04-2.88,2.78-13.51-4.28-10.8Z"/>
      <path class="cls-1" d="M805.29,1577.92c-11.89.07-23.78.65-35.68.75-14.75.25-29.51.7-44.24-.25-5.57.39-15.01-2.05-19.49,1.01-3.82,3.1-1.55,10.05,3.42,10.15,6.2.11,12.38.29,18.58.59,16.23.86,32.49.22,48.72-.02,9.25-.14,18.5-.54,27.75-.66,1.59.06,3.13-.35,4.35-1.44,3.83-3.12,1.55-10.02-3.42-10.15Z"/>
      <path class="cls-1" d="M710.64,1558.23c-5.06.02-7.38,7.06-3.5,10.18,4.18,3.1,19.8.57,26.01,1.06,19.3-.47,38.68-.62,57.82-3.38,7.59-.52,6.91-11.96-.64-11.61-7.34.91-14.68,1.88-22.09,2.19-19.18,1.01-38.4,1.33-57.61,1.55Z"/>
      <path class="cls-1" d="M414.91,1562.13c-12.39-.29-24.8,1.21-36.61,5.04-9.01,2.88-17.64,7.04-25.88,11.67-2.8,1.38-4.11,4.95-2.67,7.77,1.33,2.73,5.03,4.22,7.77,2.67,5.46-3.07,11.09-5.9,16.88-8.31,7.76-3.15,15.87-5.4,24.18-6.47,7.17-1.3,14.77.03,21.74-1.14,6.95-4.39,1.95-12.37-5.41-11.23Z"/>
      <path class="cls-1" d="M405.38,1578.31c-6.09,1.18-12.46,3.88-18.43,5.92-6.25,2.31-12.46,4.71-18.76,6.89-2.99,1.04-4.7,4.3-3.7,7.34.98,2.99,4.4,4.73,7.34,3.7,5.73-1.99,11.41-4.15,17.1-6.27,5.75-2.12,11.51-4.24,17.41-5.95,1.95-.24,3.84-.98,4.95-2.69,2.89-4-1.06-10.08-5.91-8.93Z"/>
      <path class="cls-1" d="M708.5,1443.28c8.38,2.12,16.52,5.19,24.69,7.99,16.21,5.62,31.97,12.43,47.49,19.73,6.84,3.27,11.91-7.02,5.14-10.42-22.37-10.63-45.44-19.77-69.11-27.07-13.21-6.15-16.9,7.01-8.22,9.77Z"/>
      <path class="cls-1" d="M763.68,1491.03c6.83,3.28,11.9-7,5.14-10.42-19.49-9.24-38.92-18.62-58.84-26.9-11.31-7.04-17.02,5.86-7.91,9.27,2.88,1.18,5.59,2.36,8.74,3.69,17.86,7.59,35.33,16.07,52.87,24.37Z"/>
      <path class="cls-1" d="M658.66,913.3c1.18,7.83,12.98,6.18,12-1.64-.7-5.15-1.48-10.31-1.85-15.49-.37-2.84.69-5.69-1.29-8.22-2.97-4.19-10.35-2.31-10.79,2.87-.19,1.94-.12,3.89,0,5.84.36,5.57,1.22,11.1,1.94,16.64Z"/>
      <path class="cls-1" d="M639.69,957.23c.14-7.68.16-15.38.45-23.04-.69-6.38-10.44-6.98-11.86-.73-.87,7.87-.36,15.85-.69,23.77.07,7.91,12,7.89,12.11,0Z"/>
      <path class="cls-1" d="M710.77,953.55c.03-7.09.03-14.21.56-21.28-.13-7.86-11.98-7.91-12.11-.07-.57,7.1-.52,14.24-.56,21.35.08,7.9,12.01,7.89,12.11,0Z"/>
      <path class="cls-1" d="M684.3,1020.19c-.31-7.81-.66-15.63-1.25-23.43.83-8.43-11.83-9.38-12.13-.89.45,8.09,1.03,16.21,1.27,24.32.14,7.91,12.07,7.89,12.11,0Z"/>
      <path class="cls-1" d="M600.68,1021.18c-.48-6.97,2.08-19.67-.95-25.31-3.54-4.92-11.95-1.3-10.77,4.61.12,6.9-.3,13.8-.39,20.7.05,7.9,11.98,7.89,12.1,0Z"/>
      <path class="cls-1" d="M719.64,1049.54c.1,7.91,12.03,7.89,12.11,0,.04-11.08-.47-22.16-.1-33.23,1.7-7.1-8.63-10.4-11.49-3.69-1.85,12.08-.09,24.68-.52,36.93Z"/>
      <path class="cls-1" d="M703.22,1100.11c.15,5.64.04,11.31.05,16.95.09,7.9,12.02,7.89,12.11,0-.01-5.65.1-11.31-.05-16.95-.12-7.91-12.05-7.89-12.11,0Z"/>
      <path class="cls-1" d="M671.11,1083.72c-3.52-3.8-10.57-.94-10.33,4.28.13,3.22.48,6.43.72,9.64.59,9.25.84,18.55.98,27.83.11,7.91,12.04,7.88,12.11,0-.21-12.26-.66-24.51-1.66-36.73-.01-1.85-.44-3.69-1.81-5.02Z"/>
      <path class="cls-1" d="M591.49,1113.64c9.28,2.01,9.04-12.93,11.84-18.83.99-5.26,6.17-15.43,2.78-19.91-1.99-2.59-5.93-3.15-8.51-1.09-1.88,1.41-2.29,3.63-2.67,5.8-1,4.49-2.36,8.88-3.67,13.29-.9,6.41-8.89,17.4.22,20.76Z"/>
      <path class="cls-1" d="M631.37,1159.19c3.22.46,6.37-1.9,6.82-5.18.85-6.05,1.73-12.09,2.63-18.14.94-5.91,1.69-11.85,2.48-17.79,1.65-3.48-.8-8.08-4.71-8.46-10.08-.66-7.21,14.97-9.31,21.59-1.05,7.05-2.1,14.1-3.09,21.15-.45,3.26,1.92,6.37,5.18,6.82Z"/>
      <path class="cls-1" d="M654.32,1199.24c3.39-4.57,1.52-11.18,2.32-16.56.11-3.19.21-6.43-.5-9.56-1.02-4.36-7.14-6.13-10.18-2.76-1.74,1.79-2.17,4.36-1.42,6.68.2,5.98-.3,11.95-.56,17.92-.27,5.22,6.84,8.07,10.33,4.28Z"/>
      <path class="cls-1" d="M699.47,1203.17c3.33,0,6.01-2.76,6.05-6.05.14-11.15.28-22.3.28-33.45-.09-7.91-12.02-7.89-12.11,0,0,11.15-.14,22.3-.28,33.45-.04,3.3,2.78,6.05,6.05,6.05Z"/>
      <path class="cls-1" d="M605.41,1179.07c-5.29-1.57-9.01,4.23-7.23,8.9.23,5.34-.28,10.72-.63,16.05-.53,4.09-1.28,11.14,4.8,11.84,3.14.43,6.55-1.89,6.82-5.17.44-5.3.76-10.61,1.04-15.93-.08-5.3,1.64-13.56-4.8-15.7Z"/>
      <path class="cls-1" d="M660.39,1244.8c-.16-6.16,5.17-18.15-4.6-18.82-7.47.33-6.31,9.25-7.13,14.57.35,6.49-5.57,20.14,3.66,21.92,9.35.52,6.71-11.6,8.07-17.66Z"/>
      <path class="cls-1" d="M705.89,1236.25c-3.14-1.03-6.6,1.16-7.44,4.23-.63,2.17.46,4.29.44,6.48.44,6.95.57,13.93.75,20.9.11,7.91,12.04,7.89,12.11,0-.12-5.05-.28-10.1-.46-15.15-.73-5.52,1.22-14.1-5.39-16.45Z"/>
      <path class="cls-1" d="M597.09,1266.89c-.51,1.23-.64,2.63-.28,3.9.61,6.08.63,12.22.87,18.32.12,7.91,12.05,7.89,12.11,0-.56-7.36.2-15.06-1.54-22.23-1.91-4.8-9.34-4.88-11.16,0Z"/>
      <path class="cls-1" d="M662.87,1299.28c-5.05-.03-6.91,5.33-7.14,9.57-.96,9.05-1.23,18.17-1.77,27.25-.26,5.22,6.83,8.07,10.33,4.28,3.38-3.7,1.85-18.66,2.95-24.64-.31-6.32,5.72-15.12-4.37-16.46Z"/>
      <path class="cls-1" d="M604.49,1327.76c-2.33-2.33-6.23-2.33-8.56,0-3.12,3.59-2.1,8.89-2.85,13.29.27,6.1-4.56,16.98,4.12,18.81,8.71.67,6.84-10.07,7.75-15.79-.31-4.92,3.12-12.65-.46-16.3Z"/>
      <path class="cls-1" d="M706.46,1338.84c-5.82-4.22-10.68,2.6-11.39,8.02-1.08,5.17-3.7,13.77,3.76,15.06,6.49.75,7.08-6.01,7.68-10.8.83-4.18,4.5-8.88-.05-12.28Z"/>
      <path class="cls-1" d="M813.53,1019.59c7.71,3.93,10.15-6.5,12.98-11.5,2.13-5.17,8.1-12.82.6-16.45-6.05-2.48-8.65,4.19-10.32,8.69-1.74,5.88-10.65,14.17-3.26,19.25Z"/>
      <path class="cls-1" d="M843.57,1060.18c3.16.91,6.46-1.05,7.44-4.23,1.74-5.45,3.45-10.92,4.98-16.43,1.43-5.14,2.5-10.34,3.53-15.57,1.32-3.87,2.15-8.86-2.5-10.78-8.53-2.92-9.29,8.12-10.41,13.84-1.9,8.71-4.56,17.24-7.27,25.72-1,3.14,1.15,6.6,4.23,7.45Z"/>
      <path class="cls-1" d="M802.96,1095.1c2.77,1.62,6.71.73,8.28-2.17,3.4-6.26,6.73-12.56,9.9-18.94,2.2-6.05,10.4-16.75,2.13-21.15-4.38-1.92-8.25,1.84-8.79,6.06-1.31,3.67-2.92,7.22-4.65,10.71-2.95,5.77-5.95,11.51-9.04,17.21-1.57,2.9-.74,6.57,2.17,8.28Z"/>
      <path class="cls-1" d="M795.82,1054.43c4.54-1.74,4.91-8.66.7-11.03-4.54-2.87-8.57,1.77-11.61,4.68-3.79,3.86-11.78,8.89-6.41,14.72,6.86,5.89,12.32-4.79,17.31-8.37Z"/>
      <path class="cls-1" d="M785.73,1105.15c4.13-3.82,13.47-8.09,8.81-14.8-5.5-6.41-11.58,2-16.21,5.22-4.21,4.13-14.68,8.22-9.82,15.43,5.83,6.6,12.29-2.62,17.22-5.85Z"/>
      <path class="cls-1" d="M630.03,1034.74c-.66,5.58-.69,11.22-.8,16.83.08,7.9,12.01,7.89,12.11,0,.15-5.57,0-11.21.96-16.71,2.33-10.58-12.3-11-12.27-.12Z"/>
      <path class="cls-1" d="M598.63,947.46c8.31,2.93,9.11-7.97,11.62-13.22,2.09-5.08,6.82-13.55-.92-16.11-7.63-1.77-8.26,7.92-10.79,12.81-1.59,5.18-7.01,13.21.09,16.51Z"/>
      <path class="cls-1" d="M450.55,1278.83c-7,.33-6.34,7.33-5.44,12.42.76,6.53,1.51,13.06,2.32,19.59,1.16,7.83,12.96,6.18,12-1.64-.92-8-2.05-15.99-2.81-24.01.12-3.36-2.64-6.43-6.07-6.36Z"/>
      <path class="cls-1" d="M414.15,1279.45c1.13,7.83,12.94,6.19,12-1.65-1.02-9.24-1.73-18.54-3.37-27.71-1.97-9.25-14.85-5.15-11.6,3.95,1.37,8.42,2.03,16.92,2.97,25.4Z"/>
      <path class="cls-1" d="M445.29,1244.22c1.18,7.83,12.98,6.18,12-1.64-.97-7.39-2.11-14.76-2.97-22.16-1.13-7.82-12.94-6.2-12,1.64.86,7.4,1.99,14.78,2.97,22.16Z"/>
      <path class="cls-1" d="M429.58,1203.08c-.68-5.2-1.54-10.37-2.15-15.58-.23-7.82-12.02-7.71-12.1.12.48,5.72,1.54,11.4,2.25,17.11,1.19,7.84,12.98,6.17,12-1.64Z"/>
      <path class="cls-1" d="M397.98,1184.91c.6-4.36.51-9.34-4.9-10.22-7.13-.79-7.34,7.36-7.37,12.46,1.02,9.31,13.18,7.41,12.27-2.24Z"/>
      <path class="cls-1" d="M368.64,1228.52c8.6.68,6.92-9.93,7.74-15.62.18-5.56,2.72-15.18-5.52-15.59-6.64.03-6.21,7.46-6.34,12.25.37,6.15-4.63,17.09,4.13,18.95Z"/>
      <path class="cls-1" d="M389.9,1227.97c.09,7.9,12.02,7.89,12.11,0-.01-4.68-.14-9.39.14-14.07.76-3.39-1.72-6.83-5.12-7.28-10.59-.41-6.21,14.69-7.13,21.35Z"/>
      <path class="cls-1" d="M374.6,1267.42c-1.15-4.93-2.62-9.77-3.89-14.66-1.07-7.26-12.01-6.49-12.04.88.85,5.74,3.08,11.29,4.26,17.01,2.17,7.61,13.66,4.42,11.67-3.22Z"/>
      <path class="cls-1" d="M400.02,1282.61c-1.78-7.23-4.02-14.41-5.02-21.8-.13-7.88-12.02-7.83-12.1.04.68,8.5,3.55,16.69,5.45,24.97,2.19,7.62,13.66,4.41,11.67-3.22Z"/>
      <path class="cls-1" d="M368.44,1302.74s-.03-.03-.05-.05c-.08-.24-.17-.49-.25-.73.26.86.43,1.76.61,2.64,1.73,8.54,3.13,17.48,4.59,26.38,1.22,7.85,13.01,6.15,12-1.64-1.39-8.29-2.73-16.59-4.29-24.85-.88-15.67-15.71-11.03-12.61-1.75Z"/>
      <path class="cls-1" d="M394.66,1311.05c.95,5.42,2.25,10.81,3.32,16.22,1.1,5.07,8.66,5.96,11.07,1.44,2.24-4.71-2.01-13.83-2.39-19.31-1.05-7.81-13.03-6.2-11.99,1.65Z"/>
      <path class="cls-1" d="M422.82,1318.03c-2.76,2.74-1.53,6.54-.91,9.88,1.15,6.96,1.95,13.99,2.82,20.99,1.15,7.83,12.95,6.19,12-1.64-1.03-8.45-2.02-16.91-3.61-25.27-.07-5.04-6.83-7.7-10.29-3.96Z"/>
      <path class="cls-1" d="M453.31,1339.17c-.85,5.68.58,11.53.89,17.23,1.12,7.83,12.94,6.2,12-1.64-.39-4.32-.97-8.63-1.06-12.97,1.19-7.41-9.71-9.85-11.83-2.62Z"/>
      <path class="cls-1" d="M401.15,1375.32c-1.76-7.35-3.25-14.77-5.57-21.97-1.89-7.17-12.84-5.03-11.84,2.36,2.19,7.52,4,15.17,5.74,22.82,2.15,7.61,13.64,4.43,11.67-3.22Z"/>
      <path class="cls-1" d="M426.44,1371.75c-.51-6.19-10.21-7.38-11.84-.89-.08,7.96,2.38,15.92,3.18,23.88,1.2,7.83,13,6.17,12-1.64-1.06-7.13-2.19-14.25-3.34-21.35ZM426.45,1372.73c.01-.18.01-.36.01-.54,0,.1.01.2.02.31-.01.08-.02.16-.03.23Z"/>
      <path class="cls-1" d="M451.97,1383.99c-1.32-5.48,1-15.35-7.05-15.73-9,.63-5.35,11.49-4.94,17.37,1.17,7.83,12.97,6.19,12-1.64Z"/>
      <path class="cls-1" d="M401.43,1405.93c-1.92-12.1-16.91-8.54-11.98,2.32,1.92,5.78,3.19,11.69,4.42,17.65.54,2.12.7,6.5,3.12,8.1,3.98,3.33,10.68-.46,9.7-5.61-1.54-7.53-2.87-15.13-5.26-22.44Z"/>
    </g>
    <g>
      <path class="cls-1" d="M1274.16,1065.84c-2.93-.02-4.85,2.07-5.86,4.58-2.17,4.55-7.26,10.22-1.26,14.13,7.06,3.67,9.85-5.84,12.43-10.55,1.75-3.49-1.23-8.32-5.31-8.16Z"/>
      <path class="cls-1" d="M1283.45,1106.45c3.9-.19,7.65-.53,11.53-.94,3.15-.31,5.38-3.5,4.97-6.54-.44-3.23-3.4-5.28-6.54-4.97-4.08.56-8.23.57-12.29,1.1-7.05,2.01-4.52,12.35,2.33,11.36Z"/>
      <path class="cls-1" d="M1823,1309.51c-15.92,5.66-28.52,17.15-39.98,29.43-33.14,35.16-47.83,83.5-81.33,118.37-1.71,1.77-3.44,3.53-5.21,5.26,15.65-26.79,11.84-65.71-16.08-82.8-2.17-1.2-5.22-3.08-8.5-4.78,14.68-10.87,25.87-24.66,31.58-42.14,6.08-24.58-4.24-50.78-19.19-70.21-20.42-24.86-52.69-37.06-84.38-35.63,26.3-14.27,49.55-34.33,64.37-60.38,19.29-40.16,28.54-90.04,9.03-131.77-18.05-40.19-59.84-63.33-100.34-75.98-67.85-21.79-128.27-9.47-185.49,31.84-12.27,8.73-24.3,17.46-37.21,25.33-6.03.52-14.45,5.78-18.74,7.2-12.18,5.2-24.59,9.85-36.45,15.77-20.9,11.13-46.25,20.63-57.93,42.58-1.52,2.94-2.59,6.06-3.2,9.25-1.6.5-3.23,1.31-4.75,2.02-8.72,3.65-17.47,7.25-26.06,11.21-12.93,6.34-26.03,12.35-38.81,18.98-4.57,2.61-4.21,9.3.69,11.29,10.06,2.23,20.72.7,30.94.13-4.4,5.39-8.55,10.97-12.45,16.74-3.51,3.97-4.34,10.29,1.67,12.25,1.95.54,3.94-.02,5.79-.7,4.53-1.65,8.94-3.7,13.32-5.69,17.66-8.39,35.07-17.28,52.71-25.71.85-.38,1.54-.87,2.06-1.43,7.4,1.73,15.37,1.57,22.81.66,25.5-1.26,44.99-18.69,63.72-34.16,26.37-21.88,53.99-42.49,84.5-58.3,28.29-13.47,59.52-24.06,91.22-22.34,25.91,1.51,51.81,10.03,63.66,35.06,16.82,31.39-3.99,67.17-30.88,85.15-33.21,20.87-73.66,24.19-111.2,32.43-48.52,9.81-97.31,18.24-145.45,29.85-24.11,5.97-49.23,11.57-69.6,26.55-29.9,20.92-38.89,67.87-12.29,94.98,7.7,8.35,16.96,14.19,27.04,18.35-13.46,10.89-19.52,28.84-18.55,45.81,2.84,29.31,20.99,47.91,45.77,59.83-.86.13-1.65.23-2.36.28-24.24,4.86-49.64,17.01-63.05,38.57-15.34,28.26-10.09,65.41,15.43,86.06,9.94,9.91,23.88,13.08,37.39,14.72,5.46,1.83,11.08,3.24,16.66,4.26,16.24,2.68,32.75.89,49.09.39,21.97-1.4,44.11-1.52,65.93-4.71,19.71-1.87,19.55-20.13,6.57-31.02-30.18-24.88-74.89-19.82-105.75,1.26-12.19,8.7-20.04,13.5-35.61,12.71-3.14.04-6.31.25-9.45-.03-2.04-.18-3.6.49-4.66,1.58-2.35-.9-4.64-2-6.85-3.35-9.05-6.55-17.04-15.21-21.54-25.47,4.65,5.89,19.68-1.71,24.74-4.56,23.33-13.55,30.2-50.47,9.64-67.46.24-.1.48-.19.72-.29,9.98-3.75,20.53-5.63,31-7.46,9.99-1.74,19.4-2.6,29.81-2.74.08,0,.15-.02.22-.02,35.82,8.16,75.59,9.07,103.12,10.32,27.18.16,54.37-1.15,81.45-3.39,1.66,8.16,17.75,16.98,23.52,19.46,20.68,9.53,47.18,3.81,60.48-15.13,2.06-3.04,5.96-7.73,6.85-11.9,9.14-.11,18.29.14,27.44.93,7.49,1.13,8.98-10.64,1.58-11.51-35.72-3.11-71.47,1.37-106.94,5.32-41.53,3.99-83.59,6.09-125.35,3.4-.12,0-.25-.02-.37-.02.06,0,.08,0,.11,0,.09,0,.18.02.27.02-51.06-4.06-152.25-11.12-143.47-83.07,2.08-11.44,8.87-21.31,18.49-27.75.44-.12.85-.28,1.23-.47,14.99,4.01,31,5.39,46.06,6.43,78.93,4.36,155.82-17.76,233.88-25.42,3.18,5.93,9.85,9.38,15.63,12.41,11.02,5.48,23.12,8.76,35.41,9.48,12.75-.18,26.57-.7,37.57-7.89,16.2-9.89,19.74-30.91,2.56-41.82-18.33-10.57-41.48-4.93-60.11,2.15-8.11,3.34-15.76,7.65-23.39,11.94-.67.38-1.23.89-1.65,1.49-4.08.33-8.16.71-12.22,1.12-21.7,1.79-52.59,7.37-86.75,12.89-.35-.5-.81-.96-1.37-1.33-29.69-23.23-73.35-26.6-106.1-7.8-4.83,3.37-21.12,14.17-20.51,21.95-25.34-.27-48.42-3.28-66.68-10.74,13.27-12.41,14.81-73.72-32.08-70.88,3.25-7.21,7.99-13.77,13.92-18.97,19.8-16.82,46.02-22.08,70.55-28.3.16.81.53,1.63,1.12,2.43,8.46,10.69,23.01,15,36.04,16.89,32.72,3.72,66.29-9.54,79.92-41.08.5-.9.75-1.77.79-2.61,9.29-1.81,18.59-3.64,27.87-5.53,29.35-5.99,59.33-10.24,87.55-20.69,48.26-15.73,89.45-72.91,56.79-120.76-8.87-14.4-22.56-23.18-37.89-28.23-.03-.47-.11-.96-.26-1.46-10.19-31.49-48.5-36.04-73.63-19.58-5.84,3.5-20.08,16.11-17.77,24.12-46.88,14.84-88.7,45.79-126.21,76.99-11.89,9.43-23.37,20.11-37.7,25.69-12.4,3.5-26.09,5.92-38.7,2.21-24.25-10.29-13.12-38.25,5.39-48.44-.15.1-.3.2-.45.3-.09.07-.19.14-.29.2,16.71-11.02,34.69-19.98,53.09-27.82.8,1.37,2.22,2.41,4.29,2.65,7.15.73,14.21,2.16,21.37,2.88,13.07,1.12,26.67-2.46,38.11-8.74,13.77-7.83,19.58-23.3,23.65-37.78.44-2.56,2.34-4.35,2.77-6.89.02-.78-.05-1.49-.21-2.12,2.23-1.41,4.48-2.79,6.76-4.12,50.63-32.55,109.67-35.36,165.52-14.92,30.4,10.47,55.07,26.07,71.46,46.79-9.35,10.26-15.22,28.2-14.82,42.01.95,19.8,16.4,38.14,35.91,41.77-.57,4.35-1.35,8.81-2.35,13.35-4.01,18.38-9.6,36.84-20.03,52.68-13.86,19.27-32.44,34.77-53.18,46.39-.23-.33-.51-.65-.84-.95-19.83-9.83-43.79-10.2-65.7-5.03-6.46,1.11-12.8,2.88-18.99,5.18-7.65,2.24-14.6,6.07-20.78,11.07-4.63,3.68-20.44,14.67-20.34,22.39-25.38,2.7-50.89,4.69-76.09,8.27-25.22,3.39-50.36,7.32-75.49,11.32-3.87.58-7.78,1.2-11.69,1.5-6.67-.09-7.82,9.8-1.52,11.43,14.51-.28,28.88-4.12,43.31-5.9,30.2-4.64,60.46-8.89,90.85-12.1,19.13-1.57,38.3-3.32,57.32-5.94,7.35-.66,14.69-1.76,21.93-2.73,16.11-2.65,32.25-5.75,47.85-10.59.36.07.73.1,1.13.09,25.99-6.24,54.81-9.08,79.43,3.56,20.25,9.58,36.23,26.92,43.25,48.28,7.8,20.02,4.69,41.51-10.34,57.23-22.32,22.31-54.97,35.32-91.58,42.5-.28-1.61-1.26-3.08-3.14-3.98-.53-.44-1.12-.79-1.74-1.05-.12-.14-.26-.29-.4-.43-19.97-17.26-49.71-19.74-73.51-9.35-7.46,3.05-14.67,7.17-20.09,13.22-2.22,2.13-4.79,5.83-5.81,9.36-36.85-.5-72.06-3.44-100.08-5.8-19.8-1.58-39.63-3.07-59.49-3.2-5.47.08-6.89,5.78-4.66,9.17.05.87.23,1.81.56,2.82,7.58,16.96,28.36,25.24,45.87,26.96,16.78,1.49,34.07-6.84,44.23-20.12.43-.61.73-1.23.92-1.83,24.09,1.97,48.18,3.74,72.36,3.86,47.9-.06,126.99-3.23,177.55-32.48,5.46,1.83,10.91,4.57,15.73,7.94.64.47,1.26.96,1.86,1.45-3.78,1.38-8.49,4.36-14.14,9.73-7.35,7.26-11.23,18.16-7.44,28.13,4.11,13.79,15.66,24.26,30.23,25.35.25.04.5.08.75.12-4.06,8.44-9.61,16.3-15.94,22.87-2.88,3-5.89,5.79-9.03,8.36-.06.02-.12.05-.19.07,0,0-.01,0-.02,0-1.44.46-2.48,1.39-3.11,2.53-33.4,25.23-79.35,28.77-120.24,27.72-29.96-.26-59.95-.5-89.88,1.07-19.85,1.01-39.58,4.01-58.88,8.78-3.07.77-5.03,3.92-4.28,7.02.73,3.08,4.01,5.05,7.02,4.28,7.45-1.87,14.99-3.37,22.55-4.7,13.81-2.48,28.41-3.59,42.87-4.18,8.86,18.87,31.1,29.5,51.33,30.05,21.07.18,43.34-8.95,55.71-26.46,1.1-1.51,1.36-3.06,1.07-4.44,10.44-.43,20.87-1.27,31.25-2.8,25.19-3.8,50.62-13.1,70.69-28.83,8.18-2.64,15.57-8.28,22.41-13.29,4.37-3.43,8.55-7.06,12.54-10.88,7.83,8.11,25.64,15.84,32.98,16.57.97.15,2.11.32,3.34.44-4.52,7.14-9.3,14.13-14.4,20.85-9.33-4.98-27.14-4.45-36.73-3.03-22.28,3.9-37.05,22.64-52.97,37.01-6.6,5.96-12.38,11.14-19.14,17.37-4,3.69-12.76,10.75-11.54,16.5-.4.73-.65,1.62-.69,2.72-.08,3.07,2.52,6,5.68,5.94,7.07-.02,14.09-.8,21.09-1.78,26.19-2.3,49.89-14.83,69.52-31.87,29.06-23.71,50.35-56.89,67.55-89.98,13.8-31.38,24.98-64.09,43.36-93.26,8.58-14.78,21.39-26.94,28.37-42.63,5.96-13.06-2.95-22.81-16.34-17.96ZM1543.79,1325.84c-.66.36-1.41.58-2.17.64.77-.09,1.5-.3,2.17-.64ZM1245.71,1123.91c-14.51,7.02-28.88,14.33-43.42,21.29,2.27-2.89,4.56-5.75,6.81-8.65,3.14-3.62,7.32-9.47,2.37-13.44-2.38-1.9-5.53-1.22-8.33-.99-4.34.41-8.67.87-13.02,1.19,8.98-4.36,17.89-8.89,27.09-12.76,5.52-2.42,11.08-4.7,16.63-7.04,1.35,7.89,5.37,15.28,11.86,20.41ZM1660.89,1382.4c.44-.09.95-.23,1.46-.44-.46.23-.95.37-1.46.44ZM1464.59,1531.71c.84-.17,1.78-.58,2.56-1.18-.74.61-1.63,1.01-2.56,1.18ZM1754.14,1464.26c-2.49,4.52-5.04,9.04-7.68,13.52-.96.02-1.94.16-2.89.38-7.47.2-14.59-2.53-21.05-6.06-4-2.26-8.13-4.59-11.42-7.83,5.13-5.54,9.94-11.38,14.47-17.43.26.16.55.3.85.42,9.54,5.3,20.02,9.4,30.97,10.17-1.06,2.29-2.14,4.57-3.27,6.82ZM1762.66,1445.57c-3.69.8-7.5.05-11.13-.72-6-1.28-11.7-3.6-17.11-6.45-.68-.36-1.35-.75-2.02-1.11,4.58-6.74,8.86-13.69,12.88-20.76,7.78,3.11,15.77,5.97,24.23,6.25.87.13,1.68.2,2.44.22-3.08,7.54-6.1,15.09-9.28,22.58ZM1776.72,1411.5c-.76-.27-1.64-.42-2.61-.41-6.78.56-13.52-1.14-19.82-3.5-.95-.38-1.99-.84-3.08-1.28,3.54-6.13,7.07-12.28,10.71-18.36,1.21.55,2.53.96,3.76,1.38,4.29,1.6,8.6,3.18,13.06,4.22,2.1.59,3.97.95,5.63,1.12-2.71,5.54-5.23,11.16-7.64,16.83ZM1790.34,1383.12c-.56-.13-1.17-.18-1.81-.15-5.41.4-10.64-1.68-15.69-3.37-1.43-.58-3.05-1.27-4.68-1.81,3.92-6.16,8.02-12.19,12.45-17.98,5.78,3.21,11.79,6.28,18.18,8.02-2.97,5.01-5.76,10.12-8.46,15.29ZM1805.31,1357.37c-6.12-.95-11.8-3.75-17.24-6.71,1.59-1.83,3.23-3.62,4.92-5.38,2.01-2.02,4.07-4.09,6.18-6.14,4.53,2.55,8.79,5.65,13.49,7.95-2.6,3.35-5.13,6.73-7.35,10.28ZM1819.92,1337.64c-.08-.05-.16-.08-.25-.12-4.05-1.7-7.72-4.12-11.4-6.49,6.34-5.07,13.29-9.24,21.21-11.04-2.02,6.48-5.57,12.18-9.57,17.65Z"/>
      <path class="cls-1" d="M1353.21,1474.74c-15.29-.37-31.12,2.37-44.7,9.78-8.09,4.8-16.68,11.35-19.48,20.73-2.6,10.63,6.48,19.9,16.19,22.44,21.95,4.52,56.19-2.44,72.43-18.43,6.96-7.55,8.72-19.5-.51-26.07-3.58-7.89-16.42-7.78-23.93-8.45Z"/>
      <path class="cls-1" d="M1461.24,1382.79c10.17-4.42,19.46-19.99,8.31-28.25-12.72-11.87-49.04-5-62.48,4.03-18.56,10.68-7.52,28.99,10.33,30.27,14.67,1.18,30.31.12,43.83-6.05Z"/>
      <path class="cls-1" d="M1645.18,1152.93c.97-6.72-1.49-13.27-5.66-18.42-11.1-18.26-36.61-11.96-51.72-2.49-20.64,11.89-33.21,44.03-3.87,53.66,22.15,6.95,57.11-8.66,61.25-32.75Z"/>
    </g>
    <g>
      <path class="cls-1" d="M304.19,1600.19c7.47-.24,12.18-8.33,4.29-12.43-11.26-.19-22.21,5.95-33.31,8.06-14.01,3.51-28.27,6.1-42.39,9.18-19.41,4.13-38.81,8.32-58.23,12.45-3.22.68-5.45,3.78-4.82,7.07.59,3.2,3.9,5.51,7.07,4.82,24.12-5.09,48.2-10.37,72.32-15.41,18.65-3.4,36.86-8.51,55.06-13.74Z"/>
      <path class="cls-1" d="M1910.71,1614.66c-3.32-3.35-8.65-2.26-12.95-3.34-13.99-1.99-28.11-4.13-42.19-6.5-77-13.54-154.56-24.86-232.82-27.32-155.37-2.97-311-15.11-466.13-1.24-8.02.53-16.04,1.01-24.09,1-5.25.02-7.56,7.21-3.74,10.51,7.62,3.76,17.28.41,25.64.77,36.85-2.26,73.69-5.03,110.56-6.78,70.31-1.85,140.58,2.49,210.87,3.71,80.4,2.7,161.08,2.09,241.11,11.1,63.34,6.11,125.63,19.69,188.66,28.05,5.19.67,8.45-6.17,5.07-9.94Z"/>
      <path class="cls-1" d="M982.25,1641.46c3.91-.29,7.83-.95,11.76-1,3.63.73,7.32-1.75,7.58-5.51-.12-9.48-12-6.12-18.1-5.73-4.73.41-9.48.67-14.22.94-3.3.19-5.89,3.08-5.72,6.37,1.22,9.06,12.54,4.64,18.69,4.92Z"/>
      <path class="cls-1" d="M888.57,1620.76c-9.75.15-20.44.01-30.55.03-11.47-.17-22.94-.67-34.41-1.08-3.3-.12-6.23,2.21-6.48,5.6-.23,3.2,2.3,6.36,5.59,6.48,19.26.85,38.53,1.25,57.8,1.1,2.9.03,5.8.08,8.71-.04,7.93-.61,7.27-12.31-.66-12.09Z"/>
      <path class="cls-1" d="M772.84,1634.32c6.26-1.15,23.59.23,22-9.41-1.95-8.19-10.97-3.48-16.64-3.24-8.05.84-16.13,1.14-24.22,1.54-3.3.14-5.89,3.11-5.71,6.37.17,3.33,3.1,5.85,6.37,5.71,6.06-.25,12.14-.52,18.2-.97Z"/>
      <path class="cls-1" d="M996.8,1670.19c-7.5,1.83-15.2,2.82-22.85,3.78-5.22.68-6.69,8.27-2.27,10.99,4.17,2.77,23.78-2.38,29.59-3.44,3.02-.47,5.38-3.16,5.21-6.33-.25-4.89-5.6-6.85-9.68-4.99Z"/>
      <path class="cls-1" d="M927.17,1672.2c-.75-7.84-9.89-5.41-15.26-4.95-5.7,1.17-16.38-1.16-16.43,7.35,1.01,8.65,11.29,4.88,17.09,4.73,5.36-.91,14.71.78,14.6-7.14Z"/>
      <path class="cls-1" d="M868.5,1677.55c-1.16-9.86-14.74-3.9-21.21-3.91-5.89,1.49-17.65-1.29-17.78,7.64,1.18,9.24,12.41,4.44,18.53,4.44,3.82-.44,7.62-1,11.44-1.47,4.23.03,9.32-1.58,9.03-6.71Z"/>
      <path class="cls-1" d="M923.78,1699.69c-4.82.54-9.65,1.09-14.47,1.58-3.25.18-5.95,3.1-5.72,6.37,1.25,9.25,12.47,4.42,18.62,4.39,5.86-.83,17.33-.28,15.16-9.26-2.06-6.17-8.87-3.56-13.59-3.08Z"/>
      <path class="cls-1" d="M870.4,1706.06c-4.84.06-10.67.33-10.61,6.64.18,3.32,3.1,5.87,6.37,5.72,4.58.19,10.9-.72,10.61-6.65-.17-3.19-3.09-6.02-6.37-5.71Z"/>
      <path class="cls-1" d="M841.62,1708.63c-5.45.59-11.29,1.3-17.14,2.01-5.22.67-6.69,8.28-2.27,10.99,1.36.92,2.91,1.11,4.47.92,5.62-.69,11.25-1.4,16.88-1.98,7.6-1.33,5.72-13.05-1.95-11.94Z"/>
      <path class="cls-1" d="M790.11,1712.49c-9.89-.91-19.84-.91-29.77-1.16-7.97-.45-8.76,11.43-.89,12.08,9.93.25,19.88.25,29.77,1.16,7.92.43,8.8-11.27.88-12.07Z"/>
      <path class="cls-1" d="M794.39,1661.94c-8.16,1.15-16.33,2.49-24.53,3.52-5.22.7-6.7,8.26-2.27,10.98,4.62,2.41,11.24-.56,16.33-.71,3.74-.51,7.47-1.11,11.19-1.7,7.87-.71,7.17-12.34-.73-12.09Z"/>
      <path class="cls-1" d="M737.43,1670.13c-7.16-.14-14.31-.46-21.47-.7-1.62-.05-3.15.38-4.4,1.46-4.05,3.23-1.71,10.47,3.51,10.62,7.16.23,14.31.56,21.48.69,7.96.45,8.77-11.42.89-12.07Z"/>
      <path class="cls-1" d="M720.12,1642.89c1.25-8.03-8.35-7.84-13.88-7.53-5.44.44-15.04-1.04-14.96,6.9,1.09,8.88,11.74,4.57,17.71,5.18,4.26.35,10.1.94,11.13-4.54Z"/>
      <path class="cls-1" d="M644.25,1656.05c4.92.16,9.88,0,14.78.51,5.16.65,8.57-6.21,5.03-9.99-2.19-2.57-5.83-2.21-8.88-2.39-4.72.44-10.33-1.62-14.44,1.26-4.05,3.21-1.71,10.5,3.51,10.62Z"/>
      <path class="cls-1" d="M711.63,1705.09c.34,7.68,12.83,7.55,13.32.02.69-8.61-13.85-8.51-13.32-.02Z"/>
      <path class="cls-1" d="M640.21,1690.8c13.24.37,26.51.58,39.7,1.72,7.9.55,8.74-11.53.89-12.07-5.98-.49-11.97-.88-17.97-1.08-6.09.43-22.18-2.34-26.14.81-4.05,3.22-1.71,10.48,3.51,10.62Z"/>
      <path class="cls-1" d="M1035.09,1658.08c-1.23-1.09-2.72-1.51-4.33-1.51-3.3,0-5.89,3.22-5.72,6.37.09,1.61.83,3.14,2.04,4.21,1.23,1.09,2.72,1.51,4.33,1.51,3.3,0,5.89-3.22,5.72-6.37-.09-1.61-.83-3.14-2.04-4.21Z"/>
      <path class="cls-1" d="M925.85,1642.68c1.23,1.09,2.72,1.51,4.33,1.51,3.3,0,5.89-3.22,5.72-6.37-.09-1.61-.83-3.14-2.04-4.21-1.23-1.09-2.72-1.51-4.33-1.51-3.3,0-5.89,3.22-5.72,6.37.09,1.61.83,3.14,2.04,4.21Z"/>
      <path class="cls-1" d="M588.42,1632.23c-7.89-.47-8.75,11.43-.89,12.07,7.02.5,14.09.49,21.09,1.25,5,1.29,9.28-5.02,6.29-9.23-3.22-5.17-20.1-2.92-26.48-4.09Z"/>
      <path class="cls-1" d="M551.13,1646.24c7.88.46,8.77-11.44.89-12.08-6.07,0-17.13-4.41-18.47,4.52,0,9.05,11.62,6.12,17.58,7.55Z"/>
      <path class="cls-1" d="M592.89,1672.43c.37,8.06,15.01,7.6,15.55-.11.66-9.05-16.03-8.62-15.55.11Z"/>
      <path class="cls-1" d="M550.96,1672.71c-5.56.42-15.51-1.47-15.46,6.74,1.08,8.78,11.79,4.7,17.74,5.34,4.84.66,10.44-.19,10.37-6.25-.49-6.6-7.59-5.83-12.64-5.84Z"/>
      <path class="cls-1" d="M583.91,1707.05c-8.08-.82-16.12-1.98-24.18-2.97-7.88-.54-8.75,11.36-.88,12.08,8.06.99,16.1,2.14,24.18,2.97,7.86.55,8.76-11.35.89-12.07Z"/>
      <path class="cls-1" d="M642.3,1715.17c-9.75-1.08-9.49,12.75.31,12.25,8.72.23,8.43-12.39-.31-12.25Z"/>
      <path class="cls-1" d="M701.49,1728.44c-5.85-.21-18.75-4.26-23.19-1.8-6.11,4.97-1.41,11.88,5.7,11.5,5.03.7,10.05,1.44,15.07,2.16,7.76,1.55,10.14-10.31,2.42-11.86Z"/>
      <path class="cls-1" d="M494.86,1660.32c8.73,2.02,13.93-12.84-5.16-13.01-5.18-.67-8.55,6.23-5.03,9.99,2.59,2.9,6.71,2.01,10.18,3.03ZM494.67,1660.26c-.06-.02-.11-.03-.17-.05-.21-.09-.43-.18-.65-.27,0,0,0,0,.01,0-.23-.13-.45-.26-.68-.39-.02-.02-.04-.03-.05-.05.48.31,1,.57,1.54.75Z"/>
      <path class="cls-1" d="M488.12,1682.79c-.18-3.34-3.08-5.83-6.37-5.71-8.27.31-16.54.73-24.81,1.07-3.3.13-5.89,3.12-5.72,6.37.18,3.33,3.1,5.85,6.37,5.72,8.27-.33,16.54-.76,24.81-1.07,3.29-.12,5.89-3.12,5.71-6.37Z"/>
      <path class="cls-1" d="M416.43,1688.27c-.51-10.67-14.55-5.15-21.4-5.8-6.64,1.51-23.56-2.5-23.4,7.4,1.2,9.93,16.4,3.94,23.2,4.74,6.35-1.46,20.62,2.51,21.6-6.34Z"/>
      <path class="cls-1" d="M333.25,1683.71c-5.67-.09-11.34-.77-16.99-1.28-6.83.53-23.39-6.06-24.46,3.94-.25,3.34,2.31,6.17,5.59,6.48,11.65.93,23.28,2.48,34.97,2.93,7.82.69,8.7-11.67.89-12.07Z"/>
      <path class="cls-1" d="M392.02,1663.73c7.87.51,8.77-11.39.89-12.07-5.99.18-16.87-3.79-18.14,4.9-.03,9.06,11.32,6.04,17.25,7.17Z"/>
      <path class="cls-1" d="M315.93,1660.27c9.64-.17,7.85-13.28-1.56-12.35-9.69.26-7.8,13.21,1.56,12.35Z"/>
      <path class="cls-1" d="M244.48,1647.75c-7.83-.69-8.7,11.65-.89,12.07,6.97.17,13.93.49,20.89.83,7.88.46,8.76-11.44.89-12.07-6.96-.34-13.92-.68-20.89-.83Z"/>
      <path class="cls-1" d="M501.26,1709.06c-5.56-.69-16.06-2.04-16.01,6.12.52,7.31,9.8,5.72,12.52,5.45,7.27,2.03,10.7-9.24,3.5-11.57Z"/>
      <path class="cls-1" d="M428.4,1723.67c-2.82.31-5.69.33-8.52.45-3.3.13-5.89,3.12-5.71,6.37.83,8.06,10.61,5.37,16.16,5.11,7.59-1.21,5.6-13.14-1.92-11.94Z"/>
      <path class="cls-1" d="M354.78,1728.6c-6.49-1.09-13.07-1.55-19.61-2.22-3.28-.31-6.24,2.36-6.48,5.6-.37,9.91,17.02,6.17,23.67,8.49,7.73,1.48,10.17-10.22,2.42-11.86Z"/>
      <path class="cls-1" d="M264.74,1716.8c-10.54-2.25-20.99-4.87-31.42-7.6-7.64-1.73-10.13,10.4-2.42,11.86,10.43,2.73,20.88,5.35,31.42,7.6,7.73,1.52,10.15-10.18,2.42-11.86Z"/>
      <path class="cls-1" d="M394.79,1728.13c-1.23-1.09-2.72-1.51-4.33-1.51-3.3,0-5.89,3.22-5.72,6.37.09,1.61.83,3.14,2.04,4.21,1.23,1.09,2.72,1.51,4.33,1.51,3.3,0,5.89-3.22,5.72-6.37-.09-1.61-.83-3.14-2.04-4.21Z"/>
      <path class="cls-1" d="M561.95,1735.39c-10.04.28-20.02,1.63-30.03,2.52-9.83.94-19.66,1.87-29.5,2.78-3.28.3-5.9,2.99-5.72,6.37.17,3.65,3.79,6.42,7.35,5.63,19.52-1.59,38.99-4.2,58.55-5.21,7.89-.47,7.22-12.39-.66-12.09Z"/>
      <path class="cls-1" d="M431.17,1752.53c-3.3.17-5.89,3.1-5.72,6.38,1.45,9.52,13.6,4.23,20.09,5.13,4.72.82,8.86-4.17,6.68-8.6-3.8-6.5-14.74-2.34-21.06-2.9Z"/>
      <path class="cls-1" d="M367.43,1757.95c-9.82.28-7.69,13.6,1.78,12.24,9.83-.3,7.72-13.62-1.78-12.24Z"/>
      <path class="cls-1" d="M293.04,1753.43c-6.76-.73-19.84-9.18-22.77.66-.93,9.62,12.72,7.89,18.85,10.8,7.39,2.65,11.38-9.08,3.92-11.46Z"/>
      <path class="cls-1" d="M235.58,1684.61c-.09-1.61-.83-3.14-2.04-4.21-1.23-1.09-2.72-1.51-4.33-1.51-3.3,0-5.89,3.22-5.72,6.37.09,1.61.83,3.14,2.04,4.21,1.23,1.09,2.72,1.51,4.33,1.51,3.3,0,5.89-3.22,5.72-6.37Z"/>
      <path class="cls-1" d="M1696.15,1623.87c-10.1-1.6-20.27-3.12-30.52-2.95-9.51.54-7.34,13.76,1.9,12.11,8.96-.05,17.84,1.47,26.67,2.8,7.79,1.19,9.75-10.6,1.95-11.95Z"/>
      <path class="cls-1" d="M1752.88,1644.15c7.81,1.23,9.73-10.68,1.95-11.95-5.22-1.08-13.14-1.27-12.75,6.09.54,5.67,6.45,5.48,10.8,5.86Z"/>
      <path class="cls-1" d="M1800.06,1648.08c9.6.43,10.18-13.21-2.88-12.47-9.62-.5-10.13,13.26,2.88,12.47Z"/>
      <path class="cls-1" d="M1857.69,1643.85c-8.95-1.25-17.89-2.61-26.87-3.59-4.56-.73-11.04-1.64-12.07,4.42-.94,6.02,5.42,7.54,10.12,7.53,8.98.99,17.92,2.34,26.87,3.59,7.79,1.18,9.75-10.61,1.95-11.95Z"/>
      <path class="cls-1" d="M1675.09,1664.49c-10.48-1.21-20.97-2.42-31.51-2.85-9.3-1.46-10.48,12.35-1.1,12.08,2.22-.03,4.46.2,6.67.35,8.07.54,15.85,1.44,23.99,2.38,7.82,1.24,9.73-10.69,1.95-11.95Z"/>
      <path class="cls-1" d="M1717.8,1669.68c-6.29.03-17.5-5.35-19.7,3.47-.75,9.51,11.66,6.86,17.75,8.48,7.79,1.16,9.75-10.62,1.95-11.95Z"/>
      <path class="cls-1" d="M1762.01,1677c-5.59-.23-12-2.99-17.25-.47-4.38,2.82-2.73,10.33,2.5,10.93,4.28.35,8.55.84,12.8,1.48,7.79,1.17,9.76-10.61,1.95-11.95Z"/>
      <path class="cls-1" d="M1853.31,1690.47c-17.84-2.04-35.56-4.86-53.3-7.61-5.96-.04-15.5-5.4-18.41,2.36-2.01,8.5,8.61,8.32,14.25,9.26,18.48,2.83,36.93,5.87,55.51,7.94,7.81,1.16,9.74-10.63,1.95-11.95Z"/>
      <path class="cls-1" d="M1605.22,1694.31c-8.43-.89-16.85-1.91-25.31-2.52-4.18-.13-9.78-1.7-11.95,3.12-2.56,7.41,4.57,9.17,10.37,8.9,8.34.55,16.63,1.57,24.94,2.44,7.82,1.24,9.73-10.7,1.95-11.95Z"/>
      <path class="cls-1" d="M1684.14,1702.71c-4.1-.43-9.58-1.83-11.72,2.93-2.48,7.1,4.06,9.04,9.76,9.02,7.82,1.24,9.73-10.68,1.95-11.95Z"/>
      <path class="cls-1" d="M1739.55,1709.79c-6.38,0-18.45-5.15-19.66,4.5.39,8.78,11.77,5.93,17.7,7.45,7.82,1.23,9.74-10.69,1.95-11.95Z"/>
      <path class="cls-1" d="M1805.67,1717.27c-6.46-.23-12.91-.6-19.36-1.04-7.91-.2-8.26,11.73-.38,12.1,6.45.44,12.9.8,19.36,1.04,7.89.18,8.27-11.75.37-12.1Z"/>
      <path class="cls-1" d="M1826.99,1718.83c-7.82-1.14-9.73,10.64-1.95,11.95,3.46.43,6.97.57,10.46.81,3.26.23,6.15-2.65,6.24-5.86-.07-7.85-9.41-6.07-14.75-6.89Z"/>
      <path class="cls-1" d="M1604.33,1624.9c-5.37.43-14.89-.55-14.4,7.32.31,3.18,3.39,5.91,6.62,5.43,5.39-.84,14.84.81,14.4-7.32-.33-3.35-3.33-5.65-6.62-5.43Z"/>
      <path class="cls-1" d="M1593.01,1656.05c-.01-7.01-7.34-6.43-12.39-6.14-7.13-.74-9.3,9.68-2.4,11.82,5.2.47,14.34,1.66,14.79-5.68Z"/>
      <path class="cls-1" d="M1533.82,1646.4c-2.32-9.53-18.51-2.61-12.96,5.64,3.81,5.58,14.64,1.05,12.96-5.64Z"/>
      <path class="cls-1" d="M1511.71,1689.69c-9.14.04-18.28-.07-27.41.34-5.77-.5-12.97,2.38-9.95,9.32,2.72,5.15,8.78,2.35,13.32,2.64,7.89-.23,15.78-.2,23.67-.2,7.91.12,8.26-11.8.38-12.1Z"/>
      <path class="cls-1" d="M1523.4,1679.51c.72,8,13.84,6.62,13-1.31-.72-8.01-13.84-6.65-13,1.31Z"/>
      <path class="cls-1" d="M1882.26,1652.96c-3.29,0-6.14,2.49-6.24,5.86-.1,3.22,2.56,6.24,5.86,6.24s6.14-2.49,6.24-5.86c.1-3.22-2.56-6.24-5.86-6.24Z"/>
      <path class="cls-1" d="M1874.7,1706.22c-3.3,0-6.14,2.49-6.24,5.86-.1,3.22,2.56,6.24,5.86,6.24s6.14-2.49,6.24-5.86c.1-3.22-2.56-6.24-5.86-6.24Z"/>
      <path class="cls-1" d="M1002.56,1711.09c-4.08-2.96-17.84-.32-23.74-.53-6.94-.1-10.84,8.51-4.08,12.07,1.78.86,3.62.51,5.42-.03,6.35-.41,12.73-.49,19.09-.85,5.19-.24,7.36-7.51,3.31-10.65Z"/>
      <path class="cls-1" d="M1059.48,1709.13c-6.02-.6-10.56,6.8-5.55,11.08,1.9,1.75,4.47,1.5,6.75.97,4.41.33,10.29-.26,10.46-5.9.12-6.44-6.87-6.69-11.67-6.15Z"/>
      <path class="cls-1" d="M1096.13,1717.53c.72,8.03,13.94,6.63,13.11-1.32-.71-8.02-13.94-6.64-13.11,1.32Z"/>
      <path class="cls-1" d="M1184.17,1708.57c-6.13.02-12.27-.06-18.4.01-6.57.98-20.84-2.32-20.84,7.59,1.29,8.39,10.94,4.35,16.64,4.59,4.95-.15,9.9-.13,14.85-.11,5.07-.01,13.22,1.31,13.62-5.85.1-3.21-2.56-6.25-5.86-6.24Z"/>
      <path class="cls-1" d="M1146.51,1692.65c7.92.15,8.25-11.77.38-12.1-19.01-.44-38-1.92-57.02-1.57-24.68-1.61-17.64,15.6-8.79,12.79,21.71-2.14,43.65.71,65.43.89Z"/>
      <path class="cls-1" d="M1196.85,1676.32c-3.26-.04-6.84-.09-9.87,1.29-4.78,2.19-3.97,9.85,1.05,11.15,1.55.48,3.09.24,4.57-.43-.42.2-.85.37-1.3.48,1.68-.45,3.45-.39,5.17-.39,7.9.14,8.27-11.79.38-12.1Z"/>
      <path class="cls-1" d="M1231.37,1704.7c-6.08-.22-9.02,8.05-3.73,11.33,9.99,5.07,15.4-10.94,3.73-11.33Z"/>
      <path class="cls-1" d="M1246.79,1618.52c-10.44-.53-20.9-.84-31.35-.49-5.82.2-11.82.49-17.82.72-4.67.03-12.06-.55-12.29,6-.07,6.94,7.55,6.52,12.55,6.08,5.48-.18,11.06-.48,16.7-.68,10.6-.36,21.25-.06,31.84.48,3.29.17,6.14-2.62,6.24-5.86.1-3.34-2.57-6.07-5.86-6.24Z"/>
      <path class="cls-1" d="M1237.75,1654.03c-.32-3.21-3.34-5.85-6.62-5.43-1.97.25-3.86.65-5.75,1.23-5,1.56-5.2,9.21-.43,11.18,4.76,1.34,13.41-.6,12.8-6.98Z"/>
      <path class="cls-1" d="M1060.15,1655.5c21.35,4.27,43.06,6.25,64.83,6.94,12.4.41,24.9.11,37.11-2.26,5.43-.9,11.64-3.43,12.6-9.53,1.41-13.81-13.1-25.77-23.67-32.53-8.69-5.5-18.69-8.84-29-9.18-18.36-.68-37.64,4.04-52.7,14.79-6.91,5.26-23.04,16.3-15.45,26.11.18,3.29,3.02,5.73,6.28,5.65Z"/>
      <path class="cls-1" d="M1478.88,1664.84c-3.48-15.8-32.64-.26-42.01,2.8-8.39,3.26-16.75,6.56-25.1,9.91,5.98-10.38,18.77-27.87,16.91-39.96-1.29-4.41-6.56-6.1-10.55-4.34-15.01,7.42-26.34,20.65-38.42,31.95.96-9.81-.54-55.3-18.58-40.04-8.03,11.08-10.29,25.28-13.6,38.3-9.93-11.19-20.11-22.43-31.71-31.88-3.72-2.53-9.29-.92-10.54,3.56-1.4,9.32,8.61,28.89,12.74,37.84-9.15-2.19-18.5-3.34-27.89-3.82-5.22-.05-10.65-1.27-15.79-.14-2.41.89-4.07,3.17-4.13,5.75-.11,4.16,3.65,6.24,6.72,8.14,19.52,10.91,38.82,23.51,60.89,28.55,12.09,4.56,24.96,6.87,37.89,6.9,29.77-.24,58.48-12.64,82.33-29.89,5.38-4.49,21.96-16.56,20.84-23.64Z"/>
    </g>
    <g>
      <path class="cls-1" d="M285.91,1558.81c-15.41,9.09-30.18,19.19-44.91,29.32-2.41-10.55-10.86-91.81-30.87-66.47-6.45,12.26-9.5,26.05-13.63,39.21-4.1-16.06-11.36-31.29-20.22-45.26-7.71-14.56-20.67-19.13-23.78.85-3,19.04-.05,38.26,2.47,57.18-13.77-15.88-27.68-32.59-45.37-44.2-7.43-3.43-12.14,4.87-8.79,11.16,7.58,17.65,16.81,34.58,24.69,52.13-20.27-6.8-41.29-12.82-62.64-14.55-24.99,5.38,10.79,34.19,18.73,41.6,19.11,15.75,39.74,32.06,64.04,38.5,10.08,2.18,20.38,3.07,30.6,4.37,2.26.27,4.43-1.05,5.58-2.95,51.34,3.06,87.22-22.04,115.7-62.68,5.72-7.83,10.92-16.07,15.86-24.4,3.36-6.44,8.41-12.37,9.89-19.58-1.08-19.26-29.05,1.85-37.35,5.77Z"/>
      <path class="cls-1" d="M1920.5,1536.25c-16.53,6.36-31.49,16.5-47.18,24.68,7.64-15.06,15.96-29.83,20.74-46.14,1.68-4.38,3.37-10.78-1.8-13.46-7.69-3.01-13.12,6.11-17.78,10.77-8.69,10.21-16.48,21.15-24.49,31.9,1.27-16.33,2.58-32.73,1.23-49.09-.68-7.01.1-22.53-11.16-18.46-7.52,2.75-15.84,48.83-18.44,58.64-3.52-9.9-15.79-51.72-25.31-53.4-4.86-1.22-8.63,3.28-8.82,7.79-.14,17.19,3.58,34.24,5.89,51.24-12.29-9.03-23.9-19.11-37.02-26.95-24.26-9.01-3.85,37.31.6,45.73,12.65,24.45,36.94,41.93,64.15,46.11,6.05,1.17,12.23,1.15,18.27-.05,16.82.79,34.24-2.31,48.05-12.46,15.65-10.55,27.15-25.96,37.29-41.62,1.27-2.1,2.78-4.13,3.57-6.48,1.81-4.87-2.77-10.03-7.8-8.74Z"/>
    </g>
  </g>
  <path class="cls-2" d="M667.99,642.71c-6.71-3.93-11.92,4.38-16.89,7.68-6.25,4.82-12.9,9.17-20.15,12.32-14.77,6.01-32.79,8.05-47.21.08-16.37-9.93-27.03-27.56-32.59-45.53-10.23-36.98,7.62-82.12,44.47-96.49,13.63-5.79,28.72-7.93,43.41-5.95,5.17.57,10.22,2.27,15.43,2.32,8.38-.48,8.55-9.79,3.48-14.64-2.95-3.37-6.67-5.99-10.26-8.61-2.8-5.65-8.31-9.28-13.15-13.04-31.65-20.2-78.35-26.73-114.8-18.62-51.31,11.52-96.61,45.23-106.83,99.08-6.87,39.78,3.9,81.28,22.7,116.42,19.92,35.12,57.34,59.82,97.51,64.11,53.71,4.71,110.32-25.95,131.21-76.49,1.97-6.32,10.71-17.33,3.67-22.62Z"/>
  <path class="cls-4" d="M1758.5,507.37s.02.04.03.06c.03.06.07.12.1.18-.04-.08-.09-.16-.13-.24Z"/>
  <g>
    <path class="cls-3" d="M1093.95,970c21.44-13.91,44.6-25.61,69.41-32.05,10.53-2.67,21.22-4.91,32.05-5.85,3.61.55,7.57-1.33,8.02-5.32.49-6.74-6.06-7.44-11.15-6.55-8.93.85-17.76,2.65-26.5,4.63-30.19,7.09-58.47,21.09-83.83,38.76-28.18,21.06-50.5,49.38-68.06,79.67-9.83,16.81-17.69,34.78-22.87,53.57-.89,3.18,1.2,6.57,4.35,7.38,7.95,1.65,8.03-8.39,10.23-13.59,2.71-8.13,5.89-16.22,9.6-24.09,18.63-37.29,44.28-72.5,78.74-96.57Z"/>
    <path class="cls-3" d="M1199.95,978.79c7.69-2.26,4.53-13.52-3.12-11.7-59.32,12.96-110.94,49.92-151.02,94.54-5.9,6.56-43.92,51.93-27.16,56.08,6.48,1.59,7.55-5.57,9.54-9.97,2.42-4.9,5.05-9.65,8.05-14.22,38.81-54.31,97.8-100.11,163.71-114.73Z"/>
    <path class="cls-3" d="M1204.45,1018.87c-56.52,7.28-112.23,33.35-147.63,79.01-5.84,7.37-11.13,15.23-15.68,23.46-1.59,2.89-.62,6.6,2.27,8.25,2.81,1.61,6.66.62,8.25-2.27,2.19-3.97,4.61-7.83,7.09-11.62,4.35-6.46,9.23-12.52,14.32-18.41,29.87-34.07,72.62-55.25,116.76-63.69,5.39-1.03,10.78-1.98,16.21-2.73,7.9-1.27,6.23-12.86-1.6-12Z"/>
    <path class="cls-3" d="M1034.84,1140.71c-11.22,1.87-22.51,3.42-33.69,5.52-2.22-9.58-4.97-19.03-7.9-28.41-.87-2.74-1.66-5.91-4.42-7.34-14.22-6.37-13.47,29.39-15.04,37.53-13.53,2.84-27.7,4.26-40.48,9.7-3.64,2.22-4.17,7.69-.98,10.54,1.86,1.76,4.54,2.48,6.93,3.2,11.06,3.02,22.46,4.83,33.83,6.3-6.14,9.45-11.3,19.48-16.82,29.3-2.31,5.08-8.06,10.77-4.8,16.57,6.87,9.33,19.12-5.19,24.93-9.8,7.09-6.47,13.94-13.53,19.79-21.22,13.7,9.17,23.96,22.73,37.41,32.23,5.67,3.21,11.55-2.83,9.24-8.6-1.25-3.8-3.31-7.23-5.18-10.76-5.59-10.22-11.59-21.94-17.46-32.53,10.74-6.83,22.31-12.05,33-19.09,3.37-1.86,6.25-5.56,4.94-9.57-3.35-8.5-16.35-4.09-23.28-3.56ZM1018.55,1195.38c-6.73-5.57-18.48-19.64-27.94-14.36-5.77,5.32-9.9,12.28-15.83,17.54,2.49-4.46,5.06-8.88,7.77-13.22,3.38-5.16,10.56-14.24,2.01-18.2-8.67-1.7-17.66-1.98-26.34-3.9,7.29-2.28,24-1.57,26.74-9.45,1.31-4.84,1.24-9.94,1.88-14.89,1.11,4.35,2.4,8.67,3.09,13.11.14,3.57,3.65,7.37,7.36,7.23,10.56-1.95,21.19-3.64,31.81-5.32-29.93,16.1-25.16,13.55-10.56,41.47Z"/>
  </g>
  <path class="cls-3" d="M1282.38,249.33c-14.24,6.44-26.01,17.21-38.73,26.11-8.26-11.64-16.83-23.08-25.51-34.4-2.83-4.03-9.24-4.33-11.74.17-4.57,10.81,2.53,34.09,4.56,46.2-13.54,7.29-27.98,12.86-41.34,20.56-1.61.88-3.25,1.85-4.26,3.43-1.48,2.34-1.35,5.65.63,7.68,5.01,4.96,17.76.9,24.38.46,7.48-1.09,14.99-1.95,22.48-2.96-3.93,16.63-8.66,33.22-11.04,50.14-.03,2.63.85,5.35,3.16,6.82,11.93,8.89,30.22-34.41,35.92-42.64,8.51,1.31,16.46,4.93,24.51,7.86,11.65,4.04,23.3,8.95,35.41,11.29,6.14.23,8.84-7.02,5.01-11.45-3.04-4.04-6.89-7.39-10.76-10.61-9.77-8.08-19.64-16.04-29.66-23.82,8.58-15.17,17.76-30.03,25.24-45.79,2.72-5.49-2.57-11.2-8.25-9.07ZM1279.73,331.11c-11.67-3.31-32.71-14.84-43.88-11.68-3.11,1.14-4.73,4.14-6.25,6.9-4.04,7.07-7.38,13.65-11.66,20.82,1.91-9.05,4.32-17.99,6.51-26.97,1.3-5.11,2.84-12.72-3.03-15.53-1.86-.78-3.67-.87-5.64-.61-5.11.65-10.21,1.32-15.32,1.97,7.31-4.16,21.9-7.17,22.85-16.96.07-2.38-.66-4.78-1.15-7.09-1.42-6.97-2.92-13.92-4.08-20.94,4.75,6.35,9.51,12.69,14.11,19.14,1.68,2.45,3.29,5.26,6.1,6.55,1.89,2.64,5.76,3.16,8.38,1.3,8.35-5.43,15.96-11.88,24.13-17.58-23.6,44.64-28.62,29.59,8.92,60.68Z"/>
  <path class="cls-3" d="M957.03,653.93c-14.07,6.81-25.55,17.88-38.04,27.1-8.55-11.43-17.41-22.64-26.39-33.73-2.93-3.95-9.34-4.1-11.73.47-4.29,10.92,3.41,34.01,5.75,46.07-13.34,7.63-27.64,13.58-40.8,21.62-1.58.92-3.2,1.93-4.17,3.54-1.42,2.37-1.2,5.69.83,7.66,5.14,4.83,17.78.45,24.38-.17,7.45-1.28,14.94-2.34,22.4-3.54-3.5,16.72-7.8,33.43-9.75,50.4.04,2.63.99,5.33,3.33,6.73,12.15,8.58,29.33-35.18,34.81-43.55,8.55,1.09,16.58,4.51,24.7,7.23,11.75,3.74,23.53,8.35,35.69,10.38,6.14.07,8.66-7.25,4.72-11.58-3.14-3.96-7.08-7.21-11.03-10.33-9.98-7.83-20.05-15.53-30.27-23.04,8.18-15.39,16.98-30.48,24.05-46.42,2.57-5.56-2.85-11.13-8.49-8.86ZM956.48,735.74c-11.76-3.01-33.08-13.99-44.17-10.55-3.08,1.22-4.62,4.26-6.07,7.06-3.85,7.17-7.03,13.84-11.12,21.12,1.68-9.1,3.86-18.09,5.82-27.13,1.17-5.14,2.51-12.79-3.43-15.45-1.88-.73-3.69-.77-5.66-.47-5.09.78-10.17,1.58-15.26,2.36,7.2-4.35,21.71-7.73,22.41-17.55.01-2.38-.78-4.76-1.33-7.05-1.59-6.93-3.27-13.84-4.61-20.83,4.91,6.22,9.83,12.44,14.6,18.77,1.74,2.4,3.42,5.17,6.27,6.39,1.96,2.6,5.84,3.01,8.41,1.09,8.21-5.64,15.65-12.29,23.67-18.2-22.45,45.23-27.85,30.31,10.48,60.43Z"/>
  <path class="cls-4" d="M1429.07,1075.61c-17.52,11.12-9.04,32.12,9.47,34.97,14.6,2.12,28.14-16.11,20.28-29.08-2.17-11.66-21.83-11.91-29.75-5.9ZM1440.52,1098.6c-17.98-3.74-4.73-19.55,7.46-13.38-.16,1.59,1.11,2.92.98,4.51-.12,4.4-3.89,8.86-8.44,8.87Z"/>
  <path class="cls-2" d="M1103.84,443.1c-12.69,16.64,3.64,38.01,23.02,31.23,15.22-4.41,19.23-28.92,4.48-36.26-5.7-9.33-22.69-2.38-27.5,5.03ZM1123.73,462.54c-15.41,5.12-16.36-15.61-1.48-16.69.84,2.51,3.78,2.48,5.1,4.33,2.55,4.03.85,10.45-3.62,12.36Z"/>
  <path class="cls-2" d="M295.66,652.6c16,4.14,33.12-18.13,18.74-30.01,1.91-11.25-17.6-11.84-24.51-7.76-16.71,9.16-13.39,34.36,5.77,37.77ZM305.93,626.31c-1.24,2.9,1.62,5.22,1.65,7.99-.63,3.56-4.25,6.15-7.69,6.64-16.43-1.42-7.09-22.86,6.03-14.63Z"/>
  <path class="cls-2" d="M1896.29,523.33c-24.88,6.9-19.81,44.71,8.56,35.2,20.92-6.88,12.8-38.53-8.56-35.2ZM1901.63,546.77c-13.97,6.11-10.46-12.01-1.13-11.55,4.92,1.57,6.55,9.54,1.13,11.55Z"/>
  <path class="cls-2" d="M478.34,1050.03c-15.88,10.39-11.15,36.39,8.2,38.96,15.34,3.9,29.96-8.35,28.06-24.23-1.44-16.72-23.39-23.19-36.26-14.73ZM492.27,1077.46c-14.5,1.07-15.41-18.3-1.32-19.13,3.87.52,8.55.95,10.75,4.75,3.23,6.42-1.98,15.2-9.43,14.38Z"/>
  <g>
    <path class="cls-3" d="M1409.19,603.05c-8.34-5.14-17.38-9.05-26.4-12.82-94.35-37.81-203.94-46.19-299.92-9.59-18.64,7.09-37.24,14.78-53.63,26.34-2.79,1.7-3.74,5.54-2.01,8.32,1.66,2.71,5.62,3.87,8.33,2.01,5.58-3.82,11.33-7.41,17.3-10.59,13.26-6.74,27.17-12.12,41.09-17.32,73.08-26.45,154.18-24.74,229.05-6.34,23.15,6.16,45.58,13.7,67.59,23.78,4.32,2.09,8.65,4.23,12.71,6.79,2.79,1.77,6.69.42,8.23-2.34,1.66-2.84.49-6.65-2.34-8.24Z"/>
    <path class="cls-3" d="M1366.25,615.41c-10.5-2.92-21.23-4.89-31.98-6.65-30.79-5.26-62.12-5.26-93.22-3.55-50.62,2.16-100.32,15.15-145.57,37.95-14.14,6.78-27.38,15.26-39.93,24.63-4.59,4.34-17.72,9.18-12.19,17.01,2.08,2.58,5.95,2.98,8.51.92,6.21-4.99,12.74-9.6,19.24-14.22,8.08-5.66,16.54-10.76,25.31-15.26,52.02-27.43,110.45-39.89,169.07-39.76,26.38-.92,52.78,1.25,78.68,6.3,4.91.95,9.82,1.93,14.65,3.19,4.68,1.22,9.28,2.67,13.91,4.04,3.17.93,6.57-1.26,7.37-4.36,1.54-7.96-8.52-8.24-13.86-10.23Z"/>
    <path class="cls-3" d="M1340.13,640.46c-4.54-.14-9.07-.15-13.61-.11-75.17,1.29-164.95,18.55-220.22,72.95-7.21,7.04-14.26,14.26-21.27,21.51-2.28,2.38-2.21,6.28.18,8.56,2.38,2.28,6.27,2.21,8.56-.18,4.29-4.49,8.66-8.91,13.04-13.31,6.9-6.94,13.85-13.87,21.47-20.03,51.57-40.64,125.64-54.93,190-57.27,7.65-.16,15.34-.34,22.99.02,3.59.92,7.27-1.51,7.74-5.18.69-5.08-4.55-7.42-8.86-6.97Z"/>
    <path class="cls-3" d="M1577.71,628.01c-10.97.75-21.64,3.89-32.25,6.63-15,4.29-30.16,8.17-44.81,13.54-2.38-14.42-5.52-28.69-8.45-43-1.84-6.43-3.12-24.23-7.81-27.52-3.87-2.94-9.13-.13-10.61,4.04-2.67,5.46-4.71,11.19-6.53,16.97-4.14,13.26-7.76,26.68-11.78,39.98-20.35,3.25-41.52,3.73-62.14,6.14-5.8,1.24-17.17.23-20.87,4.87-3.26,4.43.48,9.6,5.09,10.92,17.44,6.4,35.17,12.02,52.42,18.96-12.54,22.5-27.59,43.54-39.95,66.14-3.18,5.02-.65,11.9,5.77,11.81,3.75-.02,7.13-2.03,10.33-3.77,21.62-12.85,40.86-29.29,61.25-43.96,7.55,6.6,13,15.26,18.97,23.25,11.37,15.8,22.62,31.77,35.3,46.54,3.89,4.64,11.58,3.37,12.78-2.82,2.45-22.9-11.32-56.4-18.72-78.54,20.12-19.95,43.39-36.59,65.13-54.74,8.45-5.23,7.99-15.61-3.12-15.44Z"/>
  </g>
  <g>
    <path class="cls-3" d="M1837.95,392.21c-12.23-14.9-27.76-26.64-43.89-37-34.2-22.31-72.37-37.76-111.8-48.04-29.55-7.36-59.63-14.19-90.19-14.92-9.26.15-18.82-1.57-27.92.54-7.61,2.56-3.95,13.79,3.55,11.57,43.79-2.4,87.42,7.51,129.31,19.56,29.55,9.04,58.07,21.26,84.36,37.58,17.43,10.86,34.63,22.87,47.67,38.94,2.1,2.56,6.06,2.84,8.53.75,2.74-2.27,2.8-6.47.38-8.99Z"/>
    <path class="cls-3" d="M1597.2,319.71c-7.21-2.15-14.5-4.08-21.92-5.37-4.78-1.5-11.06-.5-11.11,5.59.07,4.62,4.57,6.11,8.46,6.22,18.49,3.52,36.39,9.65,53.97,16.28,67.44,26.46,132.72,68.11,176.68,126.6,7.6,10.25,14.26,21.16,20.41,32.33,4.39,8.14,8.55,16.41,12.01,24.99,1.23,3.06,5.16,4.28,8.04,2.95,3.01-1.32,4.3-5.09,2.95-8.04-7.31-17.53-16.55-34.3-27.08-50.11-51.62-74.54-136.74-125.41-222.41-151.46Z"/>
    <path class="cls-3" d="M1693.38,420.88c-30.45-27.83-64.18-52.51-100.63-71.89-6.73-3.38-13.73-6.26-20.97-8.34-4.53-1.91-11.25-1.91-12.02,4.19-.56,6.13,5.7,6.65,10.14,7.86,13.09,4.1,25.11,10.9,36.78,17.98,60.01,37.06,107.79,79.57,141.26,142.57,6.42,12.02,12.06,24.4,16.88,37.15,2.29,6.11,4.62,12.79,6.28,19.65.54,3.2,3.69,5.59,6.95,5.01,3.12-.52,5.73-3.74,5-6.95-1.73-7.49-4.2-14.79-6.93-21.98-4.97-13.27-10.79-26.25-17.58-38.7-17.25-31.61-39-61.59-65.15-86.55Z"/>
    <path class="cls-3" d="M1616.73,245.44c3.32-2.99,7.59-5.33,9.76-9.36,3.02-6.5-3.26-11.36-9.46-10.5-18.93,2.79-37,9.92-55.11,15.88-15.45,5.46-31.17,10.21-46.43,16.18-4.61-20.66-10.73-40.98-17.17-61.14-2.39-6.96-4.85-13.91-7.78-20.66-2.28-5.92-10-6.91-13.3-1.34-5.18,9.57-6.69,20.72-9.01,31.25-3.33,18.98-6.46,38.02-9.96,56.98-28.4,7.13-57.67,10.85-86.39,16.71-3.29.61-7.19.95-9.47,3.69-3.56,4.23-.25,9.94,4.35,11.62,9.01,3.9,18.75,5.73,28.21,8.21,16.25,4.08,32.66,7.53,49.08,10.83-15.32,24.63-33.15,47.62-49.16,71.78-3.23,6.4,3.85,12.19,9.73,8.53,9.91-5.98,19.05-13.17,28.51-19.82,15.51-10.86,30.36-22.6,45.03-34.55,8.5,7.61,15.2,16.99,22.74,25.51,13.31,15.21,28.03,29.1,41.75,43.93,3.33,3.47,7.1,9.01,12.63,6.95,8.12-4.11,2.82-15.55,1.44-22.28-8.04-27.84-19.32-54.54-29.14-81.75,8.19-10.48,20.21-17.19,30.86-24.87,19.86-13.32,39.83-26.55,58.29-41.78Z"/>
  </g>
  <path class="cls-3" d="M1810.6,1025.48c-1.49-16.53-3.4-33.03-6.38-49.37,22.15-4.08,44.09-9.04,65.88-14.76,3.96-1.23,9.84-2.35,14.05-4.54,6.03-3.97,3.24-11.67-3.11-13.31-7.72-2.46-15.95-2.71-23.97-3.5-17.03-1.23-34.02-2.66-50.98-4.6,3.53-11.79,7-23.61,10.16-35.5,1.59-6.68,6.54-20.77-5.05-20.17-3.11.47-5.18,3.48-6.93,5.82-9.25,13.12-18.06,26.54-27.13,39.78-14.02-3.65-27.99-7.44-42.19-10.34-5.11-.63-13.19-4.78-17.65-2.04-6.93,5.27.29,11.45,4.81,15.2,8.94,7.87,18.16,15.4,27.6,22.66-13.62,13.3-28.16,25.63-41.52,39.2-3.38,3.99-10.44,8.07-7.69,14.13,4.32,7.48,13.21.78,18.75-1.62,15.65-7.71,31.22-15.58,46.61-23.8,10.37,22.08,19.12,44.87,29.15,67.11,2.83,4.83,3.62,13.15,10.21,14.09,6.09.43,7.9-6.46,7.11-11.35-.34-7.71-1.01-15.4-1.71-23.08Z"/>
  <g>
    <path class="cls-3" d="M263.78,857.83c-3.94-3.62-8.44-7.8-12.76-12.17-24.78-26.14-45-56.7-60.99-88.91-19.88-47.05-29.48-99.74-20.75-150.47,2.12-11.75,4.43-23.52,8.36-34.81,2.02-5.11,5.97-11.71-1.33-14.53-7.17-1.82-8.39,6.68-10.53,11.77-3.5,10.25-5.63,20.91-7.73,31.52-9.96,51.77-1.13,105.6,17.85,154.31,20.54,45.28,50.04,87.23,87.93,119.63,3.89,3.46,10.49-.25,9.82-5.3-1.01-5.05-6.7-7.34-9.88-11.04Z"/>
    <path class="cls-3" d="M254.86,883.76c-14.56-12.63-29.66-24.75-42.77-38.93-14.87-15.91-28.21-33.2-39.75-51.67-21.31-34.5-36.06-72.87-42.97-112.94-.86-5.74-1.45-11.49-1.7-17.29-.15-6.38.07-12.74.52-19.12.23-3.3-2.64-6.14-5.84-6.26-3.39-.12-6.02,2.56-6.25,5.84-.55,7.73-.78,15.46-.36,23.21,3.18,39.08,16.74,76.93,34.22,111.8,23.22,45.21,57.89,83.16,97.32,114.8,6.34,4.91,13.57-4.39,7.58-9.45Z"/>
    <path class="cls-3" d="M239.09,898.41c-23.91-13.26-46.7-29.72-67.23-47.86-30.22-27.58-53.78-62.43-66.72-101.32-.43-1.5-.83-3.01-1.21-4.53-2.04-7.75-13.39-4.99-11.8,2.71,10.09,34.96,29.26,67.27,53.72,94.1,27.35,29.49,60.61,53.79,96.38,72.06,2.93,1.44,6.69-.13,7.99-3.07,2.87-7.32-6.47-9.24-11.14-12.09Z"/>
    <path class="cls-3" d="M386.31,980.83c-9.87-13.34-20.08-26.45-31.11-38.85,16.8-15,32.96-30.65,48.6-46.86,2.75-3.11,7.18-7.12,9.64-11.19,3.09-6.53-3.3-11.66-9.58-9.75-7.88,1.91-15.03,5.98-22.29,9.47-15.18,7.8-30.45,15.41-45.94,22.58-3.12-11.91-6.29-23.8-9.78-35.61-2.12-6.54-5.21-21.14-14.81-14.61-2.41,2.02-2.61,5.67-2.89,8.58-1.07,16.02-1.63,32.06-2.49,48.09-13.87,4.17-27.78,8.2-41.42,13.11-4.69,2.12-13.75,2.77-16.14,7.43-3.18,8.11,6.21,9.63,12.01,10.48,11.73,2.08,23.52,3.72,35.36,5.01-4.72,18.44-10.73,36.53-15.09,55.07-.81,5.17-4.72,12.32.78,16.07,7.58,4.14,11.68-6.2,15.17-11.13,9.36-14.73,18.57-29.54,27.44-44.56,20.34,13.47,39.66,28.39,59.79,42.17,4.93,2.65,9.93,9.35,16.04,6.73,5.43-2.79,3.39-9.62.17-13.39-4.3-6.4-8.87-12.63-13.46-18.83Z"/>
  </g>
</svg>