<?xml version="1.0" encoding="UTF-8"?>
<svg id="Camada_1" data-name="Camada 1" xmlns="http://www.w3.org/2000/svg" viewBox="0 0 2000 776.75">
  <defs>
    <style>
      .cls-1 {
        fill: #a62317;
      }

      .cls-2 {
        fill: #1d0809;
      }

      .cls-3 {
        fill: #edae1a;
      }
    </style>
  </defs>
  <g>
    <path class="cls-1" d="M408.08,406.2c-7.19,3.41-14.53,6.46-21.8,9.67-.12.03-.22.08-.34.12-1.53-12.84-4.23-25.5-8.87-37.7-1.37-3.56-2.9-7.04-4.57-10.43,3.06-1.1,6.2-3.63,8.83-5.46,2.91-1.99,5.82-3.98,8.74-5.95,2.04-1.3,4.14-2.69,4.77-5.18,1.81-5.63-5.11-11.1-10.12-7.8-5,3.35-9.94,6.78-14.93,10.15-1.29.74-2.65,1.61-3.79,2.64-6.02-9.49-13.28-17.97-21.62-25,2.54-2.28,5.17-4.47,7.73-6.73,7.1-5.67-1.23-16.36-8.41-10.93-3.39,3.23-7.36,6.07-10.78,9.35-14.45-8.9-31.35-13.79-50.05-12.97-15.76.61-30.32,4.76-43.23,11.57-.06-.11-.1-.22-.16-.33-2.9-4.63-6.05-9.07-9.27-13.48-5.41-10.04-19.03-1.24-11.65,7.35,3.08,4.31,6.24,8.56,9,13.08.13.2.26.39.4.57-10.87,7.73-20.23,17.49-27.73,28.62-.34-.42-.75-.82-1.22-1.2-3.92-2.77-8.1-5.16-12.19-7.65-7.14-7.75-18,2.42-10.17,9.52,4.26,3.54,9.45,5.77,13.92,9.03,1.01.75,2.03,1.18,3.04,1.37-6.06,11.51-10.29,24.1-12.38,37.17-.64-.46-1.4-.84-2.29-1.11-5.1-1.34-10.26-2.48-15.4-3.67-2.12-.62-4.56-.23-6.31,1.12-5.15,3.78-2.22,12.19,3.99,12.45,3.86.94,9.77,2.25,14.03,3.4,1.8.45,3.38.26,4.68-.34-.31,5.21-.28,10.46.11,15.73.21,5.43.59,10.84,1.1,16.23-.76-.86-1.53-1.72-2.28-2.58-3.85-4.31-7.9-8.52-12.31-12.26,1.36-2.32,2.45-5.01,3.55-7.1,2.37-3.34,1.01-8.82-3-10.24-5.9-2.32-9.22,2.92-11.1,7.69-.34.54-.67,1.11-.99,1.7-.41-.22-.81-.44-1.23-.64-8.8-5.19-18.83-7.12-28.59-6.21-.37-1.41-.79-2.82-1.01-4.18-.91-4.35-2.25-9.4-7.7-9.38-9.93,1.09-6.53,9.83-4.74,16.72-8.42,3.24-16.01,8.74-21.61,16.21-1.74,2.19-3.26,4.51-4.57,6.92-6.54-1.91-14.8-4.8-17.92,1.9,0,0,.01,0,.02,0-1.84,4,1.02,9,5.39,9.52,2.66.26,5.12.81,7.64,1.46-2.86,12.48-1.1,25.95,4.87,37.42-3.61,2.53-6.44,5.79-3.84,10.39,3.48,5.2,7.75,3.54,11.91.97,7.06,7.32,15.56,13.08,24.82,17.36-2.13,4.72-3.65,10.16,2.15,12.82,6.47,2.37,8.84-2.94,10.9-7.88,7.77,2.34,15.8,3.81,23.76,4.38,13.83.89,27.76-1.4,40.97-5.44.39,1.54.78,3.09,1.18,4.63,6,21.42,13.48,42.42,21.97,62.97,3.43,7.18,5.91,15.38,11.43,21.25,3.73,3.11,9.72,1,11-3.66,1.36-4.83-3.33-7.82-4.77-11.98-7.92-16.39-13.86-33.64-19.82-50.81-13.26-43.35-29.21-105.11-21.22-149.75,6.7-32.79,30.68-62.78,62.92-73.24.81-.28,1.62-.54,2.42-.79-1.92,2.28-3.69,4.62-5.31,6.82-20.28,31.01-19.49,69.79-19.39,105.48,1.44,58.14,8.52,115.91,18.05,173.23,1.49,9.06,14.71,6.98,13.67-1.86-2.83-20.75-6.88-41.32-9.42-62.11-4.47-38.53-8.03-77.23-8.61-116.05.5-34.06-.63-73.97,24.84-100.05,1.84-1.52,3.68-3.06,5.78-4.22.41-.07.8-.18,1.18-.31,16.38,12.59,24.44,38.68,28.53,57.99,9.23,48.43,4.24,97.94,4.54,146.9-.3,11.52-.52,23.05-1.28,34.55-.96,13.53-2.38,27.02-3.76,40.51-.38,3.73,2.06,7.25,5.89,7.78,3.61.5,7.39-2.14,7.77-5.89,1-9.83,2-19.66,2.86-29.51,1.06-11.12,1.62-22.28,1.91-33.44.89-23.85.58-47.72,1.11-71.57.65-24.37.58-48.85-2.5-73.07-3.54-27.63-10.62-56.88-29.25-78.28,31.26,4.81,56.07,29.22,67.68,62.62,7.9,23.47,8.54,48.44,8.23,72.97-.13,26.56-2.77,53.03-6.81,79.26-3.57,23.01-8.16,45.89-14.13,68.4-2.17,8.87,10.66,12.26,13.29,3.68,1.72-6.49,3.32-13.01,4.83-19.56.12,0,.23.02.35.01,1.44-.09,2.89-.03,4.34.03,4.85.25,9.72-.18,14.56-.46,9.08-.15,9.02-13.72.02-13.79-4.01.25-8.03.52-12.05.55-1.34.04-2.77-.08-4.19-.15,2.15-10.33,4.07-20.71,5.75-31.13,4.85,0,9.25.43,14.35.98,8.98,1.01,10.83-12.22,1.89-13.66-4.69-.5-9.42-.98-14.15-1.07,1.73-11.94,3.11-23.93,4.07-35.95,2.55-.31,5.17-.97,7.65-.82,3.98-.25,7.97-.43,11.96-.56,9.06-.26,9.05-13.61.02-13.79-3.7.45-11.99.18-18.68.94.26-5.05.47-10.1.57-15.16.3-12.42.42-24.99-.3-37.47,1.1-.14,2.17-.53,3.11-1.16,7.66-3.54,15.52-6.64,23.13-10.3,8.24-3.78,3.04-16.06-5.35-12.72ZM180.09,518.88c-23.14,5.38-57.18-.74-75.08-19.31.47-1.07.67-2.28.49-3.59-.99-4.64-4.06-6.12-7.48-5.8-2.06-3.75-3.56-7.85-4.36-12.31-5.29-23.56,16.88-48.36,41.03-44.26,15.28,2.99,26.88,14.03,36.64,25.49,4.27,4.96,8.86,10.07,11.98,15.96.4,1.67,1.06,3.01,1.88,4.07,2.16,12.23,4.81,24.38,7.72,36.46-4.21,1.3-8.51,2.39-12.82,3.29Z"/>
    <path class="cls-1" d="M267.61,398.54c8.48,4.39,11.44-6.75,14.63-12.31,2.42-5.78,8.06-13.24.07-17.29-7.83-3.09-10.14,6.37-12.68,11.72-2.55,5.45-9.34,13.24-2.02,17.88Z"/>
    <path class="cls-1" d="M279.31,439.3c-.54-.34-.96-.84-1.37-1.31,3.31,4.01,7.02,7.71,10.01,11.98,5.66,7.06,16.23-1.08,10.93-8.42-2.97-4.2-6.6-7.86-9.88-11.82-6.59-8.3-17.94,3.02-9.68,9.56Z"/>
    <path class="cls-1" d="M351.74,396.16c-4.56.53-6.09,5.02-6.74,8.93-1.28,6.08-6.61,15.32,2.08,18.16,7.71,1.96,9.21-6.82,10.66-12.36.56-2.96,1.94-5.78,1.75-8.84-.5-3.7-4.04-6.43-7.76-5.9ZM358.57,406.54s0-.02.01-.03c-.5.78-1.09,1.53-1.88,2.04.82-.6,1.5-1.38,1.99-2.26-.04.08-.08.17-.13.25Z"/>
    <path class="cls-1" d="M360.57,486.35c-2.56-3.61-5.59-6.89-7.95-10.64-4.69-7.73-16.23-1.01-11.91,6.95,2.51,4.34,6.09,7.99,8.94,12.1,5.66,7.06,16.23-1.08,10.93-8.41Z"/>
    <path class="cls-1" d="M285.9,465.95c-3.69,1.21-5.35,4.95-7.96,7.54-4.13,4.4-9.78,9.69-3.63,15.18,7.65,5.31,12.99-5.48,17.73-10.7,5.51-4.24,1.18-14.07-6.15-12.01ZM290.97,478.66c.29-.15.55-.32.8-.49-.25.19-.51.36-.8.49ZM293.01,476.99c-.29.34-.59.66-.93.95.31-.34.62-.66.93-.95Z"/>
    <path class="cls-1" d="M290.32,527.34c-3.82-2.29-7.75-4.36-11.72-6.39-7.32-5.14-15.26,5.37-8.31,11.01,4.21,2.65,8.84,4.6,13.05,7.29,7.89,4.39,14.68-7.12,6.98-11.9Z"/>
    <path class="cls-1" d="M223.87,371.28c-7.62-2.99-10.64,6.74-14.64,11.25-3.2,5.04-10.8,12.07-4.17,17.5,8.05,5.46,11.8-5.12,15.87-10.17,3.91-5.45,12.13-13.68,2.94-18.58Z"/>
    <path class="cls-1" d="M210.18,439.14c2.3,2.15,4.34,4.59,6.42,6.94,3.96,4.44,12.02,1.01,11.78-4.86-.46-5.42-6.85-9.89-10.48-13.58-3.92-5.52-13.51-1.52-12.25,5.17.44,2.77,2.4,4.7,4.54,6.32ZM219.29,430.89c-.2-.98-.53-1.89-1.02-2.7.55.81.86,1.74,1.02,2.7Z"/>
    <path class="cls-1" d="M220.15,516.38c5.74,7.03,16.28-1.15,10.93-8.41-4.07-5.13-8.75-9.74-12.59-15.05-6.05-6.02-15.53,2.49-10.28,9.15,3.72,5.37,7.73,8.9,11.94,14.3Z"/>
    <path class="cls-1" d="M346.51,536.7c-3.47,4.38-8.96,10.47-3,15.32,5.85,4.13,10.02-1.13,13.07-5.75,2.14-3.23,6.02-6.28,4.67-10.6-3.36-8.22-11.13-5.55-14.74,1.04ZM358.79,542.96c-.63.44-1.29.84-2.03,1.06.81-.3,1.55-.7,2.2-1.21-.06.06-.13.11-.19.17,0,0,.01,0,.02-.01Z"/>
    <path class="cls-1" d="M283.03,563.45c-4.98-3.19-12.03,2.09-10.14,7.78,2.53,6.07,7.56,10.77,11.06,16.3,3.39,4.86,11.72,2.57,12.3-3.27.42-5.88-7.23-11.87-10.03-17.01-.86-1.46-1.6-2.93-3.19-3.79Z"/>
    <path class="cls-1" d="M335.59,358.24c-4.43-4.39-12.09-1.69-12.14,4.68.24,6.38,8.35,8.47,12.19,12.64,4.53,3.9,12.08-.57,11.05-6.38-1.14-5.39-7.26-7.64-11.1-10.94ZM329.39,369.76c-.48-.09-.95-.22-1.41-.38.74.26,1.52.4,2.34.45-.31-.02-.62-.04-.93-.06Z"/>
    <path class="cls-1" d="M135.26,459.83c-.98-2.41-2.93-4.5-5.73-4.85-3.73-.51-7.25,2.16-7.77,5.88-.61,6.5,5.89,10.35,9.68,14.66,6.54,6.25,15.99-3.18,9.76-9.74-1.97-1.99-4.05-3.9-5.94-5.96Z"/>
    <path class="cls-1" d="M163.87,497.11c3.01-4.66,10.15-9.67,5.68-15.65-3.65-4.73-10.17-2.51-12.69,2.17-3.62,4.1-8.34,10.14-2.66,14.72,2.92,2.26,7.43,1.79,9.67-1.24Z"/>
    <path class="cls-1" d="M100.39,458.27c-1.54,1.84-1.65,4.55-2.05,6.81-1.05,6.14-4.29,14.04,4.34,15.93,8.94.92,8.16-10.16,9.67-16.15,2.58-7.28-7.14-12.67-11.96-6.6Z"/>
    <path class="cls-1" d="M130.97,487.9c-4.07-.56-8.13-1.12-12.17-1.83-7.45-.06-9.48,10.57-2.61,13.27,4.05,1.47,8.66,1.33,12.89,2.23,8.96,1.07,10.83-12.16,1.88-13.66Z"/>
    <path class="cls-1" d="M160.83,461.76c-.52-2.9-1.22-5.73-2.06-8.54-2.22-5.52-10.46-5.51-12.71-.02-1.59,3.37.64,7.02,1.1,10.41,1.52,8.96,14.72,7.09,13.67-1.86Z"/>
    <path class="cls-1" d="M171.32,504.65c-3.7,1.28-8.55.97-10.26,5.32-1.46,3.45.2,7.58,3.66,9.04,3.4,1.36,6.92-.26,10.25-1.06,8.66-2.61,5.14-15.48-3.65-13.31Z"/>
    <path class="cls-1" d="M123.5,448.21c5.58-1.22,10.93-2.65,9.62-9.71-.93-3.63-4.9-5.81-8.48-4.83-5.19.8-11.94,3.12-10.24,9.92,1.01,3.8,5.45,6.18,9.09,4.62Z"/>
    <path class="cls-1" d="M301.23,406.42c-1.02-9.65-15.44-7.6-13.66,1.9,1.32,8.86,14.72,7.09,13.66-1.9Z"/>
    <path class="cls-1" d="M365.17,452.72c0-3.76-3.13-6.9-6.89-6.9-3.76,0-6.9,3.13-6.9,6.89,0,3.76,3.13,6.9,6.89,6.9,3.76,0,6.9-3.13,6.9-6.89Z"/>
    <path class="cls-1" d="M221.79,467.43c-3.76,0-6.9,3.13-6.9,6.89,0,3.76,3.13,6.9,6.89,6.9,3.76,0,6.9-3.13,6.9-6.89,0-3.76-3.13-6.9-6.89-6.9Z"/>
    <path class="cls-1" d="M296.7,500.88c-3.76,0-6.9,3.13-6.9,6.89,0,3.76,3.13,6.9,6.89,6.9,3.76,0,6.9-3.13,6.9-6.89,0-3.76-3.13-6.9-6.89-6.9Z"/>
    <path class="cls-1" d="M342.93,575.76c-3.76,0-6.9,3.13-6.9,6.89,0,3.76,3.13,6.9,6.89,6.9,3.76,0,6.9-3.13,6.9-6.89,0-3.76-3.13-6.9-6.89-6.9Z"/>
    <path class="cls-1" d="M230.27,563.2c3.76,0,6.9-3.13,6.9-6.89,0-3.76-3.13-6.9-6.89-6.9-3.76,0-6.9,3.13-6.9,6.89,0,3.76,3.13,6.9,6.89,6.9Z"/>
    <path class="cls-1" d="M234.58,361.1c3.76,0,6.9-3.13,6.9-6.89,0-3.76-3.13-6.9-6.89-6.9-3.76,0-6.9,3.13-6.9,6.89,0,3.76,3.13,6.9,6.89,6.9Z"/>
    <path class="cls-1" d="M280.47,362.16c3.76,0,6.9-3.13,6.9-6.89,0-3.76-3.13-6.9-6.89-6.9-3.76,0-6.9,3.13-6.9,6.89,0,3.76,3.13,6.9,6.89,6.9Z"/>
  </g>
  <path class="cls-2" d="M185.55,178.2c17.1,2.76,34.1,6.11,51.23,8.66-6.28,21.67-13.67,43.01-21.87,64.03-1.83,4.8-3.61,9.63-5.26,14.5-1.25,3.7-3.14,8.27-.45,11.78,8.85,9.08,17.24-7.81,22.72-13.33,14.89-17.89,28.81-36.51,42.19-55.55,8.73,4.56,15.85,11.63,23.58,17.64,12.51,10.22,25.93,19.28,39.81,27.51,4.67,3.18,11.13,1.26,11.9-4.7.39-3.36-1.11-6.59-2.24-9.68-2.83-7.13-6.25-13.99-9.58-20.9-7.5-16.12-15.13-32.19-24.94-47.07,7.85-6.96,17.72-11.03,26.71-16.27,12.06-6.74,23.62-14.39,34.7-22.63,4.22-2.85,4.61-9.6-.21-12.03-10.19-4.04-29.67,2.02-40.89,3.39-16.86,2.83-33.75,5.39-50.46,9-3.18-15.22-9.5-29.53-15.45-43.82-1.7-4.15-3.27-8.35-4.93-12.52-.86-2.18-1.71-4.89-3.75-6.25-4.1-3.24-9.9-.47-11.6,4.06-3.26,9.2-3.2,19.23-4.5,28.83-1.66,13.51-2.84,27.06-3.57,40.65-22.74,5.38-45.59,10.45-67.93,17.41-7.08,1.05-12.06,8.05-5.12,13.08,6.19,2.78,13.28,2.88,19.88,4.19ZM234.7,156.95c13.25-2.72,16.54-4.63,16.38-18.68.94-15.35,2.84-30.6,4.45-45.89,3.37,8.27,6.99,16.44,10.01,24.86,1.95,5.57,3.78,11.21,5.03,16.98.6,4.7,1.38,10.05,7.4,9.65,1.21.86,2.71,1.29,4.24,1.01,7.07-1.28,14.07-2.93,21.15-4.18,16.59-2.68,33.13-5.55,49.69-8.44-8.1,5.45-16.5,10.47-25.09,15.13-7.81,4.19-15.89,8.18-22.61,14.06-11.21,8.93-1.95,16.53,3.04,25.7,9.38,15.82,16.53,32.83,24.59,49.35-12.29-7.61-23.65-16.57-34.81-25.72-7.39-5.48-18.82-17.43-28.66-14.52-3.91,1.8-5.64,6.14-8.27,9.3-2.78,3.88-5.54,7.78-8.33,11.65-7.76,10.78-15.9,21.27-24.27,31.57,7.02-18.04,13.04-36.45,18.71-54.95,4.96-15.52,1.38-18.06-13.86-19.66-13.63-2.16-27.21-4.65-40.81-7.01,13.9-3.85,27.93-7.13,42.02-10.21Z"/>
  <path class="cls-2" d="M1956.03,189.24c-5.18-7.16-19.89-6.41-28.07-7.82-18.66-1.93-37.36-3.49-56.06-4.93,6.41-20.07,12.34-40.41,17.29-60.87.65-4.81-3.21-9.49-8.23-9.04-9.09,1.66-14.62,10.9-21,16.86-9.68,10.13-18.8,20.75-28.3,31.05-20.34-6.94-40.47-14.59-60.97-21.12-6.39-1.33-15.86-8.09-21.69-3.71-5.39,4.32-1.51,11.23,2.15,15.3,3.57,4.55,7.43,8.86,11.32,13.13,11.53,12.72,23.65,24.9,35.15,37.65-19.56,16.02-41.9,28.8-59.39,47.26-4.13,4.73-1.15,12.32,5.08,12.99,3.92.71,7.79-.22,11.59-1.14,23.14-5.87,45.5-14.29,67.88-22.54,10.67,25.05,18.45,51.57,32.58,74.98,1.97,2.3,5.07,3.53,8,2.66,8.69-2.39,7.33-20.64,8.65-28.16,1.54-18.25,3.01-36.56,2.2-54.89,20.64-6.62,41.78-11.69,61.97-19.68,7.48-3.55,25.49-6.11,19.84-17.98ZM1890.58,207.59c-7.25,2.7-25.72,5.43-29.21,11.81-1.94,4.18-.54,8.97-.75,13.41.1,5.19.02,10.37-.15,15.55-.45,11.5-1.39,22.96-2.35,34.43-7.32-15.08-12.5-31.05-18.8-46.56-2.41-5.61-4.1-11.75-8.17-16.45-4.32-4.65-10.7-1.29-15.58.51-5.06,1.87-10.12,3.74-15.19,5.58-11.92,4.39-23.94,8.48-36.12,12.08,64.62-50.73,63.02-28.1,8.09-89.53,17.23,5.57,34.27,11.71,51.24,18.02,12.02,4.54,15.31,1.25,22.95-7.83,7.98-8.82,15.84-17.73,24.04-26.35-3.41,11.97-6.56,24.05-10.4,35.89-1.04,3.38-2.27,6.47-3.61,9.75-.44,4.64.97,11.26,6.61,11.73,21.84,1.55,43.65,3.54,65.44,5.7-12.48,4.62-25.19,8.67-38.01,12.24Z"/>
  <g>
    <path class="cls-1" d="M1788.86,430.07c-5.66-.22-11.34-.11-16.99-.69-.55-.01-1.11-.05-1.66-.1,1.32-20.93,0-41.95-4.72-62.51-.53-2.53-1.15-5.01-1.85-7.43.55-.27,1.08-.58,1.55-1.01,5.09-2.8,10.37-5.24,15.57-7.83,8.02-4.21,2.07-16.17-6.14-12.35-3.74,2.34-10.96,4.71-15.86,7.93-7.6-16.78-19.51-30.29-34.02-40.7.33-.32.65-.62.98-.9,2.04-2.1,4.02-4.26,6.05-6.38,4.11-4.27.28-11.99-5.57-11.44-5.64.79-8.36,7.05-12.49,10.39-.26.28-.54.55-.82.81-15.63-8.74-33.35-14.46-51.47-17.32.97-6.36,2.15-12.7,3.27-19.03,1.61-8.92-11.47-11.65-13.5-2.84-1.2,6.75-2.42,13.49-3.47,20.26-6.32-.5-12.63-.66-18.87-.49-18.24-.39-35.44,1.8-51.34,6.37-1.12-5.86-4.9-13.47-6.18-17.5-2.21-7.8-14.02-5.77-13.52,2.29,1.8,6.62,4.92,12.9,6.65,19.59-14.53,5.65-27.75,13.48-39.45,23.28-.15-.22-.32-.43-.5-.64-3.35-3.96-7.06-7.6-10.38-11.59-3.35-5.39-12.28-3.12-12.63,3.27-.07,6.25,9.09,12.34,12.65,17.43.27.3.55.56.84.8-17.45,17.81-30.66,40.73-38.49,68.15-12.22,42.38-4.72,88.35,12.42,128.32,9.13,20.7,19.85,40.74,32.6,59.45,4.15,6.18,8.32,12.32,12.44,18.52,2.03,3.34,4.8,7.47,9.45,6.46,3.69-.73,6.17-4.39,5.45-8.09-.88-3.26-3.42-5.7-5.12-8.55-7.5-11.28-15.34-22.36-22.24-34.03-27.53-46.22-47.25-103.77-31.96-157.64,10.54-39.25,37.76-74.59,75.64-90.84,12.06-4.99,24.71-8.07,37.6-9.72-43.94,52.07-43.08,127.18-39.58,192.27,1.4,34.66,2.89,69.45,9.09,103.64,1.97,8.97,15.08,6.12,13.54-2.63-3.11-17.41-5.03-35.03-6.38-52.66-2.54-77.73-18.39-170.83,36.26-234.47,4.2,12.53,3.51,26.29,4.94,39.32.67,9.36,1.34,18.73,1.97,28.09,5.29,75,1.68,150.17,2.02,225.24.71,9.13,14.06,8.13,13.77-.77-.33-13.37-.15-26.76-.07-40.13,1.54-57.7,1.67-115.69-1.22-173.38-1.04-17.69-2.39-35.36-3.71-53.04-.67-6.17-.93-12.59-1.86-18.83,4.75,4.36,9.13,9.11,13.1,14.21,13.73,17.13,18.21,39.24,22.94,60.17,3.69,17.46,7.65,34.9,9.94,52.61,3.19,24.37,2.38,49.04.67,73.5-1.57,18.56-4.04,37.06-7.88,55.29-1.56,7.38-3.35,14.7-5.1,22.04-.87,3.66,1.73,7.41,5.33,8.17,3.64.8,7.32-1.65,8.17-5.33,1.45-6.07,2.95-12.13,4.29-18.23,3.88-17.46,6.34-35.17,8.2-52.95,4.14-40.36,2.92-81.24-6.51-120.81-7.3-36.06-13.67-72.48-42.85-97.93-1.67-1.37-3.45-3.05-5.32-4.72,7.97.31,15.92,1.02,23.75,2.01,32.58,4.43,65,21.16,82.15,50.03,21.96,43.15,15.45,94.74,4.27,140.16-8.77,31.29-23.7,61.17-39.43,89.68-4.58,8.74-8.87,17.65-13.34,26.45-1.71,3.35-.27,7.58,3.07,9.26,3.31,1.68,7.55.3,9.26-3.07,2.67-5.26,5.3-10.55,7.96-15.82,3.44-6.91,7.06-13.72,10.69-20.53,1.39.68,2.91,1.14,4.35,1.34,4.6,1.29,9.24,2.49,13.89,3.63,8.85,1.71,11.66-11.35,2.84-13.5-4.41-1.09-8.81-2.22-13.18-3.43-.43-.18-.87-.34-1.3-.5,3.68-7.05,7.25-14.16,10.5-21.42,4.62-10.24,8.82-20.78,12.51-31.54,5.25,2.38,13.01,2.59,17.9,3.83,8.91,1.71,11.64-11.55,2.84-13.5-5.01-.8-10.07-1.59-14.98-2.88-.49-.34-1-.59-1.51-.77,4.73-15.99,8.25-32.36,10.19-48.87,6.26.57,12.55.66,18.83.82,9.07.53,10.03-12.95,1.06-13.75ZM1770.16,430.06s0-.04,0-.05c.24.14.47.31.68.49-.22-.16-.45-.31-.68-.44Z"/>
    <path class="cls-1" d="M1698.97,357.02c5.22,3.5,10.33,7.17,15.09,11.28,6.95,5.8,15.77-4.25,9.1-10.36-6.75-5.64-13.85-11.04-21.49-15.39-5.2-2.04-10.72,3.52-8.81,8.74.88,2.91,3.77,4.19,6.11,5.74ZM1704.58,344.53c.18.23.36.47.54.7,0,0,0,0,0-.01.17.33.41.62.52.98-.29-.64-.68-1.23-1.15-1.75.03.03.06.06.09.09Z"/>
    <path class="cls-1" d="M1739.73,412.07c-5.39,6.4-9.5,13.88-14.34,20.7-2.04,3.15-1.29,7.44,1.87,9.57,3.05,2.06,7.53,1.3,9.57-1.86,4.21-6.22,8.29-12.56,12.63-18.67,0,0-.02.02-.02.02,5.55-6.15-3.12-15.47-9.7-9.76Z"/>
    <path class="cls-1" d="M1723.29,495.71c-2.08-4.81-4.79-9.32-7-14.05-1.96-8.82-15.03-6.25-13.53,2.66,1.69,6.23,5.8,11.53,8.18,17.53,4.21,8.02,16.15,2.06,12.35-6.14Z"/>
    <path class="cls-1" d="M1656.36,433.8c3.78.31,7-2.6,7.41-6.35.8-6.61,1.4-13.25,1.66-19.9,1.05-5.82-6.63-10.66-11.39-6.24-3.1,2.71-2.27,6.95-2.63,10.6-.32,4.84-.86,9.66-1.4,14.48-.42,3.73,2.7,7.13,6.35,7.41Z"/>
    <path class="cls-1" d="M1665.48,489.04c-2.97-4.38-6.18-8.59-9.47-12.73-4.01-6.15-13.95-2.14-12.5,5.14,2.26,5.73,7.43,9.94,10.53,15.29,5.29,7.38,16.33-.11,11.45-7.7Z"/>
    <path class="cls-1" d="M1613.36,332.14c-5.77-2.88-9.44,2.55-11.52,7.18-2.84,5.41-10.48,13.01-3.32,18.18,7.95,4.81,11.43-5.33,14.83-10.6,3.11-4.91,6.61-10.92,0-14.76Z"/>
    <path class="cls-1" d="M1587.1,400.85c2.83,2.64,5.26,5.72,8.03,9.26,1.28,1.82,2.81,3.51,5.09,3.95,5.75,1.45,10.75-5.79,7.15-10.6-4.35-5.12-8-12.01-14.42-14.65-7.55-1.49-10.83,7.99-5.84,12.04ZM1588.16,401.56c.45.24.94.45,1.49.62-.53-.14-1.02-.35-1.49-.62Z"/>
    <path class="cls-1" d="M1608.92,450.42c-3.56.68-5.34,4.14-7.77,6.47-4.15,5.32-15.3,11.96-8.16,19.15,6.98,5.66,12.29-3.92,16.78-8.17,2.8-3.69,8.2-6.66,7.23-11.99-.71-3.68-4.4-6.19-8.08-5.46Z"/>
    <path class="cls-1" d="M1604.12,523.31c-2.98-3.55-5.94-7.1-9.07-10.52-1.31-2.03-3.65-3.31-6.2-3.21-4.88.13-8.05,5.75-5.8,10.03,3.18,4.53,7.34,8.39,10.72,12.81,6.01,6.71,16.2-2.27,10.36-9.11Z"/>
    <path class="cls-1" d="M1556.9,319.84c-4.66-2.43-8.9,1.41-11.2,5.22-3.67,4.83-10.78,11.84-3.71,17.05,6.78,4.4,10.94-3.92,14.45-8.44.52-.94,2.85-3.2,3.53-4.57,1.73-3.28.27-7.65-3.07-9.26Z"/>
    <path class="cls-1" d="M1519.29,395.3c5.74,1.46,10.76-5.81,7.15-10.6-1.62-2.12-3.28-4.16-5.07-6.12-3.5-3.2-5.71-9.21-11.46-8.1-5.64.96-7.27,8.25-3.38,12.08,2.58,3.27,5.6,6.18,8.17,9.46,1.15,1.6,2.61,2.88,4.6,3.29Z"/>
    <path class="cls-1" d="M1545.77,395.76c-3.61,2.86-4.13,7.79-5.89,11.8-1.6,6.72-9.59,17.56-.24,21.64,9.05,2.7,9.94-8.98,12.46-14.85,1.06-5.31,6.6-11.64,3.24-16.72-2.02-3-6.56-4.13-9.57-1.87Z"/>
    <path class="cls-1" d="M1500.39,449.53c.93,3.82,4.55,6.04,6.78,9.08,1.86,2.46,3.55,5.04,5.23,7.62,5.22,7.4,16.29-.06,11.45-7.69-3.17-5.1-6.74-9.91-10.97-14.18-3.89-6.2-14.15-1.96-12.49,5.18Z"/>
    <path class="cls-1" d="M1552,472.74c1.83-3.07,3-7.05.22-10.01-7.75-6.72-12.27,1.66-14.47,8.54-1.86,5.92-7.49,15.41.86,18.75,10.18,2.78,9.92-11.15,13.4-17.28Z"/>
    <path class="cls-1" d="M1526.86,521.58c4.16,3.26,8.23,6.66,12.37,9.95,6.94,5.87,15.81-4.35,9.11-10.36-6.17-4.72-11.9-10.03-18.41-14.28-4.4-3.3-11.25.52-10.78,6.06.03,4.5,4.77,6.16,7.71,8.63Z"/>
    <path class="cls-1" d="M1609.4,552.94c-6.6,1.66-7.06,9.84-9.71,15.02-1.4,3.49.8,7.59,4.23,8.79,7.89,2.6,9.71-6.93,11.94-12.29,4.19-4.97.1-12.72-6.46-11.52Z"/>
    <path class="cls-1" d="M1550.85,551.4c-3.41-1.2-7.73.63-8.79,4.23-1.62,4.69-1.51,11.42,4.47,12.6,3.53.74,7.61-1.62,8.17-5.33,1.02-4.3,1.46-9.64-3.86-11.51Z"/>
    <path class="cls-1" d="M1658.18,533.85c-2.16,1.06-3.33,3.07-3.84,5.34-.95,3.21-2.32,6.29-3.58,9.39-1.41,3.49.82,7.59,4.23,8.79,8.88,2.65,10.44-9.1,12.75-15.04,2.24-5.43-4.25-11.37-9.56-8.48Z"/>
    <path class="cls-1" d="M1697.24,544.36c1.66,10.37,16.26,8.26,13.6-5.03-1.7-10.36-16.25-8.28-13.6,5.03Z"/>
    <path class="cls-1" d="M1717.04,407.05c.38-3.3-2.27-5.49-3.8-8.08-1.38-4.03-5.13-7.34-9.58-5.79-8.8,3.51-2.9,13.02,1.32,17.89,3.69,4.62,11.83,1.83,12.05-4.02Z"/>
    <path class="cls-1" d="M1695.47,314.43c-5.06-7.69-18.11.95-12.9,8.61,5.08,7.7,18.15-.98,12.9-8.61Z"/>
  </g>
  <path class="cls-3" d="M1285.47,534.91c-7.13-17.43-17.79-35.05-35.9-42.61-34.21-14.5-64.61,10.99-72.98,43.88-29.44-24.2-71.4-3.33-84.03,29.02-4.26,11.18-17.73,37.59,3.91,37.51,91.02-1.7,182.27-2.44,272.96-11.11,4.44,2.83,11.09.35,12.47-4.78,1.61-7.2-9.37-20.69-13.27-27.06-18.41-27.66-53.9-55.19-83.14-24.85ZM1098.73,589.01c6.09-24.83,21.45-49.39,49.73-49.6,8.2.28,15.64,3.99,21.75,9.3,5.77,6.3,12.81,7.79,16.72-1.15,4.35-10.25,6.56-21.68,13.88-30.42,13.32-16.72,35.88-20.51,52.63-6.43,8.79,7.14,13.93,17.45,18.45,27.59,4.24,11.12,9.53,19.54,20.75,8.73,6.72-6.95,15.42-13.6,25.68-11.12,21.25,4.76,34.83,25.13,45.94,42.37-88.03,8.27-177.14,8.62-265.55,10.73Z"/>
  <path class="cls-2" d="M1486.46,247.52c23.51.27,57.49-34.32,68.65-53.75,11.64-19.02,8.63-49.86-15.12-57.49,11.41-7.28,21.35-16.52,31.24-25.69,4.09-3.83,8.12-7.74,11.94-11.85,2.38-2.77,5.53-5.32,6.48-8.98,1.86-19.06-32.83-6.4-42.78-4.59-12.59,3.22-25.22,6.46-37.5,10.76.39-27.17-23.27-40.13-47.93-39.08-22.6.65-57.23,10.42-75.94,23.06-7.19,4.93-9.33,15.35-3.47,22.16,6.77,7.99,18.19,9.17,28.03,9.75-4.99,5.93-3.72,14.39,2.03,19.32,5.49,5.17,13.35,6.47,20.59,7.13-11.82,3.89-23.5,8.22-35.09,12.73-5.13,2-10.27,4.01-15.35,6.14-1.95.81-3.73,1.98-4.71,3.93-2.32,4.38.8,8.6,3.88,11.57,3.93,4.78,7.47,9.85,11,14.93,4.97,6.43,11.22,19.74,18.69,22.41,8.23,2.3,15.25-4.81,21.9-8.58,4.91-3.2,9.8-6.41,14.72-9.59-2.12,17.11,14.9,21.54,28.43,17.57-8.07,14.04-11.33,36.38,10.32,38.14ZM1568.22,94.34c-5.64,5.36-11.27,10.82-17.13,15.99-.11-.38-.24-.76-.42-1.14-1.67-3.2-3.44-6.36-5.34-9.44,7.55-1.98,15.13-3.82,22.89-5.41ZM1472.55,196.11c-2.82.32-10.59,2.49-11.25-1.44,1.65-9.23,9.92-15.7,16.68-21.5,3.46-2.33,7.55-4,10.52-6.97,4.05-4.33.4-11.91-5.51-11.5-2.55.11-5,1.64-7.08,2.99-9.93,7.19-20.82,12.86-31.08,19.57-9.95,6.19-19.45,13.14-29.64,18.94-7.16-9.53-13.31-19.77-20.64-29.19,26.93-11.16,55.67-19.56,83.2-29.34,5.54-2.44,5.37-10.99-.47-12.89-5.88-.95-11.97.39-17.94.13-9.64-.47-31.7,2.17-38.45-4.52,5.87-7.06,18.15-9.47,26.67-12.17,4.84-.48,11.2-2.19,10.88-8.23-.12-2.56-1.61-4.59-3.78-5.84-2.34-1.34-5.09-.62-7.52-.02-2.83.8-5.77,1.17-8.67,1.62-9.41,1.44-41.18,5.82-46.04-3.38,4.52-4.72,11.16-6.67,16.98-9.34,8.49-3.34,17.13-6.16,25.97-8.42,18.4-4.08,45.79-9.67,57.52,9.45,3.73,6.25,2.83,13.75,1.35,20.53-1.07,4.59,3.24,9.14,7.87,8.23,2.37.42,4.49-1.11,6.62-1.92,5.64-2.23,11.41-4.07,17.22-5.79,1.8-.51,3.59-1.02,5.39-1.53,2.66,3.62,4.76,7.64,6.9,11.58.82,1.58,1.94,2.62,3.18,3.22-3.41,2.63-6.93,5.11-10.61,7.37-5.32,3.62-15,6.17-13.96,14.21,2.13,13.02,33.67-.74,30.87,34.09-1.28,18.86-42.02,58.93-60.71,59.71-10.14-.39,5.01-25.11,8.24-28.69,2.9-4.04,7.01-7.21,9.65-11.39,2.52-4.89-1.91-11.01-7.37-9.9-2.21.41-4.01,1.93-5.88,3.1-6.07,3.6-12.28,7.21-19.09,9.24Z"/>
  <path class="cls-2" d="M640.91,439.78c-14.71-18.35-63-22.66-85.1-18.97-22.09,3.07-44.02,24.96-34.84,48.16-12.86-4.2-26.32-6.02-39.68-7.85-5.55-.73-11.14-1.37-16.73-1.71-3.65-.08-7.62-.9-11.05.69-15.92,10.65,15.88,29.44,23.59,35.98,10.48,7.69,21,15.4,32.1,22.16-21.25,16.93-16.26,43.44.2,61.84,14.84,17.05,44.36,37.62,66,44.07,8.38,2.43,17.78-2.53,19.33-11.37,1.88-10.3-4.46-19.88-10.25-27.85,7.75.1,13.48-6.25,13.64-13.82.51-7.52-3.47-14.43-7.55-20.44,10.51,6.67,21.26,12.95,32.1,19.04,4.81,2.7,9.62,5.39,14.49,7.97,1.86.99,3.9,1.63,6.03,1.15,4.85-.98,6.14-6.07,6.49-10.34,1.2-6.07,2.87-12.03,4.56-17.97,1.82-7.91,8.14-21.2,5.46-28.67-3.44-7.82-13.39-8.74-20.53-11.48-5.58-1.76-11.17-3.51-16.75-5.3,14.57-9.21,7.2-25.19-4.46-33.12,15.97-2.67,35.3-14.32,22.93-32.17ZM470.64,473.75c7.73.96,15.51,1.85,23.23,3.1-.22.32-.43.67-.62,1.05-1.41,3.32-2.74,6.7-3.91,10.11-6.32-4.58-12.55-9.27-18.7-14.26ZM610,483.15c2.04,1.98,8.64,6.61,6.03,9.61-8.18,4.58-18.43,2.29-27.2.75-4-1.2-7.88-3.3-12.06-3.71-5.92-.38-9.46,7.24-5.4,11.56,1.71,1.9,4.44,2.82,6.8,3.58,11.85,3.11,23.15,7.93,34.85,11.62,11.1,3.76,22.5,6.7,33.45,10.89-2.83,11.58-6.84,22.84-9.47,34.48-25.71-13.73-50.43-30.62-75.46-45.7-5.4-2.74-11.9,2.82-9.67,8.55,3,5.15,7.89,9.01,11.48,13.79,5.76,7.75,21.79,23.13,20.9,32.59-9.18-.06-18.83-8.02-26.33-12.9-3.44-3.44-8.8-7.26-13.26-3.19-1.9,1.71-2.53,4.16-2.11,6.63.45,2.66,2.75,4.32,4.76,5.83,2.42,1.69,4.56,3.72,6.75,5.67,7.08,6.36,30.63,28.14,26.59,37.74-6.52-.5-12.24-4.39-17.99-7.2-7.97-4.44-15.63-9.34-22.98-14.73-14.83-11.63-36.53-29.26-29.18-50.46,2.46-6.84,8.83-10.91,15.01-14.06,4.23-2.08,5.01-8.3,1.37-11.31-1.18-2.1-3.71-2.76-5.69-3.9-5.3-2.94-10.39-6.23-15.4-9.64-1.54-1.07-3.07-2.13-4.6-3.19,1.11-4.35,2.89-8.52,4.57-12.68.7-1.63.79-3.16.47-4.5,4.19.97,8.34,2.12,12.43,3.52,6.17,1.82,14.28,7.68,19.84,1.77,8.72-9.9-21.94-25.56,6.77-45.49,15.39-10.97,72.21-4.91,84.67,9.05,6.13,8.08-22.59,12.06-27.4,11.83-4.96.32-10.02-.84-14.93-.23-5.38,1.15-7.3,8.47-2.97,11.98,1.72,1.44,4.04,1.87,6.12,2.58,6.64,2.41,13.37,4.92,19.25,8.9Z"/>
  <path class="cls-3" d="M641.66,238.32c42.74-.79,85.56.16,128.16-4.31,9.47,4.2,21.4.59,16.79-11.77-4.53-16.5-14.68-30.88-26.32-43.18-29.57-27.93-73.96-44.84-102.48-5.94-8.71-19.61-18.16-41.34-38.57-51.19-22.65-11.24-51.93-4.5-68.57,14.21-12.44,13.02-15.34,32.02-17.01,49.28-28.2-18.16-67.48-17.15-83.08,16.42-6.27,13.55-18.77,45.69,6.98,44.65,27.74-.39,55.48-2.6,83.19-3.96,33.64-1.35,67.32-1.86,100.92-4.22ZM455.72,232.59c4.22-34.26,24.7-54.64,59.61-41.05,4.97,2.23,9.75,4.82,14.46,7.54,4.27,2.71,9.72,6.87,14.45,2.62,2.13-1.65,2.61-4.67,2.76-7.18.24-5.53.5-11.05,1.3-16.53,2.71-25.49,15.58-44.1,42.24-47.49,18.1-2.51,34.87,8.87,43.09,24.51,5.06,8.81,9.05,18.18,13.23,27.43,1.25,3.1,3.31,6.25,6.68,7.29,11.92,4.08,17.63-17.99,33.95-23.67,14.48-5.39,30.36.74,43.22,7.74,17.97,10.56,32.92,26.79,40.67,46.24-42.17,4.44-84.57,3.95-126.9,4.35-56.27,3.34-112.65,4.21-168.91,7.8-6.61.4-13.24.88-19.85.39Z"/>
  <path class="cls-2" d="M807.99,500.04c-10.47,11.26-4.47,28.47,10.67,30.9,9.85,1.24,20.42-4.58,23.84-14.08.62-1.74.75-3.52.05-5.26,3.12-18.73-24.39-25.01-34.55-11.56ZM821.67,517.3c-12.62-1.58.88-16.6,7.36-8.59,0,.32,0,.64,0,.95,0,.89.17,1.74.49,2.53-1.31,3.11-4.55,4.96-7.85,5.11Z"/>
  <path class="cls-2" d="M1284.98,206.21c9.81,4.32,22.09.41,28.47-7.97,4.79-5.92,5.75-18.5-2.67-21.55-.21-9.69-14.38-10.67-21.22-7.44-13.8,5.31-20.02,29.95-4.58,36.97ZM1290.75,186.99c.87-3.6,3.75-5.49,6.88-5.49,1.16.88,2.59,1.42,4.13,1.42.15,0,.3-.01.45-.02-.32,1.72.84,3.22,1.09,4.86-.65,3.85-5.37,6.03-8.93,6.39-5.48.83-5.15-3.31-3.62-7.16Z"/>
  <path class="cls-2" d="M1425.71,523.66c-2.16-6.98-11.38-9.22-17.91-8.24-12.84,1.8-23.85,17.49-16.04,29.38,5.25,8.63,17.2,11.81,26.45,8.23,11.61-4.01,17.51-20.7,7.5-29.38ZM1410.99,540.69c-15.25.25-4.88-16.76,3.86-10.1.15,1.74,1.81,2.85,2.14,4.52.27,3.03-3.23,5.41-6,5.58Z"/>
  <path class="cls-2" d="M81.07,342.84c12.49,8.32,28.72.84,30.98-13.89,1.45-16.84-15.37-29.97-30.77-20.66-13.43,6.66-12.39,27.17-.21,34.55ZM85.8,322.27c2.61-3.49,8.6-4.72,11.1-.45.07,1.6,1.34,2.89,1.55,4.47-.23,3.01-2.53,6.33-5.81,6.14-5.12.43-8.73-5.68-6.84-10.16Z"/>
  <path class="cls-2" d="M1937.83,547.09c-2.85-9.22-15.44-10.71-23.26-7.3-17.79,8.35-16.53,34.49,4.83,36.09,9.49.77,19.62-5.23,22.71-14.39,1.89-4.83.76-12.01-4.27-14.41ZM1921.76,562.18c-9.27.55-6.16-9.43.55-10.29,2.69-.67,3.91,1.91,6.04,2.83.15.73.43,1.46.77,2.14-1.02,3.04-4.33,4.84-7.36,5.32Z"/>
</svg>