<?xml version="1.0" encoding="UTF-8"?>
<svg id="Camada_1" data-name="Camada 1" xmlns="http://www.w3.org/2000/svg" viewBox="0 0 2000 944.03">
  <defs>
    <style>
      .cls-1 {
        fill: #a62317;
      }

      .cls-2 {
        fill: #1d0809;
      }

      .cls-3 {
        fill: #edae1a;
      }
    </style>
  </defs>
  <g>
    <path class="cls-2" d="M213.1,781.12c-.97-12.51,1.3-26.72-3.41-38.76-2.57-5.97-10.14-6.61-13.88-1.42-13.39,17.02-25.71,35-40.69,50.71-3.01-10.12-5.76-20.32-8.73-30.45-3.05-8.76-7.31-31.95-16.02-35.41-8.57-2.12-10.22,8.97-12.61,14.76-5.78,16.51-10.42,33.38-14.8,50.3-9.59-12.25-23.98-38.66-37.86-44.5-11.2-.73-7.08,12.75-6.11,19.5,1.56,9.78,3.57,19.48,6.3,29,2.88,9.66,5.5,18.14,8.77,28.09,3.62,10.67,6.34,19.38,19.42,19.26,16.5,1.55,33.06-.13,49.6-.21,20.22-.63,40.6-.7,60.67-3.11,8.49-.24,9.83-6.47,9.56-13.63.58-14.71.55-29.43-.22-44.14Z"/>
    <path class="cls-2" d="M627.9,697.73c-2.23-1.45-5.39-1.26-7.47.4-6.95,7.45-12.2,16.47-18.31,24.64-15.14,20-26.48,42.63-41.82,62.41-12.37-18.14-24.71-37.39-39.67-53.69-2.94-2.95-5.61-6.25-8.88-8.84-3.81-2.94-9.8-.6-10.32,4.26.95,14.94,3,29.89,5.13,44.72,3.25,18.03,7.4,35.88,10.94,53.86,1.58,9.06,4.81,17.12,15.59,15.79,20.26.3,40.51-.06,60.71-1.62,7.12-.56,14.28-.56,21.38-1.22,6.88-.77,13.53-3.21,13.3-11.31,2.26-17.1,2.23-34.35,2.85-51.56,1.42-21.23,3.21-42.55,1.33-63.84-.66-4.81-.33-10.92-4.76-14.01Z"/>
    <path class="cls-3" d="M786.47,467.64c-14.79-5.3-29.82-9.88-45.27-12.8,2.19-10.35,2.46-20.98,3.37-31.49.36-7.68,1.69-15.5.85-23.16-.68-2.46-2.78-4.36-5.32-4.7-6.4-.34-9.98,6.52-13.83,10.62-8.12,10.76-15.64,21.98-23.26,33.09-14.34-3.67-28.48-8.24-43.16-10.48-2.78-.49-5.89-1.37-8.59-.12-9.24,5.34-.54,13.75,4.36,18.6,8.33,8.79,17.48,16.72,26.59,24.67-14.24,13.26-29.34,25.68-42.57,39.98-3.52,3.51-2.86,9.93,2,11.84,12.38,3.99,46.8-14.18,59.94-19.25,3.05,6.53,5.48,13.35,9.07,19.64,3.58,6.42,7.61,12.6,10.9,19.19,2.26,4.58,4.4,9.21,6.73,13.76.69,1.35,1.44,2.73,2.72,3.62,7.83,4.6,11.51-3.66,11.54-10.39,1.41-16.34-.43-32.66-1.54-48.97,18.21-4.57,36.54-9.45,53.98-16.36,2.35-1.32,3.82-3.89,3.82-6.57-.15-6.34-7.28-8.9-12.32-10.7ZM730.66,534c-.25-.46-.5-.92-.76-1.38-5.85-9.9-11.68-19.77-15.8-30.55-6.22-14.61-11.41-12.06-23.68-6.25-9.79,4.28-19.47,8.78-29.59,12.28,46.91-45.16,46.49-27.71,7.97-65.07,49.51,11.18,32.17,18.69,62.42-22.9-.52,12.5-1.67,24.91-3.9,37.2.08,10.6,15.32,9.56,22.74,12.05,9.56,2.21,18.87,5.38,28.19,8.44-60.77,21.26-49.43-1.41-47.6,56.18Z"/>
    <path class="cls-2" d="M477.16,121.18c21.72.02,43.43.84,65.16.69,43.54.09,87.1-.12,130.56-2.92,11.83-.88,23.8-.92,35.41-2.8,12.62-.07,25.79-5.13,17.31-19.71-11.52-21-24.78-41.89-50.84-44.6-18.49-2.82-32.54,11.27-44.9,22.8-20.89-28.04-58.1-29.15-74.93,3.4-18.72-26.6-57.58-34.84-80.94-9.44-9.74,9.61-22.31,36.5-14.96,49.34,4.4,5.15,12.17,2.66,18.12,3.25Z"/>
    <path class="cls-3" d="M1196.37,373.06c10.04-24.34,14.34-51.37,10.68-77.52-1.2-9.98-9.18-42.01-23.33-37.03-7.72,4.31-8.54,14.53-11.68,22-7.95,24.06-23.12,44.64-46.46,55.66-34.66,16.82-77.78,13.83-109.09-8.9-19.72-14.09-38.18-32.53-46.76-55.6-5.14-17.39-8.63-36.06-5.24-54.11,5.59-23.18,19.47-44.58,39-58.4,54.85-34.62,144.95-7.87,186.02,38.24,9.92,9.02,15.43-4.18,14.73-13.11-.99-10.8-.31-21.86-3.41-32.4-3.89-13.74-11.15-26.19-19.75-37.5-53.58-76.45-149.83-104.9-236.38-69.94-98.38,39.13-147.17,142.1-127.13,244.21,11.98,76.05,63.62,147.67,137.86,172.83,20.76,6.21,42.33,10.06,63.94,11.68,43.93,3.62,89.61-7.74,124.22-35.63,21.8-17.35,40.97-39.11,52.79-64.49Z"/>
    <path class="cls-3" d="M1278.75,374.51c3.21,1.51,6.88,2.28,10.52,2.28,2.23,0,4.45-.29,6.54-.87,4.73-1.31,9.16-3.83,12.45-7.52,2.73-3.06,4.78-6.63,5.86-10.6,1.29-4.72,1.26-9.97-.31-14.62-.03-.08-.05-.16-.08-.23-2.5-7.4-8.25-13.46-15.64-16.12-8.83-3.19-19.17-1.32-26.11,5.11-3.8,3.52-6.62,8.08-7.77,13.16-1.3,5.75-.69,11.69,1.82,17.03,2.6,5.55,7.21,9.79,12.71,12.39ZM1275.92,349.96c.06-.51.13-1.01.21-1.51.13-.55.27-1.08.43-1.63.24-.65.51-1.28.79-1.91.25-.44.5-.88.76-1.31.39-.55.8-1.08,1.24-1.59.35-.36.71-.72,1.08-1.06.39-.31.78-.62,1.18-.92.48-.31.97-.6,1.46-.88.52-.24,1.04-.47,1.58-.7.56-.18,1.12-.35,1.69-.5.59-.11,1.17-.2,1.76-.28.71-.03,1.42-.04,2.13-.02.5.05.99.12,1.49.19.63.14,1.25.3,1.87.49.56.21,1.11.44,1.65.69.52.28,1.03.58,1.54.89.47.34.93.69,1.37,1.06.4.38.79.77,1.18,1.17.33.4.65.81.96,1.23.32.49.62.99.9,1.5.28.58.53,1.16.76,1.76.09.29.18.57.27.86.06.24.12.48.18.72.11.62.2,1.24.26,1.86.03.59.03,1.18,0,1.77-.05.61-.14,1.21-.24,1.82-.13.58-.29,1.16-.47,1.73-.2.53-.41,1.05-.65,1.56-.27.51-.56,1-.86,1.48-.33.47-.68.93-1.05,1.37-.39.42-.8.83-1.22,1.23-.41.34-.84.68-1.27,1-.52.34-1.05.65-1.6.95-.55.25-1.1.49-1.66.7-.53.16-1.06.31-1.59.44-.58.1-1.15.18-1.73.25-.61.02-1.22.03-1.83.01-.65-.06-1.3-.15-1.95-.26-.48-.12-.96-.25-1.44-.39-.62-.23-1.23-.48-1.84-.76-.54-.3-1.06-.6-1.58-.93-.38-.28-.76-.57-1.13-.87-.46-.43-.91-.86-1.34-1.32-.36-.44-.7-.88-1.03-1.34-.31-.5-.61-1.01-.89-1.53-.24-.51-.45-1.03-.66-1.56-.17-.56-.33-1.12-.47-1.68-.1-.62-.19-1.23-.25-1.85-.02-.65-.01-1.3.01-1.95Z"/>
    <path class="cls-3" d="M828.95,68.52c1.91-4.3,2.49-9.23,1.85-13.88-.55-3.99-2.06-7.83-4.32-11.15l-.08-.12c-.92-1.33-1.96-2.57-3.1-3.71-.24-.24-.49-.45-.76-.64-4.77-4.32-11.02-6.91-17.57-6.87-4.88.04-9.73,1.34-13.86,3.96-4.3,2.73-7.62,6.58-9.83,11.15-2.57,5.31-3.14,11.66-1.67,17.36,1.42,5.53,4.59,10.51,9.07,14.07,4.07,3.23,9.09,5.23,14.27,5.6.64.04,1.28.07,1.91.07,4.87,0,9.73-1.3,13.87-3.92,4.56-2.88,8.04-7.01,10.23-11.92ZM818.45,60.92c-.12.56-.27,1.1-.44,1.65-.23.63-.49,1.24-.77,1.85-.28.51-.57,1.01-.88,1.51-.34.47-.7.93-1.07,1.39-.39.42-.8.83-1.22,1.23-.41.34-.83.68-1.26,1-.51.33-1.03.65-1.56.94-.53.25-1.07.49-1.62.71-.63.21-1.27.38-1.92.54-.56.1-1.12.18-1.69.24-.6.03-1.2.04-1.8.03-.59-.05-1.18-.12-1.77-.21-.67-.15-1.33-.32-1.98-.52-.53-.2-1.05-.42-1.57-.65-.5-.27-1-.55-1.49-.84-.54-.38-1.05-.77-1.56-1.18-.4-.38-.79-.76-1.18-1.16-.4-.47-.77-.95-1.13-1.45-.31-.49-.61-.99-.89-1.5-.25-.54-.49-1.09-.7-1.65-.18-.57-.34-1.14-.48-1.72-.11-.6-.2-1.21-.26-1.82-.03-.6-.03-1.21-.02-1.81.06-.62.14-1.23.24-1.84.14-.59.3-1.18.47-1.76.24-.62.49-1.22.77-1.83.26-.48.53-.94.82-1.41.39-.53.79-1.05,1.2-1.56.34-.36.69-.71,1.04-1.05.44-.37.89-.73,1.35-1.07.5-.32,1-.63,1.52-.92.54-.26,1.09-.5,1.65-.72.63-.21,1.27-.39,1.92-.54.58-.1,1.16-.18,1.74-.24.61-.02,1.22-.03,1.84-.01.63.06,1.26.14,1.89.24.59.14,1.16.29,1.74.47.55.21,1.09.43,1.62.67.54.28,1.07.59,1.59.91.48.34.94.69,1.39,1.06.46.42.9.86,1.32,1.31.23.28.46.56.68.84.09.12.18.24.26.36.33.5.64,1.01.92,1.54.27.57.52,1.14.75,1.72.18.55.34,1.11.48,1.67.12.64.21,1.28.28,1.92.03.62.03,1.23.02,1.84-.05.62-.13,1.24-.23,1.85Z"/>
    <path class="cls-3" d="M129.53,692.57c2.01.5,4.09.75,6.17.75,3.12,0,6.25-.57,9.13-1.76,5.46-2.25,10.14-6.25,12.88-11.53,2.51-4.84,3.51-10.41,2.56-15.81-.78-4.47-2.73-8.63-5.6-12.04-.15-.21-.31-.42-.49-.61-2.16-2.38-4.87-4.48-7.82-5.8-2.98-1.34-6.23-2.33-9.53-2.39-3.48-.07-6.99.33-10.24,1.66-3.11,1.28-5.92,3.01-8.35,5.34-2.04,1.95-3.83,4.34-5.03,6.9-.7,1.5-1.31,3.02-1.73,4.63-.34,1.32-.56,2.62-.73,3.96-.78,5.93,1.13,12.22,4.56,17.04,3.39,4.77,8.54,8.27,14.22,9.68ZM123.14,666.39c.1-.5.21-.99.33-1.48.18-.55.37-1.09.58-1.63.2-.42.41-.84.63-1.25.31-.49.63-.97.96-1.44.33-.4.68-.79,1.03-1.17.36-.33.72-.66,1.09-.97.48-.36.98-.69,1.48-1.01.45-.24.91-.47,1.38-.69.49-.19.98-.37,1.48-.53.63-.16,1.27-.29,1.91-.4.53-.05,1.07-.08,1.6-.1.54.02,1.08.05,1.63.1.53.09,1.05.19,1.57.31.59.18,1.17.37,1.74.59.45.2.88.42,1.32.65.49.3.97.62,1.44.95.41.34.82.69,1.21,1.05.38.39.74.8,1.09,1.22.3.41.59.83.86,1.26.26.47.51.95.74,1.44.22.54.41,1.09.59,1.65.13.53.24,1.07.34,1.61.07.58.11,1.16.13,1.74-.01.57-.05,1.14-.1,1.71-.09.58-.21,1.15-.35,1.72-.16.51-.33,1-.52,1.5-.23.51-.48,1.01-.75,1.51-.28.44-.57.87-.87,1.3-.35.43-.71.85-1.08,1.25-.37.35-.75.69-1.15,1.02-.42.31-.85.61-1.29.89-.5.28-1.01.54-1.54.79-.51.2-1.02.38-1.55.55-.56.14-1.12.26-1.69.36-.58.06-1.17.1-1.75.12-.6-.02-1.19-.06-1.79-.13-.5-.09-1-.19-1.5-.31-.58-.18-1.14-.37-1.7-.59-.51-.24-1.01-.5-1.5-.77-.35-.23-.7-.46-1.04-.7-.46-.37-.91-.76-1.35-1.16-.41-.44-.8-.88-1.18-1.35-.27-.38-.52-.76-.78-1.15-.3-.55-.58-1.11-.84-1.68-.17-.46-.32-.91-.47-1.37-.14-.6-.27-1.21-.37-1.83-.04-.47-.07-.93-.1-1.4.02-.73.07-1.44.15-2.16Z"/>
    <path class="cls-2" d="M1479.59,737.23c-3.31,3.9-6.49,7.92-9.62,11.97-9.9,12.75-20.57,25.16-31.39,37.53-4.59-15.56-7.06-31.8-13-46.97-3.7-7.45-11.04-29.01-22.14-21.06-5.88,7.07-7.88,16.81-10.73,25.4-3.3,11.54-6.47,23.11-9.26,34.79-6.49-7.96-12.55-16.29-19.43-23.93-4.59-4.51-8.4-10.86-14.83-12.8-5.11-1.24-9.26,3.79-8.24,8.65,3.85,26.69,17.3,50.76,28.58,74.89,2.9,5.68,5.78,13.75,13.18,14.24,11.89.79,23.83-.08,35.74.47,13.46-.21,26.95.26,40.37-.93,7.86-.63,13.78-1.8,15.61-10.51,7.21-21.58,10.73-44.2,15.87-66.33,1.05-7.43,4.72-19.11,1.34-25.94-2.81-4.6-9.3-3.62-12.05.51Z"/>
    <path class="cls-2" d="M1952.54,667.38c-3.62-3.73-9.02-1.36-11.31,2.57-3.11,3.91-6.21,7.84-9.24,11.83-19.93,26.67-35.62,56.21-54.66,83.47-8.2-12.02-15.95-24.33-24.15-36.35-5.14-6.79-10.07-13.93-16.2-19.86-4.26-3.59-10.76-.6-11.19,4.84-4.12,23.49-4.45,47.34-4.06,71.12-15.9-9.65-31.34-20.29-47.86-28.85-5.81-2.59-11.62,3.02-9.42,8.91,2.92,10.08,7.93,19.34,12.72,28.62,4.1,8.16,8.47,16.2,11.61,24.79,2.69,5.97,3.88,15.16,11.41,16.71,24.66.69,49.34,1.83,74.02,1.89,16.29.02,32.56-.92,48.83-1.58,5.33-.86,13.87,1.08,17.3-3.87,2.75-1.18,3.94-4.09,4.15-6.89,1.06-6.89,1.93-13.81,2.86-20.71,3.93-36.73,3.65-73.78,6.34-110.62.28-5.34.59-10.68.74-16.03.1-3.35.66-7.41-1.91-10.01Z"/>
    <path class="cls-3" d="M1303.84,176.5c17.79-.26,35.47-3.15,53.27-3.72.08,12.92.26,25.85.2,38.77-.08,10.52-.35,21.06-.19,31.58.21,3.11-.39,6.44,1.09,9.3,1.58,2.84,5.16,3.99,8.11,2.8,5.8-3,9.07-13.06,12.18-18.71,7.03-14.83,12.84-30.21,18.48-45.6,15.2,7.17,29.82,15.53,45.33,22.06,4.59,2.05,9.24,3.99,13.9,5.88,3.15,1.28,6.69,3.31,10.11,1.94,3-1.19,4.66-4.6,3.89-7.71-2.57-6.86-8.23-12.11-12.32-18.09-3.33-4.46-6.46-9.06-9.61-13.65-5.73-8.37-11.79-16.53-17.38-25-.5-1.07-1.69-2.17-1.53-3.38,2.95-5.58,8.35-9.43,12.55-14.03,2.78-2.79,5.49-5.64,8.14-8.54,6.03-6.58,11.64-13.64,17.4-20.68,2.18-2.49,4.51-5.32,3.68-8.87-1.88-7.35-10.69-5.05-15.78-2.76-7.44,2.91-14.78,6.06-22.31,8.72-11.17,4.28-22.57,7.88-34.1,11.09-11.05-15.49-22.96-30.49-35.08-45.12-2.12-1.69-5.03-1.96-7.4-.63-5.99,3.85-3.14,13.37-3.08,19.36,1.4,12.76,2.17,25.61,4.28,38.29-13.35,6.69-26.31,14.11-39.22,21.61-4.64,2.73-9.26,5.49-13.86,8.29-3.36,2.44-8.3,3.7-9.8,7.93-1.78,5.66,4.04,9.13,9.03,8.85ZM1362.89,141.02c5.82-2.65,8.99-6.12,7.04-12.78-1.81-10.88-2.56-21.9-3.71-32.87,7.19,8.97,14.4,17.94,21.03,27.34,2.02,2.61,3.63,6.26,7.23,6.85,3.28,2.31,7.26.24,10.7-.6,14.38-3.99,28.43-9.01,42.34-14.39-7.87,9.93-18,18.46-26.37,28.24-10.63,12.53,1.81,22.84,8.52,33.49,6.02,8.44,11.75,17.09,17.85,25.47-73.6-32.29-48.27-41.12-77.99,24.66.18-13.05.21-26.09.04-39.14-.05-5.22.05-10.46-.14-15.68.02-4.06-.89-9.02-5.04-10.8-2.63-1.18-5.63-.3-8.4-.31-10.89.55-21.77,1.34-32.62,2.37,13-7.6,26.09-15.06,39.53-21.86Z"/>
    <path class="cls-3" d="M1904.09,137.79c3.19,1.34,6.69,2.08,10.18,2.08,1.64,0,3.27-.16,4.87-.51,5.57-1.2,10.64-4.03,14.38-8.37,2.9-3.37,5.03-7.58,5.79-11.98.66-3.77.54-7.58-.41-11.3-.15-.57-.32-1.14-.51-1.7-.04-.13-.08-.26-.13-.38-.09-.25-.19-.49-.29-.73-.39-.98-.84-1.93-1.33-2.87h0c-.05-.1-.1-.19-.16-.29l-.21-.39s0,0,0,0h0s0,0,0-.01c-.04-.07-.08-.13-.12-.2-.02-.03-.04-.06-.06-.1-.79-1.33-1.7-2.59-2.75-3.73-2.81-3.04-6.08-5.37-9.93-6.92-4.11-1.65-8.91-2.18-13.27-1.41-2.14.38-4.16.98-6.17,1.81-1.98.82-3.76,2-5.49,3.26-2.86,2.1-5.04,5-6.8,8.02-1.53,2.63-2.47,5.76-2.86,8.76-.73,5.63.32,11.58,3.33,16.46,2.84,4.61,6.93,8.38,11.96,10.49ZM1901.08,112.23c.11-.56.24-1.11.37-1.66.2-.57.4-1.14.63-1.7.3-.59.62-1.17.95-1.75.27-.4.55-.8.85-1.18.47-.54.96-1.05,1.48-1.55.41-.34.82-.67,1.25-.99.39-.25.78-.5,1.18-.73.53-.27,1.07-.51,1.61-.75.54-.19,1.09-.36,1.64-.51.55-.11,1.1-.21,1.66-.29.6-.05,1.2-.07,1.81-.08.62.04,1.23.1,1.84.18.61.13,1.22.27,1.82.44.56.2,1.11.42,1.66.65.51.26,1.01.54,1.49.83.43.3.85.61,1.27.93.41.36.81.73,1.2,1.12.41.47.81.95,1.19,1.44.29.44.57.88.84,1.33.26.51.5,1.03.73,1.56.18.52.35,1.05.49,1.58.13.59.23,1.19.31,1.8.05.62.07,1.23.07,1.85-.03.55-.08,1.1-.15,1.65-.11.58-.25,1.15-.41,1.71-.2.58-.42,1.15-.66,1.71-.27.54-.56,1.07-.87,1.59-.31.46-.64.91-.98,1.35-.36.4-.73.8-1.11,1.18-.43.37-.86.73-1.31,1.07-.47.32-.94.62-1.43.9-.51.26-1.03.5-1.56.72-.54.19-1.08.36-1.63.51-.55.11-1.1.21-1.65.29-.66.05-1.32.07-1.98.07-.57-.04-1.14-.1-1.7-.18-.57-.12-1.14-.25-1.7-.4-.51-.18-1.02-.37-1.52-.58-.57-.28-1.12-.58-1.67-.9-.44-.3-.88-.62-1.3-.95-.43-.38-.84-.76-1.24-1.16-.38-.44-.74-.88-1.1-1.34-.33-.5-.65-1-.95-1.52-.24-.5-.47-1.01-.69-1.52-.19-.55-.36-1.11-.51-1.67-.1-.49-.18-.99-.26-1.49-.05-.68-.08-1.35-.07-2.03.04-.51.1-1.02.16-1.53Z"/>
    <g>
      <path class="cls-1" d="M1743.21,785.18c-1.4-20.74-2.78-41.5-4.59-62.21-5.67-53.25-8.28-106.7-11.31-160.12,11.67-1.01,31.91-12.24,38.77-16.37,49.89-30.32,78.69-86.04,92.09-141.34,5.83-26.11,5.5-53.01,7.51-79.56,2.92-32.23.99-64.5-3.08-96.54-4.55-31.88-6.54-65.73-22.57-94.36-14.5-27.05-51.65-36.51-67.28-5.28-10.27,18.46-9.72,40.46-12.31,60.91-4.6,42.6-3.71,85.57-8.14,128.15-4.24,28.54-10.13,60.76-34.92,78.82-.37-4.57-.78-9.14-1.28-13.7-3.33-34.24-7.9-68.36-12.4-102.46-5.1-32.78-8.59-65.77-13.09-98.63-4.81-35.11-10.46-71.8-32.13-100.98-17.58-25.06-47.03-26.93-65.68-2.16-11.65,13.78-17.34,31.36-22.55,48.36-8.39,28.88-11.5,58.91-15.03,88.68-4.75,47.61-10.99,95.07-15.61,142.7-5.2,63.61-13.29,126.96-16.44,190.74-.24,2.9-.46,5.79-.67,8.69-4.44.81-9.03,1.22-13.48.28-12.52-2.42-24.25-9.9-29.88-21.6-9.16-21.06-8.14-44.78-9.86-67.27-1.79-23.5-1.57-47.64-1.82-71.34-1.16-32.48,4.06-66.21-6.97-97.51-5.65-12.89-21.53-19.34-34.38-13.25-38.57,14.83-43.69,96.64-49.44,133.02-6.35,53.24-15.45,107.32-5.59,160.72,5.59,32.23,24.18,61.91,50.07,81.78,24.27,17.92,54.23,27.93,83.42,34.52,3.86.73,7.81,1.15,11.75,1.31-.57,13.55-1.23,27.1-2.11,40.64-.9,23.8-2.18,47.61-2.47,71.43-.02,7.24.09,14.49.13,21.73-.45,2.63.54,5.4,2.55,6.93-.49,2.12.01,4.47,1.85,5.97,4.56,3.44,22.73.39,29.63.66,20.94-1.54,41.9-3.07,62.91-3.28,39.86-2.48,79.98.16,119.61-5.65,4.51-.65,11.08-.07,12.03-5.68,7.2-1.07,5.24-9.33,5.18-14.76-.36-10.68-1.63-21.3-2.38-31.95ZM1806.64,260.89c-.02-21.99-.7-43.98-2.85-65.88-1.83-21.01-4.5-41.98-5.35-63.06.44.48.88.96,1.29,1.46,9.76,13.95,13.46,31.21,15.91,47.8,3.39,34.13.7,68.56.86,102.81-.03,37.56-2.19,75.27-13.05,111.45-8.58,30.91-21.12,61.39-43.49,84.96-7.39,7.76-14.62,16.09-23.78,21.8-3.85,2.28-8.05,3.95-12.31,5.31-.6-8.61-1.24-17.21-1.94-25.81-.76-9.56-1.27-19.13-1.7-28.7,4.5,1.32,11.2-2.1,15.47-3.4,11.27-4.53,21.4-11.76,29.96-20.33,40.87-45.37,42.12-110.59,40.98-168.41ZM1834.26,150.65c9.55,23.97,12.06,49.95,15.56,75.32,3.97,31.71,6.59,63.63,3.74,95.56-2.07,25.95-1.69,51.82-6.72,77.5-7.66,35.19-22.45,68.97-44.04,97.87-16.28,21.1-37.72,38.52-62.47,49.08-4.44,1.86-9.05,3.33-13.75,4.41-.6-10.23-1.22-20.45-1.89-30.68,2.42.16,4.86-1.1,7.15-1.89,17.21-5.84,29.19-20.4,41.08-33.41,14.47-16.45,25.28-35.78,32.84-56.29,11.4-30.72,19.21-63,21.59-95.72,1.25-22.13,1.4-44.31,1.79-66.47-.51-33.09,3.1-66.58-3.41-99.28-3.37-14.19-8.06-32.98-19.07-44.07,13.1,2.53,22.77,15.89,27.6,28.06ZM1724.93,407.01c8.29-6.39,15.76-14.01,20.92-23.17,15.85-28.26,19.29-61.69,21.21-93.52,1.49-42.61,3.48-85.29,8.76-127.63,1.43-10.24,3.65-22.91,10.21-31.58.06,6.81.73,13.61,1.29,20.39,5.81,53.08,8.74,106.46,6.55,159.86-1.03,26.28-5.66,52.43-16.44,76.54-6.56,15.22-15.4,30.03-28.89,40.08-7.16,5.52-15.14,10.02-23.92,12.35-1.63.24-3.37.68-4.86,1.42-.42-10.27-.83-20.55-1.43-30.81,2.43-.73,4.84-2.38,6.61-3.93ZM1425.06,326.16c1.32-6.36,2.73-12.7,4.29-19.01.54-2.41,1.68-5.45,2.17-8.29.49-.17.99-.32,1.49-.44-.92,4.53-.6,10.1-1.44,13.66-3.31,28.19-8.12,56.19-10.1,84.53-1.96,20.06-4.04,40.17-3.25,60.36,1.04,19.72,3.53,39.33,7.11,58.74,4.21,19.98,7.97,40.73,19.34,58.11,14.9,23.02,39,41.35,66.35,46.01,2.14.15,5.12.79,8.08,1.14-.35,9-.66,18.01-.96,27.01-1.85-.32-3.7-.65-5.55-1.02-39.55-6.72-69.36-31.51-86.95-67.1-26.99-53.15-13.69-132.15-8.85-190.21,1.81-21.28,3.85-42.58,8.27-63.51ZM1447.43,303.23c2.38,2.94,3.18,6.75,3.99,10.37,1.68,8.27,2.94,16.6,3.54,25.02,1.04,42.83-1.28,88.54,2,132.07,1.74,23.59.93,48.87,10.63,71,10.63,24.11,38.09,31.58,53.99,29.66-.8,12.4-1.44,24.81-1.98,37.22-13.33-1.29-26.52-5.97-37.5-13.73-21.34-14.3-35.57-36.75-40.34-61.9-6.87-29.26-11.56-59.33-11.25-89.45.78-27.99,4.05-55.91,7.2-83.72,2.27-15.31,4.19-30.66,6.09-46.01.55-4.26.8-8.56,1.45-12.8.78.65,1.51,1.4,2.16,2.28ZM1514.75,686.68c-13.44-1.2-26.42-5.55-39.22-9.64-23.98-8.47-47.68-20.22-64.52-39.89-20.66-24.53-28.98-50.65-30.94-82.27-2.52-31.6-.02-63.18,4.3-94.51,5.53-42.92,8.48-86.72,21.93-128.09,2.45-6.4,5.14-13.31,8.95-19.31-5.42,23.61-8.54,47.65-10.4,71.8-5.19,58.22-14.64,118.28-.27,175.88,10.96,35.34,34.25,68.22,67.39,85.72,14.22,7.54,30,11.25,45.75,14.12-.29,8.77-.6,17.54-.93,26.31-.68-.03-1.37-.06-2.05-.1ZM1545.73,834.12c-7.17.48-14.38.74-21.57.86,0-.06,0-.11,0-.17.02-7.43-.1-14.86-.12-22.28.04-9.94.4-19.86.83-29.79,2.03-42.16,3.54-84.35,5.26-126.52.1-.57.13-1.15.07-1.72,1.93-47.19,4.15-94.36,7.72-141.47,7.55-95.22,18.07-190.18,28.43-285.13,4.83-41.09,8.23-83.21,24.52-121.71,5.63-12.7,12.19-21.63,19.14-26.8-7.68,20.98-8.02,44.01-10.22,66.06-2.99,40.73-5.78,81.46-9.98,122.09-9.96,128.93-8.53,258.42-9.98,387.64.03,57.9-3.62,115.77-2.1,173.67.04,1.24.33,2.28.79,3.12-10.94.53-21.87,1.18-32.79,2.14ZM1642.47,829.49c-17.66.81-35.32,1.28-52.98,2,.37-.76.59-1.64.59-2.64-.62-16.94-.31-33.9-.16-50.83.47-47.79,2.67-95.53,2.41-143.33,1.55-136.24-.23-272.91,13.79-408.6,2.64-30.05,4.07-59.27,6.77-89.58,1.99-18.34,2.57-37.51,9.5-54.79,34.59,26.82,30.17,182.49,35.35,227.97,8.4,113.59,7.49,227.68,13.35,341.42,2.67,59.38-2.95,118.8-.61,178.16-9.33.22-18.67.28-28.02.23ZM1682.69,828.88c-.01-.17-.03-.35-.04-.52-.38-5.79-.42-11.59-.42-17.39-.22-53.85,3.36-107.67,1.16-161.52-3.98-82.81-5.41-165.69-8.14-248.54-1.39-47.26-6.03-94.33-7.98-141.6-2.98-48.6-2.93-141.68-29.97-180.67-.23-.34-.49-.69-.76-1.04,7.7,4.52,15.14,13.47,21.66,26.9,12.45,24.56,16.26,52.29,20.13,79.25,3.82,27.07,6.61,54.38,10.55,81.45,5.48,36.9,10.06,73.97,14.08,111.06,5.05,48.93,5.01,98.17,9.86,147.13,3.21,78.88,9.58,157.47,16.24,236.12,1.16,19.21,3.03,38.37,4.17,57.58.15,2.27-.02,5.1.24,7.69-16.88,2.16-33.81,3.43-50.77,4.11Z"/>
      <path class="cls-1" d="M1611.57,744.11c-7.88.29-6.04,9.37-6.03,14.79.05,4.28.15,8.56.33,12.83.33,8.17.91,16.34,1.28,24.51.07,1.66.62,3.18,1.81,4.37,3.59,3.88,10.8.96,10.55-4.37-.62-12.59-1.54-25.16-1.61-37.77-.22-5.33,1.32-14.12-6.32-14.36Z"/>
      <path class="cls-1" d="M1710.02,590.81c-.07-8.07-12.25-8.06-12.36,0,.02,6.64,1.4,13.18,1.7,19.8,1,5.46-.77,14.16,2.64,18.43,3.57,3.88,10.82.96,10.55-4.37-.45-7.89-.79-15.79-1.63-23.65-.38-3.4-1-6.78-.9-10.21Z"/>
      <path class="cls-1" d="M1793.05,468.14c-4.67,8.68-9.89,17.14-16.25,24.7-4.47,4.98-9.21,9.73-13.93,14.47-2.38,2.39-2.38,6.36,0,8.74,7.33,6.15,13.02-5.49,18.07-9.53,9.35-9.34,16.54-20.56,22.77-32.14,4.02-7-6.51-13.13-10.67-6.23Z"/>
      <path class="cls-1" d="M1436.71,424.09c.59,10.9,1.69,21.79,2.57,32.67.47,5.3,7.97,7.21,11.01,2.94,1.04-1.35,1.38-2.94,1.23-4.61-.86-10.33-1.9-20.65-2.46-30.99-.09-8.07-12.27-8.05-12.36,0Z"/>
      <path class="cls-1" d="M1408.61,595.37c-1.64-3.98-3.09-8.02-4.52-12.08-.74-3.93-2.95-8.14-7.63-7.47-7.41,1.34-5.33,9.28-3.07,14.21,2.72,7.97,6.1,15.7,9.99,23.17,2.42,4.71,10.11,3.62,11.29-1.48.59-2.01-.11-3.92-1.08-5.67-1.6-3.19-3.42-6.89-4.98-10.69Z"/>
      <path class="cls-1" d="M1558.24,328.87c.07,12.49.3,24.98.28,37.46.09,8.07,12.27,8.05,12.36,0,.03-12.49-.21-24.98-.28-37.46-.13-8.07-12.3-8.05-12.36,0Z"/>
      <path class="cls-1" d="M1688.3,294.35c-.09-8.07-12.27-8.05-12.36,0,.98,10.76,2.62,21.48,3.43,32.28.48,5.29,7.96,7.21,11.01,2.94,1.04-1.34,1.39-2.95,1.23-4.61-.84-10.23-2.21-20.41-3.32-30.6Z"/>
      <path class="cls-1" d="M1621.73,165.06c0,10.54-.23,21.08-.4,31.62-.06,3.37,2.86,6.18,6.18,6.18s6.12-2.82,6.18-6.18c.18-10.54.4-21.07.4-31.62-.09-8.07-12.27-8.05-12.36,0Z"/>
      <path class="cls-1" d="M1788.51,252.07c.17-7.72.04-15.46.3-23.17,2.47-7.34-8.5-11.57-11.56-4.39-1.98,8.91-.48,18.45-1.09,27.56.08,8.07,12.26,8.05,12.36,0Z"/>
      <path class="cls-1" d="M1833.11,271.58c1.15,7.99,13.2,6.33,12.24-1.68-.89-7.17-.76-14.48-2.16-21.57-2.18-7.85-14.16-4.42-11.88,3.43.99,6.55,1.01,13.24,1.8,19.82Z"/>
      <path class="cls-1" d="M1779.46,429.51c6.71,3.58,9.57-4.18,11.96-8.94,2.18-3.87,5.15-9.24.7-12.73-4.48-3.12-8.93-.26-10.42,4.63-2.16,5.2-9.14,12.63-2.23,17.04Z"/>
      <path class="cls-1" d="M1616.62,561.33c.15-14.27.11-28.54.4-42.8.17-8-12.47-8-12.36,0-.29,14.26-.25,28.53-.4,42.8.08,8.08,12.26,8.05,12.36,0Z"/>
    </g>
    <g>
      <path class="cls-1" d="M468.84,631.09c-3.41-36.87-4.57-73.89-7.09-110.81,2.95-.17,6.01-.89,8.82-.9,14.47-1.62,28.67-5.3,42.35-10.23,38.88-13.07,75.57-34.16,102.7-65.35,27.43-30.59,43.34-69.85,54.07-109.07,4.97-20.57,7.97-41.55,11.43-62.41,3.34-21.21,7.91-42.61,5.67-64.18-2.97-25.18-12.86-58.14-41.45-63.3-4.92-.33-13.59-2.15-16.27,2.67-8.51,2.87-15.73,9.25-21.77,15.76-14.26,16.05-18.07,38.16-22.21,58.55-8.91,44.58-10.33,95.08-40.96,131.33-18.74,19.2-45.13,29.43-71.15,34.08-7.84,1.41-15.74,2.57-23.69,3.05-1.03-11.99-1.95-23.98-2.69-35.99-1.54-43.03-1.8-86.16-5.74-129.06-4.47-28.16-11.74-132.2-36.03-143.01-8.18-4.93-18.91.05-26.59,4.21-48.63,27.52-45.61,106.41-54.98,155.97-3.99,31.23-8.24,62.43-13.74,93.44-4.97,31.5-7.97,63.28-13.8,94.65-5.92,36.32-11.89,72.64-16.9,109.09-1.56.17-3.12.41-4.63.41-17.04.76-34.5-5.68-45.37-19.13-40.18-49.07-32.95-85.93-32.53-144.72.7-24.19,1.67-48.51-3.61-72.32-1.42-10.29-5.54-20.77-13.87-27.39-22.85-16.76-54.58-1.39-69.91,18.78-19.01,25.81-19.56,59.37-22.7,90.05-2.93,31.13-3.94,62.49-1.78,93.7,4.5,120.54,72.37,156.76,183.39,158.39-3.3,29.55-7.29,59.03-9.73,88.68-1.73,22.04-3.7,44.07-5.66,66.11-.85,9.38-1.73,18.9-2.44,28.45-2.66,13.83,14.01,16.63,24.31,16.76,43.67-.24,87.35,1.36,131.03.36,19.48-.32,38.96-.06,58.42-.82,15.76,1.82,14.95-15.74,14.68-26.74-.8-59.82-6.29-119.36-9.58-179.05ZM636.02,236.4c.18-10.75,0-21.51-.2-32.26.05-9.19-.51-18.66.06-27.96.85,3,1.65,6.02,2.43,9.04,4.73,16.47,6.59,33.54,7.27,50.61,2.06,31.28-2.96,62.48-14.68,91.55-17.17,47.58-44.64,93.65-88.85,120.43-19.41,11.67-40.57,21.41-62.89,25.75-6.56,1.16-13.23,1.76-19.88,2.07-.48-.04-.97-.05-1.46-.04-1.06-10.24-2.14-20.48-3.21-30.73,1.4-.01,2.78-.08,4.02-.11,7.97-.11,15.95-.42,23.88-1.32,29.97-3.56,58.49-16.1,80.23-37.2,24.32-21.17,42.94-47.96,55.42-77.63,12.74-28.93,17.18-60.8,17.88-92.21ZM647.86,158.22c24.16,10.79,28.71,50.53,26.65,74.03-15.79,125.39-37.75,224.49-171.85,267.35-8.2,2.68-16.56,4.82-25.06,6.32-5.53.98-11.15,1.55-16.77,1.89-.41-5.28-.86-10.56-1.35-15.83-.13-1.33-.27-2.67-.4-4,5.55-.21,11.13-.62,16.62-1.38,13.47-1.79,26.53-5.82,39-11.16,48.54-18.79,87.93-57.02,110.46-103.72,25.32-50.9,38.21-96.28,31.6-153.55-1.06-16.07-5.12-31.7-9.48-47.14-1.33-4.76-2.96-9.43-4.61-14.09,1.93.12,3.74.43,5.2,1.28ZM470.15,400.24c20.44-3,40.33-9.35,58.29-19.64,60.3-33.14,57.99-111.13,71.6-170.16,3.7-17.55,9.92-35.91,24.86-46.81-4,31.15.84,62.7-2.35,93.95-1.18,11.34-2.68,22.66-5.08,33.81-10.34,42.88-34.2,82.34-68.43,110.37-11.8,10.24-25.16,18.58-40.24,23.02-12.81,4.12-26.08,6.94-39.57,7.33-4.83.21-10.34.25-15.93.32-1.02-9.94-2-19.87-2.92-29.82,6.28.19,15.01-1.99,19.76-2.37ZM386.83,102.28c19.69-16.59,12.54,99.65,14.62,110.07,1.38,45.91,2.77,91.87.49,137.77-6.02,77.44-4.04,155.09-3.54,232.67-.58,60.29.06,120.61-2.89,180.84-.75,20.13-2.14,40.34-.68,60.47.04.49.16.96.32,1.41-25.88.06-51.77-.15-77.65-.31.16-1.18.19-2.41.32-3.58.88-9.69,1.79-19.49,2.72-29.29,9.41-79.98,18.9-159.89,24.75-240.26,7.97-94.14,9.91-188.62,15.2-282.91,3.83-48.68-2.87-126.31,26.33-166.88ZM139.53,392.45c1.95-36.55,1.74-74.54,10.56-110.13,2.4-.47,4.83-.71,7.26-.64-.86,4.72-1.02,10.34-1.66,13.61-2.98,37.48-1.94,75.15-2.43,112.72-1.17,48.26,10.44,99.22,43.76,135.63,19.78,21.02,49.02,29.96,77.16,32.35-.62,5.28-1.21,10.57-1.77,15.86-22.85-3.37-46.06-6.68-66.5-18.17-40.59-20.54-57.01-67.28-62.1-109.86-3.15-23.66-5.76-47.46-4.26-71.36ZM180.27,304.49c3.13,15.8,4.9,31.83,4.13,47.95-.35,16.08-.68,32.17-.83,48.25-.29,19.92-1.29,40.02,2.51,59.7,4.63,27.44,19.12,52.67,37.67,73.11,13.32,13.75,33.16,19.79,52,18.76.45-.08.91-.13,1.38-.17-.5,3.83-.99,7.67-1.47,11.51-.42-.01-.86,0-1.31.04-16.7-1.44-33.31-5.55-48.25-13.26-19.72-10.1-32.66-29.08-42.32-48.42-16.77-34.43-19-69.02-18.13-106.62.83-36.73-1.29-73.86,3.92-110.32,6.49,4.2,9.53,12.08,10.7,19.48ZM237.69,623.6c-38.97-4.3-82.27-12.55-108.47-44.4-32.98-38.71-33.28-92.58-33.53-140.85.16-20.65,1.69-41.25,3.62-61.81,1.95-18.49,3.32-37.37,9.5-55.03,3.87-10.44,9.55-20.42,18.26-27.55,2.71-2.23,5.71-4.34,8.89-6.17-4.14,18.12-4.67,37.08-6.46,55.52-1.51,32.67-4.75,65.57-.81,98.17,4.21,42.28,11.45,87.45,41.31,119.86,13.88,15.99,33.12,26.18,52.88,33.1,15.61,5.31,32.08,6.97,48.27,9.63-.33,3.44-.66,6.88-.96,10.33-.33,3.52-.69,7.04-1.06,10.55-10.49-.37-20.99-.46-31.46-1.36ZM262.19,822.86c8.01-99.13,18.16-198.12,30.83-296.76,9.62-61.94,20.34-123.69,28.29-185.86,8.28-46.22,13.42-92.92,20.18-139.37,5.27-29.17,6.57-63.19,24.83-87.46-14.13,32.24-14.17,69.9-16.32,104.58-2,62.77-5.98,125.46-8.15,188.23-3.55,89.5-11.43,178.74-19.79,267.9-5.23,50.21-13.28,100.1-16.86,150.5-.01.17,0,.33,0,.5-4.25-.02-8.49-.04-12.74-.06-10.05-.13-20.62,1.09-30.28-2.19ZM406.76,825.46c.31-.86.45-1.8.36-2.76-.87-9.37-.59-18.82-.39-28.21,2.51-56.19,3.88-112.39,3.71-168.64,1.48-77.14-2.7-154.35,1.28-231.44,1.97-31.19,3.87-62.39,3.76-93.65.27-45.85-2.32-91.65-2.24-137.5-.8-9.74.16-29.61-2.32-46.55.86,3.07,1.63,6.15,2.36,9.2,3.6,16.89,6.48,33.79,8.88,50.96,9.72,58.72,10.32,118.26,12.11,177.6,3.05,53.78,10.46,107.2,14.77,160.87,2.71,38.83,3.92,77.75,7.48,116.52,2.91,64.16,10.9,128.34,8.92,192.6-19.55.6-39.12.89-58.68,1Z"/>
      <path class="cls-1" d="M315.59,652.77c1.51-1.39,1.89-3.32,1.99-5.28.83-9.48,2.09-18.93,3.52-28.34,2.04-8.88-11.64-10.78-12.21-1.72-1.56,10.2-2.91,20.45-3.74,30.74-.42,5.32,6.81,8.39,10.45,4.6Z"/>
      <path class="cls-1" d="M430.45,511.88c.09-8.07-12.08-8.33-12.35-.28.17,7.95.58,15.89.95,23.84.8,4.96-1.05,11.01,2.14,15.23,3.49,3.96,10.8,1.2,10.64-4.13-.27-8.32-.72-16.62-1.05-24.93-.09-3.24-.29-6.48-.32-9.73Z"/>
      <path class="cls-1" d="M372.86,342.54c-.09,8.07,12.09,8.32,12.35.28.19-8.07.53-16.14.66-24.21-.19-5.1,2.09-12.61-4.92-13.89-6.93-.95-7.86,6.88-7.42,12-.09,8.61-.48,17.22-.67,25.83Z"/>
      <path class="cls-1" d="M335.44,350.98c3.71-4.11,2.12-18.21,3.61-24.34,1.5-7.37-9.77-10.36-11.99-2.9-1.33,7.44-1.17,15.12-2.07,22.63-.42,5.32,6.81,8.39,10.45,4.6Z"/>
      <path class="cls-1" d="M606.04,224.93c-.37,5.33,6.77,8.4,10.45,4.6,3.46-3.94,1.84-12.04,2.46-17.15-.3-5.01,1.19-12.28-4.23-14.97-2.32-1.06-4.94-.48-6.8,1.18-2.76,2.28-1.61,5.71-1.38,8.71.18,5.88-.1,11.77-.5,17.64Z"/>
      <path class="cls-1" d="M622.31,398.03c-7.08-5.03-10.96,4.19-13.39,9.45-2.28,4.2-4.84,8.23-7.58,12.14-2.88,3.11-4.93,8.1-.92,11.24,8,5.51,12.2-6.83,16.1-11.79,2.19-3.54,4.02-7.26,5.9-10.97,2.34-3.03,3.28-7.36-.11-10.06Z"/>
      <path class="cls-1" d="M521.49,408.67c4.34-1.97,8.72-3.86,12.95-6.06,4.03-2.11,7.75-4.72,11.43-7.38,2.54-1.18,4.2-4.06,3.44-7.13-.8-3.19-4.26-5.41-7.5-4.48-3.24,1.07-5.68,3.65-8.56,5.39-5.14,3.27-10.76,5.68-16.3,8.18-3.08,1.36-4.75,4.8-3.47,8.03,1.2,3.05,4.98,4.83,8.02,3.47Z"/>
      <path class="cls-1" d="M479.52,454.69c-3.88.66-6.63,4.85-5.09,8.62,1.35,3.57,6.08,5.03,9.26,3.05,5.39-1.29,13.45-1.03,12.02-8.96-2.1-7.41-10.89-3.75-16.19-2.71Z"/>
      <path class="cls-1" d="M168.61,339.47c-.11,8.07,12.07,8.33,12.35.28.13-4.4.34-8.83.06-13.23-.85-7.47-12.12-7.01-12.32.56.19,4.13.02,8.27-.1,12.4Z"/>
      <path class="cls-1" d="M114.67,442.8c-.41-9.69-.26-19.41-.81-29.1-.3-3.61.3-8.14-3.29-10.31-2.8-1.79-6.81-.83-8.5,2.03-1.93,3.52-.16,7.8-.38,11.63.46,14.53.28,29.1,2,43.57,1.01,8.03,13.1,6.59,12.28-1.4-.58-5.46-1-10.94-1.29-16.42Z"/>
      <path class="cls-1" d="M190.03,541.04c-2.79-3.08-4.82-6.68-7-10.19-.66-2.79-2.97-5.07-6-5.13-3.37-.08-6.24,2.67-6.32,6.04.75,6.4,6.49,12.81,10.38,17.82,5.53,5.83,14.48-2.67,8.93-8.54Z"/>
      <path class="cls-1" d="M374.61,780.87c-.36,9.29-.91,18.61-1.4,27.91-.02,8.1,11.94,8.38,12.35.28.43-9.02,1.08-18.04,1.32-27.07-.03.28-.05.56-.08.84h0s-.03,0-.04,0c1.2-8.01-10.69-9.95-12.16-1.95Z"/>
      <path class="cls-1" d="M443.11,683.45c-.92,2.1-.46,4.46-.54,6.68.32,3.52-.77,7.72,1.86,10.56,3.48,3.95,10.81,1.2,10.64-4.13-.09-3.22-.2-6.44-.18-9.67.99-6.96-8.82-9.85-11.77-3.44Z"/>
      <path class="cls-1" d="M395.13,160.05c.09-3.87.17-7.75.26-11.62-.01-8.11-11.98-8.37-12.35-.28-.09,3.87-.17,7.75-.26,11.62.01,8.11,11.98,8.37,12.35.28Z"/>
      <path class="cls-1" d="M318.4,494.63c.19-4.43,3.1-10.27-1.79-13.18-7.7-3.75-10.2,4.38-10.31,10.53-.56,5.55-4.34,13.76,3.67,15.49,7.31,1.02,7.65-7.69,8.44-12.83Z"/>
    </g>
    <path class="cls-2" d="M1343,511.51c-.82-7.95-2.52-15.89-5.85-23.2-9.56-22.05-31.75-27.6-50.29-12.09-3.72-16.29-11.28-33.95-27.33-41.32-25.19-11.81-53.83,6.87-57.03,33.67-20.42-13.98-42.16.04-51.25,20.07-2.73,5.98-12.2,26.86-8.25,31.99,3.48,5.6,10.72,2.76,16.08,2.63,10.47-1.03,21-1.64,31.51-2.12,38.04-.75,76.11-.58,114.16-1.04,5.35-.06,10.7-.19,16.04-.25,5.21-.32,10.83.68,15.74-1.35,3.83.28,6.95-3.25,6.46-7Z"/>
    <path class="cls-3" d="M116.39,155.82c12.51,3.87,24.86,8.43,37.68,11.19-6.78,17.28-13.47,34.6-19.28,52.23-1.14,5.22-5.28,11.32-3.27,16.59,5.05,8.98,14.67.19,19.6-4.38,14.88-12.89,28.49-27.09,42.06-41.33,21.22,7.78,42.03,16.79,63.74,23.21,5.12,1.97,12.13,3.36,14.16-3.39,1.27-4.97-1.89-9.61-4.13-13.81-8.7-14.32-19.88-26.98-28.52-41.37,15.29-13.63,31.56-26.46,44.87-42.12,2.36-3.67.19-9.02-4.06-10.03-2.48-.57-5.01-.27-7.5.13-21.58,4.38-42.7,10.93-64.64,13.42-2.5-9.53-6.01-18.74-9.82-27.81-1.92-4.61-3.78-9.25-5.79-13.82-2.72-5.49-4.74-11.78-9-16.28-6.81-4.62-12.04,2.39-13.2,8.71-4.82,18.36-7.14,37.3-9.32,56.13-16.4,6.68-34.23,9.29-50.37,16.73-4.84,1.81-6.52,7.92-2.66,11.58,2.55,2.48,6.21,3.28,9.48,4.43Z"/>
    <path class="cls-3" d="M1907.53,570.19c-2.19-.72-4.54-1.04-6.83-1.32-13.25-1.43-26.6-1.99-39.91-2.61,1.91-11.77,1.99-23.74,3.4-35.58,1.24-5.88-2.63-11.17-8.87-8.88-5.76,3.31-9.98,8.77-14.58,13.46-6.68,7.18-12.88,14.78-19.52,21.99-16.79-.3-33.93-1.55-50.55,1.04-2.65.99-4.34,3.87-4.01,6.66.44,3.76,4.02,5.93,6.9,7.83,9.39,5.53,19.47,9.96,29.42,14.4-10.42,16.79-18.11,35.09-28.11,52.13-2.87,6.88,4.67,11.77,10.61,8.34,14.36-6.85,27.72-15.8,39.9-26.02,7.45,12.31,15.22,24.43,24.06,35.8,1.52,2,3.06,4,4.58,6,1.86,2.43,3.75,5.76,7.09,6.17,9.46.82,8.22-10.92,7.82-17.27-.26-5.06-.82-10.11-1.11-15.18-.22-10.81-1.67-21.54-2.28-32.32,13.99-8.78,30.06-13.8,44.24-22.24,5.22-3.31,3.52-10.9-2.26-12.39Z"/>
  </g>
  <path class="cls-1" d="M924.93,862.59c-4.11-6.76-8.5-13.36-12.95-19.91-11.73-15.01-29.65-49.19-47.02-54.59-5.89-1.79-13.19,1.86-13.97,8.25-.63,9.43,7.36,16.45,12.85,23.19,6.61,7.39,13.3,14.71,20.02,22,6.82,7.32,13.73,14.58,20.61,21.85,3.07,3.16,6.07,6.5,9.27,9.56,1.09,1.3,2.18,2.6,3.28,3.9,1.31,1.59,2.89,2.28,4.44,2.32,4.01,2.1,9.61-1.5,8.89-6.25-.9-3.82-3.52-6.95-5.42-10.32Z"/>
  <path class="cls-1" d="M953.61,825.86c-9.72-22.58-20.08-44.88-30.18-67.3-4.77-8.7-10.08-22-19.63-26.03-6.93-2.86-13.93,3.15-14.23,10.16-.32,5.11,1.7,9.94,3.46,14.63,3.96,10.54,10.24,19.99,15.21,30.06,7.35,14.68,15.31,29.03,23.5,43.26,8.34,14.39,16.01,31.2,25.22,45.47,2.55,3.11,7.77,2.35,11.02.85,5.93-4.05.67-10.5-1.1-15.47-4.77-11.75-8.52-23.88-13.27-35.62Z"/>
  <path class="cls-1" d="M1001.06,857.7c.05-20.77-.68-41.54-.99-62.3-.8-19.91-.35-39.87-1.45-59.75-1.19-9.74-1.41-19.99-5.68-28.99-2.86-7.41-12.04-9.49-17.74-3.94-8.3,9.03-5.18,22.72-4.4,33.84,1.06,9.77,2.26,19.53,2.78,29.35.7,18.12,3.81,36,5.37,54.05,1.19,9.7,2.83,19.33,4.34,28.98.23,1.39.45,2.79.66,4.2.75,7.59,1.63,15.16,2.74,22.71.17.85.45,1.57.83,2.2.51,1.88,1.85,3.52,3.86,4.22,12.71,3.22,8.98-17.11,9.68-24.56Z"/>
  <path class="cls-1" d="M880.23,887.49c-3.69-3.76-7.27-7.62-10.87-11.46-7.44-7.76-15.1-15.44-23.89-21.78-5.58-4.25-13.68-10.9-20.42-5.16-8.25,8.4,1.1,19.71,8.66,24.79,11.36,8.73,24.11,15.47,36.53,22.52,1.03.85,2.07,1.7,3.1,2.56,2.32,1.78,4.78,1.7,6.68.62,2.92-1.15,5.04-4.38,3.69-7.94-.52-1.89-2.3-2.75-3.47-4.14Z"/>
  <path class="cls-1" d="M1077.99,718.59c-4.74-1.37-8.47-.83-11.42,1-1.97.55-3.69,1.99-4.27,4.17-6.65,9.45-7.27,27.79-8.91,37.08-.09,1.06.04,2,.34,2.81-.57.68-.98,1.52-1.16,2.49-2.84,18.41-6.67,36.42-10.69,55.29-2.12,9.67-3.92,19.42-5.76,29.14-1.13,5.4-2.06,10.84-3.25,16.22-.3,1.36-.12,2.74.42,3.94-.35,1.74-.19,3.47,1.16,5.12,2.2,2.7,6.01,2.9,8.69.89,2.08-1.77,2.67-4.62,3.74-7.03,4.15-10.63,8.27-21.29,11.89-32.12,5.21-14.77,9.52-29.83,13.79-44.89,4.13-14.03,8.15-28.11,10.21-42.61,1.24-9.4,5-25.67-4.77-31.5ZM1070.33,750.51c-.77,4.64-1.76,9.26-2.87,13.86.98-4.61,1.96-9.23,2.87-13.86Z"/>
  <path class="cls-1" d="M1125.63,758.26c-10.36,3.95-13.63,17.02-17.55,26.36-5.99,17.51-13.37,34.5-19.46,51.98-3.21,8.79-7,17.4-9.29,26.49-.57,2.75-1.98,5.7-1.39,8.51,0,.48.05.95.15,1.41-.1,1.29.18,2.6.86,3.71,2.49,4.21,8.97,3.77,10.94-.69,2.98-5.1,5.54-10.42,8.14-15.72,7.14-14.04,14.32-28.06,20.79-42.43,4.75-11.09,35.44-62.99,6.81-59.61Z"/>
  <path class="cls-1" d="M1150.86,820.16c-8.84,9.11-13.01,21.56-20.03,31.98-3.48,5.67-7.23,11.76-10.49,17.69-2.6,4.54-6.36,10.15-2.61,15.1,5.96,6.44,12.42-2.36,15.81-7.15,2.63-3.69,5.3-7.35,8.06-10.95,5.2-6.81,10.53-13.54,15.76-20.33,4.57-6.76,10.94-13.29,11.98-21.68.35-12.29-11.78-12.08-18.48-4.66Z"/>
</svg>