<?xml version="1.0" encoding="UTF-8"?>
<svg id="Camada_1" data-name="Camada 1" xmlns="http://www.w3.org/2000/svg" viewBox="0 0 2000 2000">
  <defs>
    <style>
      .cls-1 {
        fill: #fff1e6;
      }

      .cls-2 {
        fill: #edae1a;
      }
    </style>
  </defs>
  <g>
    <path class="cls-2" d="M1666.59,137.36c-.69-1.11-18.53-7.06-19.63-11.66-1.21-5.09,7.53-17,4.82-23.06-1.04-2.32-9.38-9.85-12.34-10.27-7.38-1.04-16.56,7.29-23.24,3.15-2.95-1.83-7.98-17.41-10.53-18.89-2.21-1.29-15.38-.95-17.87.56-3.09,1.88-8.35,18.64-11.54,19.39-8.84,2.08-16.14-7.96-26.06-2.23-18.4,10.64-.1,26.07-5.29,34.27-1.52,2.4-18.54,6.33-19.96,13.48-4.33,21.92,17.17,17.22,19.98,26.8,2.59,8.83-6.97,17.24-1.85,26.03,10.03,17.24,28.22-.72,34.36,3.19,1.76,1.12,5.54,18.51,13.41,20.04,3.25.63,12.6.62,15.26-.99,3.97-2.41,6.49-17.5,11.48-19.09,8.55-2.72,17.88,10.05,28.05,1.88,14.59-11.72-1.15-23,1.21-31.18,1.21-4.18,19.3-9.46,20.12-12.9.52-2.17.35-17.38-.36-18.53Z"/>
    <path class="cls-2" d="M749.95,458.99c-3.24-22.78-32.35-4.61-38.26-8.52-6.78-4.49,8.69-28.19-1.17-35.4-19.19-14.05-23.46,18.39-32.56,19.94-9.18,1.57-14.5-34.23-34.02-19.94-9.12,6.68,2.33,26.46.83,36.32-13.52-.98-37.42-12.18-40.26,7.61-1.36,9.48,21.12,16.66,26.06,23.86l-25.45,21.32c.68,26.46,22.39,11.84,39.66,12.13,1.17,13.79-14.62,36.4,7.31,38.51,11.97,1.16,20.03-23.3,24.16-24.33,6.26-1.56,12.95,26.81,27.87,23.91,19.8-3.84,4.13-24.25,5.58-38.1,15.01-.45,38.02,13.27,40.2-9.52.68-7.08-24.5-18.72-26.01-20.94-4.44-6.55,27.58-16.14,26.06-26.84Z"/>
    <path class="cls-2" d="M929.6,136.81c-7.94-.41-13.18-14.65-25.71-11.52-3.86.97-6.81,6.5-11.68,5.65,10.11-22.2-11.03-20.25-17.15-28.47-1.67-2.24-7.01-21.9-6.35-24.3,1.02-3.68,7.11-7.84,6.23-12.13-6.3,2.78-22.07,10.85-23.28,17.28-.69,3.65-2.29,22.58-1.97,26.08.85,9.37,14.1,30.32,11.82,38.37-1.54,5.44-28.29,20.76-33.03,27.96-3.44,5.22-19.92,52.05-17.4,54.59h66.93c-1.1-24.21-5.52-44.64,7.15-67.01l1.84-1.37c17.51,5.49,36.62,3.29,53.23-4.26,16.13-7.33,22.89-19.13,19.92-36.86-6.14,10.81-18.15,16.62-30.55,15.98Z"/>
    <path class="cls-2" d="M1403.19,413.96c-6.23-2.13-22.1-1.76-28.83-.62-33.09,5.59-68.1,39.64-63.86,75.04,5.23,43.6,49.2,72.49,91.73,64.37,6.03-1.15,32.76-24.5,36.66-30.27,3.5-5.17,5.03-13.96-2.18-10.34-6.15,3.09-12.9,11.43-18.74,13.74-14.92,5.9-31.77,6.12-45.86-1.73-9.53-5.31-23.96-29.99-23.73-41.32.16-7.77,12.67-31.44,18.31-36.61,11.6-10.64,34.39-10.52,48.4-5.6,6.4,2.25,20.6,14.43,21.96,14.66,2.2.37,6.77-4.21,6.77-4.9.02-3.75-34.66-34.39-40.61-36.42Z"/>
    <path class="cls-1" d="M1330.27,199.9c-19.38,2.43-40.34-4.54-49.05-22.95-7.23-15.28-8.32-43.5,13.62-44.05,5.9-.15,13.07,4.29,15.86,3.73,3.43-.7,13.65-9.71,13.44-14.56-.95-21.83-34.08-39.55-53.73-39.94-18.32-.37-61.77,20.01-75.9,31.73-4.28,3.55-33.01,40.58-35.43,45.69-5.1,10.81-11.89,51.68,3.89,54.6,20.15,3.72,5.87-13.84,5.66-20.91-.09-3.29,3.2-22.54,4.36-25.87.83-2.39,27.86-37.73,30.68-40.31,7.99-7.32,46.46-26.45,57.1-28.07,17.5-2.67,38.07,5.51,47.2,20.79-5.1,3.19-9.12-3.53-14.73-2.68-2.61.39-22.76,9.46-23.97,11.18-.95,1.34-9.67,26.22-9.69,27.99-.13,10.3,10.84,36.04,18.54,43.02,1.14,1.03,25.66,14.02,27.24,14.35,12.61,2.6,29.35,3.55,24.9-13.74Z"/>
    <g>
      <path class="cls-1" d="M261.5,508.17l29.39-28.36c2.18,0,24.31,26.62,29.36,29.42,1.44.8,2.12,1.39,4.06.95,5.51-12.01,18.81-20.24,27.42-30.37,1.79,0,20.95,21.96,25.34,25.33,2.03,1.56,2.57,3.93,6.09,3.02,5.9-25.44-14.9-34.51-29.67-50.54l-30.42,28.1c-5.44.96-26.34-29.98-33.79-28.03-1.74.46-24.74,23.06-25.87,25.02-4.06,7.08-1.08,17.35-1.9,25.46Z"/>
      <path class="cls-1" d="M383.16,423h-121.68v18.25h118.64c4.23,0,3.04-14.87,3.04-18.25Z"/>
      <path class="cls-1" d="M261.48,526.43v18.25h118.64c4.23,0,3.04-14.87,3.04-18.25h-121.68Z"/>
    </g>
    <g>
      <path class="cls-2" d="M268.45,118.92c-42.31-59.53-141.77-61.85-184.3-2.03-3.63,5.11-21.98,41.01-22.99,45.96-1.19,5.8-2.39,37.1,4.61,37.03,2.14-.02,25.26-22.31,33.46-26.33,8.05-3.95,15.87-5.62,24.34-8.11,39.2-11.56,66.05-11.87,105.46,0,8.23,2.48,14.44,4.28,22.31,8.11,14.13,6.88,21.4,18.34,31.81,23.97,2.06,1.12,6.72,3.54,6.72-.65v-36.5c0-2.33-18.76-37.7-21.42-41.45ZM141.82,137.03c-13.13-2.53-6.14,5.76-8.11,8.11-4.09,1.6-7.78-6.07-9.12-6.04-2.27.05-1.68,8.24-7.09,6.05,2.66-13.07-6.26-6.28-8.14-8.13-3.85-3.8,4.16-6.64,4.15-7.11-.08-3.9-5.07-4.85-4.12-9.1,13.12,2.56,6.16-5.85,8.11-8.11,3.79-1.21,5.05,3.37,7.44,3.79,3.28.58,4.79-4.96,8.77-3.79,1.95,2.24-5.03,10.64,8.13,8.11,2.18,5.41-6,4.81-6.05,7.09-.03,1.34,7.63,5.03,6.04,9.12ZM186.45,126.91c6.97,24.56-7.58,5.42-10.95,6.14-4.29.92-4.27,9.88-8.29,8.02-5.2-2.4-3.03-10.54-1.05-14.16-29.56,3.96-6.13-9.78-6.12-11.18.01-1.69-9.59-6.58-8.07-11.14l14.18-.02c-6.02-23.83,4.62-7.29,9.39-6.19,2.82.65,9.59-9.43,12.91-5.95,1.59,1.67-2.76,11.51-2.01,12.14,28.03-4.13,6.1,8.87,6.11,11.17,0,1.39,23.49,14.59-6.11,11.17ZM243.19,134c-6.03,4.51-10,1.11-8.08,11.14-4.09,1.6-7.77-6.07-9.12-6.04-2.28.05-1.68,8.25-7.09,6.03l-.03-10.13c-.26-.35-6.86,3.32-8.08,2.02-3.72-3.97,4.14-6.66,4.12-7.1-.22-3.99-5.01-4.83-4.12-9.1,2.25-1.95,10.68,5,8.11-8.11,4.22-1.19,5.88,5.37,9.8,3.63.39-.18,2.51-7.6,6.4-3.65,1.85,1.87-4.94,10.8,8.13,8.14-.96,8.77-11.43,3.56-.05,13.17Z"/>
      <path class="cls-2" d="M222.95,171.52c-9.25.5-20.67,5.39-31.35,6.17-25.73,1.87-42.43-5.05-63.97-6.17-10.88-.56-18.15,5.09-28.39,6.08-.04.28-1.94.55-1.91,1,.28,4.16,12.67,2.84,16.62,3.56,29.61,5.47,50.51,9.83,81.72,7.7,7.53-.51,53.94-8.39,55.68-12.26-9.41-2.27-18.34-6.63-28.39-6.08Z"/>
      <path class="cls-2" d="M127.63,171.52c-.59-.24-1.19-.44-1.81-.61l1.81.61Z"/>
    </g>
    <g>
      <path class="cls-1" d="M575.81,146.19c.02-1.57,24.9-15.55,26.09-17.61,1.53-2.64-3.66-16.8-6.98-17.55-4.69-1.06-30.17,7.36-32.3,3.73-2.03-7.83,6.5-27.98,2.71-34.16-.31-.5-9.52-4.33-10.98-4.42-9.12-.61-16.96,20.89-24.15,26.36-8.19-6.26-14.32-27.93-25.85-25.99-18.07,3.05-7.29,20.54-6.51,34.16.12,2.03,2,3.07-1.1,5.09-18.22-.33-37.89-15.04-38.24,12.79l26.06,19.6c-5.31,6.08-27.21,15.92-26.06,23.86,3.01,20.73,26.37,6.27,40.26,7.61,1.28,1.19-6.01,26.92-5.27,31.53.64,3.99,15.05,10,17.15,8.82,2.26-1.27,15.98-26.19,17.56-26.19,7.45-.02,18.29,24.35,21.56,26.19,1.61.9,13.78-3.92,14.94-5.84,3.93-6.5-4.43-33.23-3.06-34.51,8.71-1.36,29.59,7.32,35.51,2.03,18.82-16.84-21.47-26.17-21.34-35.48ZM476.45,124.89l22.3,2.02c-.33,2.64-3.42,13.64-7.04,12.13-2.96-1.24-12.96-10.7-15.26-14.14ZM476.49,168.47c.12-1.07,16.05-12.71,18.18-11.15l4.08,10.12c-2.43-.49-22.82,6.08-22.27,1.03ZM553.51,94.46c-3.71,11.72,3.14,27.62-14.18,18.21-1.19-1.57,11.3-21.4,14.18-18.21ZM510.89,94.47c.8.67,10.88,17.45,10.18,18.22l-12.16,2.04c1.3-2.39-5.34-26.4,1.98-20.27ZM520.96,186.55c-.26,1.1-11.7,15.88-14.07,13.35l2.03-20.27c3.52-.78,13.05,2.59,12.05,6.91ZM545.89,181.06c8.93-2.34,4.26,12.62,7.62,18.83-7.13-2.8-20.84-15.37-7.62-18.83ZM546.93,166.95c-.76.61-17.46,6.22-18.42,6.14-.94-.08-16.41-7.48-17.06-8.16-1.43-1.49-6.13-16-6.01-18.44,1.04-21.09,29.61-31.01,42.96-15.47,1.39,1.62,7,15.28,7.01,17.18,0,1.62-7.67,18.11-8.47,18.76ZM583.94,124.89c-1.83,3.13-16.27,15.62-18.22,14.17l-4.08-12.15,22.3-2.02ZM561.64,167.44l5.1-10.16c23.81,12.75,20.86,16.02-5.1,10.16Z"/>
      <path class="cls-1" d="M517.57,158.8c11.52,14.24,39.92-4.06,24.72-21.7-14.1-16.36-37.87,5.45-24.72,21.7ZM524.2,153.17c-8.54-10.15,5.7-18.29,12.6-11.56,6.66,6.5-4.51,21.18-12.6,11.56Z"/>
    </g>
    <g>
      <path class="cls-1" d="M1103.01,472.83c-.55-3.79-20.38-39.3-23.15-41.79-3.05-2.74-44.72-18.12-48.23-17.82-6.64.58-43.76,15.63-48.2,20.9-2.42,2.87-21.57,36.78-21.87,39-.53,3.99,7.58,47.65,9.59,50.4,1.32,1.8,32.62,27.34,34.69,28.18,4.55,1.83,45.71,2.17,51.59,1.05,2.98-.57,37.11-29.31,38.52-32.46,2.03-4.53,7.8-42.23,7.04-47.45ZM1085.97,512.32c-1.7,4.96-28.48,28.61-32.97,29.9-6.43,1.85-38.13,1.15-43.93-1.85-1.53-.79-25.47-20.78-26.53-22.15-3.13-4.03-9.48-36.01-9.13-41.39.27-4.08,17.83-35.1,21.14-37.68,2.32-1.8,35.73-13.86,38.59-13.87,2.83,0,36.77,12.62,38.94,14.55,1.51,1.35,19.97,33.15,20.31,35.15.34,2.02-5.28,33.98-6.43,37.32Z"/>
      <path class="cls-1" d="M1064.68,448.25c-1.96-1.98-28.83-12.2-31.53-12.2-2.67,0-31.44,10.32-32.97,11.78-1.11,1.06-14.34,25.47-14.61,26.98-1.06,5.85,3.15,32.57,6.6,36.85,2.76,3.43,22.81,18.4,26.68,18.92,21.84,2.94,34.66.15,49.84-15.28,7.12-7.24,13.11-28.61,12.12-38.41-.25-2.46-14.09-26.6-16.12-28.65ZM1063.44,503.98c-1.46,2.45-17.62,15.83-20.19,16.32-23.44,4.47-41.88-8.74-45.22-31.78-.46-3.15-1.91-8.33-1.32-11.03.23-1.08,9.99-17.92,11.05-19.05,2.42-2.58,20.67-10.31,23.69-10.57,2.64-.23,22.68,6.96,24.92,8.72,1.75,1.38,11.95,19.82,12.27,22.37.62,5-2.6,20.68-5.19,25.03Z"/>
      <path class="cls-1" d="M1016.47,466.14c-.45.45-5.96,10.39-6.14,11.1-7.25,28.23,30.91,39.32,42.19,19.88,14.93-25.73-19.04-47.8-36.05-30.98ZM1035.06,496.07c-14.75,2.13-19.96-21.55-3.47-24.07,14.13-2.16,17.93,21.99,3.47,24.07Z"/>
    </g>
  </g>
  <g>
    <path class="cls-2" d="M1666.59,826.92c-.69-1.11-18.53-7.06-19.63-11.66-1.21-5.09,7.53-17,4.82-23.06-1.04-2.32-9.38-9.85-12.34-10.27-7.38-1.04-16.56,7.29-23.24,3.15-2.95-1.83-7.98-17.41-10.53-18.89-2.21-1.29-15.38-.95-17.87.56-3.09,1.88-8.35,18.64-11.54,19.39-8.84,2.08-16.14-7.96-26.06-2.23-18.4,10.64-.1,26.07-5.29,34.27-1.52,2.4-18.54,6.33-19.96,13.48-4.33,21.92,17.17,17.22,19.98,26.8,2.59,8.83-6.97,17.24-1.85,26.03,10.03,17.24,28.22-.72,34.36,3.19,1.76,1.12,5.54,18.51,13.41,20.04,3.25.63,12.6.62,15.26-.99,3.97-2.41,6.49-17.5,11.48-19.09,8.55-2.72,17.88,10.05,28.05,1.88,14.59-11.72-1.15-23,1.21-31.18,1.21-4.18,19.3-9.46,20.12-12.9.52-2.17.35-17.38-.36-18.53Z"/>
    <path class="cls-2" d="M749.95,1148.55c-3.24-22.78-32.35-4.61-38.26-8.52-6.78-4.49,8.69-28.19-1.17-35.4-19.19-14.05-23.46,18.39-32.56,19.94-9.18,1.57-14.5-34.23-34.02-19.94-9.12,6.68,2.33,26.46.83,36.32-13.52-.98-37.42-12.18-40.26,7.61-1.36,9.48,21.12,16.66,26.06,23.86l-25.45,21.32c.68,26.46,22.39,11.84,39.66,12.13,1.17,13.79-14.62,36.4,7.31,38.51,11.97,1.16,20.03-23.3,24.16-24.33,6.26-1.56,12.95,26.81,27.87,23.91,19.8-3.84,4.13-24.25,5.58-38.1,15.01-.45,38.02,13.27,40.2-9.52.68-7.08-24.5-18.72-26.01-20.94-4.44-6.55,27.58-16.14,26.06-26.84Z"/>
    <path class="cls-2" d="M929.6,826.37c-7.94-.41-13.18-14.65-25.71-11.52-3.86.97-6.81,6.5-11.68,5.65,10.11-22.2-11.03-20.25-17.15-28.47-1.67-2.24-7.01-21.9-6.35-24.3,1.02-3.68,7.11-7.84,6.23-12.13-6.3,2.78-22.07,10.85-23.28,17.28-.69,3.65-2.29,22.58-1.97,26.08.85,9.37,14.1,30.32,11.82,38.37-1.54,5.44-28.29,20.76-33.03,27.96-3.44,5.22-19.92,52.05-17.4,54.59h66.93c-1.1-24.21-5.52-44.64,7.15-67.01l1.84-1.37c17.51,5.49,36.62,3.29,53.23-4.26,16.13-7.33,22.89-19.13,19.92-36.86-6.14,10.81-18.15,16.62-30.55,15.98Z"/>
    <path class="cls-2" d="M1403.19,1103.51c-6.23-2.13-22.1-1.76-28.83-.62-33.09,5.59-68.1,39.64-63.86,75.04,5.23,43.6,49.2,72.49,91.73,64.37,6.03-1.15,32.76-24.5,36.66-30.27,3.5-5.17,5.03-13.96-2.18-10.34-6.15,3.09-12.9,11.43-18.74,13.74-14.92,5.9-31.77,6.12-45.86-1.73-9.53-5.31-23.96-29.99-23.73-41.32.16-7.77,12.67-31.44,18.31-36.61,11.6-10.64,34.39-10.52,48.4-5.6,6.4,2.25,20.6,14.43,21.96,14.66,2.2.37,6.77-4.21,6.77-4.9.02-3.75-34.66-34.39-40.61-36.42Z"/>
    <path class="cls-1" d="M1330.27,889.46c-19.38,2.43-40.34-4.54-49.05-22.95-7.23-15.28-8.32-43.5,13.62-44.05,5.9-.15,13.07,4.29,15.86,3.73,3.43-.7,13.65-9.71,13.44-14.56-.95-21.83-34.08-39.55-53.73-39.94-18.32-.37-61.77,20.01-75.9,31.73-4.28,3.55-33.01,40.58-35.43,45.69-5.1,10.81-11.89,51.68,3.89,54.6,20.15,3.72,5.87-13.84,5.66-20.91-.09-3.29,3.2-22.54,4.36-25.87.83-2.39,27.86-37.73,30.68-40.31,7.99-7.32,46.46-26.45,57.1-28.07,17.5-2.67,38.07,5.51,47.2,20.79-5.1,3.19-9.12-3.53-14.73-2.68-2.61.39-22.76,9.46-23.97,11.18-.95,1.34-9.67,26.22-9.69,27.99-.13,10.3,10.84,36.04,18.54,43.02,1.14,1.03,25.66,14.02,27.24,14.35,12.61,2.6,29.35,3.55,24.9-13.74Z"/>
    <g>
      <path class="cls-1" d="M261.5,1197.73l29.39-28.36c2.18,0,24.31,26.62,29.36,29.42,1.44.8,2.12,1.39,4.06.95,5.51-12.01,18.81-20.24,27.42-30.37,1.79,0,20.95,21.96,25.34,25.33,2.03,1.56,2.57,3.93,6.09,3.02,5.9-25.44-14.9-34.51-29.67-50.54l-30.42,28.1c-5.44.96-26.34-29.98-33.79-28.03-1.74.46-24.74,23.06-25.87,25.02-4.06,7.08-1.08,17.35-1.9,25.46Z"/>
      <path class="cls-1" d="M383.16,1112.55h-121.68v18.25h118.64c4.23,0,3.04-14.87,3.04-18.25Z"/>
      <path class="cls-1" d="M261.48,1215.98v18.25h118.64c4.23,0,3.04-14.87,3.04-18.25h-121.68Z"/>
    </g>
    <g>
      <path class="cls-2" d="M268.45,808.47c-42.31-59.53-141.77-61.85-184.3-2.03-3.63,5.11-21.98,41.01-22.99,45.96-1.19,5.8-2.39,37.1,4.61,37.03,2.14-.02,25.26-22.31,33.46-26.33,8.05-3.95,15.87-5.62,24.34-8.11,39.2-11.56,66.05-11.87,105.46,0,8.23,2.48,14.44,4.28,22.31,8.11,14.13,6.88,21.4,18.34,31.81,23.97,2.06,1.12,6.72,3.54,6.72-.65v-36.5c0-2.33-18.76-37.7-21.42-41.45ZM141.82,826.58c-13.13-2.53-6.14,5.76-8.11,8.11-4.09,1.6-7.78-6.07-9.12-6.04-2.27.05-1.68,8.24-7.09,6.05,2.66-13.07-6.26-6.28-8.14-8.13-3.85-3.8,4.16-6.64,4.15-7.11-.08-3.9-5.07-4.85-4.12-9.1,13.12,2.56,6.16-5.85,8.11-8.11,3.79-1.21,5.05,3.37,7.44,3.79,3.28.58,4.79-4.96,8.77-3.79,1.95,2.24-5.03,10.64,8.13,8.11,2.18,5.41-6,4.81-6.05,7.09-.03,1.34,7.63,5.03,6.04,9.12ZM186.45,816.47c6.97,24.56-7.58,5.42-10.95,6.14-4.29.92-4.27,9.88-8.29,8.02-5.2-2.4-3.03-10.54-1.05-14.16-29.56,3.96-6.13-9.78-6.12-11.18.01-1.69-9.59-6.58-8.07-11.14l14.18-.02c-6.02-23.83,4.62-7.29,9.39-6.19,2.82.65,9.59-9.43,12.91-5.95,1.59,1.67-2.76,11.51-2.01,12.14,28.03-4.13,6.1,8.87,6.11,11.17,0,1.39,23.49,14.59-6.11,11.17ZM243.19,823.55c-6.03,4.51-10,1.11-8.08,11.14-4.09,1.6-7.77-6.07-9.12-6.04-2.28.05-1.68,8.25-7.09,6.03l-.03-10.13c-.26-.35-6.86,3.32-8.08,2.02-3.72-3.97,4.14-6.66,4.12-7.1-.22-3.99-5.01-4.83-4.12-9.1,2.25-1.95,10.68,5,8.11-8.11,4.22-1.19,5.88,5.37,9.8,3.63.39-.18,2.51-7.6,6.4-3.65,1.85,1.87-4.94,10.8,8.13,8.14-.96,8.77-11.43,3.56-.05,13.17Z"/>
      <path class="cls-2" d="M222.95,861.07c-9.25.5-20.67,5.39-31.35,6.17-25.73,1.87-42.43-5.05-63.97-6.17-10.88-.56-18.15,5.09-28.39,6.08-.04.28-1.94.55-1.91,1,.28,4.16,12.67,2.84,16.62,3.56,29.61,5.47,50.51,9.83,81.72,7.7,7.53-.51,53.94-8.39,55.68-12.26-9.41-2.27-18.34-6.63-28.39-6.08Z"/>
      <path class="cls-2" d="M127.63,861.07c-.59-.24-1.19-.44-1.81-.61l1.81.61Z"/>
    </g>
    <g>
      <path class="cls-1" d="M575.81,835.74c.02-1.57,24.9-15.55,26.09-17.61,1.53-2.64-3.66-16.8-6.98-17.55-4.69-1.06-30.17,7.36-32.3,3.73-2.03-7.83,6.5-27.98,2.71-34.16-.31-.5-9.52-4.33-10.98-4.42-9.12-.61-16.96,20.89-24.15,26.36-8.19-6.26-14.32-27.93-25.85-25.99-18.07,3.05-7.29,20.54-6.51,34.16.12,2.03,2,3.07-1.1,5.09-18.22-.33-37.89-15.04-38.24,12.79l26.06,19.6c-5.31,6.08-27.21,15.92-26.06,23.86,3.01,20.73,26.37,6.27,40.26,7.61,1.28,1.19-6.01,26.92-5.27,31.53.64,3.99,15.05,10,17.15,8.82,2.26-1.27,15.98-26.19,17.56-26.19,7.45-.02,18.29,24.35,21.56,26.19,1.61.9,13.78-3.92,14.94-5.84,3.93-6.5-4.43-33.23-3.06-34.51,8.71-1.36,29.59,7.32,35.51,2.03,18.82-16.84-21.47-26.17-21.34-35.48ZM476.45,814.45l22.3,2.02c-.33,2.64-3.42,13.64-7.04,12.13-2.96-1.24-12.96-10.7-15.26-14.14ZM476.49,858.03c.12-1.07,16.05-12.71,18.18-11.15l4.08,10.12c-2.43-.49-22.82,6.08-22.27,1.03ZM553.51,784.02c-3.71,11.72,3.14,27.62-14.18,18.21-1.19-1.57,11.3-21.4,14.18-18.21ZM510.89,784.02c.8.67,10.88,17.45,10.18,18.22l-12.16,2.04c1.3-2.39-5.34-26.4,1.98-20.27ZM520.96,876.1c-.26,1.1-11.7,15.88-14.07,13.35l2.03-20.27c3.52-.78,13.05,2.59,12.05,6.91ZM545.89,870.62c8.93-2.34,4.26,12.62,7.62,18.83-7.13-2.8-20.84-15.37-7.62-18.83ZM546.93,856.51c-.76.61-17.46,6.22-18.42,6.14-.94-.08-16.41-7.48-17.06-8.16-1.43-1.49-6.13-16-6.01-18.44,1.04-21.09,29.61-31.01,42.96-15.47,1.39,1.62,7,15.28,7.01,17.18,0,1.62-7.67,18.11-8.47,18.76ZM583.94,814.45c-1.83,3.13-16.27,15.62-18.22,14.17l-4.08-12.15,22.3-2.02ZM561.64,856.99l5.1-10.16c23.81,12.75,20.86,16.02-5.1,10.16Z"/>
      <path class="cls-1" d="M517.57,848.35c11.52,14.24,39.92-4.06,24.72-21.7-14.1-16.36-37.87,5.45-24.72,21.7ZM524.2,842.72c-8.54-10.15,5.7-18.29,12.6-11.56,6.66,6.5-4.51,21.18-12.6,11.56Z"/>
    </g>
    <g>
      <path class="cls-1" d="M1103.01,1162.39c-.55-3.79-20.38-39.3-23.15-41.79-3.05-2.74-44.72-18.12-48.23-17.82-6.64.58-43.76,15.63-48.2,20.9-2.42,2.87-21.57,36.78-21.87,39-.53,3.99,7.58,47.65,9.59,50.4,1.32,1.8,32.62,27.34,34.69,28.18,4.55,1.83,45.71,2.17,51.59,1.05,2.98-.57,37.11-29.31,38.52-32.46,2.03-4.53,7.8-42.23,7.04-47.45ZM1085.97,1201.87c-1.7,4.96-28.48,28.61-32.97,29.9-6.43,1.85-38.13,1.15-43.93-1.85-1.53-.79-25.47-20.78-26.53-22.15-3.13-4.03-9.48-36.01-9.13-41.39.27-4.08,17.83-35.1,21.14-37.68,2.32-1.8,35.73-13.86,38.59-13.87,2.83,0,36.77,12.62,38.94,14.55,1.51,1.35,19.97,33.15,20.31,35.15.34,2.02-5.28,33.98-6.43,37.32Z"/>
      <path class="cls-1" d="M1064.68,1137.81c-1.96-1.98-28.83-12.2-31.53-12.2-2.67,0-31.44,10.32-32.97,11.78-1.11,1.06-14.34,25.47-14.61,26.98-1.06,5.85,3.15,32.57,6.6,36.85,2.76,3.43,22.81,18.4,26.68,18.92,21.84,2.94,34.66.15,49.84-15.28,7.12-7.24,13.11-28.61,12.12-38.41-.25-2.46-14.09-26.6-16.12-28.65ZM1063.44,1193.53c-1.46,2.45-17.62,15.83-20.19,16.32-23.44,4.47-41.88-8.74-45.22-31.78-.46-3.15-1.91-8.33-1.32-11.03.23-1.08,9.99-17.92,11.05-19.05,2.42-2.58,20.67-10.31,23.69-10.57,2.64-.23,22.68,6.96,24.92,8.72,1.75,1.38,11.95,19.82,12.27,22.37.62,5-2.6,20.68-5.19,25.03Z"/>
      <path class="cls-1" d="M1016.47,1155.69c-.45.45-5.96,10.39-6.14,11.1-7.25,28.23,30.91,39.32,42.19,19.88,14.93-25.73-19.04-47.8-36.05-30.98ZM1035.06,1185.63c-14.75,2.13-19.96-21.55-3.47-24.07,14.13-2.16,17.93,21.99,3.47,24.07Z"/>
    </g>
  </g>
  <g>
    <path class="cls-2" d="M1666.59,1516.47c-.69-1.11-18.53-7.06-19.63-11.66-1.21-5.09,7.53-17,4.82-23.06-1.04-2.32-9.38-9.85-12.34-10.27-7.38-1.04-16.56,7.29-23.24,3.15-2.95-1.83-7.98-17.41-10.53-18.89-2.21-1.29-15.38-.95-17.87.56-3.09,1.88-8.35,18.64-11.54,19.39-8.84,2.08-16.14-7.96-26.06-2.23-18.4,10.64-.1,26.07-5.29,34.27-1.52,2.4-18.54,6.33-19.96,13.48-4.33,21.92,17.17,17.22,19.98,26.8,2.59,8.83-6.97,17.24-1.85,26.03,10.03,17.24,28.22-.72,34.36,3.19,1.76,1.12,5.54,18.51,13.41,20.04,3.25.63,12.6.62,15.26-.99,3.97-2.41,6.49-17.5,11.48-19.09,8.55-2.72,17.88,10.05,28.05,1.88,14.59-11.72-1.15-23,1.21-31.18,1.21-4.18,19.3-9.46,20.12-12.9.52-2.17.35-17.38-.36-18.53Z"/>
    <path class="cls-2" d="M749.95,1838.1c-3.24-22.78-32.35-4.61-38.26-8.52-6.78-4.49,8.69-28.19-1.17-35.4-19.19-14.05-23.46,18.39-32.56,19.94-9.18,1.57-14.5-34.23-34.02-19.94-9.12,6.68,2.33,26.46.83,36.32-13.52-.98-37.42-12.18-40.26,7.61-1.36,9.48,21.12,16.66,26.06,23.86l-25.45,21.32c.68,26.46,22.39,11.84,39.66,12.13,1.17,13.79-14.62,36.4,7.31,38.51,11.97,1.16,20.03-23.3,24.16-24.33,6.26-1.56,12.95,26.81,27.87,23.91,19.8-3.84,4.13-24.25,5.58-38.1,15.01-.45,38.02,13.27,40.2-9.52.68-7.08-24.5-18.72-26.01-20.94-4.44-6.55,27.58-16.14,26.06-26.84Z"/>
    <path class="cls-2" d="M929.6,1515.92c-7.94-.41-13.18-14.65-25.71-11.52-3.86.97-6.81,6.5-11.68,5.65,10.11-22.2-11.03-20.25-17.15-28.47-1.67-2.24-7.01-21.9-6.35-24.3,1.02-3.68,7.11-7.84,6.23-12.13-6.3,2.78-22.07,10.85-23.28,17.28-.69,3.65-2.29,22.58-1.97,26.08.85,9.37,14.1,30.32,11.82,38.37-1.54,5.44-28.29,20.76-33.03,27.96-3.44,5.22-19.92,52.05-17.4,54.59h66.93c-1.1-24.21-5.52-44.64,7.15-67.01l1.84-1.37c17.51,5.49,36.62,3.29,53.23-4.26,16.13-7.33,22.89-19.13,19.92-36.86-6.14,10.81-18.15,16.62-30.55,15.98Z"/>
    <path class="cls-2" d="M1403.19,1793.07c-6.23-2.13-22.1-1.76-28.83-.62-33.09,5.59-68.1,39.64-63.86,75.04,5.23,43.6,49.2,72.49,91.73,64.37,6.03-1.15,32.76-24.5,36.66-30.27,3.5-5.17,5.03-13.96-2.18-10.34-6.15,3.09-12.9,11.43-18.74,13.74-14.92,5.9-31.77,6.12-45.86-1.73-9.53-5.31-23.96-29.99-23.73-41.32.16-7.77,12.67-31.44,18.31-36.61,11.6-10.64,34.39-10.52,48.4-5.6,6.4,2.25,20.6,14.43,21.96,14.66,2.2.37,6.77-4.21,6.77-4.9.02-3.75-34.66-34.39-40.61-36.42Z"/>
    <path class="cls-1" d="M1330.27,1579.01c-19.38,2.43-40.34-4.54-49.05-22.95-7.23-15.28-8.32-43.5,13.62-44.05,5.9-.15,13.07,4.29,15.86,3.73,3.43-.7,13.65-9.71,13.44-14.56-.95-21.83-34.08-39.55-53.73-39.94-18.32-.37-61.77,20.01-75.9,31.73-4.28,3.55-33.01,40.58-35.43,45.69-5.1,10.81-11.89,51.68,3.89,54.6,20.15,3.72,5.87-13.84,5.66-20.91-.09-3.29,3.2-22.54,4.36-25.87.83-2.39,27.86-37.73,30.68-40.31,7.99-7.32,46.46-26.45,57.1-28.07,17.5-2.67,38.07,5.51,47.2,20.79-5.1,3.19-9.12-3.53-14.73-2.68-2.61.39-22.76,9.46-23.97,11.18-.95,1.34-9.67,26.22-9.69,27.99-.13,10.3,10.84,36.04,18.54,43.02,1.14,1.03,25.66,14.02,27.24,14.35,12.61,2.6,29.35,3.55,24.9-13.74Z"/>
    <g>
      <path class="cls-1" d="M261.5,1887.28l29.39-28.36c2.18,0,24.31,26.62,29.36,29.42,1.44.8,2.12,1.39,4.06.95,5.51-12.01,18.81-20.24,27.42-30.37,1.79,0,20.95,21.96,25.34,25.33,2.03,1.56,2.57,3.93,6.09,3.02,5.9-25.44-14.9-34.51-29.67-50.54l-30.42,28.1c-5.44.96-26.34-29.98-33.79-28.03-1.74.46-24.74,23.06-25.87,25.02-4.06,7.08-1.08,17.35-1.9,25.46Z"/>
      <path class="cls-1" d="M383.16,1802.1h-121.68v18.25h118.64c4.23,0,3.04-14.87,3.04-18.25Z"/>
      <path class="cls-1" d="M261.48,1905.54v18.25h118.64c4.23,0,3.04-14.87,3.04-18.25h-121.68Z"/>
    </g>
    <g>
      <path class="cls-2" d="M268.45,1498.03c-42.31-59.53-141.77-61.85-184.3-2.03-3.63,5.11-21.98,41.01-22.99,45.96-1.19,5.8-2.39,37.1,4.61,37.03,2.14-.02,25.26-22.31,33.46-26.33,8.05-3.95,15.87-5.62,24.34-8.11,39.2-11.56,66.05-11.87,105.46,0,8.23,2.48,14.44,4.28,22.31,8.11,14.13,6.88,21.4,18.34,31.81,23.97,2.06,1.12,6.72,3.54,6.72-.65v-36.5c0-2.33-18.76-37.7-21.42-41.45ZM141.82,1516.14c-13.13-2.53-6.14,5.76-8.11,8.11-4.09,1.6-7.78-6.07-9.12-6.04-2.27.05-1.68,8.24-7.09,6.05,2.66-13.07-6.26-6.28-8.14-8.13-3.85-3.8,4.16-6.64,4.15-7.11-.08-3.9-5.07-4.85-4.12-9.1,13.12,2.56,6.16-5.85,8.11-8.11,3.79-1.21,5.05,3.37,7.44,3.79,3.28.58,4.79-4.96,8.77-3.79,1.95,2.24-5.03,10.64,8.13,8.11,2.18,5.41-6,4.81-6.05,7.09-.03,1.34,7.63,5.03,6.04,9.12ZM186.45,1506.02c6.97,24.56-7.58,5.42-10.95,6.14-4.29.92-4.27,9.88-8.29,8.02-5.2-2.4-3.03-10.54-1.05-14.16-29.56,3.96-6.13-9.78-6.12-11.18.01-1.69-9.59-6.58-8.07-11.14l14.18-.02c-6.02-23.83,4.62-7.29,9.39-6.19,2.82.65,9.59-9.43,12.91-5.95,1.59,1.67-2.76,11.51-2.01,12.14,28.03-4.13,6.1,8.87,6.11,11.17,0,1.39,23.49,14.59-6.11,11.17ZM243.19,1513.11c-6.03,4.51-10,1.11-8.08,11.14-4.09,1.6-7.77-6.07-9.12-6.04-2.28.05-1.68,8.25-7.09,6.03l-.03-10.13c-.26-.35-6.86,3.32-8.08,2.02-3.72-3.97,4.14-6.66,4.12-7.1-.22-3.99-5.01-4.83-4.12-9.1,2.25-1.95,10.68,5,8.11-8.11,4.22-1.19,5.88,5.37,9.8,3.63.39-.18,2.51-7.6,6.4-3.65,1.85,1.87-4.94,10.8,8.13,8.14-.96,8.77-11.43,3.56-.05,13.17Z"/>
      <path class="cls-2" d="M222.95,1550.63c-9.25.5-20.67,5.39-31.35,6.17-25.73,1.87-42.43-5.05-63.97-6.17-10.88-.56-18.15,5.09-28.39,6.08-.04.28-1.94.55-1.91,1,.28,4.16,12.67,2.84,16.62,3.56,29.61,5.47,50.51,9.83,81.72,7.7,7.53-.51,53.94-8.39,55.68-12.26-9.41-2.27-18.34-6.63-28.39-6.08Z"/>
      <path class="cls-2" d="M127.63,1550.63c-.59-.24-1.19-.44-1.81-.61l1.81.61Z"/>
    </g>
    <g>
      <path class="cls-1" d="M575.81,1525.3c.02-1.57,24.9-15.55,26.09-17.61,1.53-2.64-3.66-16.8-6.98-17.55-4.69-1.06-30.17,7.36-32.3,3.73-2.03-7.83,6.5-27.98,2.71-34.16-.31-.5-9.52-4.33-10.98-4.42-9.12-.61-16.96,20.89-24.15,26.36-8.19-6.26-14.32-27.93-25.85-25.99-18.07,3.05-7.29,20.54-6.51,34.16.12,2.03,2,3.07-1.1,5.09-18.22-.33-37.89-15.04-38.24,12.79l26.06,19.6c-5.31,6.08-27.21,15.92-26.06,23.86,3.01,20.73,26.37,6.27,40.26,7.61,1.28,1.19-6.01,26.92-5.27,31.53.64,3.99,15.05,10,17.15,8.82,2.26-1.27,15.98-26.19,17.56-26.19,7.45-.02,18.29,24.35,21.56,26.19,1.61.9,13.78-3.92,14.94-5.84,3.93-6.5-4.43-33.23-3.06-34.51,8.71-1.36,29.59,7.32,35.51,2.03,18.82-16.84-21.47-26.17-21.34-35.48ZM476.45,1504l22.3,2.02c-.33,2.64-3.42,13.64-7.04,12.13-2.96-1.24-12.96-10.7-15.26-14.14ZM476.49,1547.58c.12-1.07,16.05-12.71,18.18-11.15l4.08,10.12c-2.43-.49-22.82,6.08-22.27,1.03ZM553.51,1473.57c-3.71,11.72,3.14,27.62-14.18,18.21-1.19-1.57,11.3-21.4,14.18-18.21ZM510.89,1473.58c.8.67,10.88,17.45,10.18,18.22l-12.16,2.04c1.3-2.39-5.34-26.4,1.98-20.27ZM520.96,1565.66c-.26,1.1-11.7,15.88-14.07,13.35l2.03-20.27c3.52-.78,13.05,2.59,12.05,6.91ZM545.89,1560.17c8.93-2.34,4.26,12.62,7.62,18.83-7.13-2.8-20.84-15.37-7.62-18.83ZM546.93,1546.06c-.76.61-17.46,6.22-18.42,6.14-.94-.08-16.41-7.48-17.06-8.16-1.43-1.49-6.13-16-6.01-18.44,1.04-21.09,29.61-31.01,42.96-15.47,1.39,1.62,7,15.28,7.01,17.18,0,1.62-7.67,18.11-8.47,18.76ZM583.94,1504c-1.83,3.13-16.27,15.62-18.22,14.17l-4.08-12.15,22.3-2.02ZM561.64,1546.55l5.1-10.16c23.81,12.75,20.86,16.02-5.1,10.16Z"/>
      <path class="cls-1" d="M517.57,1537.91c11.52,14.24,39.92-4.06,24.72-21.7-14.1-16.36-37.87,5.45-24.72,21.7ZM524.2,1532.28c-8.54-10.15,5.7-18.29,12.6-11.56,6.66,6.5-4.51,21.18-12.6,11.56Z"/>
    </g>
    <g>
      <path class="cls-1" d="M1103.01,1851.94c-.55-3.79-20.38-39.3-23.15-41.79-3.05-2.74-44.72-18.12-48.23-17.82-6.64.58-43.76,15.63-48.2,20.9-2.42,2.87-21.57,36.78-21.87,39-.53,3.99,7.58,47.65,9.59,50.4,1.32,1.8,32.62,27.34,34.69,28.18,4.55,1.83,45.71,2.17,51.59,1.05,2.98-.57,37.11-29.31,38.52-32.46,2.03-4.53,7.8-42.23,7.04-47.45ZM1085.97,1891.42c-1.7,4.96-28.48,28.61-32.97,29.9-6.43,1.85-38.13,1.15-43.93-1.85-1.53-.79-25.47-20.78-26.53-22.15-3.13-4.03-9.48-36.01-9.13-41.39.27-4.08,17.83-35.1,21.14-37.68,2.32-1.8,35.73-13.86,38.59-13.87,2.83,0,36.77,12.62,38.94,14.55,1.51,1.35,19.97,33.15,20.31,35.15.34,2.02-5.28,33.98-6.43,37.32Z"/>
      <path class="cls-1" d="M1064.68,1827.36c-1.96-1.98-28.83-12.2-31.53-12.2-2.67,0-31.44,10.32-32.97,11.78-1.11,1.06-14.34,25.47-14.61,26.98-1.06,5.85,3.15,32.57,6.6,36.85,2.76,3.43,22.81,18.4,26.68,18.92,21.84,2.94,34.66.15,49.84-15.28,7.12-7.24,13.11-28.61,12.12-38.41-.25-2.46-14.09-26.6-16.12-28.65ZM1063.44,1883.09c-1.46,2.45-17.62,15.83-20.19,16.32-23.44,4.47-41.88-8.74-45.22-31.78-.46-3.15-1.91-8.33-1.32-11.03.23-1.08,9.99-17.92,11.05-19.05,2.42-2.58,20.67-10.31,23.69-10.57,2.64-.23,22.68,6.96,24.92,8.72,1.75,1.38,11.95,19.82,12.27,22.37.62,5-2.6,20.68-5.19,25.03Z"/>
      <path class="cls-1" d="M1016.47,1845.24c-.45.45-5.96,10.39-6.14,11.1-7.25,28.23,30.91,39.32,42.19,19.88,14.93-25.73-19.04-47.8-36.05-30.98ZM1035.06,1875.18c-14.75,2.13-19.96-21.55-3.47-24.07,14.13-2.16,17.93,21.99,3.47,24.07Z"/>
    </g>
  </g>
  <g>
    <g>
      <path class="cls-2" d="M1817.07,851.68l29.39-28.36c2.18,0,24.31,26.62,29.36,29.42,1.44.8,2.12,1.39,4.06.95,5.51-12.01,18.81-20.24,27.42-30.37,1.79,0,20.95,21.96,25.34,25.33,2.03,1.56,2.57,3.93,6.09,3.02,5.9-25.44-14.9-34.51-29.67-50.54l-30.42,28.1c-5.44.96-26.34-29.98-33.79-28.03-1.74.46-24.74,23.06-25.87,25.02-4.06,7.08-1.08,17.35-1.9,25.46Z"/>
      <path class="cls-2" d="M1938.73,766.5h-121.68v18.25h118.64c4.23,0,3.04-14.87,3.04-18.25Z"/>
      <path class="cls-2" d="M1817.05,869.93v18.25h118.64c4.23,0,3.04-14.87,3.04-18.25h-121.68Z"/>
    </g>
    <g>
      <path class="cls-1" d="M1824.02,462.42c-42.31-59.53-141.77-61.85-184.3-2.03-3.63,5.11-21.98,41.01-22.99,45.96-1.19,5.8-2.39,37.1,4.61,37.03,2.14-.02,25.26-22.31,33.46-26.33,8.05-3.95,15.87-5.62,24.34-8.11,39.2-11.56,66.05-11.87,105.46,0,8.23,2.48,14.44,4.28,22.31,8.11,14.13,6.88,21.4,18.34,31.81,23.97,2.06,1.12,6.72,3.54,6.72-.65v-36.5c0-2.33-18.76-37.7-21.42-41.45ZM1697.38,480.53c-13.13-2.53-6.14,5.76-8.11,8.11-4.09,1.6-7.78-6.07-9.12-6.04-2.27.05-1.68,8.24-7.09,6.05,2.66-13.07-6.26-6.28-8.14-8.13-3.85-3.8,4.16-6.64,4.15-7.11-.08-3.9-5.07-4.85-4.12-9.1,13.12,2.56,6.16-5.85,8.11-8.11,3.79-1.21,5.05,3.37,7.44,3.79,3.28.58,4.79-4.96,8.77-3.79,1.95,2.24-5.03,10.64,8.13,8.11,2.18,5.41-6,4.81-6.05,7.09-.03,1.34,7.63,5.03,6.04,9.12ZM1742.01,470.42c6.97,24.56-7.58,5.42-10.95,6.14-4.29.92-4.27,9.88-8.29,8.02-5.2-2.4-3.03-10.54-1.05-14.16-29.56,3.96-6.13-9.78-6.12-11.18.01-1.69-9.59-6.58-8.07-11.14l14.18-.02c-6.02-23.83,4.62-7.29,9.39-6.19,2.82.65,9.59-9.43,12.91-5.95,1.59,1.67-2.76,11.51-2.01,12.14,28.03-4.13,6.1,8.87,6.11,11.17,0,1.39,23.49,14.59-6.11,11.17ZM1798.75,477.5c-6.03,4.51-10,1.11-8.08,11.14-4.09,1.6-7.77-6.07-9.12-6.04-2.28.05-1.68,8.25-7.09,6.03l-.03-10.13c-.26-.35-6.86,3.32-8.08,2.02-3.72-3.97,4.14-6.66,4.12-7.1-.22-3.99-5.01-4.83-4.12-9.1,2.25-1.95,10.68,5,8.11-8.11,4.22-1.19,5.88,5.37,9.8,3.63.39-.18,2.51-7.6,6.4-3.65,1.85,1.87-4.94,10.8,8.13,8.14-.96,8.77-11.43,3.56-.05,13.17Z"/>
      <path class="cls-1" d="M1778.51,515.02c-9.25.5-20.67,5.39-31.35,6.17-25.73,1.87-42.43-5.05-63.97-6.17-10.88-.56-18.15,5.09-28.39,6.08-.04.28-1.94.55-1.91,1,.28,4.16,12.67,2.84,16.62,3.56,29.61,5.47,50.51,9.83,81.72,7.7,7.53-.51,53.94-8.39,55.68-12.26-9.41-2.27-18.34-6.63-28.39-6.08Z"/>
      <path class="cls-1" d="M1683.19,515.02c-.59-.24-1.19-.44-1.81-.61l1.81.61Z"/>
    </g>
  </g>
  <g>
    <g>
      <path class="cls-2" d="M1817.07,1541.23l29.39-28.36c2.18,0,24.31,26.62,29.36,29.42,1.44.8,2.12,1.39,4.06.95,5.51-12.01,18.81-20.24,27.42-30.37,1.79,0,20.95,21.96,25.34,25.33,2.03,1.56,2.57,3.93,6.09,3.02,5.9-25.44-14.9-34.51-29.67-50.54l-30.42,28.1c-5.44.96-26.34-29.98-33.79-28.03-1.74.46-24.74,23.06-25.87,25.02-4.06,7.08-1.08,17.35-1.9,25.46Z"/>
      <path class="cls-2" d="M1938.73,1456.06h-121.68v18.25h118.64c4.23,0,3.04-14.87,3.04-18.25Z"/>
      <path class="cls-2" d="M1817.05,1559.49v18.25h118.64c4.23,0,3.04-14.87,3.04-18.25h-121.68Z"/>
    </g>
    <g>
      <path class="cls-1" d="M1824.02,1151.98c-42.31-59.53-141.77-61.85-184.3-2.03-3.63,5.11-21.98,41.01-22.99,45.96-1.19,5.8-2.39,37.1,4.61,37.03,2.14-.02,25.26-22.31,33.46-26.33,8.05-3.95,15.87-5.62,24.34-8.11,39.2-11.56,66.05-11.87,105.46,0,8.23,2.48,14.44,4.28,22.31,8.11,14.13,6.88,21.4,18.34,31.81,23.97,2.06,1.12,6.72,3.54,6.72-.65v-36.5c0-2.33-18.76-37.7-21.42-41.45ZM1697.38,1170.09c-13.13-2.53-6.14,5.76-8.11,8.11-4.09,1.6-7.78-6.07-9.12-6.04-2.27.05-1.68,8.24-7.09,6.05,2.66-13.07-6.26-6.28-8.14-8.13-3.85-3.8,4.16-6.64,4.15-7.11-.08-3.9-5.07-4.85-4.12-9.1,13.12,2.56,6.16-5.85,8.11-8.11,3.79-1.21,5.05,3.37,7.44,3.79,3.28.58,4.79-4.96,8.77-3.79,1.95,2.24-5.03,10.64,8.13,8.11,2.18,5.41-6,4.81-6.05,7.09-.03,1.34,7.63,5.03,6.04,9.12ZM1742.01,1159.97c6.97,24.56-7.58,5.42-10.95,6.14-4.29.92-4.27,9.88-8.29,8.02-5.2-2.4-3.03-10.54-1.05-14.16-29.56,3.96-6.13-9.78-6.12-11.18.01-1.69-9.59-6.58-8.07-11.14l14.18-.02c-6.02-23.83,4.62-7.29,9.39-6.19,2.82.65,9.59-9.43,12.91-5.95,1.59,1.67-2.76,11.51-2.01,12.14,28.03-4.13,6.1,8.87,6.11,11.17,0,1.39,23.49,14.59-6.11,11.17ZM1798.75,1167.06c-6.03,4.51-10,1.11-8.08,11.14-4.09,1.6-7.77-6.07-9.12-6.04-2.28.05-1.68,8.25-7.09,6.03l-.03-10.13c-.26-.35-6.86,3.32-8.08,2.02-3.72-3.97,4.14-6.66,4.12-7.1-.22-3.99-5.01-4.83-4.12-9.1,2.25-1.95,10.68,5,8.11-8.11,4.22-1.19,5.88,5.37,9.8,3.63.39-.18,2.51-7.6,6.4-3.65,1.85,1.87-4.94,10.8,8.13,8.14-.96,8.77-11.43,3.56-.05,13.17Z"/>
      <path class="cls-1" d="M1778.51,1204.58c-9.25.5-20.67,5.39-31.35,6.17-25.73,1.87-42.43-5.05-63.97-6.17-10.88-.56-18.15,5.09-28.39,6.08-.04.28-1.94.55-1.91,1,.28,4.16,12.67,2.84,16.62,3.56,29.61,5.47,50.51,9.83,81.72,7.7,7.53-.51,53.94-8.39,55.68-12.26-9.41-2.27-18.34-6.63-28.39-6.08Z"/>
      <path class="cls-1" d="M1683.19,1204.58c-.59-.24-1.19-.44-1.81-.61l1.81.61Z"/>
    </g>
  </g>
  <g>
    <path class="cls-1" d="M1824.02,1841.53c-42.31-59.53-141.77-61.85-184.3-2.03-3.63,5.11-21.98,41.01-22.99,45.96-1.19,5.8-2.39,37.1,4.61,37.03,2.14-.02,25.26-22.31,33.46-26.33,8.05-3.95,15.87-5.62,24.34-8.11,39.2-11.56,66.05-11.87,105.46,0,8.23,2.48,14.44,4.28,22.31,8.11,14.13,6.88,21.4,18.34,31.81,23.97,2.06,1.12,6.72,3.54,6.72-.65v-36.5c0-2.33-18.76-37.7-21.42-41.45ZM1697.38,1859.64c-13.13-2.53-6.14,5.76-8.11,8.11-4.09,1.6-7.78-6.07-9.12-6.04-2.27.05-1.68,8.24-7.09,6.05,2.66-13.07-6.26-6.28-8.14-8.13-3.85-3.8,4.16-6.64,4.15-7.11-.08-3.9-5.07-4.85-4.12-9.1,13.12,2.56,6.16-5.85,8.11-8.11,3.79-1.21,5.05,3.37,7.44,3.79,3.28.58,4.79-4.96,8.77-3.79,1.95,2.24-5.03,10.64,8.13,8.11,2.18,5.41-6,4.81-6.05,7.09-.03,1.34,7.63,5.03,6.04,9.12ZM1742.01,1849.53c6.97,24.56-7.58,5.42-10.95,6.14-4.29.92-4.27,9.88-8.29,8.02-5.2-2.4-3.03-10.54-1.05-14.16-29.56,3.96-6.13-9.78-6.12-11.18.01-1.69-9.59-6.58-8.07-11.14l14.18-.02c-6.02-23.83,4.62-7.29,9.39-6.19,2.82.65,9.59-9.43,12.91-5.95,1.59,1.67-2.76,11.51-2.01,12.14,28.03-4.13,6.1,8.87,6.11,11.17,0,1.39,23.49,14.59-6.11,11.17ZM1798.75,1856.61c-6.03,4.51-10,1.11-8.08,11.14-4.09,1.6-7.77-6.07-9.12-6.04-2.28.05-1.68,8.25-7.09,6.03l-.03-10.13c-.26-.35-6.86,3.32-8.08,2.02-3.72-3.97,4.14-6.66,4.12-7.1-.22-3.99-5.01-4.83-4.12-9.1,2.25-1.95,10.68,5,8.11-8.11,4.22-1.19,5.88,5.37,9.8,3.63.39-.18,2.51-7.6,6.4-3.65,1.85,1.87-4.94,10.8,8.13,8.14-.96,8.77-11.43,3.56-.05,13.17Z"/>
    <path class="cls-1" d="M1778.51,1894.13c-9.25.5-20.67,5.39-31.35,6.17-25.73,1.87-42.43-5.05-63.97-6.17-10.88-.56-18.15,5.09-28.39,6.08-.04.28-1.94.55-1.91,1,.28,4.16,12.67,2.84,16.62,3.56,29.61,5.47,50.51,9.83,81.72,7.7,7.53-.51,53.94-8.39,55.68-12.26-9.41-2.27-18.34-6.63-28.39-6.08Z"/>
    <path class="cls-1" d="M1683.19,1894.13c-.59-.24-1.19-.44-1.81-.61l1.81.61Z"/>
  </g>
</svg>