<?xml version="1.0" encoding="UTF-8"?>
<svg id="Camada_1" data-name="Camada 1" xmlns="http://www.w3.org/2000/svg" viewBox="0 0 2000 1574.59">
  <defs>
    <style>
      .cls-1 {
        fill: #a62317;
      }

      .cls-2 {
        fill: #1d0809;
      }

      .cls-3 {
        fill: #edae1a;
      }
    </style>
  </defs>
  <g>
    <g>
      <path class="cls-1" d="M1899.98,1470.51c-48.51-39.02-50.52-166.78-60.58-227.4-6.85-59.46-8.19-119.42-16.16-178.78-3.3-34.94-10.72-70.11-28.48-100.77-11.97-23.03-40.73-32.5-62.99-18.26-42.25,25.12-63.39,122.38-73.17,169.43-12.54,66.14-18.34,134.28-41.15,198.01-8.41,22.27-34.96,40.24-52.21,15.55-7.12-9.84-10.23-21.8-13.46-33.34-6.86-27.84-12.32-56.03-17.38-84.24-8.74-46.36-9.96-95.7-31.61-138.47-11.68-24.06-38.2-42.59-65.61-36.44-31.68,8.64-51.83,41.14-63.6,69.88-9.09,23.36-14.77,47.83-19.64,72.36-10.89,49.3-20.04,98.98-28.26,148.8-4.75,21.59-4.71,48.16-20.24,65.19-12.68,12.68-35.33,13.02-49.33,2.29-18.62-15.95-30.56-38.63-50.75-53.01-37.45-28.04-67.32,2.17-78.92,39.08-8.92,23.88-12.05,50.69-27.36,71.69-6.07,7.92-13.95,14.18-22.12,19.81-5.09,4.12-13.05,5.71-16.04,11.91-3.52,13.05,25.76,9.51,35.15,10.95,14.67,1.01,29.35,1.11,44,.47,25.92,1.18,51.84,2.37,77.77,3.02,67.02-.92,133.96-5.94,201.02-6.04,134.08-1.05,268.41,5.01,402.61,8.02,6.09.73,12.21,1.18,18.31,1.66,21.18,1.52,113.92,3.61,60.17-31.38ZM1165.68,1370.15c-3.61,5.66-5.81,12.15-7.76,18.54-1.31,4.92-2.47,9.87-3.5,14.86-.52,2.56-3.12,4.26-5.63,3.73-2.54-.51-4.27-3.08-3.74-5.63,2.79-13.04,5.78-26.67,13.45-37.81,4.08-4.68,11.29,1.58,7.18,6.31ZM1179.67,1386.76c-1.01,5.41-2.16,10.79-3.24,16.18-.5,2.57-3.13,4.26-5.63,3.74-2.56-.51-4.25-3.08-3.74-5.63,1.02-5.11,2.12-10.21,3.08-15.33.77-4.23,1.57-8.47,2.35-12.7.28-2.64,3.19-4.34,5.65-3.85,7.37,2,1.62,12.36,1.54,17.59ZM1435.08,1079.94c2.51-.69,5.15,1.27,5.65,3.71.31,1.48-.12,3.11-1.16,4.21-1.16,2.6-1.92,5.36-2.77,8.08-2.25,7.42-4.12,14.94-6.1,22.43-.52,2.52-3.1,4.3-5.63,3.74-2.44-.49-4.4-3.12-3.74-5.63,1.7-6.45,3.33-12.93,5.16-19.35,2.2-5.31,2.55-15.03,8.59-17.18ZM1406.06,1101.13c3.13-9.13,5.34-19.74,12.58-26.58,5.52-3.42,9.95,4.3,5.76,7.61-4.28,5.53-6.18,12.61-8.4,19.16-2.29,4.7-2.03,16.32-8.97,15.05-7.22-2.09-1.9-10.42-.97-15.23ZM1394.73,1432.9c2.52-2.18,6.07-.6,9.08-.89,14.94.53,29.37.42,44.1.25,6.22-.43,6.92,9.11.69,9.53-8.85.11-17.72.18-26.57.15-6.58,0-13.16-.27-19.75-.42-2.71-.21-5.98.34-7.99-1.89-1.84-1.85-1.43-5.11.43-6.75ZM1453.65,1463.99c-15.96.97-31.9,2.47-47.9,1.89-4.24.25-9.94,1.04-9.97-4.9.64-5.96,7.63-4.4,11.78-4.64,8.91.32,17.8-.02,26.69-.73,6.23-.43,12.47-.71,18.71-1.15,6.21-.38,6.92,9.02.69,9.54ZM1581.64,1360.24c2.37-1.08,4.89.52,7.39-.24,12.34-1.31,22.8-8.27,31.62-16.62,4.7-4.07,10.96,2.98,6.32,7.17-10.42,9.87-23.04,17.7-37.61,19.03-2.73.21-5.89.67-8.28-.94-3.08-1.96-2.81-6.89.56-8.4ZM1637.46,1377.24c-12.35,8.46-26.27,14.91-41.06,17.15-4.23.03-9.99,3.14-13.38-.22-2.22-2.5-1.14-6.63,2.04-7.75,2.16-.6,4.84-.64,6.95-1.03,10.96-1.48,21.43-4.93,30.97-10.45,3.07-1.83,6.13-3.68,9.13-5.63,5.2-3.41,10.5,4.39,5.35,7.93ZM1722.43,998.44c-7-3.16-.29-10.98,1.27-15.74,2.95-5.37,8.82-22.48,16.43-20.36,2.57.84,3.94,3.93,2.85,6.39-1.9,2.63-4.13,4.95-5.63,7.9-3.19,5.8-5.82,11.88-8.47,17.94-.77,2.82-3.58,4.91-6.44,3.86ZM1747.24,987.38c-2.07,5.2-3.95,10.48-5.87,15.75-.89,2.47-3.65,3.82-6.08,2.96-2.43-.83-3.85-3.63-2.96-6.08,1.75-4.73,3.44-9.5,5.26-14.21,1.39-3.64,2.97-7.2,4.62-10.72.62-2.43,3.11-4.15,5.63-3.61,0,0,0,0,0,0,8,2.51.83,11.1-.61,15.91ZM1825.88,1437.25c-3.31-6.45-6.35-13.04-9.45-19.59-2.35-5.97-6.15-11.71-7.09-18.08.03-4.13,5.8-6.02,8.36-2.86,1.35,1.84,1.64,4.47,2.71,6.35,4.37,10.1,9.05,20.07,14.02,29.89,2.73,5.57-5.63,9.85-8.55,4.29ZM1843.8,1428.06c-3.22-8.14-6.45-16.27-9.41-24.51-1.61-4.26-4.13-10.66,2.46-11.71,2.46-.23,4.69,1.66,5.08,4.03,1.36,4.65,3.18,9.17,4.9,13.69,1.95,5.13,3.97,10.24,5.99,15.34,2.02,5.86-6.82,9.04-9.02,3.15Z"/>
      <path class="cls-1" d="M117.23,1453.37c-.15-.14-.3-.28-.44-.43,0,0,0,0,0,0-.17-.12-.33-.24-.49-.36-.11-.05-.21-.1-.32-.15.57.31,1.09.74,1.52,1.26-.09-.11-.19-.23-.28-.34,0,0,0,0,0,0Z"/>
      <path class="cls-1" d="M819.81,1384.89c.1.05.19.1.29.15h0c.3.07.58.17.88.2-.41-.07-.8-.19-1.17-.34Z"/>
      <path class="cls-1" d="M819.29,1384.63c-.45-.26-.85-.58-1.2-.96.34.38.73.74,1.2.96Z"/>
      <path class="cls-1" d="M931.08,1479.47c-3.89-1.67-7.81-3.57-11.59-5.76-45.99-30.87-24.98-110.38-73-144.57-23.37-18.99-56.76-6.12-73.29,15.79-21.54,24.42-36.31,94.12-80.39,64.69-33.16-27.54-35.51-83.65-40.82-123.77-8.02-56.46,12.75-155.31-37.09-192.93-19.4-14.17-47.07-10.75-64.88,4.42-51.38,42.47-62.26,134.03-86.27,193.52-31.23,77.41-67.18,19.46-80.38-30.43-21.42-82.53-13.73-168.6-27.1-252.25-7.62-44.31-34.47-127.31-93.26-110.14-52.47,14.06-77.9,67.53-92.31,115.55-26.23,76.52-31.74,157.38-41.28,237.08-8.3,47-14.05,94.62-27.36,140.55-7.02,21.54-21.74,39.13-35.58,56.62-6.86,10.48-18.8,20.92-18.32,34.24,3.4,13.15,28.05,6.16,39.22,6.95,106.64-4.77,213.34.47,319.92,4.69,40.6,1.06,81.16-.38,121.76.75,55.03,2.9,109.83,4.97,165.01,4.91,42.75.01,85.49-1.57,128.24-1.48,18.08.79,36.18,1.93,54.25.4,15.76-.9,31.53-1.44,47.32-1.77,6.74-.33,20.87.58,18.91-9.67-1.89-4.82-7.61-5.27-11.74-7.39ZM123.32,1427.01c9.68-1.26,19.48-1.34,29.23-1.03,3.18.09,6.36.17,9.55.17,6.22.22,5.97,9.65-.29,9.56-8,.01-16.34-.51-24.21-.24-4.41.17-8.88.37-13.24,1.05-2.39.88-5.21-.4-6.11-2.83-1.31-3.56,1.68-6.55,5.07-6.67ZM164.61,1459.92c-14.89.22-30.82.62-45.4,1.36-3.21,0-7.2,1.1-9.41-1.93-1.6-2.06-.91-5.22,1.15-6.67,3.34-1.7,7.43-.49,11.02-1.04,6.7-.25,13.38-.65,20.08-.87,6.21-.27,12.77-.14,18.91-.27,2.13-.02,4.49-.55,6.25.99,3.19,2.46,1.51,8.23-2.59,8.42ZM210.75,1037.78c-.7,2.52-3.51,3.96-5.94,3.23-7.65-3.35.23-13.89,1.05-19.61,5.25-16.19,12.63-31.67,21.7-46.06,3.65-8.29,15.05-3.04,8.85,4.12-7.69,11.4-13.73,23.96-18.6,36.71-2.6,7.12-5.03,14.31-7.06,21.61ZM260.31,993.97c-3.66,7.08-6.84,14.37-9.62,21.84-3.12,5.1-3.99,22.63-11.68,20.32-2.48-.73-3.99-3.45-3.23-5.94,2.58-8.43,5.46-16.79,8.76-24.97,3.25-5.21,7.71-25.86,16.27-18.98,2.33,2.32,1.14,5.47-.51,7.73ZM405.43,1373.73c-2.22-1.36-2.97-4.34-1.61-6.57,3.03-4.11,12.09-1.75,17.01-3.57,13.57-2.54,25.94-8.95,36.88-17.24,4.91-3.73,10.72,4.01,5.72,7.67-4.06,3.01-8.3,5.79-12.65,8.37-13.42,7.4-29.97,13.62-45.34,11.34ZM475.64,1374.67c-4.54,4.11-9.29,8.02-14.34,11.51-5.02,2.94-26.38,19-29.35,9.8-1.7-4.69,3.29-6.53,6.8-7.75,3.81-1.76,7.48-3.79,11.06-5.96,4.78-2.97,9.35-6.23,13.74-9.75,3.65-2.34,7.08-8.74,12.01-5.85,2.85,1.75,2.93,6.23.07,8ZM592.68,1202.2c-.03,2.6-2.36,4.72-4.92,4.64-2.64-.08-4.67-2.32-4.64-4.92.09-7.5.19-15-.06-22.5-.25-5.63-.64-11.25-1.48-16.82-.98-2.82.12-6.42,3.32-7.05,2.68-.62,5.55,1.26,5.84,4.05,1.26,6.85,1.66,13.85,1.9,20.8.26,7.27.13,14.54.03,21.81ZM618.81,1200.44c-.15,2.6-2.28,4.72-4.92,4.64-2.54-.08-4.8-2.32-4.64-4.92.31-5.25.33-10.4.18-15.22-.69-11.73-.93-23.67-3.98-35.08-.53-1.59-1.31-3.28-.71-4.95,11.34-14.96,13.05,21.35,13.55,27.47.71,9.33,1.1,18.71.52,28.06ZM824.87,1406.89c-1.85-9.16-5.13-17.97-7.99-26.69.16-2.54,2.48-4.71,5.08-4.47,7.06.36,10.15,23.07,12.28,29.2,1.24,6.09-7.95,8.08-9.36,1.96ZM856.1,1405.27c-2.13,3.44-8.01,2.36-8.65-1.7-1.79-12.27-4.77-24.34-7.72-36.37.33-7.38,9.6-6.48,9.93.66,2.97,11.12,5.38,22.38,7.14,33.76.2,1.29.03,2.55-.72,3.65Z"/>
    </g>
    <g>
      <path class="cls-3" d="M1321.83,1345.98c-6.07-4.06-9.5-11.09-14.33-16.45-7.34-9.17-15.08-17.97-23.3-26.35-27.76-27.43-59.86-50.22-93.55-69.79-64.58-36.57-140.03-53.38-214.05-49.29-71.77,4.68-142.76,23.62-207.75,54.31-40.27,19.96-77.71,45.22-113.78,71.92-2.87,2.91-7.74,4.86-10.85,1.15-2.12-2.4-2.08-6.59.55-8.66,11.06-8.72,22.68-16.74,34.23-24.79,23.32-16.08,47.33-31.24,72.37-44.51,156.64-78.28,339.77-91.91,486.43,15.39,28.7,20.21,55.69,43.29,77.58,70.85,3.95,4.8,7.56,9.89,11.59,14.62,2.3.8,4.1,2.91,4.18,5.45.3,4.84-4.92,8.41-9.33,6.16Z"/>
      <path class="cls-3" d="M869.27,1170.45c-8.5-38.81,6.57-79.7-23.99-112.19-18.69-18.9-44.14-33.19-52.45-60.07-5.14-14.58-6.77-30.5-4.22-45.78,1.52-5.51,1.82-14.89,9.02-15.52,6.4.16,7.28,7.05,4.53,11.61-1.55,4.74-2.01,9.74-2.34,14.69-1.31,45.07,23.42,57.83,52.45,84.64,22.97,22.44,27.51,55.39,25.95,86.04.25,10.87.48,20.74,2.37,31.14.56,2.23,1.22,4.63-.07,6.75-2.39,4.62-10.01,3.84-11.24-1.31Z"/>
      <path class="cls-3" d="M936.79,1159.78c-12.92-3.81,8.65-23.76.43-59.43-4.54-21.44-20.45-37.81-28.87-57.63-14.54-33.98-16.13-74.72.73-108.16,1.88-5.02,7.19-11.25,12.54-6.37,4.27,4.1.03,8.62-1.95,12.61-1.99,4.22-3.7,8.55-5.25,12.95-6.55,19.52-6.33,40.82-2.28,60.84,6.01,35.81,39.2,61.31,38.99,98.76,1.06,14.38-2.39,28.47-6.85,42.03-.94,3.23-4.28,5.27-7.49,4.39Z"/>
      <path class="cls-3" d="M995.64,1150.9c-8.92-4.73.77-14.9,2.86-21.26,5.31-10.39,10.49-21.19,10.89-33.07,1.09-22.91-8.61-43.55-13.82-65.25-11.21-41.82,3.15-86.45,37.77-112.78,3.07-3.99,10.3-2.18,10.81,3.01.57,5.66-5.76,8.09-9.03,11.65-3.48,3.27-6.76,6.71-9.87,10.32-10,11.68-16.81,25.75-19.44,40.92-9.66,42.62,23.41,81.72,14.28,124.16-2.28,10.89-7.85,20.57-12.58,30.51-2.69,4.85-4.42,14.46-11.88,11.78Z"/>
      <path class="cls-3" d="M1068.01,1146.8c-9.06-8.28,18.74-19.92,23.45-49.46,3.48-18.55-1.11-37.21-1.6-55.8-1.84-40.18,16.38-80.34,49.39-103.75,3.26-3.47,9.96-1.39,10.38,3.48.33,6.82-8.14,9.01-11.88,13.6-3.87,3.57-7.55,7.31-11.04,11.26-11.16,13.5-19,29.73-22.27,46.96-8.64,40.53,13.55,80.67-14.28,117.37-4.03,5.73-8.85,10.94-13.47,16.2-2.21,2.51-6.35,2.39-8.68.15Z"/>
      <path class="cls-3" d="M1144.54,1165.55c-2.08-2.6-1.65-6.55.97-8.62,6.61-5.25,13.34-10.38,19.61-16.04,4.94-4.49,9.54-9.36,13.17-14.98,11.08-17.34,7.54-38.8,8.69-58.31.45-39.23,27.09-76.52,64-89.45,4.57-1.2,9.9-4.79,14.38-1.85,4.07,2.91,2.74,9.68-2.1,10.87-17.71,4.43-33.11,14.76-44.77,28.61-31.12,35.55-10.59,73.53-26.54,110.79-8.33,17.07-24.28,28.45-38.77,39.96-2.61,2.07-6.52,1.66-8.62-.97Z"/>
      <path class="cls-3" d="M800.1,1167.9c-3.07-42.54-17.2-60.5-52.64-82.11-33.26-20.17-53.21-58.74-47.94-97.61,1.65-6.46-.51-20.43,8.33-21.13,3.38-.03,6.11,2.74,6.19,6.08-1.1,6.9-2.31,13.84-2.67,20.85-2.17,26.57,8.52,53.81,28.97,71.1,15.38,13.24,34.5,21.85,48.25,36.99,13.7,14.69,20.01,34.56,22.57,54.14.08,4.72,2.52,10.15-.08,14.45-2.99,4.3-10.47,2.51-11-2.78Z"/>
      <path class="cls-3" d="M747.98,1189.47c-2.91-35.37-29.35-48.01-56.6-63.92-34.73-20.25-64.68-56.1-61.54-98.36-.18-6.1,1.87-17.04,10.28-13.14,2.95,1.64,3.78,5.27,2.53,8.24-.83,4.82-.69,11.03-.47,15.34,1.62,31.7,24.62,57.52,50.19,74.03,22.85,14.8,51.47,26.22,62.07,53.4,3.03,7.2,4.46,14.95,5.69,22.63,1.17,7.79-11.01,9.7-12.15,1.77Z"/>
      <path class="cls-3" d="M1206.13,1191.84c-4.3-8.1,7.09-10.66,11.97-14.29,10.75-6.39,21.41-13.79,27.77-24.86,10.84-18.74,10.01-41.23,14.02-61.91,6.02-42.23,41.06-73.01,83.82-72.81,6.25-.74,11.07,6.5,5.84,11.12-1.76,1.57-4.22,1.55-6.39,1.12-5.84.07-11.65.94-17.35,2.17-14.89,3.65-28.75,12.26-38.58,24.03-26.16,32.59-9.6,81.72-38.41,112.9-5.99,6.81-13.49,12.03-21.17,16.76-6.01,2.68-16.05,13.46-21.53,5.77Z"/>
      <path class="cls-3" d="M1253.24,1237.57c-.76-4.69,3.38-7.32,7.56-7.56,16.13-4.66,35.18-9.76,44.34-25.08,7.91-12.63,6.9-28.04,8.26-42.32,2.23-30.05,16.77-60.4,42.61-76.94,13.22-7.48,27.49-13.21,42.34-16.46,6.64-1.54,13.39-2.79,20.24-2.56,7.92.75,6.95,12.87-1.09,12.22-12.28.29-23.51,3.9-34.88,7.74-14.05,5.36-27.66,12.49-36.98,24.65-33.1,40.72-8.71,75.68-35.51,107.62-9.37,10.29-22.83,15.59-35.74,19.95-6.5,1.45-18.37,8.38-21.15-1.27Z"/>
      <path class="cls-3" d="M710.8,1223.42c-11.1-36.59-67.67-29.72-102.16-66.52-23.51-22.22-38.43-50.48-42.9-82.55-.87-4.93-1.32-9.92-1.66-14.91-.98-4.2,2.37-8.71,6.9-7.98,2.91.44,5.28,3.1,5.25,6.03.38,5.46.87,10.91,1.85,16.3,2.95,16.52,7.66,32.97,16.84,47.18,12.2,18.15,27.44,35.13,47.06,45.32,17.52,8.9,36.91,13.5,54.29,22.66,12.06,6.28,21.8,16.97,25.97,30,2.84,7.44-8.5,11.96-11.43,4.47Z"/>
      <g>
        <path class="cls-3" d="M1112.05,1229.54c-7.28-2.44-14.63-4.61-21.99-6.78-29.81-8.75-59.86-17.43-91.09-18.99-7.32.62-4.98,9.66,1.99,8.47,37.15,2.58,72.97,14.3,108.36,25.19,2.11.72,4.57-.4,5.31-2.58.74-2.13-.43-4.59-2.58-5.3Z"/>
        <path class="cls-3" d="M1059.51,1237.52c-21.34-6.07-43.08-10.96-65.2-13.15-7.78-2.84-8.88,8.46-.52,8.36,21.85,2.11,42.93,7,64.07,12.97,5.26,1.2,6.96-7.19,1.65-8.18Z"/>
        <path class="cls-3" d="M819.06,1237.11c-9.7,3.07-18.65,8.05-27.84,12.32-14.93,7.05-29.79,14.32-43.62,23.39-1.92,1.22-2.37,3.95-1.12,5.79,1.31,1.94,3.89,2.33,5.79,1.12,5.91-3.74,11.84-7.46,18.05-10.69,14.46-7.4,29.09-14.51,43.87-21.23,3.19-1.86,7.67-1.86,10.18-4.62,2.41-3.43-1.62-7.94-5.31-6.09Z"/>
        <path class="cls-3" d="M812.11,1261.22c-2.8,1.14-5.34,2.85-8.06,4.18-18.08,8.62-34.83,19.52-51.69,30.24-3.57,2.96-12.82,4.23-10.5,10.43,1,1.99,3.63,2.94,5.6,1.86,6.53-3.55,12.94-7.27,19.16-11.35,10.64-7.23,21.71-13.85,33.21-19.63,5.07-2.51,10.02-5.24,15.03-7.85,5.12-1.75,2.31-9.69-2.76-7.88Z"/>
        <path class="cls-3" d="M1273.6,1308.92c-10.88-8.83-21.75-17.68-33.19-25.78-3.54-2.51-7.15-4.89-10.81-7.22-4.35-2.05-11.34-9.72-15.36-3.79-.99,1.97-.2,4.67,1.87,5.6,19.03,10.21,35.01,23.94,51.98,37.45,4.05,3.58,9.6-2.77,5.51-6.27Z"/>
        <path class="cls-3" d="M1259.69,1323.31c-16.33-12.47-32.58-25.37-50.84-34.96-9.29-6.61-13.97,3.46-6.73,6.01,18.9,9.18,35.37,22.61,52.06,35.22,4.03,3.64,9.62-2.81,5.51-6.27Z"/>
      </g>
    </g>
  </g>
  <path class="cls-2" d="M779.57,772.07c-.92-8.83,19.78-23.9,25.71-31.51,4.5-5.56,25.96-24.93,16.99-31.05-10.02-10.74-19.91-21.64-29.01-33.18-4.22-5.63-9.22-11.26-11.13-18.16-1.51-9.18,8.24-10.09,14.18-5.89,18.94,10.19,36.95,22.12,56.05,31.99,4.87-14.15,8.91-42.31,20.87-51.05,5.8-3.12,11.2,2.45,11.48,8.19,2.94,18.5,1.52,37.56,5,55.91,0,0,0,0,0,0,9.08-.82,18.18-1.42,27.29-1.95,8.38.43,33.43-5.5,32.14,8.32-1.82,5.79-8.72,7.36-13.37,10.31-13.83,7.21-27.85,14.11-42.23,20.16,7.58,12.71,16.29,24.9,21.92,38.65,3.19,8.67,14.23,37.03-4.87,31.42-19.8-14.85-32.4-37.94-52.41-52.4-12.2,3.79-75.32,41.11-78.61,20.23ZM835.73,716.14c-6.69,20.65-25.74,34.24-39.81,49.86,80.91-27.19,49.21-46.26,112.72,21.64-3.72-14.85-12.31-27.66-20.26-40.53-2.63-5.6-8.68-10.74-8.43-17.15.76-3.77,4.87-4.07,7.76-5.45,13.35-5.59,26.41-11.86,39.27-18.5-60.43,3.41-45.69,11.27-52.47-55.59-21.3,60.35-2.87,56.54-74.01,17.03,8.4,10.85,17.56,21.12,26.86,31.2,4.66,4.73,10.32,10.18,8.36,17.49Z"/>
  <path class="cls-2" d="M1305.53,727.58c-2.13,8.62-26.71,15.79-34.87,20.94-6.12,3.71-32.87,14.66-26.5,23.46,5.79,13.5,11.4,27.1,16.05,41.04,2.06,6.73,4.86,13.71,4.32,20.85-1.68,9.15-11.17,6.7-15.34.73-14.36-16.01-27.27-33.33-41.9-49.09-9.37,11.67-22.71,36.79-36.93,40.96-6.51.97-9.71-6.1-8.03-11.59,3.51-18.4,11.3-35.85,14.24-54.3,0,0,0,0,0,0-8.82-2.31-17.58-4.83-26.33-7.41-7.74-3.25-33.31-6.15-27.42-18.71,3.68-4.83,10.7-3.97,16.08-5.17,15.46-2.1,30.99-3.84,46.57-4.66-2.83-14.53-6.9-28.94-7.53-43.8-.07-9.23-.85-39.66,15.23-27.91,13.6,20.68,17.63,46.67,31.55,67.06,12.76.56,84.8-13.16,80.81,7.6ZM1233.74,761.18c13.29-17.17,35.82-23.5,54.35-33.42-85.34-1.83-61.98,26.85-98.72-58.55-1.53,15.24,2.21,30.2,5.33,44.99.58,6.16,4.53,13.04,2.12,18.99-1.99,3.29-5.96,2.18-9.15,2.5-14.46.74-28.87,2.21-43.22,4.1,58.01,17.27,46.81,4.88,30.53,70.08,40.49-49.56,21.86-52.22,75.4,9.05-4.23-13.06-9.36-25.82-14.7-38.46-2.78-6.03-6.26-13.08-1.94-19.29Z"/>
  <path class="cls-2" d="M1570.66,923.45c-6.47-2.8-8.02-15.66-10.8-21.88-4.97-14.49-8.09-29.68-14.21-43.75-13.11,1.73-26.32,2.73-39.51,3.65-7.26.43-14.57,1.19-21.84.76-5.29.1-8.92-6.2-5.05-10.28,13.8-10.53,29.72-18.15,44.47-27.29-6.7-6.66-13.5-13.21-20.17-19.91-4.03-4.25-8.6-8.63-10.27-14.41-1.79-5.52,3.39-10.72,8.93-9.21,19.07,5.25,36.7,14.73,55.23,21.5,8.97-15.05,16.78-31.43,29.09-44.07,4.59-4.53,12.23-2.33,12.57,4.43.94,19.42-.99,38.91-2.27,58.29,13.88,4,43.65,6.19,53.02,16.42,2.97,4.28-.64,9.61-5.28,10.49-19.52,4.76-39.99,5.71-59.19,11.76-.87,13.64-1.71,27.29-2.82,40.91-1.08,7.48-.35,24.97-11.9,22.59ZM1549.84,846.89c9.52,2.85,16.64,42.86,21.52,53.87.96-11.85,1.78-23.71,2.5-35.58.1-6.06.37-13.24,7.16-15.52,15.48-5.4,32.12-6.5,48.13-9.76-7.3-1.98-14.7-3.54-22.12-5.05-6.18-1.26-12.37-2.4-18.42-4.25-3.24-.99-4.61-5.21-2.92-8.03.86-16.29,2.34-32.63,2.58-48.97-37.26,55.03-11.12,45.89-78.12,21.93,38.5,38.48,36.18,27.07-8.59,55.07,12.92-.84,25.83-1.88,38.7-3.28,3.16-.22,6.48-1.52,9.59-.42Z"/>
  <path class="cls-2" d="M522.38,941.01c-6.97-1.05-11.78-13.07-16.07-18.37-8.53-12.72-15.45-26.6-24.99-38.62-12.22,5.04-24.73,9.41-37.24,13.69-6.9,2.28-13.77,4.89-20.9,6.35-5.08,1.46-10.21-3.7-7.52-8.63,10.63-13.72,24.05-25.19,35.95-37.81-8.19-4.71-16.45-9.3-24.61-14.06-4.99-3.07-10.53-6.12-13.63-11.28-3.15-4.88.51-11.23,6.26-11.2,19.78.17,39.25,4.79,58.9,6.57,4.79-16.85,8.13-34.69,16.77-50.07,3.27-5.56,11.22-5.4,13.29,1.05,5.9,18.53,9.05,37.86,12.8,56.91,14.44.29,43.77-5.25,55.46,2.23,3.97,3.37,1.85,9.45-2.4,11.5-17.64,9.63-37.18,15.81-54.18,26.59,2.67,13.4,5.37,26.81,7.8,40.25.88,7.51,6.09,24.22-5.68,24.89ZM482.57,872.38c9.93.3,27.11,37.14,34.66,46.52-2.12-11.7-4.38-23.37-6.74-35.02-1.47-5.88-3.05-12.89,2.92-16.84,13.57-9.2,29.37-14.54,44-21.82-7.57-.04-15.11.36-22.67.81-6.3.37-12.57.87-18.89.63-3.38-.13-5.79-3.85-4.89-7-3.36-15.96-6.13-32.14-10.11-47.99-21.85,62.77,1.06,47.2-69.85,41.29,47.1,27.28,41.93,16.85,5.87,55.43,12.26-4.14,24.48-8.46,36.55-13.13,3-1.03,5.88-3.13,9.16-2.87Z"/>
  <path class="cls-1" d="M609.29,538.99c.26-17.91,25.46-26.29,37.52-13.97,6.76,6.48,8.7,23.43-.12,28.79-10.7,14.26-39.59,3.7-37.39-14.82ZM621.52,541.73c2.02,6.88,11.86,7.93,17.2,4.33,9-17.79-18.66-19.91-17.2-4.33Z"/>
  <path class="cls-1" d="M1445.29,627.48c-3.48,6.66-10.26,12-17.86,12.67-13.36-.7-23.42-16.47-19.97-29.08,1.94-5.76,6.14-13.34,13.15-12.86,17.67-8.37,33.97,12.88,24.68,29.27ZM1435.64,618.35c1.36-7.68-5.6-10.87-12.12-9.57-13.31,8.06,6.06,31.56,12.12,9.57Z"/>
  <g>
    <path class="cls-1" d="M1594.52,612.07c-3.17,7.73-14,3.12-11.54-4.64,1.8-16.84,3.57-33.67,5.01-50.55.48-5.33.99-10.66,1.59-15.97.7-7.87,12.64-7.04,12.1.88-2.29,22.89-4.27,45.81-6.83,68.67,0-.34.04-.69-.04-1.01.09.88,0,1.79-.3,2.63Z"/>
    <path class="cls-1" d="M1693.51,570.61c-9.51,16.59-19.3,33.01-28.68,49.68-2.19,3.89-4.44,7.76-6.42,11.77-1.4,5.13-8.28,5.92-10.95,1.68-3.65-6.2,6.38-16.9,8.87-23,8.66-15.31,17.67-30.43,26.4-45.7,3.76-6.96,14.39-1.47,10.78,5.58Z"/>
    <path class="cls-1" d="M1767.27,633.69c-16.94,14.5-32.54,30.48-49.26,45.22-3.1,2.42-4.83,7.43-9.44,6.99-13.26-3.64.2-15.45,5.71-19.98,15.33-13.52,29.55-28.23,45.13-41.47,6.07-5.07,13.83,4.04,7.86,9.25ZM1714.72,681.87c.14-.46.26-.9.3-1.37-.13.8-.35,1.56-.71,2.24.17-.27.27-.58.41-.87Z"/>
    <path class="cls-1" d="M1821.79,705.52c-.97,2.02-3.03,2.86-5.02,3.57-11.1,4.7-21.3,11.25-31.85,17.03-8.38,4.71-16.8,9.35-25.29,13.86-5.15,2.05-9.97,6.77-15.72,6.31-6.23-1.16-6.26-10.66-.07-11.84,14.07-7.13,27.88-14.73,41.58-22.52,9.53-5.27,18.81-11.14,29.06-14.95,4.92-1.9,9.89,4.01,7.3,8.55Z"/>
  </g>
  <g>
    <path class="cls-1" d="M547.98,498.85c7.92-11.15,15.79-22.34,24.13-33.18,3.83-4.68,9.78-14.91,16.3-8.11,3.73,4.58-.78,8.4-3.71,11.73-9.46,11.85-18.12,24.32-26.9,36.69-4.69,6.34-14.39-.63-9.82-7.13Z"/>
    <path class="cls-1" d="M503.76,491.66c.27-13.71-.36-27.42-.1-41.13.08-5.8.25-11.59.31-17.39-.39-7.02,9.89-8.96,11.92-2.1.14,19.47-.21,39.1.07,58.61,1.29,9.08-11.37,11.17-12.2,2.01Z"/>
    <path class="cls-1" d="M434.84,429.27c5.93-1.7,7.93,4.62,9.23,9.04,5.41,14.17,10.8,29.07,15.84,43.18,1.96,5.67,4.46,11.23,5.65,17.12,1.05,7.83-10.77,9.65-12,1.81-5.49-17.32-12.1-34.2-18.34-51.25-1.59-6.13-9.33-16.36-.39-19.89Z"/>
    <path class="cls-1" d="M356.33,453.47c2.52-2.07,6.49-1.73,8.54.86,5.95,7.54,11.8,15.16,17.75,22.7,6,7.6,12.3,14.95,18.64,22.27,3.29,4.99,12.59,11.04,9.4,17.62-2.26,4.27-8.8,4.11-10.81-.31-5.74-7.47-12.25-14.3-18.23-21.57-6.18-7.41-12.09-15.04-18.02-22.66-3.18-5.58-13.93-12.33-7.26-18.91Z"/>
    <path class="cls-1" d="M282.43,502.33c1.54-2.82,5.39-4.1,8.23-2.42,6.01,3.57,12.21,6.6,18.25,9.42,10.08,4.64,20.2,9.23,30.57,13.2,4.82,1.77,13.13,3.75,10.62,10.63-2.87,6.31-8.58,3.17-13.33,1.32-6.73-2.54-13.35-5.34-19.92-8.26-8.92-3.95-17.87-7.92-26.47-12.53-4.35-2.18-11.06-5.5-7.95-11.37Z"/>
  </g>
  <g>
    <path class="cls-2" d="M1680.13,363.85c-4.43-3.46-7.46-8.3-11.53-12.24-16.78-18.65-32.2-40.05-55.75-50.59-40.61-17.86-69.7.69-93.38,33.93-15.05-36.53-29.24-77.48-68.99-93.57-27.73-11.84-60.06-.91-79.8,20.64-19.29,20.72-24.22,50.01-24.47,77.36-25.04-18.67-63.28-18.38-84.37,6.16-6.99,7.26-25.19,33.68-15.09,42.23,2.39,1.64,5.41,1.09,7.43-.61,35.75-2.2,71.61-2.45,107.44-3.29,61.16-2.07,122.44-3.79,183.66-2.96,25.17,1.85,50.83-.69,76.13.21,19.17-.55,38.82,1.6,57.71-2.19,7.18-2.19,6.39-11.3,1.01-15.07Z"/>
    <path class="cls-2" d="M658.7,199.98c-36.21-34.04-76.92-35.24-110.89,2.46-14.85-31.08-25.33-68.48-55.2-88.7-27.18-15.75-62.72-4.99-83.04,17.16-16.22,16.09-21.21,38.87-26.57,60.23-37.68-38.52-78.74-26.59-105.55,16.6-5.56,8.15-10.4,16.78-16.07,24.85-1.99,2.61-5.32,4.45-4.4,8.26.61,1.69,1.4,2.81,2.31,3.49-.34,1.94.3,4.09,1.88,5.39,3.61,2.48,8.34,1.11,12.46,1.32,17.33-.57,34.37-.9,52.07-.87,82.02,1.77,164.04,1.97,246.07,2.81,15.52.13,31.05.09,46.56-.22,11.98.5,23.96,1.04,35.94,1.36,67.92,1.82,33.88-25.86,4.43-54.12Z"/>
    <path class="cls-2" d="M1183.29,134.57c9.6.03,19.21-.13,28.8-.55,8.9-.83,18.45.03,26.84-3.43,15.09-8.59-8.65-26.85-16-33.26-21.37-16.87-47.7-8.85-66.64,7.5-13.71-17.39-24.83-40.24-47.97-46.33-29.67-7.77-65.97,10.7-71.42,42.14-19.37-9.59-42.73-12.61-59.61,3.48-4.8,3.89-16.63,17.58-17.29,26.63-4.08,3.87.15,10.9,6.79,9.39,62.33-4.87,124.9-4.7,187.45-5.76,9.68.13,19.37.24,29.05.18Z"/>
    <path class="cls-2" d="M1022.27,324.59c-16.26-11.9-37.6-18.22-57.69-15.78-1.17-17.9-19.59-31.18-36.96-28.19-16.07,1.78-26.66,16.01-32.09,30.13-20.91-8.57-44.97-1.88-61.43,12.79-5.94,5.06-16.2,12.88-6.11,19.66,7.62,3.97,16.61,4.02,25,4.93,14.12.99,28.24,1.91,42.36,2.87,28.58,2.16,57.13,4.27,85.81,4.03,9.43.07,18.89.15,28.31-.41,7.3-.64,15.02-.59,21.88-3.42,10.53-7.42-2.14-21.27-9.09-26.61Z"/>
    <path class="cls-2" d="M1876.26,175.39c-6.5-8.91-13.5-17.58-22.19-24.46-23.6-19.36-47.93-15.1-69.82,4.31-4.07-13.62-8.56-27.37-17.07-38.95-9.27-12.55-23.43-23.18-39.72-22.17-26.02.97-44.96,27.89-42.32,52.83-10.41-8-24.1-11.69-36.99-8.49-8.61,1.71-15.28,7.57-21.92,12.88-8.37,7.66-14.79,17.3-19.58,27.54-5.74,10.68-.06,15.44,10.86,14.23,55.96-.25,111.84,4.39,167.8,4.5,15.5-.71,90.04,2.97,95.88-7.53,3.19-5.33-2.11-10.49-4.94-14.7Z"/>
  </g>
</svg>