<?xml version="1.0" encoding="UTF-8"?>
<svg id="Camada_1" data-name="Camada 1" xmlns="http://www.w3.org/2000/svg" viewBox="0 0 2000 2000">
  <defs>
    <style>
      .cls-1 {
        fill: #a62317;
      }

      .cls-2 {
        fill: #1d0809;
      }

      .cls-3 {
        fill: #edae1a;
      }

      .cls-4 {
        fill: #dfb08c;
      }
    </style>
  </defs>
  <path class="cls-2" d="M322.9,862.52c5.68,51.3,17.99,103.26,44.73,147.88,21.65,35.19,54.49,63.21,93.18,77.94,5.8,1.89,19.62,7.92,26.83,7.75,2.75,167.43,14.51,334.69,10.08,502.25-.85,58.8.5,117.63-1.89,176.4-.42,11.09-.88,22.18-1.53,33.25-.3,4.96,6.67,7.91,10.03,4.16,6.92-45,3.54-92.73,4.73-138.65.09-94.84,2.36-189.71-.2-284.53-5.1-145.43-11.88-290.82-10.16-436.37,2.63-70.76-12.02-254.7,27.06-305.31,1.42-.31,2.57-.77,3.48-1.33.27.05.55.1.82.15-10.8,26.18-9.52,55.68-9.57,83.53.88,46.57,3.32,93.31,6.72,139.7,6.48,119.95,9.31,240.09,13.97,360.13,6.43,161.83,3.82,323.78,5.58,485.68.31,22.38.72,44.77.65,67.16-.01,3.2,2.68,5.88,5.88,5.88s5.87-2.67,5.88-5.88c-2.16-131.59-.56-263.21-2.23-394.81-2.22-142.79-9.22-285.43-13.57-428.14-2.14-75.39-9.93-150.49-11.06-225.92-.33-25.99-1-52.7,6.51-77.85,1.68-4.48,3.54-9.22,7.24-12.35,31.7,49.05,24.15,197.06,24.1,256.81.68,95.54,6.69,190.98,6.5,286.54-.55,167.07,9.63,333.87,15.46,500.78,1.47,34.62,4.95,69.2,4.61,103.87-.05,3.2,2.72,5.88,5.88,5.88s5.82-2.67,5.88-5.88c-5.56-158.51-14.85-317.02-18.61-475.63-1.84-120.46-2.08-240.93-7.14-361.32-3.81-100.2,9.8-203.16-17.75-300.99-.5-1.49-1.01-2.89-1.53-4.22,1.28-.07,2.57-.14,3.86-.24,22.38,26.57,19.96,73.43,25.22,105.8,18.89,148.85,11.4,298.88,16.21,448.46.24,117.4,13.43,234.07,20.16,351.16,2.84,60.12,6.44,120.19,7.55,180.37,2.12,22.14-1.07,45.95,4.1,67.19,3.36,3.62,10.31.93,10.03-4.16-3.44-94.84-6.16-189.72-12.41-284.44-4.17-59.09-9.37-118.1-12.99-177.19,26.77-2.91,51.77-23.79,69.57-42.89,15.75-18.21,25.48-40.49,32.05-63.5.21-.03.43-.08.65-.13,33.44-6.06,61.15-31.61,72.99-63.07,9.31-26.82,12.61-63.81,4.07-91.1-4.18-14.7-18.89-29.18-33.21-16.27-10.71,11.52-8.53,36.99-12.4,52.42-3.56,17.65-10.78,35.23-23.3,48.24-.02-12.06-.52-24.13-1.05-36.15-.89-30.32-4.03-60.55-9.09-90.45-3.62-19.09-7.71-42.73-26.56-52.61-10.98-5.84-23.87,1.56-28.51,12.15-3.75,8.45-4.34,17.89-5.05,27-1.36,28.32-.87,56.69-.92,85.04.91,42.29,2.89,87.17-16.32,126.11-5.56,11.68-14.49,22.42-26.54,27.39-.33-11.24-.57-22.48-.68-33.73-5.61-145.83,2.9-292.33-13.37-437.58-3.5-34.15-5.97-68.5-12.38-102.26-2.46-11.61-5.31-23.41-11.51-33.66-.84-1.52-1.73-2.97-2.66-4.36,4.21-1.22,8.21-3.04,11.76-5.85,14.86-8.79,1.45-21.19-4.45-11.42-5.73,5.2-11.1,6.57-15.92,7.11-.74-.68-1.49-1.33-2.25-1.95,7.66-4.45,14.77-10.08,18.25-18.12.94-6.34-7.93-9.22-10.97-3.65-4.69,6.79-11.77,11.26-19.09,14.83-.08-.03-.16-.07-.24-.1,4.81-7.93,8.92-17.69,6.62-26.92-2.09-5.46-10.71-4.54-11.39,1.36,1.11,7.53-2.08,14.85-6.25,21.04-.38.66-.62,1.32-.75,1.96-1.13-.07-2.27-.07-3.4-.04-.91-5.35-1.41-10.75-1.44-16.18-.06-1.93-.02-3.89-.25-5.81-1.21-7.6-12.49-6.09-11.65,1.59.13,7.51.5,15.04,1.72,22.44-2.47.81-4.93,1.86-7.37,3.16-5.32-4.79-8.66-12-11.13-18.55-2.27-7.37-13.25-4.35-11.34,3.12,2.52,7.48,6.74,15.95,12.61,22.26-2.22,2.39-2.28,4.95-1.12,6.84-3.32,4.45-6.68,11-9.73,20.4-11.08,33.34-13.19,68.81-14.85,103.67-3.02,70.8-1.55,141.67-1.27,212.51-1.44.53-2.9.99-4.59.57-17.92-1.17-34.9-9.48-48.61-20.82-16.84-14.87-25.07-35.42-30.13-56.87,44.39-13.76,57.65-85.3,45.16-124.68-4.56-13.67-20.59-28.2-35.02-18.8-14.09,9.45-10.35,28.76-11.1,43.38-.21,12.05-1.59,24.89-6.66,35.77-.61,1.13-1.24,2.26-1.89,3.37-2.36-20.66-4.46-41.35-6.75-62.01-2.09-13.89-2.67-28.39-7.68-41.61-7.29-16.79-24.78-18.86-37.3-5.99-28.48,26.83-21.8,93.19-19.61,129.91ZM686.29,991.5c.08.38.18.77.34,1.13.67,4.4,1.03,8.85,1.56,13.26,1.61,14.86,3.53,29.68,4.86,44.56,6.37,57.19,6.35,116.46-12.63,171.23-10.15,26.24-22.08,55.35-48.22,69.25-2.76,1.81-6.49,1.65-9.25,3.26-.36-7.81-.67-15.62-.95-23.44,1.68-.52,3.29-1.25,4.59-2,6.64-3.2,13.26-6.82,18.18-12.43,23.62-26.01,28.88-62.86,31.58-96.63,1.35-28.96-.91-57.96-.13-86.94.78-24.29-1.86-49.29,4.03-73.06,1.56-4.17,3.67-6.84,6.04-8.2ZM776.83,1072.57c.51-1.74,1.15-3.08,1.88-4.09-.04,3.02-.18,6.03-.35,9.04-.63,8.84-1.83,17.62-3.1,26.39-3.92,23.13-6.47,47.81-18.98,68.17-5.16,8.08-13.31,13.91-21.85,17.89.52-5.64.85-11.31,1.03-16.97.71.08,1.44.03,2.19-.22,8.39-4.07,14.33-14.32,19.3-21.99,9.2-15.77,13.67-33.76,15.81-51.77,1.19-8.83,1.59-17.87,4.08-26.46ZM730.15,1216.96c.38-1.61.76-3.23,1.12-4.84.61-3.09,1.13-6.19,1.59-9.29.8.03,1.65-.12,2.56-.47,24.76-9.34,37.4-29.4,43.29-54.3,6.04-24.07,9.86-48.8,11.57-73.55.03-.74.08-1.55.13-2.4.24.45.47.91.68,1.4,4.2,8.58,5.6,18.13,6.28,27.57.89,19.42-1,39.16-6.63,57.8-5.24,14.6-13.56,28.31-25.05,38.82-8.9,7.83-19.33,13.83-30.47,17.84-1.65.6-3.35,1.04-5.06,1.42ZM624.52,1324.28c-.38-6.59-.73-13.18-1.07-19.77.97.49,2.09.7,3.28.46,12.35-2.25,22.7-10.49,31.37-19.16,13.92-14.02,21.82-32.64,29.65-50.47,26.67-66.6,22.93-139.28,14.59-209.13-1.15-9.71-2.22-19.42-3.32-29.13-.06-.79-.13-1.63-.22-2.49,1.26,1.25,2.46,2.76,3.58,4.51,10.65,17.35,11.55,38.53,14.83,58.15,2.15,14.69,3.58,30.05,4.61,44.74,1.93,44.58,6.3,90.87-9.17,133.67-12.05,37.8-33.93,63.98-68.74,82.71-6.06,3.16-12.63,5.12-19.4,5.91ZM487.17,1057.24c-2.61-1.07-6-1.34-8.46-2.12-8.19-2.23-15.23-4.91-22.68-8.55-30.54-15.86-54.26-42.34-69.4-72.91-21.57-43.07-31.11-91.33-34.55-139.1-.46-22.09-2.54-52.65,5.12-76-1.46,9.61-2.52,19.28-2.89,29-1.44,30.42,3.84,60.66,8.85,90.55,8.24,48.89,25.77,100.95,67.94,130.71,14.16,10.27,30.14,18.07,46.95,22.88,2.73.97,6.32,2,9.03,1.14,0,8.14.03,16.27.09,24.41ZM420.27,769.69c.07.62.24,1.26.53,1.92,1.98,24.11,4.78,52.12-4.89,74.72-3.89,8.58-10.91,15.09-18.74,20.11-.31-2.44-.61-4.88-.92-7.32,6.1-5.28,11.14-16.31,13.22-22.03,6.07-17.06,4.75-35.33,5.35-53.1.09-7.67,2.32-12.38,5.45-14.31ZM401.33,891.71c-.85-4.44-1.6-8.89-2.3-13.3.78-.08,1.61-.34,2.44-.81,25.66-14.37,32.86-39.73,32.82-67.51.16-9.73-.2-19.49-.81-29.2-.26-2.23-.3-4.55-.48-6.86,1.38,1.66,2.69,3.68,3.86,6.09,4.88,12.04,5.04,25.58,4.71,38.41-1.75,18.95-6.44,38.24-17.11,54.23-5.65,8.28-13.28,16.14-23.14,18.94ZM486.62,981.02c-.62.61-1.12,1.36-1.45,2.21.04-.11.08-.22.12-.34h0c.33-.69.75-1.37,1.34-1.88ZM487.12,992.51c.02,9.24.01,18.48-.04,27.73,0,.58,0,1.15,0,1.73-.2-.07-.4-.14-.6-.18-4.38-1.04-8.7-2.38-12.96-3.84-11.06-4.01-21.7-9.23-31.48-15.77-56.56-37.53-66.23-110.94-74.23-172.97-3.77-26.94-1.81-54.23,2.97-80.86,1.33,5.4,1.81,11.37,2.6,15.2,2.14,13.96,3.58,28.01,5.01,42.06,4.73,38.93,6.71,78.66,18.45,116.31,8.73,30.05,31.25,55.11,60.96,65.48,5.83,2.35,19.76,6.35,29.33,5.11ZM352.73,739.29c-24.22,43.87-10.61,139.54,3.03,186.58,14.92,55.92,48.27,111.85,103.51,135.07,7.66,3.13,15.58,5.52,23.68,7.19,1.44.54,2.98.47,4.32-.06.05,5.46.12,10.92.2,16.38-5.41-1.22-10.72-2.85-15.97-4.65-21.37-7.63-41.6-18.81-58.7-33.8-41.16-35.87-60.58-88.51-71.45-140.57-7.07-33.3-21.01-141.96,11.39-166.15Z"/>
  <path class="cls-2" d="M1068.79,1045.77c7.01,34.91,22.48,69.89,50.31,93.08,3.49,2.87,7.2,5.47,10.99,7.95,2.15,1.44,5.02,3.46,7.8,4.38.54,13.43,1.59,26.83,3.77,40.12,7.4,45.52,24.72,90.65,54.95,125.94,12.78,14.23,27.49,26.89,43.71,37.04,8.15,4.95,17.03,8.71,25.86,12.28.24.1.48.17.72.24-7.76,112.91-6.38,226.12-9.96,339.19-2.38,63.88-10.83,126.9-15.42,190.57-1.2,17.9-2.76,35.82-2.75,53.77.03,3.2,2.65,5.88,5.88,5.88s5.91-2.67,5.88-5.88c1.68-75.63,13.58-150.61,17.27-226.13,4.95-88.68,1.9-177.6,6.22-266.31,3.25-59.36,5.09-118.85,12.62-177.88,7.32-59.37,15.32-118.75,17.54-178.59,4.11-62.38,5.94-124.86,4.26-187.37-2.54-78.71-6.72-159.99,18.26-235.77,3.79-15.9,18.59-33.83,34.34-38.62.15.05.31.1.46.15.27,1.12.85,2.15,1.77,2.93-4.29,4.82-7.92,10.98-8.86,14.29-12.04,31.88-11.23,66.82-12.85,100.4-1.28,54.93-.77,109.91-2.41,164.84-5.13,125.04-11.46,250.12-10.58,375.31.8,125.91,6.79,251.77,2.63,377.71-.69,77.94-4.75,155.78-10.54,233.49-.94,14.41-1.5,28.86-3.09,43.22-.33,3.18,1.78,6.18,5.02,6.62,3.08.42,6.3-1.83,6.62-5.02,17.14-203.36,17.57-407.67,11.22-611.54-1.72-138.79,4.25-277.47,10.36-416.08,2.33-68.7.33-137.52,4.17-206.16,1.79-20.81,2.96-42.4,11.84-61.62,1.17-2.21,2.45-4.39,4-6.35,5.84,33,2.54,67.15,3.49,100.53,1.81,107,7.21,213.97,3.88,321.01-.64,175.16,5.19,350.31,4.22,525.5-1.51,106.85.89,213.72-1.95,320.57-.14,5.62-.05,11.28-.68,16.87-1.07,7.16,10.7,9.42,11.64,1.6,8.36-313.18-3.66-626.5-.45-939.69.71-94.5-5.57-188.89-4.92-283.38-1.12-22.85,1.78-47.45-4.75-69.56,1.35.04,2.7.05,4.06.03,1.58,1.52,3.11,3.3,4.57,5.38,8.03,13.51,7.97,31.46,9.56,46.16,1.41,24.23,2.14,48.5,3.47,72.73,3.67,69.09,8.9,138.1,11.84,207.23.47,8.21,1.1,16.41,1.6,24.62.02.19.05.36.08.54-1,1.02-1.64,2.4-1.61,3.99.05,2.06.92,3.46,2.2,4.46-1.88,93.35,4.7,186.49,8.79,279.7,4.96,123.65,5.95,247.45,13.61,370.99,4.75,80.24,8.99,160.53,12.09,240.85.55,17.86.67,35.74,1.85,53.57.23,3.2,3.59,5.43,6.62,5.02,3.72-.51,5.68-4.26,4.95-7.75-1.11-18.74-1.2-37.53-1.82-56.28-3.35-81.71-7.61-163.4-12.5-245.03-6.13-102.79-7.82-205.75-11.12-308.65-2.43-82.37-8.34-164.63-10.38-246.98,4.3-.03,8.61-.25,12.89-.6,33.69-2.45,62.67-25.17,79.77-53.36,14.48-24.87,18.94-52.97,20.38-81.14,1.85-39.69,2.5-79.44,1.91-119.17-.23-20.53-.75-41.07-2.55-61.54-1.35-14.58-2.69-29.77-9.65-42.92-4.88-10.04-17.66-19.17-28.58-12.68-18.84,10.7-16.96,39.67-19.04,58.57-.93,14.88-2.17,29.73-3.53,44.58-.74,8.33-1.52,16.66-2.28,24.99-6.8-15.06-7.89-36.29-10.47-50.9-2.91-12.06-2.64-35.48-16.95-39.19-21.22-2.69-23.8,28.02-24.35,43.18.02,25.84,8.15,51.18,19.57,74.15,2.84,5.97,18.12,32.4,27.91,33.35-1.69,24.85-1,51.38-11.38,74.33-5.66,13.4-20.67,17.25-33.91,14.62.03-1.08.04-2.16.07-3.23-.04-3.68.59-8.72-1.64-11.44-3.98-73.15-8.51-146.27-12.72-219.42-3.22-38.26.26-77.89-10.45-115.08-1.28-3.36-2.84-6.4-4.64-9.13,8.43-1.83,20.16-6.49,20.29-15.06-.41-4.1-5.39-6.53-8.88-4.34-1.85,1.01-2.23,3.13-4.11,4.04-3.82,2.36-7.98,3.7-12.3,4.42,3.13-2.79,5.88-5.98,7.89-9.67,2.18-5.2,6.62-12.59,2.51-17.75-1.85-1.86-4.8-2.22-6.98-.99-2.14,1.15-3.01,3.38-3.17,5.63-.88,4.13-2.56,8.15-5.35,11.36-2.51,2.69-5.41,5.02-8.5,7.01-.18.11-.34.22-.5.34-.6-.2-1.2-.39-1.81-.56,3.38-7.64,7.67-15.09,8.89-23.32,0-3.2-2.67-5.88-5.88-5.88-4.44-.07-5.78,4.09-6.48,7.68-1.35,3.55-2.95,7.02-4.46,10.51-.31.72-.63,1.43-.94,2.15-.44-1.43-.83-2.87-1.15-4.33-.69-3.98-1.27-7.99-1.31-12.03.6-4.05-2.35-8.24-6.72-7.62-8.61,1.24-4.01,15.64-3.56,21.54.16.88.36,1.76.57,2.64-2.48-2.64-4.82-5.39-6.91-8.35-2.69-3.55-4.05-8.02-6.85-11.44-3.39-3.54-9.72-1.76-10.33,3.19-.59,3.22,2.34,5.26,3.34,8.03,1.88,3.6,4.13,6.98,6.62,10.17-.69-.38-1.37-.77-2.04-1.19-3.63-2.65-6.89-5.8-9.99-9.04-1.09-1.57-2.23-3.16-4.2-3.63-4.25-1.28-8.53,2.97-7.25,7.24,1.95,4.73,6.52,7.8,10.04,11.33,4.11,3.96,9,6.62,14.19,8.66-16.32,9.81-25.11,27.92-30.49,45.54-20.81,68.46-20.72,140.91-17.56,211.76,3.1,83.01-.63,165.95-5.91,248.78-1.72,23.53-4.26,46.98-7.04,70.4-1.86,15.62-3.82,31.23-5.73,46.85-22.99-2.04-40.97-20.88-50.59-40.79-14.28-27.61-15.26-59.08-16.19-89.49-2.53-37.8-1.07-75.65.18-113.46-.1-28.22.69-56.45.41-84.66-.36-9.67-.82-19.7-5.64-28.34-5.04-10.15-18.4-17.22-29.31-12.63-28.08,16.63-28.17,55.45-31.89,84.31-2.94,32.86-6.04,65.76-7.12,98.74-25-17.15-24.58-52.57-24.16-80.08.13-9.6.51-19.22.18-28.82-.15-9.41-.77-20.92-10.22-25.8-12.47-7.98-23.65,2.5-28.51,13.91-12.51,29.63-11.32,63.8-5.81,94.96ZM1450.48,860.71c1.68,3.74,3.62,7.37,5.87,10.82,3.41,4.89,12.66,15.98,19.18,17.02-.26,3.87-.5,7.74-.71,11.61-1.27-1.13-2.51-2.25-3.35-3.42-9.32-10.5-15.75-23.06-20.99-36.02ZM1438.67,800.27c.55-4.58.96-9.52,2.11-14.17-.26,2.56-.5,5.12-.7,7.68-.55,9.71.53,19.43,1.24,29.11.88,9.47,2.54,19.07,5.48,28.21-.05-.13-.09-.25-.14-.38-5.42-16.2-9.05-33.3-8-50.45ZM1476.83,871.35c-.13,1.54-.25,3.09-.37,4.63-10.52-8.03-16.75-20.57-19.73-33.33-3.04-10.25-3.89-21.04-4.55-31.64-.78-9.1-.53-18.21.66-27.26,3.11,12.39,4.96,32.54,5.66,35.26,3.01,17.38,5.18,36.55,16.58,50.72.55.67,1.14,1.2,1.76,1.61ZM1505.63,737.45s0,.05,0,.08c-.4,7.35-.64,14.72-.78,22.08-.84,31.15.07,62.28.7,93.42.74,31.83.34,63.81-6.25,95.1-4.6,22.71-10.04,45.92-23.26,65.32-8.76,12.5-20.01,24.47-34.64,29.8-4.23,1.42-8.57,2.46-12.97,3.2-.03-10.83.04-21.66.22-32.5,13.09,2.21,27.87-.4,37.21-10.39,17.85-20.86,17.03-50.65,19.38-76.58,1.26-32.69,3.91-63.77,6.99-96.04,2.91-25.63,2.95-51.59,6.8-77.1.91-6.35,3.32-12.71,6.59-16.4ZM1428.87,1084.17c-.17-8.59-.29-17.19-.37-25.78,30.16-3.31,53.37-27.06,65.92-53.44,9.58-19.95,14.03-41.76,18.06-63.38,8.16-45.64,4.29-92.14,3.74-138.21.03-20.44.11-40.89.95-61.32,0-1.57.19-3.24.32-4.88,1.55,1.55,3.12,3.76,4.7,6.76,6.68,14.6,7.06,31.11,8.42,46.87,1.41,20.06,1.7,40.17,1.84,60.27.31,29.55-.09,59.11-1.17,88.65-.68,18.69-1.11,37.51-4.97,55.87-5.17,29.57-21.18,56.8-45.97,74.02-15.11,10.31-33.3,14.84-51.46,14.58ZM1137,1084.66c-.07,4.88-.1,9.76-.07,14.65.05,2.17.09,4.34.12,6.51-2.81-1.51-5.54-3.2-8.18-4.98-3.87-2.54-7.35-5.62-10.4-9.11-15.81-19.49-25.68-44.2-27.84-69.19-.88-16.97,1.57-33.97,4.72-50.61,1.4-6.55,3.12-13.02,5.25-19.37,2.36,9.05.45,24.37.91,32.34-.53,30.25-1.95,64.53,19.84,88.41,2.87,3.56,9.84,9.79,15.65,11.36ZM1270.16,1324.43c-.36-.16-.73-.31-1.09-.43-10.75-5.82-20.97-12.76-30.32-20.63-43.29-41.05-67.18-100.26-70.29-159.38-2.51-43.82-.65-87.8,3.22-131.48,1.37-20.57,3.46-41.07,6.45-61.45-.81,12.2-1.58,24.4-1.86,36.61-3.02,60.96-6.47,122.71,5.35,182.98,7.01,35.74,17.8,72.42,43.5,99.41,9.94,10.6,21.46,19.96,34.44,26.58,3.4,1.39,8.66,4.26,12.91,4.5-.83,7.76-1.6,15.52-2.31,23.29ZM1276.06,1269.57c-.79,6.62-1.56,13.25-2.31,19.88-.87-.3-1.78-.55-2.65-.77-2.55-.91-5.07-1.95-7.5-3.13-11.93-6.44-22.08-15.01-31.17-24.91-22.28-24.13-31.78-56.32-38.41-87.78-12.59-60.78-9.08-123.18-6.02-184.74.84-20.3,1.97-40.57,3.24-60.84.51-8.13,1.21-16.27,1.17-24.42,2.4,2.42,3.97,5.7,5.08,9,4.4,23.21,1.14,47.75,1.76,71.33.48,37.76-2.48,75.46-1.58,113.22,1.52,28.72.85,57.76,5.54,86.19,5.06,25.55,15.35,51.37,34.77,69.39,10.55,8.87,24.03,16.88,38.08,17.59ZM1155.69,978.49c2.01-18.7,3.25-37.74,8.91-55.78,1.99-4.91,5.52-13.34,10.34-18.7-1.82,7.14-3.2,14.39-4.5,21.65-5.98,30.91-8.83,62.25-11.07,93.61-4.04,51.81-6.67,104.44.75,156.05,5.86,35.48,19.13,69.74,39.46,99.45,11.14,16.73,24.04,32.72,40.39,44.62,8.67,5.99,17.35,12.23,26.99,16.59.7.31,1.44.45,2.17.46-.31,3.9-.61,7.81-.88,11.72-.17,2.12-.32,4.24-.48,6.36-8.76-3.63-17.49-7.45-25.34-12.81-39.12-25.51-63.78-64.13-78.45-107.68-10.89-32.46-14.75-66.78-14.72-100.89-2.06-51.65,1.48-103.23,6.44-154.62ZM1077.08,994.2c.85-10.77,1.99-21.66,5.49-31.94,1.49-3.45,3.7-9.92,6.88-13.55-.88,2.46-1.46,5.08-2.3,7.51-1.48,5.05-2.67,10.15-3.71,15.32-3.5,19.58-6.33,39.66-3.78,59.53,2.76,18.8,9.65,37.1,19.29,53.44,6.87,11.79,16.04,22.4,28.07,29.09,2.94,1.77,6.84,4.47,10.17,4.33.07,6.56.14,13.13.28,19.69-.93-.52-1.76-1.04-2.4-1.59-4-2.7-7.84-5.58-11.47-8.75-35.7-33.36-49.06-85.45-46.53-133.08Z"/>
  <g>
    <path d="M472.82,226.3c3.69,2.84,6.85,6.37,9.21,10.38,4.65-6.63,8.95-13.5,13.44-20.24-7.61,3.12-15.18,6.39-22.66,9.85ZM340.93,411.54c-7.5,4.38-16.74-1.88-20.57-8.49-3.45-6.32-4.23-13.87-3.37-20.93-20.39,3-29.41-13.19-21.01-30.82-9.8.65-20.35-3.08-26.1-11.34-4.4-6.1-5.59-16.49,1.4-21.18,4.84-2.67,10.73-2.28,16.05-3.31,4.19-.6,8.35-1.31,12.48-2.22,14.65-3.6,29.8-8.22,41.44-18.22-14.04-7.7-23.4-23.67-21.18-39.81-17.09-1.94-27.54-17.97-24.78-34.51-24.35-4.38-38.5-29.58-16.22-47.14,17.75-14.18,60.28-10.03,80.47-1.92,26.86,10.58,42.46,36.31,62.1,55.82,9.65-4.94,20.13-9.44,31.2-8.75,2.94.16,5.82.71,8.59,1.6.49-1.21,1.45-2.31,2.98-3.06,9.9-3.99,31.71-16.39,41.13-14.16,7.51,1.94,6.94,9.94,2.8,14.97-3.38,5.56-7.05,10.94-10.64,16.37-2.62,4-5.24,8-8.08,11.85-.88,1.32-1.87,2.72-2.96,3.92,2.83,18.23-8.37,34.42-18.21,48.94,14.23,23.28,31.02,46.55,36.16,73.85,3.53,21.6-7.04,53.91-23.73,68.29-15.75,12.01-29.59-2.46-32.66-18.39-12.07-2.35-21.85-12.16-21.38-24.9-13.08-.39-24.36-11.67-21.64-25.1-10.79-1.5-20.68-8.99-23.94-19.55-12.06,9.21-21.95,21.25-28.07,35.17-3.62,7.83-4.8,17.71-12.27,23.02Z"/>
    <path class="cls-4" d="M482.01,372.21c5.02,4.43-.91,8.73-4.09,11.94-6.27,6.05-12.84,11.78-19.23,17.71-4.7,4.38-11.38-2.36-6.89-6.96,4.14-3.78,8.27-7.57,12.42-11.35,3.75-3.4,7.46-6.85,10.96-10.51,1.66-1.99,4.69-2.49,6.82-.82Z"/>
    <path class="cls-4" d="M453.56,350.17c3.57-2.52,8.7-8.25,12.7-3.35,1.59,2.11,1.18,5.28-.98,6.86-3.81,2.67-7.49,5.54-11.01,8.59-5.23,4.53-10.2,9.33-15.2,14.11-1.92,1.84-5.03,1.89-6.92-.04-1.86-1.87-1.9-5.08.03-6.93,6.92-6.63,13.85-13.29,21.38-19.24Z"/>
    <path class="cls-4" d="M436.03,324.63c3.38-1.98,7.93,1.06,7.23,4.98-1.49,4.89-6.79,7.49-10.29,10.89-4.86,4.03-9.84,7.9-14.73,11.89-5.19,3.76-10.92-3.8-5.88-7.83,8.4-6.84,16.31-12.72,23.67-19.93Z"/>
    <path class="cls-4" d="M354.9,262.31c7.8-5.88,15.26-12.21,22.98-18.19,3.1-1.86,5.73-5.8,9.64-5.49,5.47,1.04,5.36,7.7.71,9.89-9.32,6.99-18.15,14.61-27.45,21.63-5.23,3.73-10.94-3.85-5.88-7.83Z"/>
    <path class="cls-4" d="M325.4,230.96c8.95-7.15,17.8-14.46,27.06-21.22,6.8-6.66,14.37,2.31,7.2,6.9-9.77,6.97-18.97,14.7-28.38,22.15-5.22,3.74-10.92-3.84-5.88-7.83Z"/>
    <path class="cls-4" d="M311.9,200.62c3.9-3.02,7.89-5.98,12.06-8.59,7.2-4.37,11.63,6.09,3.66,9.24-3.39,2.25-6.62,4.71-9.84,7.18-5.23,3.74-10.92-3.85-5.88-7.83Z"/>
  </g>
  <g>
    <path d="M1410.94,293.89c.44-3.19,1.3-6.3,2.61-9.22-5.71-.16-11.42-.24-17.13-.03,4.66,3.34,9.53,6.4,14.52,9.24ZM1658.65,402.72c-1.98,11.14-13.45,26.81-22.71,11.68-13.2-27.68-42.28-41.69-71.2-47.79-1.03,7.16-4.66,14.01-9.54,19.48,12.36,14.31,5.31,29.99-10.5,37.33,10.69,16.81,10.35,29.55-6.71,41.53,4.9,6.26,8.79,13.79,8.56,21.92-.23,9-6.18,19.79-16.23,19.83-11.04.29-21.66-3.61-31.18-8.92-12.99-7-24.24-17.28-31.48-30.21-9.81-17.29-17.7-36.21-20.16-56.05-1.76-15.11-.31-30.48,3.3-45.22,1.4-6.54,3.86-12.96,4.16-19.69-14.24-7.86-30.59-14.59-39.23-29.22-1.83-3.06-3.17-6.35-4.02-9.74-10.58-5.52-20.84-11.74-29.79-19.64-7.79-6.36-4.61-14.43,5.32-14.52,11.48-1.11,23.06-.75,34.56-.3.17.02.33.05.48.09,1.28-1.02,2.66-1.96,4.15-2.79,17.27-9.79,37.93-4.41,56.75-5.63,11.8-31.82,21.4-66.7,47.44-90.25,17.74-16.15,40.41-27.28,64.24-30.61,10.42-1.27,17.7,2.37,18.99,13.45,2.87,13.15-3.42,26.47-14.02,34.3,9.25,13.2,6.92,25.66-5.75,35.37,9.89,12.4,8.28,30.35-5.5,39.11,9.62,12.5,4.2,26.66-3.38,33.76,5.71,3.19,12.8,4.42,19.01,6.05,12.35,2.6,25.3,2.83,37.31-1.48,9.24-3.22,17.97-7.69,26.53-12.41,2.73-1.4,5.25-3.35,8.33-3.89,10.41-.65,11.19,13.05,9.2,20.48-2.05,9.24-8.84,16.44-17.05,20.77,8.31,8.33,3.56,22.21-6.13,27.13,9,9.87,4.13,23.09-8.16,26.89,4.03,5.39,5.76,12.54,4.42,19.15Z"/>
    <g>
      <path class="cls-4" d="M1549.86,193.23c.71-2.56,3.45-4.15,5.95-3.42,4.23.87,8.37,2.03,12.53,3.16,4.17,1.14,8.34,2.26,12.48,3.48,2.56.76,4.14,3.41,3.43,6.02-.7,2.53-3.46,4.18-6.02,3.42-3.87-1.14-7.78-2.2-11.68-3.27-3.77-1.03-7.53-2.15-11.35-2.98-3.3-.17-6.32-2.95-5.34-6.43Z"/>
      <path class="cls-4" d="M1537.41,232.35c-5.85-2.57-2.06-11.45,3.85-9,10,3.83,20.25,7,30.48,10.12,6.14,1.86,3.64,11.01-2.59,9.45-10.68-3.21-21.32-6.58-31.74-10.56Z"/>
      <path class="cls-4" d="M1535.75,263.67c-3.7-1.58-10.07-2.25-9.45-7.61.37-2.73,2.86-4.44,5.51-4.2,4.88,1.56,9.69,3.61,14.56,5.29,5.19,1.86,10.38,3.71,15.58,5.54,2.52.89,3.57,4.09,2.58,6.43-1.01,2.47-4,3.6-6.43,2.57-7.46-2.65-14.94-5.26-22.35-8.02Z"/>
      <path class="cls-4" d="M1485.86,358.28c1.84-5.86,8.3-2.82,12.3-1.32,4.38,1.53,8.79,2.95,13.22,4.32,4.39,1.35,8.82,2.61,13.2,3.99,2.54.8,4.15,3.38,3.43,6.02-.69,2.5-3.47,4.23-6.02,3.42-4.62-1.46-9.28-2.78-13.9-4.21-4.86-1.5-9.64-3.09-14.33-4.73-3.7-1.22-9.19-2.29-7.88-7.49Z"/>
      <path class="cls-4" d="M1480.15,400.41c-5.85-2.64-2.14-11.36,3.85-9.01,11.33,3.82,22.82,7.18,34.3,10.51,6.13,1.77,3.6,11.08-2.59,9.45-11.91-3.47-23.82-6.96-35.56-10.95Z"/>
      <path class="cls-4" d="M1483.66,439.31c-.13-.04-.26-.09-.39-.15t0,0s0-.01,0-.02c-5.91-2.45-2.04-11.46,3.84-8.99,9.67,2.9,19.49,5.37,29.13,8.41,6.14,1.87,3.64,11.03-2.59,9.44-5.24-1.61-10.51-3.13-15.78-4.63-4.71-1.42-9.55-2.45-14.2-4.07Z"/>
    </g>
  </g>
  <path class="cls-1" d="M263.7,530.67c-13.25,4.65-25.79,11.04-38.71,16.52-14.18,6.13-28.46,12.09-41.92,19.72-9.88-14.27-18.67-29.25-28.5-43.55-3.23-4.31-5.65-9.52-9.98-12.86-10.46-5.24-12.09,8.25-11.6,15.56.06,14.03,1.55,27.99,3.37,41.88-7.59,4.65-16.69,6.13-25.2,8.39-14.89,3.47-29.72,7.29-44.15,12.37-9.53,2.78-9.25,13.16.21,15.72,10.86,3.41,22.42,3.59,33.69,4.44,8.27.5,16.52,1.31,24.81,1.39-7.51,19.43-17.36,38.04-24.95,57.51-2.8,6.8-5.54,13.63-8.2,20.5-2.98,5.8-3.74,15.48,4.98,15.9,16.39-1.51,47.49-43.7,60.06-56.87,5.02-7.06,6.33-5.5,13.68-2.72,9.77,4.41,18.78,10.26,28.11,15.49,16.33,9.07,32.95,17.64,49.63,26.05,3.72,1.97,8.91.63,10.26-3.61,1.57-6.6-3.47-12.66-6.2-18.31-12.19-21.41-26.64-41.39-40.89-61.45,3.58-6.47,9.44-11.32,14.62-16.48,14.31-13.43,29.22-26.23,43.21-40,2.72-2.93,6.76-5.48,7.23-9.77.32-7.91-8.02-8.11-13.56-5.83ZM242.71,669.69c-14.53-7.52-29.14-14.9-43.27-23.15-11.36-5.84-31.18-21.48-43.8-14.08-17.27,17.07-31.18,37.61-49.6,53.65,1.15-2.9,2.31-5.8,3.48-8.7,5.75-14.32,11.93-28.45,18.42-42.44,3.09-9.04,19.05-32.1,3.5-36.08-15.94-.97-31.99-1.53-47.91-3.19,8.57-2.64,17.26-4.87,26-6.9,11.05-3.26,32.3-5.47,37.88-16.4,1.26-2.96.57-6.05.17-9.11-1.42-11.08-2.48-22.22-2.78-33.4,10.26,14.98,19.41,30.68,29.9,45.5.24,5.75,7.08,6.99,10.88,3.57,6.44-3.69,13.07-7.12,19.77-10.32,14.93-6.77,30.09-13.06,45-19.87-76.28,70.19-53.19,38.66-7.65,120.92Z"/>
  <path class="cls-1" d="M1066.42,91.04c-7.66,1.42-14.69,5.33-21.76,8.48-14.49,6.63-28.66,14.2-43.89,19-7.16-13.26-13.76-26.83-21.26-39.91-3.82-5.32-10.36-22.22-16.54-22.55-10.33-.22-8.64,13.8-9.48,20.9-.6,14.27-1.26,28.57-.6,42.84-7.07,3.35-15.15,3.75-22.77,5.16-11.78,1.85-23.49,4.11-35.23,6.17-3.98.33-7.94,3.14-7.21,7.54.55,4.19,4.98,5.42,8.42,6.35,15.89,4.18,32.2,6.53,48.34,9.51-2.3,12.24-7.04,23.9-11.13,35.64-3.42,9.27-7.08,18.45-10.51,27.72-2.28,4.97-5.3,13.88,2.61,15.15,7.83,2.68,41.28-50.26,47.4-58.44,18.91,13.94,34.5,31.99,53.15,46.36,7.04,7.34,16.71,4.27,15.41-6.46-3.45-22.44-14.12-43.05-21.31-64.43,11.79-14.11,26.69-25.44,40.27-37.78,4.23-4.44,10.63-7.59,12.89-13.5,1.15-4.16-2.62-8.19-6.81-7.74ZM1021.2,131.68c-10.25,10.32-17.01,13.75-9.78,28.88,5.77,15.55,12.28,30.89,16.68,46.91-14.13-11.6-26.95-24.66-40.75-36.63-4.4-3.67-9.07-7.96-15.07-8.39-6.58-.5-9.46,6.31-12.75,10.79-5.33,7.77-10.53,15.63-16.02,23.28,3.12-8.34,6.09-16.75,8.74-25.26,1.85-7.66,7.9-19.72.89-26.06-2.47-1.91-5.71-1.99-8.66-2.57-7.87-1.34-15.72-2.77-23.57-4.24,11.47-2.93,35.95-2.49,42.35-12.9,2.95-6.16.49-13.44,1.07-20.03.17-9.37.51-18.75.9-28.11,9.07,15.36,17.03,31.32,25.38,47.06-.29,12.41,15.93,4.42,22.34,2.32,9.02-3.41,17.7-7.7,26.44-11.74-6.18,5.42-12.24,10.99-18.18,16.68Z"/>
  <g>
    <path class="cls-3" d="M964.48,440.75c1.69-5.96-7.3-9.08-9.69-3.38-2.75,33.25-.54,66.99-1.42,100.39.03,6.74,10.17,6.81,10.29.13.01-6.31.24-12.62.14-18.93.06-26.07-.32-52.16.68-78.21Z"/>
    <path class="cls-3" d="M900.93,511.15c-10.45-17.43-20.06-35.41-32.14-51.8-3.26-8.28-14.47-2.89-9.39,4.34,18.12,25.84,33.05,53.75,49.1,80.9,1.41,2.44,4.56,3.36,6.99,1.99,2.42-1.35,3.39-4.57,1.99-7-5.5-9.49-10.92-19.02-16.56-28.43Z"/>
    <path class="cls-3" d="M801.66,480.35c-5.54-6.64-13.54,2.5-6.8,7.77,20.51,20.25,41.53,40.04,61.14,61.18,4.7,4.83,11.97-2.23,7.42-7.12-19.81-21.37-41.11-41.3-61.76-61.84Z"/>
    <path class="cls-3" d="M800.71,545c-14.17-10.01-28.79-21.26-43.19-31.4-2.55-2.82-7.27-3.94-9.57-.21-2.18,3.49.62,6.71,3.53,8.54,3.49,2.73,7.21,5.17,10.84,7.71,11.1,7.91,21.73,16.48,33.02,24.14,5.7,3.52,11.08-5.24,5.37-8.78Z"/>
    <path class="cls-3" d="M1046.85,450.18c-11.15,20.38-22.13,42.01-33.92,62.23-4.85,8.05-9.96,15.97-15.35,23.66-1.61,2.3-.57,5.68,1.71,7.07,2.36,1.51,5.62.64,7.07-1.7,13.78-19.39,24.99-40.39,36.04-61.41,4.54-8.52,9.31-16.91,13.77-25.48,2.59-6.09-6.39-10.21-9.32-4.37Z"/>
    <path class="cls-3" d="M1107.92,475.93c-12.34,16.95-26.3,32.61-39.47,48.92-3.03,3.83-6,7.72-9.11,11.48-2.84,4.61-13.39,12.01-7.33,17.3,2.14,1.73,5.52,1.44,7.23-.78,6.67-8.37,13.46-16.64,20.04-25.08,12.38-15.78,27.08-30.3,37.38-47.42.84-4.76-5.43-7.88-8.74-4.42Z"/>
    <path class="cls-3" d="M1172.12,517.92c-4.69-5.51-10.65,1.91-15.36,3.88-6.9,4.23-13.92,8.23-20.92,12.29-11.98,7.29-24.24,14.06-36.48,20.9-2.43,1.39-3.36,4.53-1.99,7,4.23,6.39,10.91-.94,15.67-2.93,11.69-6.18,22.93-13.17,34.36-19.8,4.32-2.49,8.61-5.02,12.88-7.59,4.4-3.46,16.29-6.31,11.82-13.75Z"/>
    <path class="cls-3" d="M751.32,565.98c-9.12-4.27-19.66-8.11-29.01-12.64-4.77-3.09-10.36,3.14-6.75,7.57,3.98,3.31,9.37,4.68,14,6.94,7.38,2.97,14.68,6.15,21.92,9.45,4.02,1.77,8.44-2.93,6.54-6.86-1.16-2.7-4.33-3.21-6.7-4.46Z"/>
    <path class="cls-3" d="M1188.81,554.97c-2.78-8.86-12.92-.48-18.38,1.01-5.45,2.17-10.92,4.32-16.4,6.42-2.63.97-4.13,3.83-3.21,6.53,3.15,7.72,13.03-.14,18.4-1.4,4.76-1.82,9.42-3.87,14.12-5.85,3.13-.79,6.29-3.1,5.47-6.71Z"/>
  </g>
  <path class="cls-3" d="M996.36,668.78c-13.64,6.6-24.79,17.34-36.9,26.29-8.3-11.08-16.89-21.96-25.6-32.72-2.85-3.83-9.06-3.97-11.38.46-4.16,10.6,3.31,32.99,5.57,44.69-12.94,7.4-26.81,13.17-39.57,20.97-1.54.9-3.11,1.87-4.05,3.44-1.38,2.3-1.16,5.52.81,7.44,4.98,4.68,17.25.43,23.65-.16,7.22-1.24,14.49-2.27,21.73-3.43-3.4,16.22-7.57,32.43-9.46,48.89.04,2.55.96,5.17,3.23,6.53,11.79,8.32,28.45-34.12,33.76-42.24,8.29,1.06,16.08,4.37,23.96,7.01,11.4,3.63,22.82,8.1,34.62,10.06,5.96.07,8.4-7.03,4.58-11.23-3.05-3.84-6.87-6.99-10.7-10.02-9.68-7.59-19.45-15.07-29.36-22.35,7.94-14.93,16.47-29.56,23.33-45.03,2.5-5.39-2.77-10.8-8.23-8.59ZM995.83,748.15c-11.4-2.92-32.09-13.57-42.85-10.23-2.99,1.19-4.48,4.13-5.89,6.85-3.74,6.95-6.82,13.42-10.79,20.48,1.63-8.83,3.74-17.55,5.64-26.32,1.14-4.99,2.44-12.4-3.33-14.98-1.82-.71-3.58-.75-5.49-.45-4.93.76-9.87,1.54-14.8,2.29,6.99-4.22,21.06-7.5,21.74-17.02.01-2.31-.76-4.62-1.29-6.84-1.55-6.72-3.18-13.43-4.48-20.21,4.77,6.03,9.54,12.07,14.16,18.21,1.69,2.33,3.32,5.02,6.08,6.2,1.9,2.52,5.67,2.92,8.16,1.05,7.96-5.47,15.18-11.92,22.96-17.65-21.77,43.88-27.02,29.41,10.17,58.62Z"/>
  <path class="cls-1" d="M1856.05,513.77c-15.05-1.79-30.23,1.25-45.25,2.26-1.02-13.81-2.4-27.6-3.93-41.36-.33-4.76-5.49-8.23-9.83-5.75-9.21,6.69-14.99,29.58-19.39,40.65-14.89-.74-29.69-3.35-44.64-3.65-1.78-.07-3.63-.1-5.26.72-2.4,1.2-3.95,4.02-3.33,6.7,1.68,6.63,14.3,9.66,20.01,12.61,6.76,2.84,13.43,5.9,20.15,8.82-11.6,11.83-23.85,23.24-34.31,36.09-1.34,2.17-1.98,4.87-.8,7.25,5.45,13.36,42.35-13.42,51.2-17.39,6.41,5.36,11.19,12.35,16.41,18.82,7.65,9.2,14.86,19.12,23.74,27.13,4.98,3.27,10.87-1.4,9.91-7-.5-4.87-2.02-9.59-3.61-14.2-4.06-11.61-8.27-23.17-12.69-34.65,14.73-8.3,29.8-16.03,43.92-25.37,5.01-3.2,3.49-10.59-2.3-11.67ZM1812.84,580.34c-8.03-8.6-19.72-28.72-30.58-31.71-3.16-.61-6,1.06-8.65,2.59-6.9,3.84-12.98,7.63-20.13,11.44,6.13-6.56,12.61-12.77,18.94-19.13,3.65-3.59,8.74-9.14,5.27-14.42-1.15-1.57-2.61-2.56-4.38-3.34-4.57-2.02-9.14-4.02-13.71-6.04,8.16.21,21.78,5.03,27.48-2.63,1.25-1.94,1.85-4.3,2.6-6.46,2.32-6.5,4.56-13.02,7.12-19.43.76,7.65,1.53,15.3,2.12,22.97.17,2.88.09,6.01,1.78,8.5.24,3.14,3.2,5.52,6.3,5.28,9.65-.32,19.21-1.86,28.85-2.5-41.98,25.23-38.6,10.22-23.02,54.86Z"/>
</svg>