<?xml version="1.0" encoding="UTF-8"?>
<svg id="Camada_1" data-name="Camada 1" xmlns="http://www.w3.org/2000/svg" viewBox="0 0 2000 2000">
  <defs>
    <style>
      .cls-1 {
        fill: #a62317;
      }

      .cls-2 {
        fill: #edae1a;
      }

      .cls-3 {
        fill: #100;
      }
    </style>
  </defs>
  <path class="cls-2" d="M828.54,578.03c-11.22,1.83-11.57-8.26-9.74-16.46.74-5.17,1.61-10.33,2.61-15.45,2.78-13.52,6.02-26.95,8.22-40.58-15.3-3.46-30.83-6.96-45.18-13.45-7.33-2.86-11.63-11.38-3.17-15.99,18.35-7.57,37.4-13.48,56.43-19.1,3.3-16.44,4.38-33.79,10.93-49.34,6.25-12.18,17.93-3.45,25.22,2.63,9.91,8.39,18.49,18.2,27.41,27.6,18.16-5.62,36.37-11.04,54.71-16.01,6.34-1.15,22.41-9.27,21.57,2.91,5.12,7.31-31.73,48.08-38.01,55.45,7.39,8.69,14.61,17.52,21.77,26.4,3.33,4.86,9.16,10.13,7.88,16.54-2.41,7.35-11.26,4.13-16.89,3.57-16.88-2.19-33.71-4.66-50.48-7.6-14.66,13.22-29.8,25.92-44.41,39.2-8.86,7.41-17.5,16.43-28.88,19.69ZM830.62,556.56c-.53,3.21-1.08,6.45-1.48,9.69,13.91-7.97,24.85-20.08,37.03-30.34,7.29-6.38,14.68-12.65,21.93-19.08-16-2.61-31.9-5.74-47.76-9.05-2.65,16.38-7.02,32.41-9.72,48.78ZM928.4,512.42c8.79,1.33,17.6,2.44,26.41,3.66-7.28-9.34-14.86-18.45-22.49-27.5-6.46,7.41-13.48,14.31-20.51,21.18,5.53.92,11.06,1.82,16.6,2.66ZM864.27,501.51c10.56,2.07,21.2,3.77,31.81,5.58.76.13,1.53.26,2.29.39,9.23-8.76,18.4-17.62,26.74-27.24-3.3-3.77-6.62-7.52-9.98-11.24-5.66-6.29-11.45-12.47-17.2-18.67-6.71,2.06-13.41,4.13-20.12,6.19-10.13,3.12-20.33,6.03-30.5,9.02-1.23,7.12-2.45,14.24-3.56,21.38-.53,3.38-1.06,6.75-1.61,10.13,7.37,1.53,14.75,3.01,22.13,4.47ZM929.17,468.32c1.06,1.19,2.11,2.39,3.16,3.58,2.89-3.3,5.81-6.58,8.66-9.91,6.3-7.38,12.42-14.93,18.02-22.86-.02.03-.04.05-.06.08,1.95-2.77,3.89-5.57,5.68-8.45-18.43,5.16-36.86,10.27-55.12,16.02,6.61,7.13,13.2,14.27,19.65,21.54ZM831.43,494.79c1.41-8.61,2.76-17.23,4.22-25.83-14.73,4.31-29.28,9.21-43.68,14.55,1.26.53,2.53,1.04,3.81,1.53,11.63,4.11,23.61,7.1,35.64,9.75ZM849.36,453.59c6.8-1.98,13.59-3.95,20.37-6,6.67-2.02,13.32-4.1,19.98-6.16-9.9-10.11-19.06-21.46-31.37-28.76-5.18,12.98-6.23,27.28-8.97,40.92Z"/>
  <path class="cls-2" d="M1258.01,1754.83c-11.33-.92-9.25-10.8-5.51-18.31,1.96-4.84,4.05-9.64,6.24-14.38,5.95-12.45,12.32-24.71,17.73-37.42-14.02-7.04-28.26-14.16-40.63-23.91-6.42-4.54-8.56-13.84.76-16.28,19.63-2.94,39.54-4.1,59.37-4.99,7.15-15.17,12.36-31.75,22.46-45.27,8.99-10.33,18.23.95,23.85,8.61,7.61,10.53,13.58,22.11,19.98,33.38,18.97-1.09,37.96-1.98,56.96-2.41,6.43.4,23.98-3.62,20.24,8.01,3.22,8.33-42.34,39.05-50.21,44.7,5.09,10.21,9.97,20.51,14.79,30.85,2.06,5.52,6.46,12.03,3.68,17.95-4.1,6.55-11.92,1.31-17.25-.59-15.86-6.18-31.61-12.62-47.17-19.5-17.41,9.31-35.15,18-52.53,27.39-10.38,5.06-20.94,11.75-32.77,12.18ZM1265.19,1734.49c-1.29,2.99-2.6,6-3.77,9.05,15.42-4.4,28.95-13.52,43.23-20.56,8.61-4.44,17.29-8.76,25.87-13.25-14.9-6.37-29.58-13.23-44.19-20.26-6.5,15.26-14.6,29.77-21.15,45.02ZM1370.71,1715.12c8.21,3.4,16.5,6.6,24.76,9.89-4.82-10.81-9.99-21.48-15.23-32.1-8.06,5.64-16.53,10.65-25,15.64,5.14,2.22,10.3,4.43,15.47,6.57ZM1311.07,1689.14c9.76,4.55,19.67,8.75,29.54,13.05.71.31,1.42.62,2.13.93,11.06-6.28,22.1-12.69,32.5-20.02-2.29-4.45-4.62-8.89-6.98-13.31-3.99-7.47-8.12-14.85-12.22-22.25-7.01.39-14.01.78-21.02,1.18-10.59.6-21.18.98-31.77,1.43-2.9,6.62-5.8,13.24-8.59,19.9-1.32,3.15-2.65,6.3-3.99,9.44,6.79,3.25,13.59,6.47,20.41,9.65ZM1382.04,1672.5c.74,1.41,1.48,2.82,2.21,4.24,3.6-2.51,7.22-4.99,10.79-7.54,7.89-5.66,15.64-11.51,22.98-17.86-.02.02-.05.04-.07.06,2.55-2.22,5.11-4.47,7.55-6.84-19.13.58-38.25,1.11-57.35,2.31,4.7,8.51,9.39,17.02,13.9,25.63ZM1280.81,1674.73c3.44-8.02,6.82-16.06,10.3-24.06-15.34.65-30.64,1.91-45.89,3.63,1.09.82,2.21,1.62,3.33,2.4,10.3,6.78,21.22,12.56,32.26,18.02ZM1308.1,1639.04c7.07-.29,14.14-.57,21.21-.94,6.96-.36,13.91-.78,20.87-1.18-7.18-12.19-13.35-25.41-23.54-35.45-8.14,11.35-12.6,24.99-18.54,37.57Z"/>
  <path class="cls-2" d="M959.29,1568.52c-9.65-5.73-16.99-28.27-21.52-38.81-11.11-30.58-17.62-62.62-27.1-93.72-34.02-3.44-67.92-8.05-101.98-11.03-6.23-1.24-19.32,1.26-22.53-4.89-4.04-9.22,14.59-15.67,20.42-20.18,26.59-15.7,50.89-34.83,76.74-51.67-8.05-28.31-14.02-57.08-19.01-86.06-9.5-34.5,28.28-6.86,39.85,1.58,17.48,12.47,34.65,25.35,52.04,37.93,22.86-14.79,46.23-28.81,69.78-42.49,8.46-4.9,16.99-9.68,25.59-14.31,5.07-2.27,10.98-7.8,16.62-4.22,16,13.25-18.27,101.06-25.3,120.81,26.96,19.92,53.45,40.53,78.2,63.17,5.5,5.81,14.14,10.46,15.87,18.76.55,7.45-7.83,10.41-14,10.34-1.54,1.44-3.64,1.4-5.56,1.06-10.05-.09-20.08-.84-30.09-1.74-24.35-2.04-48.68-4.21-73.03-6.25-11.14,32.74-23.72,65.02-37.45,96.76-2.51,5.86-5.04,11.72-7.58,17.58-1.37,4.2-4.87,9.3-9.95,7.38ZM960.69,1555.21c15.74-35.88,30.44-72.24,43.13-109.31-27.42-2.53-54.79-5.71-82.16-8.7,12.22,39.51,18.56,81.6,39.04,118.02ZM1039.17,1438.64c24.19,1.91,48.34,4.61,72.57,5.82,3.92-2.93,9.48.22,14-1.3-26.75-26.28-56.52-49.35-86.56-71.72-7.94,21.57-15.34,43.34-21.8,65.39,7.26.6,14.53,1.17,21.79,1.81ZM945.13,1429.53c10.27,1.14,20.55,2.2,30.82,3.31,10.33,1.11,20.66,2.16,31.01,3.1,6.99-23.89,15-47.46,23.64-70.8-24.01-18.31-50.04-33.66-74.67-51.08-20.01,13.3-40.45,25.93-60.8,38.69,6.71,24.96,16.75,48.88,23.46,73.83,8.85.98,17.7,1.98,26.54,2.96ZM807.79,1414.65c33.36,2.72,66.53,7.43,99.83,10.73-6.3-22.53-15.27-44.21-21.48-66.78-27.87,18.62-54.54,39.02-83.67,55.71,1.78.11,3.55.22,5.33.34ZM978.07,1316.9c18.99,12.4,38.1,24.64,56.24,38.28,7.94-20.38,14.68-41.2,20.7-62.23,3.86-13.7,7.3-27.83,7.11-42.15-33.1,17.72-65.26,37.18-96.98,57.26,4.28,3,8.59,5.96,12.93,8.85ZM892.34,1342.39c18.34-11.41,36.67-22.84,54.69-34.75-13.33-9.72-26.59-19.53-39.94-29.24-10.9-7.54-21.32-16.08-33.42-21.66,5.13,28.78,10.62,57.52,18.67,85.65Z"/>
  <g>
    <path d="M1285.12,1134.48c-2.04-31.17-3.41-62.54-.85-93.71,1.39-7.01,11.8-5.3,10.77,1.8-.09,1.41-.14,2.83-.26,4.25-1.67,21.95-.99,43.78-.02,65.47.27,7.08.66,14.14,1.23,21.2.56,7.06-10.14,8.12-10.87,1Z"/>
    <path d="M1326.94,1141.22c-2.23-1.88-2.62-5.47-.65-7.69,6.7-7.55,13.61-14.9,20.25-22.5,13.94-15.82,27.46-32.6,41.06-48.6,5.28-4.7,12.52,3.18,7.36,8.06-6.59,7.9-13.06,15.9-19.73,23.74-13.11,15.82-26.78,31.16-40.61,46.35-1.98,2.24-5.39,2.58-7.69.65Z"/>
    <path d="M1261.61,1144.57c-25.21-20.78-52.03-39.43-78.66-58.3-10.57-6.35-2.39-16.94,4.52-10.52,9.47,7.96,20.2,14.4,30.23,21.63,17.44,12.33,34.29,25.49,50.96,38.85,5.37,4.62-1.53,12.88-7.05,8.34Z"/>
    <path d="M1146.99,1190.94c-.64-2.87,1.23-5.9,4.14-6.51,29.44-6.05,59.11-10.97,88.83-15.4,9.09-1.1,18.23-2.07,27.29-3.3,6.72.29,6.91,10.29.29,10.89-33.35,3.92-66.53,9.2-99.51,15.52-4.84.94-9.69,1.91-14.52,2.93-2.85.62-5.87-1.19-6.51-4.14Z"/>
    <path d="M1221.78,1278.31c-2.3-1.94-2.53-5.39-.65-7.69,6.15-7.53,12.29-15.06,18.35-22.66,10.53-13.08,20.77-26.39,30.3-40.22,3.6-4.73,6.2-10.45,10.56-14.51,5.59-3.84,11.78,4.24,6.68,8.65-6.18,8.68-11.93,17.68-18.37,26.19-6.55,8.94-13.41,17.61-20.32,26.27-6.24,7.82-12.55,15.57-18.87,23.32-1.89,2.3-5.45,2.54-7.69.64Z"/>
    <path d="M1341.9,1158.27c-.27-2.92,1.97-5.72,4.93-5.93,4.48-.42,8.95-.95,13.43-1.36,16.15-1.56,32.35-2.59,48.56-3.41,11.79-.57,23.56-1.17,35.33-1.96,2.97-.19,5.66,1.92,5.94,4.94.27,2.9-1.97,5.73-4.94,5.93-10.1.68-20.19,1.27-30.3,1.73-10.77.49-21.53,1.15-32.28,1.89-9.3.64-18.57,1.46-27.84,2.4-4.61.52-12.01,2.36-12.82-4.23Z"/>
    <path d="M1437.48,1249.37c-33.6-18.3-67.39-36.82-100.6-55.57-6.65-4.11-.14-13.77,6.08-9.05,24.81,14.35,50.09,27.35,74.92,41.63,8.01,4.43,16.07,8.76,24.14,13.06,1.31.7,2.34,1.68,2.86,3.11,1.75,4.27-3.27,9.01-7.41,6.82Z"/>
    <path d="M1330.93,1294.66c-6.11-23.92-14.32-47.26-21.62-70.83-1.99-5.71-4.78-11.21-5.78-17.22-.86-4.02,2.98-8.12,7.07-6.78,2.54.77,4.04,3.27,3.84,5.86.62,2.85,1.78,5.54,2.82,8.26,4.75,12.02,8.09,24.54,11.89,36.88,4.51,13.72,9.18,27.39,12.44,41.47,1.49,6.9-8.96,9.36-10.65,2.38Z"/>
  </g>
  <g>
    <path d="M534.55,715.91c-2.04-31.17-3.41-62.54-.85-93.71,1.39-7.01,11.8-5.3,10.77,1.8-.09,1.41-.14,2.83-.26,4.25-1.67,21.95-.99,43.78-.02,65.47.27,7.08.66,14.14,1.23,21.2.56,7.06-10.14,8.12-10.87,1Z"/>
    <path d="M576.37,722.66c-2.23-1.88-2.62-5.47-.65-7.69,6.7-7.55,13.61-14.9,20.25-22.5,13.94-15.82,27.46-32.6,41.06-48.6,5.28-4.7,12.52,3.18,7.36,8.06-6.59,7.9-13.06,15.9-19.73,23.74-13.11,15.82-26.78,31.16-40.61,46.35-1.98,2.24-5.39,2.59-7.69.65Z"/>
    <path d="M511.04,726c-25.21-20.78-52.03-39.43-78.66-58.3-10.57-6.35-2.39-16.95,4.52-10.52,9.47,7.96,20.2,14.4,30.23,21.63,17.44,12.33,34.29,25.49,50.96,38.85,5.37,4.62-1.53,12.88-7.05,8.34Z"/>
    <path d="M396.42,772.38c-.64-2.87,1.23-5.9,4.14-6.51,29.44-6.05,59.11-10.97,88.83-15.4,9.09-1.1,18.23-2.07,27.29-3.3,6.72.29,6.91,10.28.29,10.89-33.35,3.92-66.53,9.2-99.51,15.52-4.84.94-9.69,1.91-14.52,2.93-2.85.62-5.87-1.19-6.51-4.14Z"/>
    <path d="M471.21,859.75c-2.3-1.94-2.53-5.39-.65-7.69,6.15-7.53,12.29-15.06,18.35-22.66,10.53-13.08,20.77-26.39,30.3-40.22,3.6-4.73,6.2-10.45,10.56-14.51,5.59-3.84,11.78,4.24,6.68,8.65-6.18,8.68-11.93,17.68-18.37,26.19-6.55,8.94-13.41,17.61-20.32,26.27-6.24,7.82-12.55,15.57-18.87,23.32-1.89,2.3-5.45,2.54-7.69.64Z"/>
    <path d="M591.33,739.7c-.27-2.92,1.97-5.72,4.93-5.93,4.48-.42,8.95-.95,13.43-1.36,16.15-1.56,32.35-2.59,48.56-3.41,11.79-.57,23.56-1.17,35.33-1.96,2.97-.19,5.66,1.92,5.94,4.94.27,2.9-1.97,5.73-4.94,5.93-10.1.68-20.19,1.27-30.3,1.73-10.77.49-21.53,1.15-32.28,1.89-9.3.64-18.57,1.46-27.84,2.4-4.61.52-12.01,2.36-12.82-4.23Z"/>
    <path d="M686.91,830.81c-33.6-18.3-67.39-36.82-100.6-55.57-6.65-4.11-.14-13.77,6.08-9.05,24.81,14.35,50.09,27.35,74.93,41.63,8.01,4.43,16.07,8.76,24.14,13.06,1.31.7,2.34,1.68,2.86,3.11,1.75,4.27-3.27,9.01-7.41,6.82Z"/>
    <path d="M580.36,876.1c-6.11-23.92-14.32-47.26-21.62-70.83-1.99-5.71-4.78-11.21-5.79-17.22-.86-4.02,2.98-8.12,7.07-6.78,2.54.77,4.04,3.27,3.84,5.86.62,2.85,1.78,5.54,2.82,8.26,4.75,12.02,8.09,24.54,11.89,36.88,4.51,13.72,9.18,27.39,12.44,41.47,1.49,6.9-8.96,9.36-10.65,2.38Z"/>
  </g>
  <path class="cls-2" d="M202.49,1717.39c-11.5-13.58,18.48-57.08,25.29-71.68-13.79-10.95-27.42-22.11-41.36-32.88-6.27-5.08-12.99-10.14-17.35-17.05-8.95-18.88,19.63-15.8,30.48-16.63,21.13-.42,42.27-.83,63.4-.09,8.78-16.8,17.78-33.51,27.94-49.53,8.36-12.99,26.26-40.75,39.05-16.21,11.98,20.65,14.85,45.09,18.64,68.29,22.94,2.08,47.02,2.69,69.34,8.24,14.21,6.28-8.41,19.64-14.32,23.62-15.08,9.88-30.88,18.6-46.44,27.7,3.46,23.85,7.23,47.65,10.41,71.53.99,7.94,2.15,15.87,2.77,23.85.59,5.22.16,12.91-6.34,13.87-4.68.53-8.05-3.44-11.53-5.94-8.25-6.45-16.58-12.8-24.82-19.26-15.74-12.38-31.5-24.73-47.14-37.22-15.86,9.64-61.32,44.57-78.05,29.38ZM210.7,1710.08c17.68,1.29,45.69-19.85,60.97-29.26-6.86-5.57-13.73-11.14-20.66-16.63-4.85-3.85-9.7-7.71-14.55-11.56-9.29,18.64-22.91,36.37-25.86,57.4.03.02.06.03.09.05ZM313.81,1700.44c15.08,12.02,30.4,23.73,45.59,35.6-3.17-29.75-8.1-59.27-12.38-88.87-19.1,11.3-38.42,22.26-56.94,34.52,7.87,6.3,15.82,12.5,23.72,18.76ZM262.51,1659.38c6.27,4.99,12.46,10.06,18.67,15.11,20.8-13.91,42.58-26.23,64.1-38.96-2.03-14.52-4.36-29-6.3-43.53-23.14-1.28-46.31-1.38-69.47-1.88-9.08,17.68-18.19,35.35-27.72,52.8,6.9,5.49,13.8,10.98,20.71,16.47ZM197.81,1607.85c4.45,3.46,8.86,6.98,13.25,10.51,7.33,5.9,14.68,11.77,22.04,17.63,3.75-6.87,7.46-13.75,11.08-20.68,4.44-8.49,8.86-16.99,13.24-25.51-26.06-.31-52.35-.63-78.3,1.45,5.22,6.55,12.18,11.43,18.68,16.61ZM353.9,1618.67c.54,3.62,1.07,7.24,1.59,10.87,17.12-10.06,34.66-19.53,50.81-31.13-18.64-2.76-37.42-4.46-56.2-5.78,1.21,8.69,2.49,17.37,3.8,26.05ZM285.29,1560.53c-3.47,6.24-6.86,12.52-10.19,18.83,20.8.3,41.6.55,62.38,1.65-3.97-22.62-6.27-47.3-19.93-66.49-6.77,4.13-10.82,11.55-15.44,17.8-6.02,9.16-11.48,18.63-16.81,28.2Z"/>
  <path class="cls-3" d="M1653.25,1493.25c-11.98.05-22.06-11-21.45-22.85.16-12.23,12.4-20.73,23.9-20.65,8.7-1.05,19.24,6.55,22.38,14.38,3.83,14.64-10.3,29.49-24.83,29.13ZM1654.33,1482.31c7.13-.55,14.33-7.37,13.35-14.82-.64-.27-1.23-.67-1.73-1.17-.19-.19-.35-.39-.5-.59-.58-.23-1.16-.44-1.75-.64-1.69-.59-2.8-2.12-3.17-3.81-6.41-2.17-15.36.81-17.64,7.61-1.47,6.81,4.32,14.12,11.44,13.42Z"/>
  <path class="cls-3" d="M644.18,1319.06c-11.98.05-22.06-11-21.45-22.85.16-12.23,12.4-20.73,23.9-20.65,8.7-1.05,19.24,6.55,22.38,14.38,3.83,14.64-10.3,29.49-24.83,29.13ZM645.26,1308.12c7.13-.55,14.33-7.37,13.35-14.82-.64-.27-1.23-.67-1.73-1.17-.19-.19-.35-.39-.5-.59-.58-.23-1.16-.44-1.75-.64-1.69-.59-2.8-2.12-3.17-3.81-6.41-2.17-15.36.81-17.64,7.61-1.47,6.81,4.32,14.12,11.44,13.42Z"/>
  <path d="M1343,1450.15c-11.3-.64-23.67-10.26-20.5-22.6,2.22-10.1,10.51-20.71,21.71-20.28,28.39,1.02,28.68,44.23-1.21,42.88ZM1345.6,1439.28c13.39-.95,10.84-21.17-1.46-21.11-5.49-.2-8.78,5.48-10.53,9.98-3.19,7.14,6.03,11.52,11.98,11.14Z"/>
  <path class="cls-1" d="M908.74,1116.89c-11.3-.64-23.67-10.26-20.5-22.6,2.22-10.1,10.51-20.71,21.71-20.28,28.39,1.02,28.68,44.24-1.21,42.89ZM911.34,1106.02c13.39-.95,10.84-21.17-1.46-21.11-5.49-.2-8.78,5.48-10.53,9.98-3.19,7.14,6.03,11.52,11.98,11.14Z"/>
  <path class="cls-1" d="M574.66,1639.97c-11.3-.64-23.67-10.26-20.5-22.6,2.22-10.1,10.51-20.71,21.71-20.28,28.39,1.02,28.68,44.23-1.21,42.89ZM577.26,1629.1c13.39-.95,10.84-21.17-1.46-21.11-5.49-.2-8.78,5.48-10.53,9.98-3.19,7.14,6.03,11.52,11.98,11.14Z"/>
  <g>
    <g>
      <path class="cls-1" d="M281.15,186.84c-.95-2.58.39-5.8,3.09-6.67,8.31-2.69,16.64-5.28,25-7.8,14.56-4.16,29.07-8.46,43.68-12.44,5.25-1.33,10.54-2.55,15.75-4.04,1.34-.43,2.71-.46,4.03.15,4.09,1.7,3.9,8.26-.39,9.6-3.87,1.2-7.84,2.11-11.76,3.1-9.45,2.23-18.72,5.09-28.05,7.78-15.01,4.08-29.87,8.63-44.67,13.42-2.63.87-5.67-.33-6.67-3.09Z"/>
      <path class="cls-1" d="M296.74,236.31c-.98-2.65.43-5.7,3.09-6.67,8.04-2.93,16.14-5.67,24.18-8.6,9.26-3.37,18.54-6.69,27.81-10.02,9.02-3.21,18-6.54,27.04-9.7,2.96-.82,5.98-2.42,9.11-1.7,2.42.63,4.08,3.45,3.56,5.87-.54,3.13-3.42,4.24-6.19,4.66-9.52,3.06-18.84,6.73-28.28,10.03-9.25,3.33-18.52,6.63-27.76,9.99-8.61,3.13-17.28,6.08-25.88,9.22-2.61.97-5.7-.41-6.67-3.09Z"/>
      <path class="cls-1" d="M315.81,279.58c-.97-2.65.42-5.71,3.09-6.67,7.22-2.59,14.39-5.3,21.56-8.03,21.22-7.57,39.93-17.53,60.12-26.8,6.42-2.21,9.94,7.22,3.59,9.76-9.66,4.22-18.95,9.25-28.54,13.63-17.3,8.06-35.22,14.65-53.14,21.2-2.61.96-5.69-.39-6.67-3.09Z"/>
      <path class="cls-1" d="M374.59,364.41c-1.3-2.45-.39-5.77,2.15-7.03,4.45-2.2,9.04-4.08,13.59-6.06,16.48-7.15,33.11-13.99,49.13-22.13,4.74-2.21,9.38-4.71,14.24-6.6,6.21-1.42,8.94,7.83,2.88,9.96-18.35,8.93-36.77,17.64-55.62,25.47-4.73,2.05-9.5,4.04-14.17,6.11-3.84,1.76-9.31,5.47-12.2.29ZM455.27,332.85c.5-.07,1-.15,1.46-.36-.51.2-1.04.32-1.58.36.04,0,.08,0,.12,0Z"/>
      <path class="cls-1" d="M394.9,415.35c-1.36-2.48-.32-5.71,2.15-7.03,7.39-4.44,14.92-8.67,22.4-12.95,8.39-4.8,16.96-9.29,25.41-13.99,7.25-4.03,14.41-8.2,21.52-12.49,3.94-1.79,7.98-6.37,12.58-4.58,2.2,1.02,3.23,3.3,2.94,5.64-.25,1.93-1.84,3.5-3.63,4.1-3.34,1.67-6.51,3.73-9.7,5.65-12.65,7.68-25.72,14.6-38.69,21.71-9.36,5.29-18.71,10.59-27.95,16.08-2.41,1.45-5.76.26-7.03-2.15ZM472.04,366.96c.5-1.09,1.38-2.01,2.28-2.47-1,.55-1.84,1.41-2.28,2.47Z"/>
      <path class="cls-1" d="M415.27,457.36c-1.3-2.44-.39-5.78,2.15-7.03,8.07-3.96,16.12-7.98,23.92-12.44,10.18-5.97,20.59-11.54,30.68-17.66,10.03-5.84,18.84-13.64,28.9-19.34,6.14-2.18,9.87,6.69,4,9.57-16.25,11.44-32.77,22.48-50.36,31.8-10.51,6.2-21.27,11.96-32.27,17.25-2.5,1.24-5.66.43-7.03-2.15Z"/>
      <path class="cls-1" d="M243.73,354.5c-1.33-2.51-.34-5.7,2.15-7.03,7.67-4.09,15.33-8.22,23.01-12.3,5.59-2.96,11.18-5.91,16.86-8.7,3.86-2.79,9.35-1.21,9.32,4-.31,5.11-7.39,5.94-10.94,8.46-3.79,1.96-7.58,3.94-11.35,5.95-7.35,3.91-14.67,7.86-22.02,11.77-2.46,1.32-5.7.36-7.03-2.15ZM289.87,335.41c.38.01.74-.05,1.12-.11,0,0,0,0,0,0,.22-.07.45-.14.68-.2.04-.02.08-.04.13-.06-.6.23-1.25.34-1.91.37Z"/>
      <path class="cls-1" d="M262.88,381.52c-1.37-2.58-.29-5.6,2.15-7.03,6.5-3.87,13.13-7.51,19.74-11.19,5.09-2.85,10.14-5.81,15.26-8.62,1.64-.87,3.56-2.14,5.48-2.01,2.82.19,5.09,2.57,4.95,5.44-.1,2.11-1.54,3.96-3.46,4.66-6.16,3.14-12.04,6.82-18.11,10.14-6.37,3.52-12.73,7.05-18.98,10.76-2.42,1.43-5.74.28-7.03-2.15Z"/>
      <path class="cls-1" d="M590.43,192.72c.07-1.34.66-2.63,1.64-3.55,1.05-.99,2.38-1.4,3.8-1.4,2.83,0,5.08,2.71,4.95,5.44-.07,1.34-.66,2.63-1.64,3.55-1.05.99-2.38,1.4-3.8,1.4-2.83,0-5.08-2.71-4.95-5.44Z"/>
      <path class="cls-1" d="M604.5,227.14c.07-1.34.66-2.63,1.64-3.55,1.05-.99,2.38-1.4,3.8-1.4,2.83,0,5.08,2.71,4.95,5.44-.07,1.34-.66,2.63-1.64,3.55-1.05.99-2.38,1.4-3.8,1.4-2.83,0-5.08-2.71-4.95-5.44Z"/>
      <path class="cls-1" d="M295.24,283.64c-.12.04-.24.08-.36.12-.2.1-.4.2-.6.3-.21.15-.44.28-.64.45.48-.37,1.02-.65,1.6-.87ZM633.67,222.63c9.03-12.85,4.62-33.58-11.33-38.35-39.53-7.58-79.21,9.57-118.94,6.99-14.61-.91-27.07-9.38-37.62-18.93-10.5-9.57-18.28-22.04-30.32-29.91-14.58-10.03-32.18-16.14-50-14.02-31.07,3-61.35,11.28-91.62,18.61-23,6.3-46.29,11.56-69.12,18.44-8.09,3.09-17.3,6.56-21.92,14.36-3.59,13.45,8.85,16.95,19.56,17.56,11.39.66,22.4-.74,33.66-1.48,13.16-1.93,15.4,8.89,3.79,13.97-9.53,5.65-19.73,10.12-29.11,16.01-5.72,3.13-15.06,13.99-5.15,17.67,11.57,3.28,23.88,1.31,35.47-.94,4.65-.55,10.45-3.68,14.55-.24,2.34,2.34,1.86,6.25-.78,8.13-8.84,4.63-18.81,6.21-27.51,10.82-5.36,2.87-11.1,6.13-14.13,11.61-.29,4,4.75,5.73,7.56,7.54,12.81,5.33,27.38,4.5,41.01,4.29,5.5.41,15.52-3.88,19.32.61.82,1.06,1.14,2.29,1.05,3.5.41,1.54.14,3.26-.88,4.57-1.48,2.06-4.02,1.76-5.96,3.01-4.43,2.31-8.76,4.81-13.16,7.2-31.53,16.67-63.97,31.86-93.54,51.98-6.54,4.87-14.17,9.09-19.08,15.7,11.01,3.78,31.42-4.48,43.87-7.62,2.34-1.02,4.69-1.99,7.1-2.85,6.68-3.23,12.74,4.21,6.63,9.15-5.75,3.4-11.85,6.24-17.85,9.21-8.56,6.23-18.73,11.46-24.77,20.36,11.01,3,29.93-6.05,40.92-9.52,5.49-.99,14.21-8.85,17.78-1.58,2.34,5.79-4.61,7.52-8.32,9.41-10.89,6.19-29.84,15.65-36.15,26.31.02-.12.04-.2.06-.31,0,.01-.01.02-.02.04-.03.14-.05.29-.07.44,16.44,8.51,71.59-15.27,108.3-29.46.53-.63,1.23-1.14,2.06-1.44,5.83-2.17,11.51-4.76,17.33-6.96,7.75-3.16,15.64-6.02,23.62-8.56.85-.45,1.74-.8,2.63-1,5.85-2.45,11.16,5.29,4.81,9.6-17.27,11.6-38.72,21.7-46.74,42.25-7.99,27.49,27.84,18.12,41.53,10.86,5.62-3.43,11.19-6.94,16.71-10.52,2.69-1.55,5.19-4.11,8.53-3.77,2.88.34,4.73,3.08,4.44,5.85-1.45,5.39-7.89,7.51-12.02,10.6-9.61,5.57-19.9,10.84-28.81,17.21-6.44,4.38-12.42,11.04-11.68,19.34.17,7.87,9.98,7.87,15.84,7.59,12.09-1.75,23.4-7.08,34.42-12.14,5.02-2.37,9.37-6.75,14.82-7.91,3.12-.19,5.55,2.96,5.15,5.9-1.35,5.37-8.01,6.93-12.17,9.69-10.28,5.57-20.43,11.46-30.26,17.8-6.51,3.74-17.06,14.41-6.62,19.86,6.94,1.76,13.99-.87,20.57-2.95,23.69-8.28,45.44-20.52,67.96-30.96,31.48-15.35,67.19-26.48,90.97-53.49,39.07-43.95,14.02-85.07,20.61-135.08,2.27-21.39,18.02-31.77,35.45-41.1,11.92-6.63,23.69-13.57,35.03-21.17,4.75-3.24,9.25-7,12.51-11.78ZM691.54,170.41c10-1.89,11.06,7.97,3.25,12.53-11.22,8.23-23.43,14.93-35.06,22.48-3.19,1.55-7.46,5.48-11.22,5.87-.58,5.6-2.39,11.08-5.39,15.86-7.56,12.03-20.6,18.61-32.19,26.1-12.81,8.14-26.93,14.29-38.93,23.65-8.89,7.12-11.36,18.68-11.95,29.51-1.59,25.89,4.82,51.63,2.56,77.53-2.98,30.3-22.19,57.39-46.86,74.43-17.02,11.42-35.95,19.58-54.45,28.26-22.16,9.51-43.36,20.92-65.22,30.77-13.48,5.4-27.18,12.67-41.99,12.68-19.24.11-24.01-22.44-10.13-33.68-9.4.53-21.18-2.37-24.1-12.55-2.63-9.15.39-19.43,6.96-26.19-16.5,1.55-29.21-7.95-27.57-25.31,1.52-12.06,9.03-21.83,17.72-29.98-21.39,7.79-42.42,16.59-63.98,23.92-15.13,5.13-30.69,10.4-46.83,10.47-19.38-.02-23.81-15.3-8.85-26.98-11.27,2.98-28.45-.57-21.78-15.63,3.12-5.31,8.08-9.23,12.86-12.99-7.23,1.42-14.99,2.78-22.1.19-7.58-2.44-9.55-12.35-4.02-17.89,6.6-7.29,15.05-12.64,23.09-18.2,26.33-17.65,54.81-31.68,82.99-46.07,2.42-1.26,4.83-2.54,7.23-3.85-12.24.4-24.58-.42-36.18-4.12-20.95-8.11-22.24-23.79-3.05-35.65-7.77-.41-16.66-1.13-22.09-7.4-5.22-6.27-4.11-15.81.8-21.91,6.94-9.18,18.01-13.66,27.86-18.97-14.2.79-30.04,2.29-42.57-5.7-11.44-9.14-11.69-26.71.65-35.4,7.62-6.12,16.95-9.66,26.22-12.43,14.6-4.18,29.43-7.52,44.06-11.58,26.87-7.2,53.91-13.84,81.17-19.36,21.02-3.73,43.41-8.68,64.18-1.3,14.49,4.88,28.02,13.05,38.53,24.22,6.48,6.71,12.11,14.23,19.17,20.37,7.31,6.05,15.23,12.33,24.81,14.03,17.53,2.86,35.37-.83,52.78-3.1,22.25-2.55,65.25-11.77,83.52,2.58.75-.48,1.58-.77,2.54-.87,3.25-.66,6.45-1.6,9.7-2.26,14.49-2.8,29.25-3.92,43.83-6.07Z"/>
    </g>
    <path class="cls-1" d="M161.96,558.94c-2.21-19.89,1.62-39.86,9.87-58.01,3.63-6.06,12.9-.77,9.47,5.43-2.76,7.16-5.5,14.39-7.19,21.89-1.96,9.68-2.13,19.63-1.3,29.44.7,7.06-9.99,8.34-10.84,1.25Z"/>
    <path class="cls-1" d="M116.12,550.24c-14.2.88,3.31-54.87,7.82-61.67,4.14-5.36,12.5.42,8.96,6.19-4.28,9.77-6.74,19.28-9.09,29.53-.85,4.16-1.49,8.33-1.85,12.56-.62,4.87,1.34,13.21-5.84,13.39Z"/>
    <path class="cls-1" d="M91.62,478.37c-8.05-4.2,1.17-14.06,3.57-19.43,6.09-9.31,12.55-18.6,20.21-26.67,5.59-4.14,12.12,4.01,6.82,8.52-5.55,6.41-10.61,13.24-15.39,20.23-2.32,3.48-4.45,7.04-6.34,10.77-1.42,3.77-4.15,8.6-8.87,6.57Z"/>
    <path class="cls-1" d="M59.63,608.96c-3.02-.04-5.34-2.56-5.38-5.53-.37-19.28,1.57-38.67,7.23-57.15.49-4.68,6.07-8.01,9.8-4.3,3.6,3.75-.3,8.64-.8,12.87-2.31,8.73-3.92,17.62-4.65,26.62-.53,7.36-.75,14.74-.67,22.11.03,2.97-2.63,5.42-5.54,5.38Z"/>
    <path class="cls-1" d="M116.24,659.69c-5.96-17.42-10.65-35.51-11.8-53.94-.61-5.19-.95-13.67,6.73-12.21,4.78,1.19,3.85,6.67,4.08,10.28.33,6.42,1.16,12.76,2.19,18.38,2.26,11.33,5.08,22.57,8.94,33.46,2.52,6.63-7.45,10.65-10.14,4.03Z"/>
    <path class="cls-1" d="M192.82,685.41c-4.74-1.97-7.91-11.1-11.23-15.32-10.09-16.07-18.67-33.28-23.43-51.72-5.45-13.16,7.59-15.58,9.48-7.2,1.74,7.65,4.1,15.19,7.08,22.45,3.95,9.26,8.52,18.24,13.76,26.84,3.48,5.69,6.99,11.37,10.56,17.01,2.52,3.97-1.77,9.37-6.21,7.94Z"/>
    <path class="cls-1" d="M164.98,794.3c-1.38-.58-2.35-1.66-2.95-3.01-4.28-9.53-8.53-19.08-12.74-28.63-6.46-14.48-12.38-29.22-19.51-43.39-3.48-6.21,6.03-11.59,9.5-5.37.81,1.68,1.69,3.34,2.51,5.03,8.1,17.12,15.3,34.64,23.06,51.91,2.43,5.48,4.87,10.96,7.33,16.43,1.93,4.27-2.98,9.02-7.19,7.04Z"/>
    <path class="cls-1" d="M81.13,768.74c-7.84-20.02-14.45-40.46-19.01-61.48-.71-2.78-1.24-4.83-2.01-6.96-2.66-6.17,6.4-10.76,9.75-4.86,2.5,6.01,3.56,12.55,5.16,18.85,3.91,17.26,9.99,33.9,16.26,50.42,2.55,6.61-7.42,10.66-10.14,4.04Z"/>
    <path class="cls-1" d="M240.88,783.07c-10.76-17.92-21.87-35.61-32.11-53.83-2.52-3.84-5.65-10.27.17-12.75,6.55-2.34,7.99,6,10.8,10,3.91,6.94,7.94,13.8,12.05,20.61,6.15,10.23,12.44,20.37,18.59,30.6,3.44,6.18-5.86,11.55-9.5,5.37Z"/>
    <path class="cls-1" d="M146,926.24c-1.43-.4-2.51-1.33-3.29-2.57-8.39-13.44-16.44-27.09-25.13-40.33-2.73-4.22-5.37-8.5-8.12-12.71-3.37-5.95,5.4-11.4,9.26-5.73,11.19,17.23,22.03,34.67,32.74,52.2,3.66,3.93-.22,10.7-5.46,9.14Z"/>
    <path class="cls-1" d="M221.82,913.15c-5.7-9.21-11.39-18.44-17.33-27.5-3.93-6.24-8.74-11.9-12.57-18.19-3.43-6.23,5.92-11.54,9.5-5.37,10.53,14.85,20.47,30.11,29.9,45.69,3.45,6.17-5.84,11.54-9.5,5.37Z"/>
    <path class="cls-1" d="M306.87,886.49c-12.06-16.49-25.52-31.94-39.3-47-3.59-3.11-7.25-8.59-1.85-11.97,5.27-2.84,8.22,3.29,11.46,6.27,13.38,14.85,26.57,29.93,38.37,46.09,4.22,5.71-4.31,12.26-8.68,6.61Z"/>
    <path class="cls-1" d="M366.16,991.28c-8.93-17.03-18.42-33.78-29.74-49.35-2.48-4.71-8.44-8.29-8.46-13.89.47-4.6,7.11-6.42,9.74-2.53,5.77,7.31,11.15,14.94,16.26,22.74,8.01,12.09,14.95,24.84,21.7,37.66,3.4,6.23-5.93,11.57-9.5,5.38Z"/>
    <path class="cls-1" d="M305.13,1050.5c-2.65-1.51-2.82-4.83-3.82-7.42-1.91-5.85-4.07-11.58-6.69-17.15-8.4-16.5-18.12-32.33-27.98-47.99-8.02-8.32,1.5-16.45,6.99-9.15,4.35,6.79,59.06,89.94,31.5,81.71Z"/>
    <path class="cls-1" d="M211.36,1064.66c-7.04-20.43-15.27-40.85-27.64-58.68.34.4.71.8,1.14,1.09-7.38-7.16,4.85-15.87,10.22-3.88,9.4,14.78,16.78,30.83,22.82,47.26,1.15,5.4,7.74,13.74.55,17.27-2.68,1.07-6.08-.25-7.09-3.05Z"/>
    <path class="cls-1" d="M252.77,1215.71c-1.85-33.01-6.82-66.25-19.82-96.86-3.78-6.2,5.67-11.94,9.37-5.61,10.79,25.03,17.07,52.17,19.5,79.29.63,7.3,1.25,14.61,1.79,21.92.22,2.96-1.75,5.7-4.79,6.05-2.86.33-5.84-1.83-6.05-4.79Z"/>
    <path class="cls-1" d="M341.83,1229.02c-3.42-33.62-4.53-67.93-17.53-99.65-1.73-6.51,8.14-9.5,10.37-3.32,7.47,19.89,12.38,40.75,14.38,61.91,1.22,13.27,1.85,26.59,3.63,39.81.76,7.02-9.9,8.37-10.85,1.26Z"/>
    <path class="cls-1" d="M425.59,1209.16c-4.15-38.14-10.19-76.67-26.5-111.74-.71-1.46-1.44-2.9-2.23-4.31-3.43-6.2,5.92-11.56,9.5-5.37,9.1,17.29,14.76,36.21,19.73,55.03,5.26,21.38,7.69,43.32,10.34,65.13.74,7.03-9.92,8.37-10.84,1.26Z"/>
    <path class="cls-1" d="M253.87,1368.56c.31-25.94.66-52.06-2.22-77.87-1.06-7.01,9.55-8.83,10.77-1.79,2.98,26.29,2.69,52.88,2.36,79.31.19,7.11-10.69,7.47-10.91.35Z"/>
    <path class="cls-1" d="M362.95,1316.76c-.78-13.65-1.93-27.28-3.78-40.81-.33-6.73,9.94-7.55,10.84-1.06,1.9,13.77,3.05,27.65,3.85,41.53.17,7.1-10.56,7.49-10.91.35Z"/>
    <path class="cls-1" d="M460.26,1348.88c-3.03-27.64-7.1-55.53-15.87-81.99-1.91-3.74-3.11-9.45,2.04-11.08,5.05-1.53,7.09,3.55,8.24,7.46,9.02,27.04,13.26,55.56,16.36,83.82,1.14,7.02-9.65,8.82-10.77,1.79Z"/>
  </g>
  <path d="M570.93,1028.47c-29.13-8.11-30.86-52.28,2.62-52.86,6.81-.36,24.41,4.98,22.07,13.85,13.18,15.87-4.8,44.22-24.69,39.01ZM576.69,1018.21c7.7-1.56,14.36-11.09,12.06-18.9-.94-3.06-4.65-5.21-3.28-8.75,0,0,0,0,0,0-27.25-17.4-37.12,23.1-8.77,27.65Z"/>
  <path class="cls-3" d="M1303.26,9.4c.17-.02.34-.05.52-.07-.02,0-.05,0-.07,0,.22-.06.44-.12.66-.18.01,0,.02-.02.04-.03-.39.13-.79.23-1.2.27.02,0,.04,0,.06,0Z"/>
  <path class="cls-1" d="M1395.22,787.16c-35.24-40.95-100.49-60.18-142.91-18.79-2.76-21.74-8.96-44.11-24.96-59.96-24.61-25.8-65.27-36.29-98.68-22.83-39.32,15.43-54.11,58.59-64.22,96.11-36.97-39.43-80.87-30.73-103.61,17.53-24.8-10.2-50.09,1.28-69.29,17.49-5.91,5.57-18.19,13.05-16.82,22.23,5.31,13.97,35.68,9.07,48.12,9.74,16.63-.21,33.25.16,49.88-.3,24.64-.79,49.24,2.3,73.89,2.71,69.71,1.47,139.48.39,209.19,2.45,33.44.56,66.88.22,100.32-.2,16.32-.62,32.65-1.17,48.97-1.53,5.33-.6,11.77.8,16.05-3.13,10.06-12.84-16.36-51.28-25.93-61.52ZM1113.58,748.27c-1.55,2.54-5.19,3.09-7.58,1.49-2.49-1.61-3.13-5.14-1.49-7.57,3.79-6.23,7.7-12.4,11.77-18.46,4.26-4.88,12.68-23.29,20.09-14.34,3.09,4.53-2,7.83-4.32,11.1-6.75,8.84-12.7,18.28-18.48,27.78ZM1158.78,728.25c-2.19,2.89-4.11,6.01-6.13,9.02-4.05,4.34-6.92,16.47-14.63,12.21-2.51-1.69-3.08-5.07-1.49-7.58,2.92-4.6,5.98-9.1,9.01-13.62,3-4.69,8.28-14.2,14.13-7.15,1.55,2.21,1.05,5.32-.88,7.12ZM1332.54,834.24c-8.54-.26-17.09-.99-25.64-.94-2.83-.3-5.76,1.08-8.45-.13-4.24-1.89-3.88-8.72.62-10.05,11.21-1.88,22.74.19,34.05.22,7.1.44,6.54,11.17-.58,10.9ZM1336.26,811.71c-8.44-.49-16.87-1.23-25.33-1.34-7.81,1.08-9.01-10.36-1.13-10.88,9.02-.04,18.03.81,27.04,1.31,7.11.48,6.52,11.22-.58,10.9Z"/>
  <path class="cls-1" d="M1035.24,1692.55c-15-21.24-27.93-46.3-52.99-57.22-36.53-16.83-80.8-2.03-101.66,31.94-15.22-39.42-36.04-84.31-80.11-96.88-34.53-9.77-74.94,2.27-97.7,30.21-18.05,22.74-23.68,52.15-28.76,80.01-29.9-22.15-71.81-33.44-106.1-14.62-20.07,10.62-50.73,43.34-48.34,67.26,1.87,7.63,10.32,9.34,17.14,9.1,12.76.28,25.52.41,38.29.35,119.2-1.6,238.12-.16,357.46-.51,49.27-.96,98.41,3.91,147.73,2.87,15.08.14,30.25.61,45.24-1.42,26.04-2.61,8.8-21.91-1.06-32.78-26.18-30.39-53.37-30.29-89.16-18.32ZM721.84,1628.95c-6.32-4.87,1.64-11.06,4.32-15.64,3.03-3.89,6.08-12.26,12.29-8.43,5.84,4.31-.6,10.3-3.23,14.52-3.47,3.97-6.76,13.44-13.39,9.55ZM755.69,1629.08c-4.08,4.1-7.71,16.21-14.94,11.88-6.68-5.29,2.7-12.38,5.43-17.36,3.8-3.81,6.49-13.45,13.16-10.49,7.3,4.34-.63,11.49-3.66,15.98ZM984.06,1723.24c-11.66-.21-23.31-.86-34.98-.99-3.51-.15-7.04.06-10.53-.21-6.85-1.48-5.16-11.62,1.79-10.77,14.78-.07,29.53.75,44.31,1.06,7.12.52,6.59,11.07-.59,10.9ZM987.06,1699.84c-11.21-.89-22.4-2.05-33.66-2.11-3.7-.18-7.3.61-10.96.63-4.61-.67-6.1-7.48-2.03-9.89,1.74-1.02,3.63-1.2,5.61-1.37,13.89-.89,27.79.72,41.62,1.84,7.14.6,6.56,11.16-.58,10.9Z"/>
  <path class="cls-2" d="M1958.07,1391.81c-37.64-75-112.01-135.15-198.63-134.82-61.57.05-126.65,27.56-173.59,66.74-9.93,9.04-19.72,18.57-27.73,29.36-1.91,3.11,1.42,7,4.76,5.79,2.17-.67,4.18-1.76,6.32-2.53,14.81-5.44,30.16-9.4,45.65-12.37,4.05-1.33,12.5-.63,14.53-3.91,37.6-.05,76.93,5.53,109.53,25.34,55.44,33.74,78.72,100.12,63.05,162.13-7.04,32.02-21.29,62.4-42.63,87.38-21.86,27.5-50.89,50.15-84.87,60.48-63.25,20.78-128.26-4.36-188.95-22.43-17.86-3.07-2.04,19.21,1.73,25.65,5.9,9.69,12.1,19.23,18.71,28.45,40.42,56.71,118.08,104.81,188.31,108.31,35.4,1.01,71.6-4.58,104.51-17.82,21.42-9.32,40.87-22.83,58.26-38.35,94.26-84.7,160.9-246.83,101.04-367.42ZM1566.8,1720.05s.45.18.45.17c-9.4-2.56-18.69-5.48-27.34-10.05-3.2-1.58-6.31-3.39-9.38-5.21-2.5-1.03-4.64-3.64-2.94-6.3,3.48-4.78,9.29,2.02,13.15,3.39,9.16,5.21,19.22,8.25,29.28,11.12,4.47,2.06,1.31,8.96-3.21,6.88ZM1603.47,1772.17c-10.58-1.96-20.29-7.21-29.72-12.2-4.24-2.54-.45-8.98,3.86-6.53,8.25,4.5,16.76,8.75,25.9,11.1,5.65-.19,5.62,8.1-.05,7.63ZM1615.24,1739.87c-1.59-2.82,1.45-6.51,4.53-5.36,12.62,4.66,26.02,7.45,39.5,7.65,2.47.09,5.01-.3,7.44.19,4.57,1.46,2.59,8.43-2.08,7.29.08.02.16.04.24.06.16.02.31.04.47.05-.93-.09-1.89-.04-2.83-.04-12.97.31-25.98-1.87-38.35-5.71-2.93-1.27-7.01-1.32-8.91-4.13ZM1684.1,1798.23c-11.03-.83-22.07-2.27-32.7-5.42-1.98-.6-3.08-2.82-2.46-4.77.64-1.99,2.79-3.06,4.77-2.46,10.29,3.1,20.65,4.25,31.26,5.13,4.58.84,3.78,7.75-.87,7.52ZM1695.89,1699.14c-11.64,4.81-23.98,7.3-36.59,7.09-.99.03-1.94-.22-2.72-.87-2.58-1.99-1.17-6.61,2.14-6.7,5.09-.13,10.2-.29,15.25-.96,4.31-.6,8.47-1.9,12.57-3.31,3.04-.6,5.74-2.77,8.77-2.23,3.11.86,3.58,5.64.59,6.99ZM1951.13,1481.16c-.37,4.29-.29,8.63-.69,12.93-.31,4.78-.69,9.55-1.21,14.31-.11,2.03-1.93,3.74-3.99,3.59-1.98-.1-3.81-1.93-3.59-3.99.58-5.3.97-10.61,1.32-15.93.56-4.45-.14-9.13,1.04-13.47,1.8-4.43,8.6-2.01,7.13,2.56ZM1870.9,1379.64c3.49-2.96,6.5,1.19,7.92,4.16,9.56,15.74,14.35,33.64,19.29,51.22,1.08,4.8-6.17,6.54-7.4,1.7-3.62-12.75-7.05-25.62-12.47-37.75-2.11-4.47-4.42-8.85-6.99-13.06-1.59-1.76-2.33-4.48-.35-6.27ZM1645.81,1321.38c-7.48,1.24-14.63,3.99-21.86,6.19-5.07,1.63-10.13,3.31-15.1,5.21-1.9.74-4.17-.39-4.85-2.31-.71-1.99.38-4.11,2.31-4.84,6.24-2.4,12.61-4.44,18.98-6.46,5.19-1.17,17.34-6.67,21.77-4.71,2.82,1.62,2.02,6.42-1.25,6.92ZM1750.27,1294.54c-13.31-.68-26.7.39-39.79,2.58-4.66.78-9.26,1.74-13.83,2.94-1.97.53-4.1-.87-4.55-2.85-.82-5.98,7.95-5.24,11.82-6.62,11.03-1.99,22.19-3.59,33.41-3.78,4.42-.06,8.85-.03,13.26.14,4.92.26,4.64,7.74-.33,7.58ZM1771.48,1655.06c5.41-4.38,10.75-8.93,15.63-13.91,2.79-2.96,5.4-6.04,7.84-9.3.9-1.24,1.78-2.55,3.39-2.9,3.76-.93,6.3,4.18,3.3,6.6-3.73,5.19-7.98,9.97-12.61,14.37-4.42,4.13-9.06,8.03-13.76,11.82-1.61,1.29-4.15.7-5.29-.91-1.45-1.98-.45-4.58,1.51-5.77ZM1799.21,1771.37c-9.58,5.73-19.95,9.79-30.77,12.48-3.93.63-11.52,4.6-14.44.93-2.1-2.99.81-6.4,4.1-6.2,8.58-1.89,17.16-4.25,25.3-7.58,4.18-1.91,8.24-4.1,12.26-6.34,4.38-2.27,7.9,4.33,3.54,6.71ZM1813.54,1701.39c-5.01,4.14-10.2,8.08-15.74,11.49-5.91,3.61-11.95,7.02-17.98,10.44-1.79,1-4.18.22-5.13-1.59-.98-1.86-.21-4.12,1.59-5.13,5.85-3.27,11.68-6.62,17.41-10.09,5.34-3.25,10.27-7.1,15.11-11.04,3.75-2.74,8.21,2.91,4.74,5.91ZM1808.58,1378.24c-11.97-10.85-24.49-21.24-39.29-28-2.7-1.43-5.54-2.55-8.35-3.74-4.44-2.16-1.26-8.93,3.26-6.86,13.49,5.58,26.31,12.94,37.39,22.5,4.01,3.37,8,6.79,11.89,10.29,3.72,3.24-1.08,8.98-4.89,5.8ZM1830.43,1556.45c-2.04,3.41-3.16,11.31-8.6,9.29-1.82-.86-2.75-3.22-1.8-5.06,1.88-3.66,3.58-7.42,5.11-11.24,3.18-7.93,5.46-16.2,6.27-24.71.59-2.37-.73-5.25,1.32-7.08,2.5-2.36,6.62-.18,6.47,3.15-.21,12.34-3.89,24.38-8.76,35.65ZM1837.47,1477.2c-2.05.17-3.91-1.43-4.08-3.49-.8-7.94-3.2-15.68-5.89-23.17-1.34-3.55-2.62-7.15-4.5-10.46-2.22-4.42,4.42-7.87,6.75-3.48,4.41,8.51,7.34,17.76,9.6,27.05.49,4.11,4.36,12.45-1.88,13.55ZM1822.74,1307.49c-3.67-1.67-7.21-3.68-11.03-4.99-4.68-1.56-2.44-8.69,2.31-7.23,17.77,7.14,34.5,17,49.07,29.46,3.76,3.21-1.01,8.97-4.86,5.84-10.79-9.18-22.67-17.02-35.49-23.07ZM1861.42,1635.7c-1.79-.85-2.79-3.24-1.8-5.06,3.25-5.97,6.55-11.92,9.73-17.93,3.38-6,5.82-12.52,9.06-18.55,2.11-2.69,6.71-1,6.74,2.38-2.05,6.79-5.99,13.24-9.1,19.74-3.13,5.9-6.37,11.75-9.56,17.62-.88,1.84-3.21,2.72-5.06,1.8ZM1901.46,1678.31c-1.91,2.88-3.93,5.7-5.99,8.47-5.95,7.91-12.94,14.94-19.59,22.25-1.32,1.56-3.8,1.81-5.35.45-1.52-1.28-1.87-3.83-.45-5.35,3.21-3.44,6.39-6.91,9.56-10.38,5.73-6.05,10.86-12.6,15.44-19.55,2.73-4.12,9.03-.08,6.38,4.11ZM1908,1508.98c-.34,5.42-1.18,10.8-2.08,16.15-.34,2.05-2.42,3.43-4.41,3.06-6.01-1.39-1.22-10.8-1.48-15.12.44-4.13.6-8.28.74-12.43.37-2.56-.58-5.63,1.05-7.82,1.2-1.44,3.44-1.77,4.99-.72,3.32,1.88.89,13,1.19,16.88ZM1920.28,1383.35c.01-3.23,4.5-4.93,6.59-2.4,9.16,11.47,14.25,25.54,18.72,39.35,1.14,3.52,2.25,7.06,3.28,10.62.9,3.17-3.09,5.92-5.75,4.04-1.45-.87-1.71-2.64-2.16-4.1-2.87-9.52-5.96-19-9.94-28.12-1.76-3.83-3.72-7.54-5.89-11.16-1.29-2.91-4.56-4.99-4.84-8.23ZM1951,1559.71c-2.78,10.4-6.36,20.54-10.47,30.48-1.69,3.31-2.54,10.39-7.76,8.33-1.87-.85-2.68-3.21-1.8-5.05,1.61-3.83,3.18-7.68,4.71-11.52,3.99-10.5,7.82-21.2,9.69-32.3.27-4.92,7.74-4.61,7.58.35-.27,3.29-1.18,6.52-1.95,9.72Z"/>
</svg>