<?xml version="1.0" encoding="UTF-8"?>
<svg id="Camada_1" data-name="Camada 1" xmlns="http://www.w3.org/2000/svg" viewBox="0 0 2000 1066.18">
  <defs>
    <style>
      .cls-1 {
        fill: #a62317;
      }

      .cls-2 {
        fill: #1d0809;
      }

      .cls-3 {
        fill: #edae1a;
      }
    </style>
  </defs>
  <g>
    <g>
      <path class="cls-3" d="M1312.06,821.21c-3.8-53.79-35.97-104.82-85.02-128.32-47.81-20.86-104.26-18.39-153.06-2.11-37.64,13.35-71.28,42.36-84.58,80.64-2.78,5.63,1.31,14.63-6.31,17.05-19.38,1.33-3.44-30.98.72-39.55,5.54-11.05,13.38-20.76,21.76-29.77,36.66-40.98,93.75-54.85,146.93-55.16,53.17-.67,106.13,19.6,138.24,63.35,12.87,16.69,22.28,35.37,28.6,55.35,3.4,11.34,4.71,23.03,6.36,34.71,1.13,4.19-1.02,8.94-5.6,9.62-3.71.59-7.49-2.03-8.03-5.83Z"/>
      <path class="cls-3" d="M976.34,707.98c-10.33-14.73-24.73-18.66-41.39-22.03-17.12-4.45-33.25-21.67-28.79-40.17,5.51-8.17,14.7-2.71,13.35,6.59,2.8,23,30.78,19.62,46.42,28.34,8.49,4.39,15.47,10.99,21.34,18.46,5.63,7.18-5.07,15.91-10.93,8.81Z"/>
      <path class="cls-3" d="M1012.55,672.78c-7.2-13.13-22.95-14.49-35.52-19.48-10.42-4.74-20.45-12.12-25.33-22.76-9.78-21.68,8.43-24.58,11.05-13.92.11,3.33.92,6.62,2.42,9.61,9.14,15.7,28.91,15.89,43.39,23.74,6.74,3.44,11.92,9.18,15.95,15.47,4.7,7.79-6.98,15.11-11.96,7.34Z"/>
      <path class="cls-3" d="M1053.81,651.64c-6.23-18.94-28.29-21.19-40.27-34.9-8.54-9.84-11.96-24.69-8.63-37.25-.12.39-.27.76-.32,1.16,1.69-8.61,14.94-6.6,13.84,2.15-.83,2.7-.79,5.47-.61,8.26.47,9.24,5.27,17.67,13.33,22.34,10.46,6.3,22.69,11.02,29.53,21.73,2.25,3.43,4.23,7.06,5.95,10.77,3.64,8.34-8.89,14.09-12.81,5.74Z"/>
      <path class="cls-3" d="M1093.65,643.63c-.84-20.7-22.39-31.12-26.77-50.33-1.84-8.9-.59-18.24,2.35-26.77,3.84-15.72,20.85-8.78,14.36,2.1-10.79,24.85,4.15,31.93,16.26,50.15,3.62,7.01,10.35,20.43,6.37,27.91-3.36,4.93-11.91,2.94-12.58-3.07ZM1081.81,570.26h0c.62-.43,1.27-.89,1.69-1.54-.47.58-1.04,1.1-1.69,1.54Z"/>
      <path class="cls-3" d="M1145.3,645.8c-7.54-.28-7.34-6.94-7.22-12.71-.5-4.44-1.85-8.74-3.34-12.93-4.42-10.21-8.8-21.25-5.9-32.51,2.94-13.29,11.33-28.22,24.9-32.65,8.53-1.48,11.36,11.52,2.92,13.68,0,0,0,.02,0,.02-11.34,7.49-18.07,23.77-12.69,36.75,3.29,8.45,16.59,38.48,1.32,40.35Z"/>
      <path class="cls-3" d="M1189.01,649.59c-9.27-1.58-4.91-10.93-5.58-17.28-2.69-14.46-6.54-29.88-.15-43.99,2.63-9.85,31.22-37.3,35.69-17.61.14,4.54-3.69,6.87-7.64,7.54-7.04,4.02-13.44,9.91-15.98,17.81-3.25,9.89-.72,20.22,1.29,30.08,1.03,7.33,3.53,23.77-7.63,23.45Z"/>
      <path class="cls-3" d="M1229.34,658.53c-9.73-3.14-2.53-14.24-2.94-21.27.17-8.29-1.49-16.61-.25-24.89,2.43-16.29,16.39-29.11,32.17-32.46,5.11-1.42,12.1,0,12.23,6.41-.54,11.97-15.64,2.03-27.16,19.42-5.83,8.68-2.96,19.35-2.92,29.08-.67,7.36.13,25.89-11.13,23.71Z"/>
      <path class="cls-3" d="M1255.82,674.43c-4.83-7.35,4.39-10.19,6.94-15.8,6.64-11.9,5.67-26.5,12.3-38.33,4.13-9.99,40.93-25.43,36.67-4.85-1.55,3.52-5.28,4.33-8.69,4-6.52,1.37-14.51,3.79-17.21,10.54-3.87,12.69-4.91,26.54-12.27,37.94-3.46,5.6-11.96,13.91-17.74,6.5Z"/>
      <path class="cls-3" d="M1287.67,699.4c-.93-13.44,14.36-3.29,19.68-20.23,4.12-11.99,5.63-27.24,18.46-33.39,6.4-3.39,33.01-8.91,34.48,1.42,1.13,8.32-6.8,9.08-13.02,8.27-6,.42-13.05.48-17.74,4.74-7.13,9.06-6.11,21.91-12.76,31.38-3.66,8.06-25.13,20.71-29.1,7.8Z"/>
      <path class="cls-3" d="M1303.36,734.49c-.47-12.17,21.32-6.11,28.23-13.02,12.43-10.23,14.2-29.44,29.63-36.76,7.7-4.01,21.7-8.79,29.66-4.38,4.79,3.67,2.19,12.21-3.92,12.4-5.51-.27-11.09.72-16.17,2.89-11.2,4.11-14.19,16.4-20.2,25.44-2.72,4.13-6.02,7.88-9.83,11.03-8.17,7.06-19.68,7.2-29.85,8.85-3.77.45-7.26-2.73-7.55-6.44Z"/>
      <path class="cls-3" d="M954.47,739.94c-21.2-32.3-68.17-.07-81.28-57.67-.47-2.71-.74-5.46-.9-8.2-.59-5.51,5.53-9.78,10.45-6.93,5.76,3.35,2.78,12.34,5.62,17.93,7.27,27.21,35.65,20.18,56.07,28.84,8.69,3.31,15.74,9.71,21.01,17.27,5.57,7.23-5.2,15.89-10.98,8.75ZM882.55,679.45c.12-.05.24-.1.36-.15.07-.06.13-.12.2-.18-.18.12-.37.23-.56.33ZM884.77,677.61c.31-.29.54-.69.72-1.07-.21.38-.45.74-.72,1.07Z"/>
      <path class="cls-3" d="M1328.2,770.9c-5.95-.83-7.68-9.46-2.68-12.65,1.61-1.12,3.44-1.38,4.95-1.18,3.3.39,6.62.36,9.91-.08,7.01-.93,13.03-4.89,17.77-9.97,10.18-11.07,18.35-25.45,33.62-30.03,7.01-2.81,20.17-3.5,17.83,7.61-1.16,3.46-4.78,5.38-8.26,4.61-2.58.06-5.01,1-7.36,1.97-8.55,3.44-13.66,11.52-19.35,18.32-11.61,15.3-26.74,24.41-46.43,21.4Z"/>
    </g>
    <path class="cls-1" d="M1939.76,976.36c-11.53-27.87-26.82-53.94-40.71-80.66-23.05-45.4-44.27-94.16-84.23-127.56-47.16-39.33-90.5-38.27-140.45-5.16-24.21,13.2-45.11,36.51-72.84,41.46,31.68,27.2,67.05,50.06,105.26,66.97,27.51,11.12,56.05,19.47,83.96,29.52,5.12,1.73,10.26,3.41,15.47,4.87,4.59,1.48,2.16,8.91-2.52,7.17-21.58-6.4-42.62-14.52-64-21.54-26.94-8.2-53.24-20.03-77.42-34.26-20.75-11.84-40.22-25.64-58.56-40.95-4.97-4.14-9.88-8.38-14.73-12.68-11.91-4.3-21.02-14.25-30.45-22.45-24.57-23.32-45.97-50.45-74.93-68.69-52.61-31.82-89.35-26.44-129.92,19.06-39.14,40.7-88.22,76.21-146,81.57-75.63,6.05-160.81-35.41-227.16-69.29-77.54-51.05-134.54-87.42-231.86-69.37-82.42,11.58-132.49,92.55-212.53,111.07-10.79,4.32-21.46,6.45-32.06,7.06-25.29,10.8-48.55,26.05-71.76,40.67-39.98,25.51-80.09,51.02-122.85,71.34-14.51,6.81-29.53,12.51-44.56,18.05-4.68.81-12.24,7.3-15.19,1.31-.66-1.99.46-4.12,2.42-4.8,11.7-4.07,23.31-8.45,34.35-12.9,20.58-8.15,40.81-18.78,60.02-29.49,48.26-25.62,91.73-60.2,140.64-84.42-46.56-3.85-92.01-31.67-139.69-31.13-73.31.08-125.95,58.53-169.47,110.57-22.01,25.85-43.85,51.86-67.3,76.44-4.1,6.28-19.06,16.04-18.86,24.86-.8,1.48-1.54,3.01-2.18,4.59-3.98,12.99,5.46,20.83,16.6,24.25,3.1,1.56,7.21,2.5,12.66,2.73,32.81,3.05,65.35-4.82,97.82-8.51,75.07-10.34,149.87-22.74,225.39-29.49,45.88-4.41,91.89-7.73,137.94-9.79,58.81-1.73,119.1.63,177.69-7.5,6.82-.94,13.62-2.02,20.39-3.23,34.8-1.49,69.63-2.81,104.43-2.87,26.99.49,53.97.67,80.96.7,19.54,1.73,39.05,3.51,58.55,5.32,79.15,6.89,158.68,8.08,238.07,6.36,95.42-1.11,190.49,7.96,285.77,11.18,89.87-.59,176.83,27.16,265.68,37.71,30.29,4.18,60.82,7.71,91.44,7.38,24.02.13,52.05-5.51,36.75-35.46ZM1705.33,782.35c-1.15-1.69-.73-4.15,1-5.29,5.15-3.4,10.36-6.74,15.52-10.12,5.25-3.6,10.82-6.78,15.89-10.63,2.86-2.04,6.88.93,5.77,4.28-.96,2.56-3.95,3.56-5.98,5.13-3.04,2.01-6.08,4-9.13,6-5.92,3.9-11.88,7.71-17.79,11.61-1.71,1.13-4.09.75-5.29-.99ZM1755.84,779.89c-5.79,4.01-12.01,7.78-18.01,11.36-5.35,3.17-10.79,6.18-16.2,9.24-1.79,1.02-4.21.12-5.11-1.67-.97-1.91-.13-4.09,1.67-5.11,5.35-3.03,10.72-6.02,15.94-9.09,4.94-2.92,9.75-5.89,14.54-9.04,1.53-.93,2.88-2.33,4.79-2.31,3.3-.02,4.88,4.54,2.38,6.62ZM224.39,864.6c-1.41,1.53-3.74,1.82-5.35.44-1.53-1.3-1.85-3.83-.45-5.35,5.08-5.51,10.23-10.95,15.33-16.44,5.35-5.7,10.26-11.82,15.81-17.32,3.73-3.25,8.76,2.3,5.09,5.65-5.28,5.29-9.98,11.12-15.09,16.58-5.11,5.49-10.26,10.92-15.34,16.44ZM243.1,873.46c-1.4-1.56-1.23-3.96.29-5.37,3.09-2.86,6.13-5.76,8.7-8.41,3.55-3.71,6.99-7.52,10.4-11.36,3.4-2.8,7.08-11.26,11.89-10.18,2,.55,3.1,2.84,2.5,4.76-6.23,8.33-13.66,15.96-20.82,23.58-3.55,2.52-8.22,11.34-12.95,6.98ZM430.68,874.56c-1.69,1.17-4.11.72-5.29-.99-1.17-1.71-.71-4.11,1-5.29,6.09-4.22,12.25-8.35,18.32-12.6,6.05-4.21,11.9-8.72,18.06-12.78,1.72-1.16,4.1-.73,5.28.99,1.16,1.7.72,4.13-.99,5.28-6.15,4.07-12,8.57-18.06,12.79-6.07,4.24-12.23,8.38-18.32,12.6ZM488.41,861.19c-9.76,8.54-20.11,16.44-30.49,24.23-1.66,1.22-4.14.68-5.28-.99-1.2-1.75-.68-4.06.99-5.28,4.85-3.56,9.59-7.25,14.31-10.96,4.04-3.2,8.06-6.43,12.03-9.7,2.1-1.4,2.88-3.19,5.21-3.53,3.2-.41,5.48,3.86,3.22,6.24ZM784.52,693.05c13.94-1.31,28.37-.02,41.9,3.8,8.54,2.36,16.65,5.78,24.85,9.02,4.5,2.1,1.34,8.91-3.19,6.9-18.82-8.25-38.84-13.76-59.51-12.51-2.4.29-5.43.45-6.36-2.35-.73-1.94.39-4.16,2.32-4.85ZM751.75,894.89c-2.04.21-3.9-1.59-4-3.6-.11-2.13,1.54-3.79,3.6-3.99,8.2-.79,16.13-1.48,23.86-2.41,6.5-.8,12.94-2,19.36-3.27,2.96-.85,7.48-1.03,7.75,3.04.12,2.14-1.64,4.01-3.78,4.01-7.91,1.26-15.89,3.17-23.82,3.91-7.64.9-15.31,1.57-22.96,2.3ZM821.99,915.84c-15.1,2.26-30.24,4.25-45.43,5.84-4.08-.14-11.69,3.3-12.62-2.76-.11-2.12,1.53-3.81,3.59-4,12.73-1.15,24.81-2.58,37.31-4.32,4.93.36,19.02-5.56,20.2.82.37,2.02-1.01,4.08-3.05,4.43ZM856.28,735.13c-.89,1.92-3.19,2.69-5.05,1.86-14.9-6.58-30.55-11.94-46.67-14.45-6.83-.1-6.1-10.29,4.81-7.04,11.41,2.6,22.81,5.48,33.69,9.85,3.77,2.26,15.75,3.82,13.22,9.79ZM1173.47,872.12c-5.65-1.57-36.83-3.7-30.39-13.31,3.29-3.3,7.19,1.4,10.9,1.65,7.29,2.64,15.93,2.14,22.67,5.41,2.19,2.37.04,6.68-3.18,6.25ZM1183.26,850.14c-20.81-1.21-40.86-3.02-60.7-8.83-4.65-1.58-2.16-8.85,2.48-7.19,9.3,2.89,19.07,4.43,28.6,5.77,10,1.4,20.1,2.13,30.19,2.67,4.9.31,4.34,7.99-.57,7.58ZM1502.71,760.57c1.65-1.34,3.99-1.01,5.35.55,8.19,9.24,16.13,18.69,24.51,27.76,2.22,2.43-.15,6.67-3.37,6.18-1.03-.11-1.84-.63-2.53-1.38-4.55-4.92-8.98-9.95-13.37-15.02-3.69-4.27-7.43-8.49-11.14-12.74-1.36-1.56-1.02-4.08.55-5.35ZM1492.2,778.02c1.69-.74,3.55-.12,4.55,1.21,2.02,2.61,4.36,4.96,6.56,7.42,7.64,8.14,15.67,15.92,23.73,23.65,3.57,3.43-1.55,8.91-5.21,5.54-8.43-8.02-16.78-16.15-24.68-24.68-2.6-3.51-11.23-9.22-4.94-13.14ZM1545.42,950.19c-17.35-1.11-34.87-2.25-52.16-3.69-4,.75-6.17-4.93-2.62-7.02,2.95-1.33,6.47-.15,9.6-.11,15.29,1.51,30.65,2.13,45.97,3.25,4.89.45,4.1,8.1-.79,7.56ZM1556.96,931.39c-16.48-1.73-32.87-4.74-49.44-5.42-3.59,1.05-6.4-3.6-3.77-6.29,5.95-3.26,15.18.14,21.9.19,10.71,1.27,21.4,2.7,32.11,3.96,4.89.48,4.09,8.14-.79,7.56Z"/>
  </g>
  <g>
    <path class="cls-2" d="M469.17,476.34c-41.06-25.27-105.9-28.51-125.24,24.78-7.97-31.99-35.58-66.57-71.81-61.27-16.34,1.45-30.31,12.1-38.11,26.24-15.65,26.13-14.54,59.04-3.41,86.65-15.44-1.33-31.68.17-45.01,8.71-21.26,13.76-36.98,35.27-46.67,58.45-3.71,10.92-16,37.57-12.48,47.61,5.9,11.21,19.8-2.03,28.05-4.55,33.64-15.6,66.51-32.84,100.38-47.94,41.39-18.89,83.76-35.35,126.2-51.87,36.99-13.9,72.75-29.68,110.22-42.75,0,0,0-.02,0-.02,1.51-.29,2.87-.96,3.95-2.12.44-.47.81-1.01,1.1-1.58,18.84-6.87-18.96-36.35-27.17-40.34ZM263.11,596c-41.05,17.71-80.59,38.6-121.15,57.37,6.4-21.22,14.4-42.44,28.74-59.65,9.27-10.91,20.17-21.71,34.36-25.55,8.78-2.28,17.96-2.03,26.93-1.22,4.43.82,9.75.74,12.57-3.36,5.18-8.5-4.26-21.31-5.61-30.54-1.98-7.84-2.84-15.9-2.71-23.98.73-20.13,8.46-44.06,28.07-52.99,14.09-5.64,29.86-2.16,41.25,7.58,14.25,11.48,21.96,28.85,26.17,46.26,2.17,7.93,3.21,25.63,15.75,18.22,5.57-6.38,6.09-15.73,10.06-23.12,4.54-10.26,10.99-20.27,21.24-25.55,34.2-17.02,82.58.18,106.01,28.31-74.19,28.57-148.63,56.79-221.67,88.22Z"/>
    <path class="cls-2" d="M311.33,496.69c-9.06.57-15.8,9.76-21.04,16.39-10.08,13.44-10.81,30.55-9,46.63-14.9,2.44-29.71,6.08-43.26,12.92-8.37,4.04-16.16,9.28-23.31,15.18-4.92,3.84-12.2,9.29-6.11,15.61,2.73,2.63,7.28,2.39,9.86-.32,6.68-6.1,14-11.53,21.94-15.89,12.15-6.61,25.5-10.67,39.11-12.92,5.22-1.21,12.26-1.02,15.02-6.49,1.25-2.47,1.01-5.22.81-7.88-.47-6-.78-12.01-.74-18.03.42-12.44,7.58-24.32,17.73-31.34,7.65-1.8,6.86-13.13-1-13.85Z"/>
    <g>
      <path class="cls-2" d="M1852.23,478.63c-16.93-3.37-34,.21-50.27,4.99,2.83-27.46.21-57.71-16.74-80.49-15.26-21.11-42.03-33.55-68.02-29.43-35.97,5.76-63.96,36.53-76.09,69.62-24.9-25.25-65.32-12.78-88.37,8.81-4.59,4.33-9.33,8.9-12.18,14.61-2.44,5.25,1.62,11.13,7.25,11.32,6.66.79,13.33,1.53,19.98,2.35,39.61,4.56,77.94,16.19,116.02,27.58,35.98,10.67,71.8,21.97,106.81,35.52,34.75,13.9,68.8,29.64,103.09,44.52,17.14,6.48,20.6-19.94,21.01-31.67.25-11.26-1.54-22.66-6.07-33.02-10.2-22.63-31.86-40.34-56.43-44.71ZM1897.18,574.21c-1.77-.84-3.49-1.76-5.22-2.67-2.77-1.45-5.52-2.94-8.26-4.44-1.98-1.18-4.34-2.37-6.76-1.76-65.18-30.32-132.57-55.19-201.77-74.64-37.94-11.33-76.38-21.63-115.9-25.43,12.43-12.23,29.03-21.54,46.76-22.04,11.45-.79,21.27,5.66,29,13.49,4.46,6.03,12.61,6.98,16.1-.49,6.96-20.25,17.8-39.5,34.75-53.07,27.64-23.18,65.05-21.74,87.54,7.58,11.77,15.07,15.07,34.87,15.57,53.54.07,7.46-.75,14.87-1.29,22.29-.99,8.24,6.63,13.6,14.29,11.38,18.95-5.26,39.26-10.26,58.35-2.62,31.02,12.24,48.78,47.08,36.84,78.87Z"/>
      <path class="cls-2" d="M1746.99,454.65c-14.13-5.16-29.51.96-40.36,10.37-2.24-8.12-5.47-16.1-10.43-22.95-3.88-5.11-9.65-15.07-16.91-9.09-4.78,4.83-1.23,9.44,2.53,13.35,3.3,4.05,6.13,8.46,8.18,13.28,4.39,7.74,3.32,26.34,16.26,23.42,4.17-1.59,6.85-5.6,10.44-8.12,5.53-4.34,12.08-8.07,19.28-8.08,9.53.11,17.18,7.17,23.21,13.87,3.42,4.88,6.1,10.49,7.27,16.35.33,1.92-.54,3.74.27,5.65,2.09,6.33,11.62,6.03,13.33-.29,1.42-5.67-.33-11.68-2.47-16.97-5.32-13.88-16.7-25.45-30.6-30.79Z"/>
    </g>
    <path class="cls-2" d="M493.4,177.23c-6.92,12.01-.26,29.2,13.56,32.24,17.92,7.01,44.36-7.91,36.17-29.1-7.2-21.74-39.82-23.89-49.73-3.13Z"/>
    <path class="cls-2" d="M1558.65,165.81c-4.67-6.04-13.15-9.87-20.51-6.58-4.2.9-8.01,3.29-10.49,6.84-7.52,10.57,2.13,24.82,13.65,26.95,17.7,5.44,28.66-13.55,17.35-27.21Z"/>
    <path class="cls-2" d="M1869.18,381.98c-5.73,2.21-8.49,8.25-10.27,13.74-5.06,13.06,5.91,24.89,18.43,27.08,12.31,2.58,26.4-8.33,24.26-21.34,1.74-15.62-19.5-25.21-32.43-19.49Z"/>
    <path class="cls-2" d="M170.75,497.11c3.03-13.51-8.72-26.64-21.56-29.11-37.08-3.98-48.89,43.39-10.68,53.13,15.1,3.54,29.16-10,32.24-24.02Z"/>
    <g>
      <path class="cls-2" d="M167.13,283.45c21.96-2.48,42.45-11.33,63.39-17.85,2.42,13.18,2.68,26.51,4.91,39.84,1.47,9.44,3.24,18.83,4.85,28.25,1.48,8.62,2.86,17.26,4.37,25.87.41,4.87,3.01,10.32,8.61,10.22,10.44.23,15.92-25.93,19.16-34.23,6.12-19.58,11.8-39.33,15.6-59.51,20.4,6.9,39.67,16.67,60.15,23.41,7.51,2.36,21.05,9.59,24.68-1.49,2.02-8.28-12.17-18.15-17.07-24.56-13.12-14.56-25.45-29.8-38.55-44.37,4.12-8.49,10.86-15.47,16.6-22.87,8.65-10.67,17.14-21.49,24.83-32.89,7.93-8.75,4.52-19.77-8.23-17.27-11.81,2.58-22.94,7.51-34.03,12.21-14.21,6.16-28.57,11.94-42.85,17.92-13.67-13.97-25.79-29.4-40.28-42.56-3.45-3.13-6.86-6.35-10.5-9.25-4.96-4.26-12.58-1.94-13.87,4.62-.89,6.63.87,13.42,1.74,20,2.82,17.73,6.58,35.3,9.38,53.02-8.88,10.36-19.8,18.79-29.61,28.24-10.66,10.41-22.02,19.45-32.48,30.3-4.99,6.95,1.47,14.32,9.2,12.94ZM265.98,188.49c-.46.52-.93,1.17-1.29,1.9.31-.71.76-1.34,1.29-1.9ZM227.95,224.24c6.37-6.04,7.09-11.48,5.12-19.77-3-16.75-6.32-33.44-8.94-50.25,12.91,11.76,23.84,25.36,35.8,38.02,4.12,3.9,9,11.22,15.51,8.5,1.95-.96,3.92-1.88,5.93-2.71,20.21-8.01,39.96-17.16,60.29-24.87-10.13,14.27-21.86,27.31-32.18,41.42-10.4,14.77-7.97,18.91,3.75,31.11,11.18,12.63,21.74,25.81,33.17,38.21-14.7-4.97-28.62-11.86-43.15-17.26-12.03-4.35-27.66-12.64-29.06,7-4.44,23-11.07,45.53-18.43,67.75-.94-5.67-1.87-11.34-2.86-17-1.09-6.23-2.22-12.45-3.23-18.7-1.98-11.67-2.76-23.48-4.17-35.22-.85-6.71-1.73-15.13-8.13-18.94-3.95-2.35-8.47-.18-12.37,1.09-14.03,4.36-27.72,9.84-41.96,13.5,14.8-14.14,30.52-27.33,44.9-41.89Z"/>
      <path class="cls-2" d="M188.54,309.69c6.21-5.51,13.02-10.96,17.41-18.06,1.21-4.3-4.91-6.62-7.1-2.86-7.48,9.46-17.25,16.76-26.45,24.45-9.15,7.42-18.72,14.4-29.25,19.74-7.19,3.52-14.64,6.47-22.18,9.14-4.16,1.44-8.34,2.8-12.55,4.09-1.98.61-3.22,2.64-2.65,4.68.53,1.96,2.73,3.26,4.68,2.65,5.73-1.75,11.44-3.6,17.05-5.71,23.15-7.67,42.87-22.2,61.04-38.12Z"/>
      <path class="cls-2" d="M215.98,305.15c-.53-5.3-6.85-4.75-8.07-.05-12.97,23.03-29.42,44.29-49.55,61.54-5.95,5.16-12.18,10.02-18.73,14.47-4.21,2.83-8.39,5.72-12.7,8.38-1.76,1.08-2.43,3.38-1.36,5.2,1.03,1.76,3.45,2.45,5.2,1.37,5.63-3.58,11.18-7.3,16.67-11.1,28.43-20.7,53.15-48.18,68.55-79.79Z"/>
      <path class="cls-2" d="M158.76,428.52c6.51-4.61,12.67-9.79,18.23-15.52,22.53-22.83,38.72-51.67,47.59-82.38-.38-5.23-7.15-4.74-7.94.06-7.86,25.65-20.67,49.97-38.63,70-4.13,4.68-8.41,9.23-13.12,13.33-3.46,2.98-7.03,5.84-10.76,8.48-1.69,1.2-1.91,3.75-.69,5.33,1.31,1.7,3.65,1.88,5.33.69Z"/>
    </g>
    <g>
      <path class="cls-2" d="M1606.27,279.44c34.47-7.07,64.35-26.97,96.12-41.09,22.05,19.32,35.75,46.15,56.02,67.17,7.24,7.07,13.49,16.02,22.46,20.89,13.38,2.87,11.35-14.49,10.77-22.89-2.4-27.7-8.43-54.92-14.7-81.95,20.29-4.79,40.55-9.96,59.88-17.92,5.26-2.14,10.46-4.43,15.63-6.77,2.89-1.18,5.79-2.66,7.52-5.37,2.96-4.49.11-10.48-4.56-12.45-12.92-4.86-27.02-5.77-40.58-7.82-18.41-2.05-36.83-4.77-55.37-5.02,2.92-17.62,4.66-35.4,6.4-53.17.16-7.17,2.72-14.88.2-21.79-2.02-4.61-7.95-6.29-12.33-4.08-9.04,4.87-14.89,14.02-20.95,22.01-8.93,12.76-18.32,25.19-27.8,37.53-31.2-6.62-63.25-16.13-95.42-18.62-12.2,1.16-10.76,13.11-2.6,19.04,16.84,14.46,36.01,26.01,54.68,37.94-9.49,12.18-20.64,22.97-30.43,34.92-12.84,15.48-27.13,29.77-40.07,45.12-6.98,11.52,5.12,17.03,15.13,14.33ZM1659.83,208.76c7.82-9.35,28.28-26.2,9.59-35.35-15.03-9.26-29.69-19.12-44.09-29.33,25.68,3.82,50.75,10.64,76.04,16.28,12.65,3.5,16.79-8.99,23.63-16.81,9.48-11.95,17.58-24.97,27.34-36.7-1.67,17.73-3.36,35.47-6.06,53.08-.48,5.61-2.84,11.28-1.81,16.9,1.25,4.33,7.11,6.16,10.63,3.48,27.27.14,54.44,4.2,81.37,8.31-21.67,9.84-45.1,14.3-67.74,21.02-11.57,5.02-3.8,18.75-2.56,27.72,5,22.46,9.69,45.1,11.5,68.06-19.29-18.9-34-41.64-51.03-62.43-6.6-6.91-12.77-16.19-22.29-19.02-2.99-.48-5.58.65-8.24,1.82-10.04,4.44-19.83,9.48-29.61,14.46-18.06,9.19-36.32,18.28-55.87,23.85,16.95-17.95,32.58-37.08,49.18-55.34Z"/>
      <path class="cls-2" d="M1923.51,260.23c-9.93.01-19.89-.83-29.58-3.08-21.28-4.67-41.15-14.97-59.03-27.78-2.36-3.22-7.76-.62-6.72,3.23.8,2.75,3.97,3.97,6.05,5.63,4.38,2.99,8.81,5.89,13.46,8.44,19.85,11.61,42.05,19.44,65.1,20.86,4.18-.38,13.77,2.75,14.39-3.37.07-2.02-1.6-3.93-3.67-3.93Z"/>
      <path class="cls-2" d="M1921.3,294.57c-10.04-2.34-20.04-4.97-29.72-8.56-25.41-9.81-50.35-24.32-67.18-46.16,0,0-.01,0-.02,0-2.41-4.35-8.98-.79-6.68,3.6,8.89,12.8,21.65,22.71,34.48,31.36,20.43,13.1,43.25,21.93,66.93,27.03,4.79,1.41,6.9-5.91,2.17-7.28Z"/>
      <path class="cls-2" d="M1902.76,332.42c-11.9-5.66-23.75-11.43-34.66-18.87-20-14.32-39.7-30.75-50.97-53.09-.89-1.79-1.32-3.62-1.72-5.55-1.21-3.02-5.77-3.06-7.03-.03-1.62,9.86,15.66,30.28,22.57,37.45,19.53,20.12,43.14,35.71,68.72,47.04,4.56,2.01,7.57-4.89,3.09-6.94Z"/>
    </g>
  </g>
</svg>