<?xml version="1.0" encoding="UTF-8"?>
<svg id="Modo_de_isolamento" data-name="Modo de isolamento" xmlns="http://www.w3.org/2000/svg" viewBox="0 0 2000 2000">
  <defs>
    <style>
      .cls-1 {
        fill: #a62317;
      }

      .cls-2 {
        fill: #1d0809;
      }

      .cls-3 {
        fill: #edae1a;
      }

      .cls-4 {
        fill: #100;
      }
    </style>
  </defs>
  <g>
    <path class="cls-3" d="M604.36,339.95c38.89,59.98,71.81,123.73,109.11,184.73,4.51,7.73,16.31.61,11.81-6.9-14.06-23.5-27.46-47.39-41.71-70.78-23.32-38.97-43.61-79.91-69.68-117.17-7.15-10.95-18.9,1.56-9.55,10.13Z"/>
    <path class="cls-3" d="M793.51,481.02c-4.18-10.85-8.16-21.77-12.21-32.66-19.54-54.87-39.81-109.5-58.48-164.67-1.93-7.57-13.59-5.88-13.44,1.85,22.16,67.37,47.05,134.16,71.53,200.81,3.38,8.25,16.05,2.75,12.61-5.32Z"/>
    <path class="cls-3" d="M827.25,344.45c11.42,43.01,21.13,86.47,32.28,129.54,4.69,10.27,18.01,4.24,11.53-9.88-15.56-67.36-34.69-133.85-50.25-201.17.66-6.16-7.42-10.02-11.7-5.49-3.02,3-1.89,7.31-1.21,11.01,5.21,25.62,12.68,50.72,19.35,75.98Z"/>
    <path class="cls-3" d="M911.15,301.27c4.51,44.4,8.18,88.93,14.3,133.15,1.47,10.29,2.77,20.64,4.51,30.89.32,1.79,1.14,3.36,2.59,4.49,4.52,3.79,12.03-.53,10.96-6.34-.99-5.84-1.76-11.73-2.65-17.59-3.09-21.31-5.79-42.68-7.93-64.11-4.65-45.24-9.44-90.48-12.6-135.86.12-3.26-.13-8.47-4.22-9.81-11.09-3.28-9.87,9.89-8.95,16.92,1.27,16.09,2.48,32.19,3.97,48.27Z"/>
    <path class="cls-3" d="M1018.33,456.67c2.89-2.98,1.88-7.46,2.39-11.23,1.33-22.21,2.49-44.43,3.49-66.65,2.23-46.59,3.69-93.21,6.07-139.79,2.45-8.13-9.54-12.7-12.91-4.85-5.12,72.33-5.64,145.24-10.73,217.69-.33,5.92,7.74,9.1,11.68,4.84Z"/>
    <path class="cls-3" d="M508.7,406.3c50.19,47.06,95.46,98.8,140.34,150.83,3.99,4.37,11.88.99,11.68-4.84-.51-5.57-6.37-8.7-9.38-13.03-6.76-7.7-13.56-15.48-20.3-23.32-35.2-42.64-74.13-82.12-113.92-120.46-8.26-9-18.99,5.62-8.42,10.82Z"/>
    <path class="cls-3" d="M439.82,506.82c58.52,32.46,112.42,72.4,169.69,106.79,7.89,4.04,13.96-8.59,5.96-12.31-18.47-10.08-35.46-22.6-53.12-34.01-37.93-25.11-76.2-49.78-115.73-72.3-7.18-3.92-13.9,7.45-6.8,11.83Z"/>
    <path class="cls-3" d="M382.63,611.86c53.34,21.37,105.91,44.56,158.37,67.98,7.97,3.99,13.94-8.64,5.96-12.31-8.51-3.67-16.98-7.43-25.44-11.21-43.85-20.07-88.27-38.55-132.93-56.77-7.97-3.94-13.92,8.54-5.96,12.31Z"/>
    <path class="cls-3" d="M308.87,844.69c53.29,1.29,107.22-5.53,160.74-2.16,8.97.36,9.55-13.11.7-13.67-41.67-2.1-83.37.33-125.02,1.86-10.84.32-21.69.79-32.53,1.01-7.56-1.21-10.74,9.78-3.88,12.95Z"/>
    <path class="cls-3" d="M310.58,938.01c7.39-.68,14.79-1.25,22.19-1.8,44.87-2.89,89.22-10.6,133.91-15.19,8.94-.86,7.77-14.29-1.07-13.64-34.28,3.46-68.33,8.92-102.6,12.51-16.99,1.8-34.06,2.76-51.08,4.26-6.35,1.31-13.99-.49-19.3,3.72-2.8,2.99-1.96,8.01,1.36,10.21,5.11,2.62,11.12-.13,16.59-.07Z"/>
    <path class="cls-3" d="M448.44,1016.49c10.7-2.28,21.4-4.59,32.14-6.65,5.79-1.16,6.87-9.72,1.8-12.49-1.63-.98-3.4-1.1-5.23-.75-14.3,2.74-28.55,5.85-42.78,8.93-39.19,8.63-78.36,17.32-117.56,25.91-5.34,1.2-10.67,2.51-16.04,3.56-4.28.09-8.11,3.33-7.57,7.83,1.97,12.28,22.61,1.49,30.73,1.03,41.52-9.05,82.98-18.4,124.52-27.37Z"/>
    <path class="cls-3" d="M503.61,1104.1c5.55-1.96,5.54-10.48.16-12.61-6.15-1.93-21.74,6.52-29.09,8.3-39.21,14.75-77.94,30.73-117.24,45.26-10.22,3.74-20.23,8.05-30.38,11.93-3.39.58-6.12,4.03-5.62,7.56.9,6.84,8.48,6.96,13.32,4.14,6.5-2.64,12.99-5.28,19.54-7.78,40.09-14.94,79.79-30.86,119.7-46.28,9.82-3.65,19.73-7.03,29.61-10.51Z"/>
    <path class="cls-3" d="M520.94,1206.34c5.05-2.39,10.12-4.73,15.07-7.31,7.79-4.48,1-16.15-6.76-11.89-7.66,3.93-15.5,7.52-23.3,11.14-37.55,16.91-74.35,35.43-112.55,50.88-9.05,3.88-18.1,7.76-27.01,11.94-5.41,1.52-10.07,6.35-6.17,11.9,3.66,4.91,9.46,1.87,13.72-.35,13.47-6.16,27.12-11.89,40.76-17.67,35.89-15.14,70.75-32.62,106.24-48.65Z"/>
    <path class="cls-3" d="M585.23,1279.91c7.6-4.82.4-16.23-7.17-11.66-13.47,8.6-27.03,17.07-40.4,25.83-29.16,19.27-58.8,37.8-88.17,56.75-9.82,6.2-19.46,12.72-29.59,18.41-3.73,1.15-6.3,4.87-5.16,8.77,3.69,9.75,13.87,2.14,19.55-1.35,11.65-7.22,23.13-14.69,34.67-22.08,29.4-18.69,58.68-37.56,87.84-56.6,9.47-6.03,18.96-12.03,28.42-18.07Z"/>
    <path class="cls-3" d="M638.53,1359.5c10.34-6.21,4.26-19.12-5.61-13.33-13.73,12.4-26.4,25.95-39.54,38.97-24.71,25.34-50.19,49.9-74.84,75.29-7.5,7.5-14.91,15.09-22.49,22.52-4.24,2.95-3.36,10.19,1.55,11.94,6.43,2.37,10.18-5,14.4-8.5,9.64-9.66,19.26-19.35,28.78-29.12,32.76-32.41,64.81-65.56,97.75-97.78Z"/>
    <path class="cls-3" d="M702.71,1393.36c-29.66,46.02-58.1,92.72-85.76,140.09-5.6,9.34-11.52,18.48-17.22,27.75-2.19,2.62-3.72,6.27-1.62,9.49,4.38,6.47,11.63,2.27,14.02-3.57,3.94-6.47,8.05-12.84,12.05-19.27,17.03-28.13,33.26-56.74,50.68-84.64,13.05-20.39,25.41-41.28,38.9-61.79,5.36-7.13-6.01-15.27-11.05-8.07Z"/>
    <path class="cls-3" d="M785.94,1442.97c-3.68-1.01-7.31,1.23-8.41,4.78-2.73,8.84-5.46,17.69-8.31,26.5-7.12,21.41-14.55,42.74-21.86,64.08-6.7,18.92-13.18,37.93-20.34,56.68-4.19,10.6-7.94,21.4-12.51,31.84-1.56,3.39.28,7.54,3.62,8.97,10.74,4.23,13.21-17.41,17.16-24.23,9.21-23.41,17.37-47.21,25.71-70.93,6.52-19.1,13.16-38.18,19.61-57.31,3.5-10.62,6.81-21.3,10.11-31.98,1.1-3.56-1.27-7.44-4.78-8.41Z"/>
    <path class="cls-3" d="M891.59,1473.81c-6.6,26.87-15.3,53.19-21.66,80.13-8.21,32.6-15.67,65.39-24.04,97.95-2.03,8.04-4.19,16.04-6.31,24.06-1.58,4.44-2.35,10.47,2.91,12.7,4.16,1.92,9.32-1.36,9.5-5.88,6.67-25.42,13.19-50.87,19.28-76.44,9.79-43.33,21.94-86.04,33.52-128.89,2.35-8.71-10.89-12.13-13.19-3.62Z"/>
    <path class="cls-3" d="M1006.53,1494.76c-7.89.59-6.38,9.35-6.37,15-.11,5.38-.41,10.76-.64,16.13-1.13,28.32-2.5,56.63-4.41,84.91-1.63,29.18-4.29,58.3-8.04,87.29.2,7.07-6.31,22.43,3.3,24.69,8.82,1.55,8.87-8.96,9.32-15.08,4.44-34.58,7.79-69.27,9.58-104.09,1.51-22.77,2.68-45.56,3.53-68.36.5-11.32,1.29-22.68.92-34.02-.12-3.72-3.53-6.66-7.19-6.48Z"/>
    <path class="cls-3" d="M1117.64,1679.89c-.77-56.19-8.89-111.9-10.59-168.03-.56-8.98-14.02-8.11-13.67.71.81,32.87,4.14,65.56,7.06,98.29,1.82,22.73,2.67,45.51,3.47,68.29.35,8.55.89,17.09,1.68,25.62.18,4.95.29,11.59,6.67,12.1,7.4.41,8.1-7.28,7-12.82-.74-8.04-1.28-16.09-1.62-24.16Z"/>
    <path class="cls-3" d="M1213.09,1645.68c-11.72-43.7-23.38-87.43-34.44-131.31-2.2-8.72-15.28-5.41-13.3,3.2,16.14,65.42,35.44,130.15,49.87,195.92,2.62,5.29,11.19,4.34,12.59-1.39.68-2.98-.36-6.1-1.01-9.02-4.3-19.2-8.53-38.42-13.71-57.41Z"/>
    <path class="cls-3" d="M1314.8,1667.19c-8.2-21.9-16.79-43.64-25.46-65.36-14.87-35.71-25.27-72.67-37.7-109.36-3.21-8.38-15.93-3.34-12.76,4.94,7.55,21.65,13.92,43.6,21.22,65.35,11.2,32.73,25.07,64.45,37.17,96.84,3.09,8.14,6.21,16.27,9.23,24.44,1.55,3.54,1.92,8.32,5.92,10.03,5.22,2.54,11.51-3.4,9.1-8.75-2.21-6.05-4.41-12.12-6.72-18.14Z"/>
    <path class="cls-3" d="M1410.65,1611c-31.62-47.18-64.37-93.46-93.94-142-4.49-7.79-16.22-1.14-11.97,6.62,33.88,55.54,71.78,108.5,107.85,162.61,4.48,7.81,16.18,1.17,11.97-6.62-4.38-7.03-9.28-13.73-13.91-20.6Z"/>
    <path class="cls-3" d="M1469.96,1521.03c-32.07-32.12-63.65-64.82-96.42-96.2-7.05-5.55-15.4,5.26-8.45,10.76,48.77,47.72,97.12,96.23,143.61,146.09,3.12,1.86,7.56.89,9.37-2.38,3.24-5.58-2.48-10.22-5.93-13.99-14.09-14.73-27.86-29.77-42.18-44.28Z"/>
    <path class="cls-3" d="M1612.18,1467.26c-18.64-13.37-38.3-25.31-57.72-37.52-38.08-23.15-76-46.57-113.91-70-7.76-4.55-14.53,7.13-6.99,11.76,57.2,36.39,116.68,69.41,172.34,108.16,0,0,.02,0,.04.02.6.63,1.32,1.15,2.17,1.52,10.19,2.96,12.95-9.56,4.09-13.94ZM1604.52,1477.6c.35.75.79,1.42,1.33,2.01-.57-.58-1.01-1.27-1.33-2.01Z"/>
    <path class="cls-3" d="M1669.19,1356.35c-24.33-6.71-48.89-12.68-73.21-19.48-38.88-10.68-77.3-22.95-115.04-37.16-8.14-3.66-13.55,9.25-5.43,12.56,62.3,23.93,126.92,40.75,191.37,57.61,8.76,1.3,10.84-11.81,2.3-13.53Z"/>
    <path class="cls-3" d="M1710.84,1274.65c-20.61-7.34-41.97-12.85-62.81-19.64-44.12-13.48-88.08-27.46-132.12-41.18-8.65-2.56-12.46,10.39-4.06,13.07,64.65,20.33,129.43,40.4,194.21,60.28,7.16,1.41,10.98-8.82,4.78-12.54Z"/>
    <path class="cls-3" d="M1708.38,1192.89c-10.67-2.39-21.36-4.73-31.96-7.42-43.32-11.2-86.06-24.42-128.2-39.44-8.61-2.61-12.46,10.33-4.06,13.07,57.31,20.98,116.3,36.72,175.5,50.99,6.23,1.23,10.61-6.95,6.1-11.45-4.81-3.9-11.62-4.02-17.39-5.75ZM1715.08,1207.04c.22.35.48.68.76.99-.29-.29-.57-.62-.76-.99Z"/>
    <path class="cls-3" d="M1722.27,1104.62c-53.47-6.28-106.44-15.84-159.41-25.24-8.9-1.34-10.97,12-2.25,13.49,58.65,10.96,117.67,19.95,176.79,27.81,4.92,3.08,11.68-1.86,10.12-7.51-3.03-8.78-17.66-6.64-25.25-8.56Z"/>
    <path class="cls-3" d="M1732.32,1015.47c-8.51.55-17.01,1.08-25.53,1.33-43.68,1.65-87.34-.85-130.92-3.52-8.98-.14-9.25,13.36-.4,13.68,11.26.32,22.47,1.54,33.72,1.99,38.95,2.27,78.03,2.86,117,.63,7.5-.39,15-1.28,22.51-.89,3.76,1.01,7.65-1.85,8.26-5.55.37-12.52-16.74-7.28-24.64-7.67Z"/>
    <path class="cls-3" d="M1762.72,921.07c-3.98-6.23-37.96.95-46.68,1.21-34.42,4.64-68.69,10.35-103.27,13.72-11.13,1.27-22.2,2.92-33.32,4.26-3.7.44-6.34,4.09-5.83,7.72.51,3.76,4.09,6.28,7.72,5.83,10.78-1.3,21.52-2.89,32.31-4.15,45.76-4.21,90.91-13.48,136.71-17.22,3.18-.67,6.53.4,9.6-.73,4.15-1.66,5.61-7.21,2.75-10.65Z"/>
    <path class="cls-3" d="M1590.85,853.72c-10.71,2.51-21.46,4.87-32.2,7.28-5.81,1.31-6.69,9.94-1.47,12.57,1.63.9,3.39,1,5.15.6,12.18-2.74,24.38-5.4,36.52-8.31,33.58-8.19,66.84-17.61,100.37-26.06,10.93-2.82,21.87-5.64,32.89-8.04,5.41.24,10.96-4.07,8.5-9.87-5.19-9.03-18.22-.68-26.15-.03-30.29,7.51-60.42,15.64-90.6,23.56-10.97,2.9-21.96,5.69-33.01,8.28Z"/>
    <path class="cls-3" d="M1558.45,778.39c-8.83,4.21-17.71,8.45-26.83,12.01-3.48,1.36-5.01,5.66-3.57,8.99,5.03,10.33,21.72-3.19,29.38-5.4,16.17-7.61,32.18-15.57,48.4-23.06,20.83-9.56,41.67-19.09,62.55-28.56,7.73-3.51,15.43-7.1,23.05-10.85,3.28-2.28,8.15-2.46,10.26-6.13,1.57-2.64.89-6.17-1.27-8.27-6.99-5.68-16.38,4.13-23.48,6.22-20.27,9.43-40.7,18.55-61,27.92-19.32,8.73-38.39,17.96-57.5,27.12Z"/>
    <path class="cls-3" d="M1516.7,706.63c-8.12,4.84-16.23,9.66-24.53,14.18-5.19,2.81-3.81,11.25,1.86,12.48,1.79.46,3.6.12,5.23-.78,10.75-5.86,21.23-12.2,31.73-18.48,8.91-5.32,17.8-10.66,26.68-16.02,28.9-16.85,56.87-35.24,85.6-52.34,0,0-.28.05-.28.05-.02,0-.04,0-.05,0,9.25-2.45,4.16-16.64-4.51-12.85-32,18.5-62.85,39.06-94.82,57.68-8.93,5.41-17.92,10.75-26.9,16.09Z"/>
    <path class="cls-3" d="M1482.54,637.11c-8.02,6.64-16.04,13.32-24.42,19.52-4.76,3.45-2.3,11.65,3.47,12.12,6.21.02,10.43-6.27,15.36-9.4,12.15-9.67,23.94-19.8,35.79-29.84,25.41-22.19,51.52-43.55,78.75-63.46,7.4-3.46,2.87-15.07-4.86-12.74-18.75,12.16-36.13,26.88-53.61,40.92-16.88,14.22-33.49,28.77-50.48,42.88Z"/>
    <path class="cls-3" d="M1399.49,603.02c-2.65,2.62-2.29,7.22.35,9.67,3.71,3.59,8.86,1.31,11.6-2.26,15.52-14.81,29.46-31.12,44.46-46.43,27.01-27.67,55.32-53.97,83.37-80.55,5.44-4.14,1.07-13.5-5.57-12.01-4.96,1.56-7.71,6.66-11.69,9.79-18.24,16.78-36.38,33.65-53.83,51.27-15.92,15.53-31.54,31.35-46.4,47.9-7.17,7.8-14.76,15.19-22.29,22.63Z"/>
    <path class="cls-3" d="M1317.63,550.55c-2.16,3.03-1.4,7.4,1.63,9.54,3.02,2.15,7.36,1.42,9.53-1.63,16.1-22.5,32.4-44.87,49.09-66.94,17.66-23.14,35.22-46.37,52.06-70.12,3.15-6.46,14.24-13.9,8.97-21.47-2.38-2.88-6.76-3.28-9.63-.91-29.84,42.02-61.61,82.8-92.06,124.45-6.54,9.03-13.12,18.02-19.6,27.09Z"/>
    <path class="cls-3" d="M1245.55,522.89c9.72,4.53,13.95-13.33,19.19-19.01,18.04-27.26,34.9-55.26,50.38-84.05,8.22-14.78,16.56-29.5,24.7-44.32,2.84-6.05,6.91-11.51,9.87-17.28,1.29-4.52-2.27-9.22-7-8.96-7.93.88-11.84,16.35-16.4,22.46-16.38,29.1-32.07,58.61-49.18,87.29-8.18,13.49-16.99,26.57-25.41,39.91-2.98,6.99-15.9,17.64-6.15,23.97Z"/>
    <path class="cls-3" d="M1177.17,485.65c3.53,1.87,8.3.13,9.61-3.72,9.11-19.39,18.45-38.66,27.39-58.13,19.24-40.28,36.05-81.72,56.3-121.5,3.94-4.72-.57-12.1-6.56-10.96-7.12,2.19-8.13,11.57-11.87,17.18-7.64,15.27-14.49,30.9-21.38,46.51-18.27,40.71-37.27,81.09-56.39,121.4-1.71,3.27-.41,7.56,2.91,9.23Z"/>
    <path class="cls-3" d="M1102.65,472.31c3.6.81,7.29-1.61,8.12-5.25,1.88-7.93,4.09-15.78,6.08-23.68,7.6-30.1,14.83-60.3,21.24-90.67,3.56-16.68,6.51-33.48,9.72-50.22.99-5.12,1.92-10.28,3.19-15.34,2.22-3.07,1.44-7.38-1.6-9.58-6.85-4.6-12.13,3.26-12.45,9.6-7.27,37.19-14.15,74.45-23.11,111.28-3.99,16.53-8.06,33.05-12.27,49.53-.8,7.56-9.71,20.75,1.07,24.33Z"/>
    <path class="cls-3" d="M1226.84,1416.85c27.7-10.04,53.3-24.92,77.75-41.2,35.36-23.06,64.68-53.5,93.67-83.98,29.14-26.36,53.18-57.37,72.99-91.09,12.93-17.88,24.01-37.14,33.37-57.18,40.24-76.7,41.84-154.98,24.02-238.13-3.99-23.83-10.97-46.94-18.76-69.77-6.46-19.32-14.13-38.24-24.86-55.66-12.88-20.18-25.94-40.43-42.74-57.56-57.44-74.13-135.34-117.47-230.18-155.25-72.21-30.76-146.04-45.71-220.44-44.49-85.88-1.81-172.53,13.02-248.09,55.07-68.69,34.53-124.27,90.71-166.61,154.23-32.28,46.36-58.64,98.12-67.67,154.36-13.86,93.29,3.44,197.89,49.37,280.49,8.66,14.76,18.81,28.41,30.1,41.02,16.72,23.35,37.3,44.15,57.87,63.98,65.52,61.96,151.6,108.21,237.32,135.35,12.95,3.86,26,7.35,39.19,10.2,40.96,12.11,82.16,19.76,122.12,22.06,3.16.06,6.3.09,9.42.1,12.04.94,24.11,1.45,36.15,1.75,28.67.56,57.2-4.25,85.08-10.53,17.1-4.09,34.4-7.66,50.92-13.76Z"/>
    <path class="cls-3" d="M492.72,766.06c-50.11-13.29-99.9-28.07-149.96-41.49-3.36-1.61-4.8-5.79-3.18-9.14,2.99-6.12,9.54-3.06,14.45-1.65,40.52,10.42,80.78,21.86,120.93,33.62,7.42,3.17,19.04,2.68,24.68,8.12,3.42,4.67-1.24,11.92-6.92,10.54Z"/>
  </g>
  <path class="cls-2" d="M852.9,1791.56c-19.19-2.49-24.42-26.94-7.74-36.74,5.65-3.59,12.92-4,18.82-.73,5.03,2.4,10.79,6.15,10.67,12.39,0-.2,0-.41,0-.61-.04-.28-.08-.57-.11-.85.3,1.2.18,2.42-.25,3.52,2.44,12.35-8.57,25.09-21.38,23.02ZM855.22,1778.73c5.82.27,6.25-6.11,6.79-10.36-.05-.15-.1-.31-.15-.47-10.64-9.84-21.17,8.51-6.64,10.83Z"/>
  <path class="cls-2" d="M228.26,843.56c-21.92-13.45-14.09-43.48,10.49-47.09,11.12-1.31,26.73,7.2,29.69,18.25,7.54,12.21-2.87,28.52-15.18,32.78-8.35,2.98-17.69.59-25-3.95ZM245.28,835.85c6.64-.03,12.66-6.4,12.7-12.96-.7-2.43-3.48-4.06-3.32-6.82-21.89-21.54-41,16-9.39,19.78Z"/>
  <path class="cls-2" d="M984.93,125.31c-36.52-3.97-42.12-50.74-4.35-56.35,8.19-.3,25.29.91,25.94,11.47,16,16.29,2.07,48.77-21.59,44.89ZM987.99,112.51c8.91.42,14.12-10.14,11.89-17.91-.73-4.57-5.75-6.78-6.65-11.14-29.39-10.03-35.57,26.94-5.25,29.05ZM1002.52,73.86c-.12-.05-.24-.1-.36-.16,0,0,.02,0,.02.01-.84-.27-1.69-.39-2.57-.35,1.03,0,2.01.14,2.91.5Z"/>
  <path class="cls-4" d="M1913.52,762.52c-34.66-2.03-41.49-45.23-5.21-51.38,15.08-1.16,26.41,11.76,32.44,24.13,3.92,15.28-12.37,29.68-27.24,27.25ZM1917.32,749.63c5.38.08,9.58-4.04,10.99-9.02-2.42-1.22-2.71-4.08-3.62-6.33-1.39-2.81-3.68-5.12-6.06-7.13-21.47-12.71-34.34,21.76-1.3,22.48Z"/>
  <path class="cls-2" d="M1753.45,1725.41c-13.79-1.54-22.66-16.02-22.49-29.08,1.04-16.09,18.86-26.95,33.92-22.47,26.5,8.32,16.24,55.12-11.43,51.55ZM1756.68,1712.58c12.36-1.24,15.55-26.38,1.36-26.65-18.32-.75-17.84,25.25-1.36,26.65Z"/>
  <g>
    <path class="cls-1" d="M483.26,1639.21c11.05,2.29,6.05,13.11-.13,18.1-13.25,14.8-29.1,27.52-41.2,43.24,11.38,15.56,23.22,30.83,33.98,46.82,4.87,7.87,22.03,31.68,2.97,32.04-9.26-3.27-16.25-11.17-24.36-16.55-12.47-9.28-23.96-19.64-36.73-28.4-.92,17.87-2.9,35.87-9.78,52.55-3.36,7.52-7,21.34-17.75,18.73-13.21-5.1-9.21-57.98-13.45-72.37-22.89,13.68-45.63,28.65-70.51,38.38-3.89,1.19-8.81.14-10.65-3.82-2.6-5.51,2.33-10.4,5.86-14.08,17.72-18.63,37.75-34.92,55.55-53.46-13.79-3.91-27.54-7.92-41.22-12.21-7.37-3.37-23.76-3.97-21.38-15.38,4.13-8.56,16.21-4.81,23.92-5.87,17.36-.69,34.67,1.07,51.99,1.59-.46-13.95-1.49-65.81,12.49-71.49,5.06-1.73,9.7,2.36,11.45,6.87,7.98,20.97,14.05,42.67,20.34,64.19,17.14-8.93,34.23-18.01,52.49-24.33,5.24-1.76,10.45-4.7,16.1-4.56Z"/>
    <path class="cls-1" d="M497.86,1729.42c-4.34-2.04-8.72-4.03-13-6.18-7.24-3.35-2.94-14.53,4.71-12.09,4.62,2.14,9.2,4.39,13.83,6.51,7.66,3.7,2.15,15.3-5.54,11.77Z"/>
    <path class="cls-1" d="M540.18,1745.89c-4.9-1.4-9.78-2.9-14.61-4.52-11.15-2.69-5.26-17.57,6.49-11.56,4,1.35,8.06,2.5,12.11,3.69,8.09,2.79,4.17,14.78-3.99,12.38Z"/>
    <path class="cls-1" d="M608.59,1762.11c-8.81-1.34-17.6-2.89-26.31-4.74-5.84-1.14-11.58-2.7-17.4-3.91-3.49-.57-5.84-4.16-5.21-7.58,1.58-7.26,9.26-5.16,14.43-3.63,3.43.79,6.88,1.54,10.33,2.28,8.79,1.87,17.65,3.43,26.53,4.78,8.36,1.72,6.05,14.11-2.37,12.79Z"/>
    <path class="cls-1" d="M690.28,1771.88c-14.08-.45-28.15-1.19-42.14-2.92-6.01-1.28-16.75,1.35-16.73-7.71,1.01-10.79,18.23-4.19,25.36-4.42,11.37,1.23,22.8,1.63,34.22,2.05,8.5.65,7.83,13.24-.7,12.99Z"/>
    <path class="cls-1" d="M520.59,1768.86c-7.34-3.69-14.49-7.77-21.88-11.36.54.22,1.1.42,1.69.48-8.06-1.14-6.93-13.37,1.23-12.93,8.66,2.62,16.24,8.31,24.5,12.04,7.63,3.87,2.22,15.26-5.54,11.77Z"/>
    <path class="cls-1" d="M564.89,1789.53c-3.62-1.41-7.18-2.98-10.7-4.61-7.61-3.03-3.32-14.76,4.44-12.2,3.93,1.68,7.8,3.52,11.8,5.04,7.66,3.57,2.19,15.35-5.54,11.77Z"/>
    <path class="cls-1" d="M604.94,1805.8c-5.77-3.04-18.35-3.5-16.12-12.67,3.71-9.14,13.82-1.38,20.11.29,8.07,2.87,4.14,14.84-3.99,12.38Z"/>
    <path class="cls-1" d="M632.34,1815.63c-5.4-1.44-13.01-3.89-10.06-11.04,2.97-6.08,9.27-2.93,14.04-1.34,8.08,2.82,4.16,14.8-3.99,12.38Z"/>
    <path class="cls-1" d="M700.69,1831.5c-10.54-1.88-21.13-3.41-31.61-5.63-14.02-.54-11.95-14.62-2.31-13.7,12.03,2.52,24.18,4.46,36.29,6.54,8.37,1.76,6.04,14.15-2.37,12.79Z"/>
    <path class="cls-1" d="M510.13,1802.69c-4.87-4.32-16.75-9.83-9.82-17.4,6.61-5.57,12.76,4.25,18.16,7.42,6.47,5.49-1.75,15.32-8.34,9.98Z"/>
    <path class="cls-1" d="M549.71,1829.06c-3.22-1.59-6.45-3.15-9.65-4.78-7.62-3.86-2.25-15.25,5.54-11.77,3.2,1.63,6.43,3.19,9.65,4.78,7.64,3.73,2.14,15.33-5.54,11.77Z"/>
    <path class="cls-1" d="M585.76,1847.67c-2.85-1.15-5.63-2.45-8.54-3.42-8.05-2.81-4.2-14.8,3.99-12.38,3.44,1.1,6.76,2.65,10.09,4.03,7.66,3.6,2.18,15.35-5.54,11.77Z"/>
    <path class="cls-1" d="M623.73,1864.63c-5.32-2.43-15.28-3.19-13-11.38.52-1.61,1.67-2.99,3.17-3.77,2.63-1.43,5.54-.38,8.11.62,3.26,1.51,7.62,1.86,9.47,5.32,2.79,4.85-2.52,11.2-7.76,9.21Z"/>
    <path class="cls-1" d="M704.91,1889.57c-20.89-4.45-39.89-9.68-59.87-16-8.05-2.77-4.23-14.76,3.99-12.38,3.45,1,6.87,2.02,10.28,3.15,16.34,5.2,31.54,8.79,47.97,12.45,8.35,1.79,6.03,14.18-2.37,12.79Z"/>
  </g>
  <g>
    <path class="cls-1" d="M1956.62,1343.17c4.66,2.87,4.17,10.06-.76,12.36-19.77,6.39-41.01,7.66-61.49,10.95-13.3,2.43-27.23,2.04-40.11,6.35,4.21,18.49,8.08,37.05,10.76,55.84.46,9.54,9.56,40.37-6.9,39.04-7.51-2.34-10.1-12.12-14.3-17.82-5.31-8.94-10.67-17.89-15.22-27.25-7.76-14.73-11.92-32.13-23.44-44.5-30.31,17.49-60.26,37.33-94.17,47.06-9.58,3.43-17.51-5.81-9.31-13.44,23.3-22.86,49.58-42.46,73.65-64.49-26.09-9.17-52.7-17.04-78.49-26.98-3.8-1.81-7.63-3.82-10.6-6.87-3.75-3.77-2.13-10.63,2.94-12.28,24.38-2.54,49.37,2.25,73.65,5.21,9.7,1.16,19.09,3.86,28.59,5.97,5.65-16.1,12.28-31.68,20.25-46.71,4.63-8.68,8.67-17.86,15.18-25.33,6.35-8.67,20.15-12.1,20.46,2.38.43,19.74-.82,39.51-1.69,59.23,16.1-10.39,32.79-19.88,49.19-29.81,7.86-3.65,18.57-13.55,27.43-10.75,6.21,3.14,3.78,10.78-.24,14.73-4.64,5.83-9.53,11.46-14.49,17.02-11.95,13.32-24.33,26.23-36.63,39.23,12.77,1.73,25.59,2.97,38.45,3.74,15.67,1.81,32.65.72,47.28,7.11Z"/>
    <path class="cls-1" d="M1801.64,952.55c-1.81-5.07-1.46-12.88,5.5-12.99,4.85-.04,6.71,4.53,6.85,8.69,1.19,3.63-.48,7.8-4.35,8.84-3.31.91-7.18-1.09-8-4.54Z"/>
    <path class="cls-1" d="M1811.54,994.49c-4.13-12.88,9.44-16.57,12.18-6.59,4.17,12.69-9.4,16.7-12.18,6.59Z"/>
    <path class="cls-1" d="M1817.3,1035.31c.07-4.27-2.12-9.21.56-12.99,3.21-4.51,11.08-2.48,11.59,3.09,0,4.26,2.09,9.21-.56,13-3.19,4.5-11.13,2.48-11.59-3.09Z"/>
    <path class="cls-1" d="M1819.93,1091.69v-26.96c.09-8.48,12.91-8.49,13.01,0v26.96c-.09,8.48-12.91,8.49-13.01,0Z"/>
    <path class="cls-1" d="M1824.25,1138.52c-4.09-.44-6.27-4.75-5.47-8.49-.29-4.39,1.51-9.46,6.67-9.43,5.22-.02,7.33,5.33,6.31,9.82.47,4.44-2.82,8.73-7.5,8.09Z"/>
    <path class="cls-1" d="M1815.91,1197.42c-9.21-2.69-1.75-16.75-1.67-23.62,2.1-6.1-.8-17.56,8.18-18.12,9.6.67,5.93,12.23,4.95,18.45-1.06,6.27-2.18,12.52-3.46,18.75-.78,3.39-4.7,5.52-8,4.54Z"/>
    <path class="cls-1" d="M1875.27,968.39c-.59-8.2-2.35-16.29-2.47-24.51.09-8.48,12.91-8.49,13.01,0,.13,7.62,1.87,15.13,2.35,22.74,1.01,8.42-11.68,10.18-12.89,1.77Z"/>
    <path class="cls-1" d="M1878.3,1027.08c.08-3.56.22-7.13.22-10.68.09-8.49,12.91-8.49,13.01,0-.5,6,2.06,16.74-6.72,17.19-3.48,0-6.58-2.96-6.5-6.5Z"/>
    <path class="cls-1" d="M1882.27,1074.98c-8.4-1.04-7.2-16.77,1.17-16.62,9.65-.02,8.34,17.93-1.17,16.62Z"/>
    <path class="cls-1" d="M1870.71,1139.07c-3.43-.88-5.46-4.62-4.54-8,2.69-11.61,4.59-23.25,7.45-34.65,2.38-8.13,14.74-4.75,12.54,3.46-2.88,11.48-4.8,23.12-7.45,34.65-.75,3.46-4.71,5.44-8,4.54Z"/>
    <path class="cls-1" d="M1853.34,1198.49c-8.62-4.12-.1-15.11.96-21.62,1.85-4.65,1.81-12.27,8.47-12.3,9.81.89,5.71,11,3.67,17.02-2.86,6.17-3.2,20.07-13.1,16.9Z"/>
    <path class="cls-1" d="M1946.69,1006.68c-9.82-2.02-3.72-15.61-4.37-22.55.45-7,.7-14.04.66-21.06-.03-6.24-.27-12.49-.27-18.73.09-8.47,12.91-8.51,13.01,0,.47,18.95.21,37.91-1.7,56.79-.3,3.54-3.95,6.02-7.33,5.56Z"/>
    <path class="cls-1" d="M1936.15,1073.8c-9.16-3.38-2.05-14.51-1.41-21.21,1.51-5.66,2.05-16.03,10.4-14.12,8.22,2.64,3.1,11.75,2.14,17.57-2.3,6.28-1.23,19.63-11.13,17.75Z"/>
    <path class="cls-1" d="M1924.73,1125.17c-7.98-2.55-3.38-11.65-2.27-17.34.89-3.43,4.62-5.47,8-4.54,8.03,2.56,3.31,11.63,2.26,17.34-.84,3.45-4.68,5.46-8,4.54Z"/>
    <path class="cls-1" d="M1910.65,1170.39c-7.67-3.63-1.67-12.11-.08-17.75.91-4.74,4.61-9.79,9.97-7.53,3.94,1.62,4.85,6.35,2.96,9.88-2.7,5.89-3.56,18.56-12.84,15.4Z"/>
    <path class="cls-1" d="M1888.04,1224.65c-3.16-1.34-4.97-5.32-3.46-8.52,3.92-6.03,6.13-21.85,16.17-17.24,4.43,2.55,3.51,7.83.99,11.43-3.4,5.35-4.99,17.41-13.7,14.33Z"/>
    <path class="cls-1" d="M1807.14,1217.26c.08-1.71.84-3.35,2.1-4.51,1.3-1.2,2.93-1.71,4.68-1.71,3.54,0,6.37,3.35,6.22,6.78-.08,1.72-.84,3.35-2.1,4.51-1.3,1.2-2.93,1.71-4.68,1.71-3.54,0-6.37-3.35-6.22-6.78Z"/>
    <path class="cls-1" d="M1866.96,1248.76c.08-1.72.84-3.35,2.1-4.51,1.3-1.2,2.93-1.71,4.68-1.71,3.54,0,6.37,3.35,6.22,6.78-.08,1.72-.84,3.35-2.1,4.51-1.3,1.2-2.93,1.71-4.68,1.71-3.54,0-6.36-3.35-6.22-6.78Z"/>
    <path class="cls-1" d="M1844.19,1216.05c.08-1.72.84-3.35,2.1-4.51,1.3-1.19,2.93-1.71,4.68-1.71,3.54,0,6.37,3.35,6.22,6.78-.08,1.72-.84,3.35-2.1,4.51-1.3,1.19-2.93,1.71-4.68,1.71-3.54,0-6.37-3.35-6.22-6.78Z"/>
  </g>
  <g>
    <path class="cls-1" d="M675.43,216.9c14.6,9.04,6.54,20.7-8.65,18.52-15.6-.3-31.17-1.52-46.7-2.81-15.99-.74-32.29-5.2-48.22-2.68-4.56,13.15-24,103.93-45.14,86.13-2.24-2.25-2.9-5.62-3.42-8.61-4.62-29.83-2.82-60.85-10.99-90.05-9.01,4.49-17.51,9.95-26.03,15.3-10.06,5.16-61.09,47.62-65.29,25.87.38-8.4,8.08-14.29,12.68-20.75,16.04-19.66,34.08-37.85,48.41-58.85-21.94-8.69-44.49-16.01-66.09-25.48-10.1-5.46-4.47-16.35,6.03-14.71,29.73.85,59.63,6.73,89.18,2.84,5.19-14.45,12.48-90.86,32.85-83.34,8.62,3.94,9.59,28.66,12.42,37.89,3.54,17.48,6.64,35.11,7.36,52.97,23.4-10.5,46.3-22.25,70.23-31.5,4.62-1.59,9.36-3.32,14.27-3.54,7.65-.63,12.19,7.53,7.47,13.66-16.69,20.39-36.52,38.02-54.09,57.62,24.84,9.7,50.63,17.98,73.7,31.51Z"/>
    <path class="cls-1" d="M466.46,274.18c-4.68-5.64,2.24-11.49,7.04-14.01,7.81-2.79,12.12,9.61,4.25,12.28.71-.25,1.36-.64,1.95-1.12-3.66,3.59-8.73,7.9-13.24,2.84Z"/>
    <path class="cls-1" d="M429.2,309.23c-5.45-7.23,4.92-12.11,9.15-16.59,2.33-2.1,4.6-4.72,8.19-3.83,5.68,1.02,7.05,9.12,2.02,11.94.06-.03.12-.07.18-.1.22-.16.43-.32.65-.48-5.73,3.91-12.8,16.3-20.19,9.06Z"/>
    <path class="cls-1" d="M389.78,350.02c-6.78-7.22,4.74-13.46,8.57-18.88,2.36-2.64,6.59-2.8,9.19-.43,6.71,7.17-4.63,13.58-8.57,18.89-2.43,2.62-6.62,2.8-9.19.43Z"/>
    <path class="cls-1" d="M348.68,395.94c-6.94-7.74,5.82-14.55,9.94-20.27,3.79-4.19,9.82-11.31,15.27-5.3,2.59,3.03,1.68,7.5-1.43,9.78-5.06,4.91-9.86,10.13-14.59,15.36-2.38,2.65-6.62,2.79-9.19.43Z"/>
    <path class="cls-1" d="M312.31,442.92c-7.83-6.48,3.27-14.23,6.84-19.92,3.35-4.29,8.41-11.28,14.19-6.27,5.93,5.81-2.1,11.6-5.51,16.21-4.1,4.4-8.11,14.66-15.51,9.98Z"/>
    <path class="cls-1" d="M259.78,518.41c-2.96-2.06-3.57-6.1-1.62-9.05,5.5-8.37,11.06-16.7,16.82-24.89,5.63-8.01,11.34-15.96,17.56-23.51,3.54-4.3,11.19-1.54,11.3,3.98.27,2.95-1.93,5.05-3.64,7.15-5.59,7.09-10.82,14.48-15.99,21.87-5.26,7.52-10.33,15.16-15.37,22.82-1.94,2.97-6.23,3.6-9.05,1.62Z"/>
    <path class="cls-1" d="M474.67,305.24c-7.06-5.52,1.5-12.92,4.53-18.24,2.83-5.5,8.99-11.08,14.05-4.45,3.16,4.79-1.62,8.87-3.95,12.72-3.54,4.73-7.25,14.63-14.63,9.96Z"/>
    <path class="cls-1" d="M441.82,354.39c-6.64-5,.57-11.91,3.49-16.85,2.25-3.74,5.13-8.71,10.32-6.81,5.9,2.15,4.87,9.07,1.24,12.89-3.65,4.88-7.34,15.56-15.05,10.77Z"/>
    <path class="cls-1" d="M399.57,414.59c-7.98-6.74,4.27-15.86,7.35-22.32,3.62-5.06,8.35-15.74,15.79-9.79,6.04,6.07-2.75,12.55-5.59,17.91-4.89,5.15-8.37,19.32-17.55,14.2Z"/>
    <path class="cls-1" d="M379.64,446.56c-7.06-4.8,1.43-18.73,8.97-14.82,8.64,4.45-1.04,20.35-8.97,14.82Z"/>
    <path class="cls-1" d="M319.55,552.5c-3.12-1.6-4.48-5.63-2.81-8.76,4.94-9.27,9.9-18.52,14.89-27.77,5.03-9.31,10.01-18.66,15.18-27.89,3.37-5.3,6.99-16.69,15.11-11.82,3.94,2.73,3.19,7.83.29,11.06-5.06,8.59-9.7,17.42-14.46,26.18-5.1,9.4-10.16,18.83-15.21,28.26-2.81,4.93-5.63,14.25-13,10.75Z"/>
    <path class="cls-1" d="M376.95,298.57c-5.87-8.47,7.45-13.54,12.19-18.68,5.64-3.46,12.51-14.41,19.34-7.51,5.71,7.83-5.99,12.6-10.59,17.16-6.19,3.57-13.43,16.26-20.94,9.02Z"/>
    <path class="cls-1" d="M320.67,354.21c-7.41-8.01,7.09-15.07,11.34-20.91,5.41-4.24,12.47-16.46,19.86-9.25,4.8,5.68-2.39,10.62-5.95,13.8-5.42,5.24-10.74,10.59-16.06,15.93-2.35,2.59-6.63,2.85-9.19.43Z"/>
    <path class="cls-1" d="M289.34,388.21c-2.56-2.33-2.9-6.64-.43-9.19,4.47-4.3,11.1-14.09,17.56-7.38,3.33,3.91.74,8.65-2.97,11.12-3.65,3.75-8.75,10.29-14.16,5.45Z"/>
    <path class="cls-1" d="M232.55,451.53c-2.64-2.4-2.79-6.55-.43-9.19,4.35-4.88,8.71-9.74,13.13-14.55,5.69-4.65,14.99-21.02,22.91-12.95,4.09,4.88-.7,9.57-4.55,12.59-3.76,3.69-7.32,7.58-10.88,11.47-5.67,4.46-11.75,19.12-20.18,12.64Z"/>
    <path class="cls-1" d="M180.81,522.95c-2.88-2-3.69-6.18-1.63-9.05,6.18-8.6,12.28-17.26,18.39-25.92,6.35-9,12.38-18.24,19.45-26.7,3.55-4.28,11.18-1.54,11.3,3.98.28,3.08-2.1,5.21-3.85,7.41-6.14,7.9-11.6,16.3-17.42,24.43-5.71,8.09-11.41,16.18-17.19,24.23-2.07,2.9-6.2,3.64-9.05,1.62Z"/>
    <path class="cls-1" d="M167.04,548.19c-.66-1.61-.64-3.44.04-5.03.67-1.56,1.95-2.81,3.52-3.45,1.68-.69,3.36-.55,5.03.04,1.56.55,2.85,2.03,3.45,3.52.66,1.61.64,3.44-.04,5.03-.67,1.56-1.95,2.81-3.52,3.45-1.68.69-3.36.55-5.03-.04-1.56-.55-2.85-2.03-3.45-3.52Z"/>
    <path class="cls-1" d="M233.2,548.34c-.66-1.61-.64-3.44.04-5.03.67-1.56,1.95-2.81,3.52-3.45,1.68-.69,3.36-.55,5.03.04,1.56.55,2.85,2.03,3.45,3.52.66,1.61.64,3.44-.04,5.03-.67,1.56-1.95,2.81-3.52,3.45-1.68.69-3.36.55-5.03-.04-1.56-.55-2.85-2.03-3.45-3.52Z"/>
    <path class="cls-1" d="M300.87,579.17c-.66-1.61-.64-3.44.04-5.03.67-1.56,1.95-2.81,3.52-3.45,1.68-.69,3.36-.55,5.03.04,1.56.55,2.85,2.03,3.45,3.52.66,1.61.64,3.44-.04,5.03-.67,1.56-1.95,2.81-3.52,3.45-1.68.69-3.36.55-5.03-.04-1.56-.55-2.85-2.03-3.45-3.52Z"/>
  </g>
  <g>
    <path class="cls-2" d="M462.82,1484.19c-7.77.24-15.55-.2-23.33-.32-5.53,3.73-13.3,1.38-19.65,1.99-16.75-.12-33.5.33-50.25.65-77.79,2.58-155.57-1.49-233.38-.06-8.64-.42-18.69,2.29-26.04-3.5-14.4-14.45-5.79-46.8,1.14-63.57,11.48-26.83,42.28-44.77,71.11-36.34,17.33,4.56,29.61,18.38,39.28,32.71,5.91-28.56,17.99-60.23,45.96-73.55,25.43-11.28,56.92-3.07,77.1,15.09,21.29,17.79,28.23,45.64,36.18,71.02,8.91-11.48,20-22.9,35.08-25.01,22.29-3.46,45.74,8.65,56.85,28.08,6.09,10.75,9.25,22.95,11.7,34.98,3.7,15.23-9.68,18.16-21.75,17.83ZM427.87,1470.74c14.7-.28,29.53,1.62,44.14-.37-2.6-14.01-6.2-28.89-15.78-39.88-11.36-12.46-31.4-19.36-47.1-11.32-11.99,5.19-20.57,26.04-29.96,26.45-5.56.06-8.25-5.47-9.55-10.09-3.25-9.43-5.79-19.08-9.09-28.49-4.25-12.15-9.35-24.32-18.18-33.9-15.88-18.02-42.17-27.9-65.61-20.62-28.71,11.09-37.91,44.36-43.61,71.74-2.14,13.73-13.34,14.62-19.48,2.67-15.41-24.79-36.71-41.86-66.46-28.1-20.41,10.54-29.77,33.79-31.44,55.68-.18,20.86-.15,19.66,20,18.94,90.92-.89,181.78,2.44,272.69-.59,3.48-4.48,13.89-1.33,19.42-2.11Z"/>
    <path class="cls-2" d="M141.54,1424.33c-5.48-4.02,6.63-11.8,9.57-14.36,3.33-2.09,15.1-11.85,14.83-2.57-.36,1.33-1.47,1.93-2.64,2.3-4.01,2.04-7.71,4.66-11.26,7.42-2.13,1.8-4.31,3.6-5.97,5.86-.92,1.6-2.91,2.37-4.53,1.35Z"/>
    <path class="cls-2" d="M132.98,1435.58c-.17-1.64,1.08-3.32,2.78-3.43,1.7-.11,3.24,1.04,3.43,2.78.17,1.64-1.08,3.32-2.78,3.43-1.69.11-3.24-1.04-3.43-2.78Z"/>
    <path class="cls-2" d="M268.48,1374.81c-3.04-4.05,3.44-6.81,5.94-9.05,5.62-3.97,12.23-6.66,19.07-7.48,6.44-.69,6.45,7.2-.45,6.34-6.8,1.13-13.06,4.35-18.33,8.74-1.64,1.68-4.13,3.69-6.23,1.45Z"/>
    <path class="cls-2" d="M259.56,1384.56c-.17-1.64,1.08-3.32,2.78-3.43,1.7-.11,3.24,1.04,3.43,2.78.17,1.64-1.08,3.32-2.78,3.43-1.69.11-3.24-1.04-3.43-2.78Z"/>
    <path class="cls-2" d="M417.08,1428c-1.81-5.82,13.22-6.7,16.84-5.8,4.84.84,2.79,8.12-1.73,6.04-2.37-.33-4.77-.15-7.09.45-2.64.68-6.64,3.05-8.02-.69Z"/>
    <path class="cls-2" d="M404.93,1435.83c-.11-1.7,1.23-3.19,2.92-3.31,1.7-.11,3.2,1.23,3.31,2.93.11,1.7-1.23,3.19-2.92,3.31-1.7.11-3.2-1.23-3.31-2.93Z"/>
    <path class="cls-2" d="M146.98,1444.91c-5.64-1.96,2.47-12.98,4.36-16.01,4.89-6.28,10.75-11.98,17.34-16.45,3.66-1.78,6.44,3.7,2.81,5.57-3.11,2.22-5.98,4.74-8.72,7.41-3.39,3.3-6.54,6.85-8.9,10.97-2.18,2.69-2.21,9.77-6.9,8.51Z"/>
    <path class="cls-2" d="M269.41,1400.08c-1.39-.93-1.83-2.94-.86-4.33,1.76-2.52,3.56-5.02,5.37-7.52,5.64-7.76,13.57-13.59,22.55-16.91,2.95-1.07,8.63-3.7,9.38,1.16.18,2.36-1.98,3.34-3.98,3.59-1.72.51-3.41,1.15-5.07,1.83-19.19,7.43-21.55,26.11-27.39,22.18Z"/>
    <path class="cls-2" d="M412.3,1446.8c-4.63-7.09,26.68-13.93,31.47-13.36,4.03-.27,4.36,6.12.32,6.23-6.74.11-13.36,1.97-19.65,4.26-3.63.67-9.3,6.85-12.14,2.87Z"/>
  </g>
  <g>
    <path class="cls-2" d="M1890.59,357.8c-64.28-1.98-128.58.05-192.85-1.57-86.09-4.28-172.34-4.77-258.4-8.99.26,0,.53,0,.79,0,.03-.01.05-.03.08-.04-4.13.58-7.75-3.49-6.98-7.41-6.58-3.34-1.6-18.68-.87-24.81,7.31-29.52,37.52-39.19,61.18-20.36,6.18-24.88,26.13-55.67,55.52-49.81,20.54,4.99,36.23,21.62,45.05,40.24,9.58-21.51,21.23-43.72,41.64-56.77,45.67-27.82,82.54-.03,94.22,47.17,16.61-36.92,48.97-77.77,94.1-71.06,25.39,3.83,49.12,18.35,63.76,39.48,16.09,22.94,23.21,51.26,24.95,78.95.8,16.06-.32,38.23-22.2,34.97ZM1810.84,343.68c28.81-.16,57.66,1.36,86.44.95,6.35-18.48.6-39.28-3.68-57.74-9.43-38.57-43.08-72.85-84.8-69.88-39.85,5.89-58.66,45.99-74.1,78.62-2.88,5.01-10.42,4.45-12.61-.87-2.02-4.68-2.75-9.83-4.27-14.69-2.83-9.63-6.31-19.1-11.27-27.85-14.46-25.79-45.16-27.63-67.36-10.53-17.55,13.46-26.82,34.27-35.58,53.96-1.75,5.61-6.79,12.94-13.34,8.73-5.76-5.12-6.85-13.55-11.12-19.81-8.04-13.5-21.22-26.36-37.59-27.63-14.7,1.16-25.43,14.89-30.69,27.65-1.95,4.77-3.72,9.6-5.08,14.57-1.17,4.57-1.85,11-7.53,11.94-4.8.83-8.43-2.93-11.89-5.65-3.24-2.48-6.91-4.34-10.61-6.01-23.07-8.13-33.09,15.72-32.86,34.96,53.26,3.23,106.68,3.09,159.99,5.03,69.29,3.42,138.6,5.39,207.97,4.25Z"/>
    <path class="cls-2" d="M1431.48,343.35c-2.22-3.17-.88-7.11-1.56-10.69.08-6.18,8.95-8.33,11.96-3.12.36.61.62,1.25.8,1.9.05.2.09.4.1.39.45,1.96.49,4.11.35,6.13.7,2.6-.32,5.54-2.61,7.11-2.92,2.01-6.98,1.21-9.04-1.71ZM1430.9,336.49c-.39-.68-.65-1.35-.81-2.07.01.08.02.16.03.24.06.21.12.41.17.61,0,0,0,0,0-.01,0,0,0,.01,0,.02,0,.02.01.04.02.06,0-.02,0-.04-.01-.05.1.24.21.49.32.73.09.16.19.32.28.47ZM1442.68,331.43c-.12-.5-.3-.98-.53-1.44.29.55.54,1.21.63,1.83-.03-.13-.07-.26-.1-.39Z"/>
    <path class="cls-2" d="M1646.97,260.79c-4.59-3.81,8.28-12.58,11.15-14.84,4.47-3.03,9.43-5.73,14.83-6.55,3.1-.83,5.92,2.44,3.69,5.11-.72.83-1.68,1.07-2.65,1.04-1.49.2-2.92.66-4.32,1.18-5.59,2.2-10.49,5.84-14.81,9.96-2.27,1.9-4.45,6.82-7.89,4.09ZM1674.14,245.54c-.49-.03-.97-.18-1.42-.43.28.21.61.3.95.39-.01,0-.02,0-.04,0,.11.01.21.03.32.04.07,0,.13,0,.2,0Z"/>
    <path class="cls-2" d="M1638.58,271.86c-.09-1.63,1.25-3.28,2.96-3.28s3.19,1.19,3.28,2.95c.09,1.63-1.25,3.28-2.96,3.28s-3.19-1.19-3.28-2.96Z"/>
    <path class="cls-2" d="M1525.21,286c-5.34-2.93,3.99-12.19,6.65-14.62,3.35-2.75,7.23-5.05,11.36-6.4,2.54-1.16,5.97.12,5.41,3.32-.3,1.5-1.64,2.44-3.08,2.51-1.6.42-3.09,1.14-4.54,1.93-4.46,2.32-8.2,5.81-10.72,10.17-.82,2.08-2.63,4.31-5.07,3.08Z"/>
    <path class="cls-2" d="M1517.8,294.71c-.09-1.63,1.25-3.28,2.96-3.28s3.19,1.19,3.28,2.95c.09,1.63-1.25,3.28-2.95,3.28s-3.19-1.19-3.28-2.96Z"/>
    <path class="cls-2" d="M1788.61,253.93c-1.27-1.13-1.39-3.13-.27-4.41,3.55-3.87,7.33-7.58,11.43-10.87,6.49-4.97,14.2-8.56,22.33-9.67,2.97-.63,8.01-.16,6.87,4.08-.58,1.69-2.36,2.42-3.88,1.97-1.87-.07-3.72.38-5.55.75-20.57,4.91-25.89,22.8-30.92,18.16Z"/>
    <path class="cls-2" d="M1779.42,269.1c-.09-1.63,1.25-3.28,2.96-3.28s3.19,1.19,3.28,2.96c.09,1.63-1.25,3.28-2.95,3.28s-3.19-1.19-3.28-2.96Z"/>
    <path class="cls-2" d="M1653.67,279.85c-3.96-3.45,2.2-7.38,4.18-10.17,7.17-7.72,15.34-14.88,24.93-19.38,3.45-1.6,6.23,3.37,3.01,5.46-3.17,1.58-6.3,3.16-9.09,5.37-7.01,5.15-12.78,10.62-18.13,17.22-1.01,1.71-3.14,2.76-4.9,1.5Z"/>
    <path class="cls-2" d="M1534.73,303.5c-4.28-2.8,1.19-8.23,2.69-11.34,4.64-6.69,10.29-12.96,17.32-17.17,1.54-.72,3.43-.02,4.15,1.52,1.19,2.51-1.18,4.04-3.04,5.17-5.72,4.21-10.49,9.61-14.29,15.59-1.8,2.45-2.7,8.06-6.82,6.23Z"/>
    <path class="cls-2" d="M1793.13,279.45c-1.42-.98-1.72-2.93-.78-4.35,3.4-5.08,7.46-9.65,11.87-13.89,6.71-6.44,14.18-12.32,22.86-15.86,2.81-.77,5.92-3.13,8.83-2.08,1.8.9,2.22,3.4.87,4.87-.65.81-1.76.99-2.69,1.28-3.41,1.09-6.69,2.5-9.83,4.2-8.84,5.02-16.84,12.56-23.27,20.22-2.22,2.22-3.88,7.96-7.85,5.6Z"/>
  </g>
  <g>
    <path class="cls-2" d="M1193.59,1859.39c1.74-27.68,8.86-56.01,24.95-78.95,14.64-21.13,38.37-35.66,63.76-39.48,45.14-6.71,77.49,34.14,94.1,71.06,11.68-47.2,48.55-74.99,94.22-47.17,20.41,13.05,32.06,35.25,41.64,56.77,8.82-18.62,24.52-35.25,45.05-40.24,29.39-5.86,49.33,24.93,55.52,49.81,23.67-18.83,53.88-9.16,61.18,20.36.73,6.13,5.71,21.47-.87,24.81.77,3.92-2.84,7.98-6.98,7.41l.08.04c.26,0,.53,0,.79,0-86.06,4.22-172.32,4.71-258.4,8.99-64.27,1.62-128.57-.41-192.85,1.57-21.89,3.26-23-18.9-22.2-34.97ZM1503.52,1875.98c53.32-1.93,106.74-1.79,159.99-5.03.22-19.24-9.8-43.1-32.86-34.96-3.71,1.67-7.37,3.53-10.61,6.01-3.45,2.72-7.09,6.48-11.89,5.65-5.68-.94-6.36-7.36-7.53-11.94-1.36-4.97-3.13-9.8-5.08-14.57-5.26-12.76-15.99-26.49-30.69-27.65-16.38,1.27-29.55,14.13-37.59,27.63-4.28,6.26-5.37,14.69-11.12,19.81-6.55,4.21-11.59-3.12-13.34-8.73-8.77-19.7-18.03-40.5-35.58-53.96-22.19-17.1-52.9-15.26-67.36,10.53-4.96,8.74-8.45,18.22-11.27,27.85-1.52,4.86-2.25,10.02-4.27,14.69-2.19,5.32-9.73,5.88-12.61.87-15.44-32.63-34.25-72.73-74.1-78.62-41.72-2.97-75.37,31.31-84.8,69.88-4.29,18.46-10.03,39.26-3.68,57.74,28.78.41,57.63-1.11,86.44-.95,69.37,1.14,138.68-.83,207.97-4.25Z"/>
    <path class="cls-2" d="M1665.87,1881.61c-2.29-1.57-3.31-4.51-2.61-7.11-.14-2.02-.1-4.17.35-6.13.02.01.06-.19.1-.39.19-.65.45-1.28.8-1.9,3.01-5.21,11.87-3.05,11.96,3.12-.68,3.58.66,7.52-1.56,10.69-2.06,2.91-6.11,3.72-9.04,1.71ZM1675.77,1872.57c.1-.25.21-.49.32-.73,0,.02-.01.03-.01.05,0-.02.01-.04.02-.06,0,0,0-.01,0-.02,0,0,0,0,0,.01.06-.2.12-.41.17-.61.01-.08.02-.16.03-.24-.16.72-.42,1.39-.81,2.07.09-.16.19-.32.28-.47ZM1663.61,1868.38c.1-.62.34-1.27.63-1.82-.24.46-.41.94-.53,1.44-.04.13-.07.26-.1.39Z"/>
    <path class="cls-2" d="M1451.53,1793.25c-4.33-4.12-9.22-7.75-14.81-9.96-1.4-.52-2.83-.99-4.32-1.18-.97.03-1.94-.21-2.65-1.04-2.23-2.67.59-5.94,3.69-5.11,5.4.83,10.36,3.52,14.83,6.55,2.87,2.26,15.74,11.03,11.15,14.84-3.44,2.73-5.62-2.2-7.89-4.09ZM1432.45,1782.09c.11-.01.21-.03.32-.04-.02,0-.03,0-.04,0,.34-.09.67-.18.95-.39-.45.25-.93.4-1.42.43.07,0,.13,0,.2,0Z"/>
    <path class="cls-2" d="M1464.53,1811.38c-1.7,0-3.04-1.65-2.95-3.28.09-1.77,1.58-2.96,3.28-2.96s3.04,1.65,2.96,3.28c-.09,1.77-1.58,2.96-3.28,2.96Z"/>
    <path class="cls-2" d="M1576.11,1819.47c-2.52-4.35-6.26-7.85-10.72-10.17-1.45-.79-2.94-1.51-4.55-1.93-1.44-.07-2.78-1.01-3.08-2.51-.56-3.2,2.86-4.48,5.41-3.32,4.13,1.35,8.01,3.65,11.36,6.4,2.66,2.43,12,11.69,6.65,14.62-2.44,1.23-4.25-1-5.07-3.08Z"/>
    <path class="cls-2" d="M1585.31,1834.22c-1.7,0-3.04-1.65-2.96-3.28.09-1.77,1.58-2.96,3.28-2.96s3.04,1.65,2.96,3.28c-.09,1.77-1.58,2.96-3.28,2.96Z"/>
    <path class="cls-2" d="M1286.86,1772.33c-1.83-.36-3.68-.82-5.55-.75-1.52.45-3.3-.29-3.88-1.97-1.15-4.24,3.89-4.71,6.87-4.08,8.13,1.11,15.84,4.71,22.33,9.67,4.1,3.3,7.87,7,11.43,10.87,1.13,1.28,1,3.28-.27,4.41-5.03,4.65-10.35-13.25-30.92-18.16Z"/>
    <path class="cls-2" d="M1323.7,1808.61c-1.7,0-3.04-1.65-2.96-3.28.09-1.77,1.58-2.95,3.28-2.95s3.04,1.65,2.95,3.28c-.09,1.77-1.58,2.96-3.28,2.96Z"/>
    <path class="cls-2" d="M1447.82,1814.9c-5.36-6.6-11.12-12.08-18.13-17.22-2.79-2.21-5.92-3.79-9.09-5.37-3.22-2.09-.44-7.06,3.01-5.46,9.59,4.5,17.76,11.65,24.93,19.38,1.98,2.79,8.14,6.73,4.18,10.17-1.76,1.26-3.89.21-4.9-1.5Z"/>
    <path class="cls-2" d="M1564.84,1833.83c-3.8-5.98-8.57-11.38-14.29-15.59-1.86-1.13-4.23-2.66-3.04-5.17.71-1.54,2.61-2.24,4.15-1.52,7.03,4.21,12.68,10.48,17.32,17.17,1.5,3.1,6.97,8.54,2.69,11.34-4.12,1.83-5.03-3.78-6.82-6.23Z"/>
    <path class="cls-2" d="M1305.41,1810.4c-6.42-7.66-14.42-15.19-23.27-20.22-3.14-1.7-6.43-3.11-9.83-4.2-.93-.29-2.04-.47-2.69-1.28-1.35-1.47-.93-3.97.87-4.87,2.91-1.05,6.02,1.31,8.83,2.08,8.67,3.54,16.14,9.42,22.86,15.86,4.41,4.24,8.47,8.8,11.87,13.89.94,1.41.64,3.36-.78,4.34-3.97,2.36-5.63-3.38-7.85-5.6Z"/>
  </g>
</svg>