<svg xmlns="http://www.w3.org/2000/svg" viewBox="0 0 500 500">
  <g>
    <!-- Camada de Fundo (Escura) -->
    <path d="M 283.5 487.48 C 273.76 488.97 242.52 490.21 234.5 489.42 C 199.55 486.01 173.34 478.83 145.5 465.04 C 73.41 429.34 25.59 363.84 13.34 284 C 10.87 267.89 10.85 231.96 13.31 216 C 16.95 192.34 24.47 167.37 33.81 147.97 C 69.03 74.76 135.33 25.64 215.5 13.37 C 232.04 10.84 268.48 10.81 285.5 13.32 C 371.97 26.06 444.4 84.85 474.82 167 C 504.03 245.9 489.74 333.88 436.95 400 C 429.08 409.86 408.63 430.17 398.5 438.19 C 365.51 464.31 326.92 480.84 283.5 487.48 Z" fill="#1B0707"/>
    
    <!-- Camada Vermelha -->
    <path d="M 224 225.1 C 209.32 221.85 196.69 215.91 189.29 208.78 C 179.87 199.7 169.39 164.57 171.46 149 C 174.41 126.81 183.29 113.95 213.43 88.26 C 229.33 74.7 234.94 71.75 245.87 71.18 C 256.66 70.61 263.43 72.15 274.01 77.58 C 289.10 85.33 303.44 98.39 315.65 115.5 C 327.23 131.73 328.46 136.35 327.74 161.25 C 327.25 177.88 326.04 184.66 323.36 185.69 L 289.6 206.48 C 287.95 213.01 276.09 220.94 262.5 224.57 C 253.02 227.11 234.21 227.37 224 225.1 Z" fill="#933628"/>
    
    <!-- Camada Dourada -->
    <path d="M 227.33 205.14 C 208.85 198.23 191.06 173.18 191.01 153.97 C 202.54 125.37 232.48 101.98 253.94 95.61 C 265.29 92.24 278.76 94.29 288.23 100.83 C 310.59 116.26 317.52 144.38 304.45 166.67 C 294.08 130.78 262.3 110 212.91 142.7 C 208.75 151.41 208.32 160.95 211.77 168.04 C 216.12 177 225.09 184.01 235.5 186.59 C 242.34 188.29 246.74 188.26 254.38 186.49 C 241.5 206.6 231.5 206.7 227.33 205.14 Z" fill="#DAAA3C"/>
    
    <!-- Camada Bege (Central) -->
    <path d="M 235.5 186.59 C 225.09 184.01 216.12 177 211.77 168.04 C 208.75 151.41 208.32 160.95 212.91 142.7 C 221.23 125.26 244.28 110 262.3 110 C 275.31 110 288.1 118.36 294.08 130.78 C 297.54 137.96 297.4 148.69 293.75 156 C 292.24 159.02 290.2 162.52 289.23 163.78 L 287.45 166.05 L 270.64 162 C 252.92 157.74 247.74 156.01 246.46 153.94 C 233.06 171.05 238.03 173.52 251.98 178.1 C 263.77 182.81 262.63 184.58 254.38 186.49 C 246.74 188.26 242.34 188.29 235.5 186.59 Z" fill="#FDF7F1"/>
  </g>
</svg>
